<?xml version="1.0" encoding="utf-8" standalone="no"?>
<!DOCTYPE svg PUBLIC "-//W3C//DTD SVG 1.1//EN"
  "http://www.w3.org/Graphics/SVG/1.1/DTD/svg11.dtd">
<!-- Created with matplotlib (http://matplotlib.org/) -->
<svg height="380pt" version="1.1" viewBox="0 0 1058 380" width="1058pt" xmlns="http://www.w3.org/2000/svg" xmlns:xlink="http://www.w3.org/1999/xlink">
 <defs>
  <style type="text/css">
*{stroke-linecap:butt;stroke-linejoin:round;}
  </style>
 </defs>
 <g id="figure_1">
  <g id="patch_1">
   <path d="M 0 380.89625 
L 1058.88125 380.89625 
L 1058.88125 0 
L 0 0 
z
" style="fill:none;"/>
  </g>
  <g id="axes_1">
   <g id="patch_2">
    <path d="M 43.78125 343.34 
L 339.193015 343.34 
L 339.193015 10.7 
L 43.78125 10.7 
z
" style="fill:#ffffff;"/>
   </g>
   <g id="patch_3">
    <path clip-path="url(#pc4b801ca91)" d="M 54.34269 343.34 
L 111.142734 343.34 
L 111.142734 262.486995 
L 54.34269 262.486995 
z
" style="fill:#1f77b4;stroke:#000000;stroke-linejoin:miter;"/>
   </g>
   <g id="patch_4">
    <path clip-path="url(#pc4b801ca91)" d="M 115.681868 343.34 
L 148.562913 343.34 
L 148.562913 195.529542 
L 115.681868 195.529542 
z
" style="fill:#1f77b4;stroke:#000000;stroke-linejoin:miter;"/>
   </g>
   <g id="patch_5">
    <path clip-path="url(#pc4b801ca91)" d="M 151.562988 343.34 
L 174.78058 343.34 
L 174.78058 142.438348 
L 151.562988 142.438348 
z
" style="fill:#1f77b4;stroke:#000000;stroke-linejoin:miter;"/>
   </g>
   <g id="patch_6">
    <path clip-path="url(#pc4b801ca91)" d="M 177.021047 343.34 
L 209.902092 343.34 
L 209.902092 95.897022 
L 177.021047 95.897022 
z
" style="fill:#1f77b4;stroke:#000000;stroke-linejoin:miter;"/>
   </g>
   <g id="patch_7">
    <path clip-path="url(#pc4b801ca91)" d="M 212.902167 343.34 
L 236.119759 343.34 
L 236.119759 55.65351 
L 212.902167 55.65351 
z
" style="fill:#1f77b4;stroke:#000000;stroke-linejoin:miter;"/>
   </g>
   <g id="patch_8">
    <path clip-path="url(#pc4b801ca91)" d="M 238.360226 343.34 
L 247.794519 343.34 
L 247.794519 56.077291 
L 238.360226 56.077291 
z
" style="fill:#1f77b4;stroke:#000000;stroke-linejoin:miter;"/>
   </g>
   <g id="patch_9">
    <path clip-path="url(#pc4b801ca91)" d="M 248.783286 343.34 
L 272.000878 343.34 
L 272.000878 57.890634 
L 248.783286 57.890634 
z
" style="fill:#1f77b4;stroke:#000000;stroke-linejoin:miter;"/>
   </g>
   <g id="patch_10">
    <path clip-path="url(#pc4b801ca91)" d="M 274.241345 343.34 
L 297.458938 343.34 
L 297.458938 57.106964 
L 274.241345 57.106964 
z
" style="fill:#1f77b4;stroke:#000000;stroke-linejoin:miter;"/>
   </g>
   <g id="patch_11">
    <path clip-path="url(#pc4b801ca91)" d="M 299.699405 343.34 
L 332.580449 343.34 
L 332.580449 54.574065 
L 299.699405 54.574065 
z
" style="fill:#1f77b4;stroke:#000000;stroke-linejoin:miter;"/>
   </g>
   <g id="patch_12">
    <path clip-path="url(#pc4b801ca91)" d="M 248.783286 343.34 
L 272.000878 343.34 
L 272.000878 57.890634 
L 248.783286 57.890634 
z
" style="fill:url(#hbe4e6c398a);"/>
   </g>
   <g id="patch_13">
    <path clip-path="url(#pc4b801ca91)" d="M 54.34269 262.486995 
L 111.142734 262.486995 
L 111.142734 260.506719 
L 54.34269 260.506719 
z
" style="fill:#ff7f0e;stroke:#000000;stroke-linejoin:miter;"/>
   </g>
   <g id="patch_14">
    <path clip-path="url(#pc4b801ca91)" d="M 115.681868 195.529542 
L 148.562913 195.529542 
L 148.562913 192.298418 
L 115.681868 192.298418 
z
" style="fill:#ff7f0e;stroke:#000000;stroke-linejoin:miter;"/>
   </g>
   <g id="patch_15">
    <path clip-path="url(#pc4b801ca91)" d="M 151.562988 142.438348 
L 174.78058 142.438348 
L 174.78058 138.537506 
L 151.562988 138.537506 
z
" style="fill:#ff7f0e;stroke:#000000;stroke-linejoin:miter;"/>
   </g>
   <g id="patch_16">
    <path clip-path="url(#pc4b801ca91)" d="M 177.021047 95.897022 
L 209.902092 95.897022 
L 209.902092 91.421309 
L 177.021047 91.421309 
z
" style="fill:#ff7f0e;stroke:#000000;stroke-linejoin:miter;"/>
   </g>
   <g id="patch_17">
    <path clip-path="url(#pc4b801ca91)" d="M 212.902167 55.65351 
L 236.119759 55.65351 
L 236.119759 50.749578 
L 212.902167 50.749578 
z
" style="fill:#ff7f0e;stroke:#000000;stroke-linejoin:miter;"/>
   </g>
   <g id="patch_18">
    <path clip-path="url(#pc4b801ca91)" d="M 238.360226 56.077291 
L 247.794519 56.077291 
L 247.794519 51.335561 
L 238.360226 51.335561 
z
" style="fill:#ff7f0e;stroke:#000000;stroke-linejoin:miter;"/>
   </g>
   <g id="patch_19">
    <path clip-path="url(#pc4b801ca91)" d="M 248.783286 57.890634 
L 272.000878 57.890634 
L 272.000878 52.801985 
L 248.783286 52.801985 
z
" style="fill:#ff7f0e;stroke:#000000;stroke-linejoin:miter;"/>
   </g>
   <g id="patch_20">
    <path clip-path="url(#pc4b801ca91)" d="M 274.241345 57.106964 
L 297.458938 57.106964 
L 297.458938 52.420584 
L 274.241345 52.420584 
z
" style="fill:#ff7f0e;stroke:#000000;stroke-linejoin:miter;"/>
   </g>
   <g id="patch_21">
    <path clip-path="url(#pc4b801ca91)" d="M 299.699405 54.574065 
L 332.580449 54.574065 
L 332.580449 49.896759 
L 299.699405 49.896759 
z
" style="fill:#ff7f0e;stroke:#000000;stroke-linejoin:miter;"/>
   </g>
   <g id="patch_22">
    <path clip-path="url(#pc4b801ca91)" d="M 248.783286 57.890634 
L 272.000878 57.890634 
L 272.000878 52.801985 
L 248.783286 52.801985 
z
" style="fill:url(#hbe4e6c398a);"/>
   </g>
   <g id="patch_23">
    <path clip-path="url(#pc4b801ca91)" d="M 54.34269 260.506719 
L 111.142734 260.506719 
L 111.142734 259.632322 
L 54.34269 259.632322 
z
" style="fill:#2ca02c;stroke:#000000;stroke-linejoin:miter;"/>
   </g>
   <g id="patch_24">
    <path clip-path="url(#pc4b801ca91)" d="M 115.681868 192.298418 
L 148.562913 192.298418 
L 148.562913 190.693253 
L 115.681868 190.693253 
z
" style="fill:#2ca02c;stroke:#000000;stroke-linejoin:miter;"/>
   </g>
   <g id="patch_25">
    <path clip-path="url(#pc4b801ca91)" d="M 151.562988 138.537506 
L 174.78058 138.537506 
L 174.78058 136.38736 
L 151.562988 136.38736 
z
" style="fill:#2ca02c;stroke:#000000;stroke-linejoin:miter;"/>
   </g>
   <g id="patch_26">
    <path clip-path="url(#pc4b801ca91)" d="M 177.021047 91.421309 
L 209.902092 91.421309 
L 209.902092 88.729633 
L 177.021047 88.729633 
z
" style="fill:#2ca02c;stroke:#000000;stroke-linejoin:miter;"/>
   </g>
   <g id="patch_27">
    <path clip-path="url(#pc4b801ca91)" d="M 212.902167 50.749578 
L 236.119759 50.749578 
L 236.119759 47.68556 
L 212.902167 47.68556 
z
" style="fill:#2ca02c;stroke:#000000;stroke-linejoin:miter;"/>
   </g>
   <g id="patch_28">
    <path clip-path="url(#pc4b801ca91)" d="M 238.360226 51.335561 
L 247.794519 51.335561 
L 247.794519 48.255526 
L 238.360226 48.255526 
z
" style="fill:#2ca02c;stroke:#000000;stroke-linejoin:miter;"/>
   </g>
   <g id="patch_29">
    <path clip-path="url(#pc4b801ca91)" d="M 248.783286 52.801985 
L 272.000878 52.801985 
L 272.000878 49.575995 
L 248.783286 49.575995 
z
" style="fill:#2ca02c;stroke:#000000;stroke-linejoin:miter;"/>
   </g>
   <g id="patch_30">
    <path clip-path="url(#pc4b801ca91)" d="M 274.241345 52.420584 
L 297.458938 52.420584 
L 297.458938 49.343045 
L 274.241345 49.343045 
z
" style="fill:#2ca02c;stroke:#000000;stroke-linejoin:miter;"/>
   </g>
   <g id="patch_31">
    <path clip-path="url(#pc4b801ca91)" d="M 299.699405 49.896759 
L 332.580449 49.896759 
L 332.580449 46.818814 
L 299.699405 46.818814 
z
" style="fill:#2ca02c;stroke:#000000;stroke-linejoin:miter;"/>
   </g>
   <g id="patch_32">
    <path clip-path="url(#pc4b801ca91)" d="M 248.783286 52.801985 
L 272.000878 52.801985 
L 272.000878 49.575995 
L 248.783286 49.575995 
z
" style="fill:url(#hbe4e6c398a);"/>
   </g>
   <g id="patch_33">
    <path clip-path="url(#pc4b801ca91)" d="M 54.34269 259.632322 
L 111.142734 259.632322 
L 111.142734 251.796663 
L 54.34269 251.796663 
z
" style="fill:#d62728;stroke:#000000;stroke-linejoin:miter;"/>
   </g>
   <g id="patch_34">
    <path clip-path="url(#pc4b801ca91)" d="M 115.681868 190.693253 
L 148.562913 190.693253 
L 148.562913 177.922014 
L 115.681868 177.922014 
z
" style="fill:#d62728;stroke:#000000;stroke-linejoin:miter;"/>
   </g>
   <g id="patch_35">
    <path clip-path="url(#pc4b801ca91)" d="M 151.562988 136.38736 
L 174.78058 136.38736 
L 174.78058 117.725848 
L 151.562988 117.725848 
z
" style="fill:#d62728;stroke:#000000;stroke-linejoin:miter;"/>
   </g>
   <g id="patch_36">
    <path clip-path="url(#pc4b801ca91)" d="M 177.021047 88.729633 
L 209.902092 88.729633 
L 209.902092 61.793312 
L 177.021047 61.793312 
z
" style="fill:#d62728;stroke:#000000;stroke-linejoin:miter;"/>
   </g>
   <g id="patch_37">
    <path clip-path="url(#pc4b801ca91)" d="M 212.902167 47.68556 
L 236.119759 47.68556 
L 236.119759 19.817362 
L 212.902167 19.817362 
z
" style="fill:#d62728;stroke:#000000;stroke-linejoin:miter;"/>
   </g>
   <g id="patch_38">
    <path clip-path="url(#pc4b801ca91)" d="M 238.360226 48.255526 
L 247.794519 48.255526 
L 247.794519 19.948409 
L 238.360226 19.948409 
z
" style="fill:#d62728;stroke:#000000;stroke-linejoin:miter;"/>
   </g>
   <g id="patch_39">
    <path clip-path="url(#pc4b801ca91)" d="M 248.783286 49.575995 
L 272.000878 49.575995 
L 272.000878 20.059097 
L 248.783286 20.059097 
z
" style="fill:#d62728;stroke:#000000;stroke-linejoin:miter;"/>
   </g>
   <g id="patch_40">
    <path clip-path="url(#pc4b801ca91)" d="M 274.241345 49.343045 
L 297.458938 49.343045 
L 297.458938 20.317642 
L 274.241345 20.317642 
z
" style="fill:#d62728;stroke:#000000;stroke-linejoin:miter;"/>
   </g>
   <g id="patch_41">
    <path clip-path="url(#pc4b801ca91)" d="M 299.699405 46.818814 
L 332.580449 46.818814 
L 332.580449 20.851911 
L 299.699405 20.851911 
z
" style="fill:#d62728;stroke:#000000;stroke-linejoin:miter;"/>
   </g>
   <g id="patch_42">
    <path clip-path="url(#pc4b801ca91)" d="M 248.783286 49.575995 
L 272.000878 49.575995 
L 272.000878 20.059097 
L 248.783286 20.059097 
z
" style="fill:url(#hbe4e6c398a);"/>
   </g>
   <g id="patch_43">
    <path clip-path="url(#pc4b801ca91)" d="M 54.34269 251.796663 
L 111.142734 251.796663 
L 111.142734 18.813171 
L 54.34269 18.813171 
z
" style="fill:#9467bd;stroke:#000000;stroke-linejoin:miter;"/>
   </g>
   <g id="patch_44">
    <path clip-path="url(#pc4b801ca91)" d="M 115.681868 177.922014 
L 148.562913 177.922014 
L 148.562913 18.813171 
L 115.681868 18.813171 
z
" style="fill:#9467bd;stroke:#000000;stroke-linejoin:miter;"/>
   </g>
   <g id="patch_45">
    <path clip-path="url(#pc4b801ca91)" d="M 151.562988 117.725848 
L 174.78058 117.725848 
L 174.78058 18.813171 
L 151.562988 18.813171 
z
" style="fill:#9467bd;stroke:#000000;stroke-linejoin:miter;"/>
   </g>
   <g id="patch_46">
    <path clip-path="url(#pc4b801ca91)" d="M 177.021047 61.793312 
L 209.902092 61.793312 
L 209.902092 18.813171 
L 177.021047 18.813171 
z
" style="fill:#9467bd;stroke:#000000;stroke-linejoin:miter;"/>
   </g>
   <g id="patch_47">
    <path clip-path="url(#pc4b801ca91)" d="M 212.902167 19.817362 
L 236.119759 19.817362 
L 236.119759 18.813171 
L 212.902167 18.813171 
z
" style="fill:#9467bd;stroke:#000000;stroke-linejoin:miter;"/>
   </g>
   <g id="patch_48">
    <path clip-path="url(#pc4b801ca91)" d="M 238.360226 19.948409 
L 247.794519 19.948409 
L 247.794519 18.813171 
L 238.360226 18.813171 
z
" style="fill:#9467bd;stroke:#000000;stroke-linejoin:miter;"/>
   </g>
   <g id="patch_49">
    <path clip-path="url(#pc4b801ca91)" d="M 248.783286 20.059097 
L 272.000878 20.059097 
L 272.000878 18.813171 
L 248.783286 18.813171 
z
" style="fill:#9467bd;stroke:#000000;stroke-linejoin:miter;"/>
   </g>
   <g id="patch_50">
    <path clip-path="url(#pc4b801ca91)" d="M 274.241345 20.317642 
L 297.458938 20.317642 
L 297.458938 18.813171 
L 274.241345 18.813171 
z
" style="fill:#9467bd;stroke:#000000;stroke-linejoin:miter;"/>
   </g>
   <g id="patch_51">
    <path clip-path="url(#pc4b801ca91)" d="M 299.699405 20.851911 
L 332.580449 20.851911 
L 332.580449 18.813171 
L 299.699405 18.813171 
z
" style="fill:#9467bd;stroke:#000000;stroke-linejoin:miter;"/>
   </g>
   <g id="patch_52">
    <path clip-path="url(#pc4b801ca91)" d="M 248.783286 20.059097 
L 272.000878 20.059097 
L 272.000878 18.813171 
L 248.783286 18.813171 
z
" style="fill:url(#hbe4e6c398a);"/>
   </g>
   <g id="matplotlib.axis_1">
    <g id="xtick_1">
     <g id="line2d_1">
      <defs>
       <path d="M 0 0 
L 0 3.5 
" id="m51ea15c100" style="stroke:#000000;stroke-width:0.8;"/>
      </defs>
      <g>
       <use style="stroke:#000000;stroke-width:0.8;" x="87.223734" xlink:href="#m51ea15c100" y="343.34"/>
      </g>
     </g>
     <g id="text_1">
      <!-- 48 -->
      <defs>
       <path d="M 37.796875 64.3125 
L 12.890625 25.390625 
L 37.796875 25.390625 
z
M 35.203125 72.90625 
L 47.609375 72.90625 
L 47.609375 25.390625 
L 58.015625 25.390625 
L 58.015625 17.1875 
L 47.609375 17.1875 
L 47.609375 0 
L 37.796875 0 
L 37.796875 17.1875 
L 4.890625 17.1875 
L 4.890625 26.703125 
z
" id="DejaVuSans-34"/>
       <path d="M 31.78125 34.625 
Q 24.75 34.625 20.71875 30.859375 
Q 16.703125 27.09375 16.703125 20.515625 
Q 16.703125 13.921875 20.71875 10.15625 
Q 24.75 6.390625 31.78125 6.390625 
Q 38.8125 6.390625 42.859375 10.171875 
Q 46.921875 13.96875 46.921875 20.515625 
Q 46.921875 27.09375 42.890625 30.859375 
Q 38.875 34.625 31.78125 34.625 
M 21.921875 38.8125 
Q 15.578125 40.375 12.03125 44.71875 
Q 8.5 49.078125 8.5 55.328125 
Q 8.5 64.0625 14.71875 69.140625 
Q 20.953125 74.21875 31.78125 74.21875 
Q 42.671875 74.21875 48.875 69.140625 
Q 55.078125 64.0625 55.078125 55.328125 
Q 55.078125 49.078125 51.53125 44.71875 
Q 48 40.375 41.703125 38.8125 
Q 48.828125 37.15625 52.796875 32.3125 
Q 56.78125 27.484375 56.78125 20.515625 
Q 56.78125 9.90625 50.3125 4.234375 
Q 43.84375 -1.421875 31.78125 -1.421875 
Q 19.734375 -1.421875 13.25 4.234375 
Q 6.78125 9.90625 6.78125 20.515625 
Q 6.78125 27.484375 10.78125 32.3125 
Q 14.796875 37.15625 21.921875 38.8125 
M 18.3125 54.390625 
Q 18.3125 48.734375 21.84375 45.5625 
Q 25.390625 42.390625 31.78125 42.390625 
Q 38.140625 42.390625 41.71875 45.5625 
Q 45.3125 48.734375 45.3125 54.390625 
Q 45.3125 60.0625 41.71875 63.234375 
Q 38.140625 66.40625 31.78125 66.40625 
Q 25.390625 66.40625 21.84375 63.234375 
Q 18.3125 60.0625 18.3125 54.390625 
" id="DejaVuSans-38"/>
      </defs>
      <g style="fill:#ffffff;" transform="translate(80.861234 357.938437)scale(0.1 -0.1)">
       <use xlink:href="#DejaVuSans-34"/>
       <use x="63.623047" xlink:href="#DejaVuSans-38"/>
      </g>
     </g>
    </g>
    <g id="xtick_2">
     <g id="line2d_2">
      <g>
       <use style="stroke:#000000;stroke-width:0.8;" x="133.64086" xlink:href="#m51ea15c100" y="343.34"/>
      </g>
     </g>
     <g id="text_2">
      <!-- 96 -->
      <defs>
       <path d="M 10.984375 1.515625 
L 10.984375 10.5 
Q 14.703125 8.734375 18.5 7.8125 
Q 22.3125 6.890625 25.984375 6.890625 
Q 35.75 6.890625 40.890625 13.453125 
Q 46.046875 20.015625 46.78125 33.40625 
Q 43.953125 29.203125 39.59375 26.953125 
Q 35.25 24.703125 29.984375 24.703125 
Q 19.046875 24.703125 12.671875 31.3125 
Q 6.296875 37.9375 6.296875 49.421875 
Q 6.296875 60.640625 12.9375 67.421875 
Q 19.578125 74.21875 30.609375 74.21875 
Q 43.265625 74.21875 49.921875 64.515625 
Q 56.59375 54.828125 56.59375 36.375 
Q 56.59375 19.140625 48.40625 8.859375 
Q 40.234375 -1.421875 26.421875 -1.421875 
Q 22.703125 -1.421875 18.890625 -0.6875 
Q 15.09375 0.046875 10.984375 1.515625 
M 30.609375 32.421875 
Q 37.25 32.421875 41.125 36.953125 
Q 45.015625 41.5 45.015625 49.421875 
Q 45.015625 57.28125 41.125 61.84375 
Q 37.25 66.40625 30.609375 66.40625 
Q 23.96875 66.40625 20.09375 61.84375 
Q 16.21875 57.28125 16.21875 49.421875 
Q 16.21875 41.5 20.09375 36.953125 
Q 23.96875 32.421875 30.609375 32.421875 
" id="DejaVuSans-39"/>
       <path d="M 33.015625 40.375 
Q 26.375 40.375 22.484375 35.828125 
Q 18.609375 31.296875 18.609375 23.390625 
Q 18.609375 15.53125 22.484375 10.953125 
Q 26.375 6.390625 33.015625 6.390625 
Q 39.65625 6.390625 43.53125 10.953125 
Q 47.40625 15.53125 47.40625 23.390625 
Q 47.40625 31.296875 43.53125 35.828125 
Q 39.65625 40.375 33.015625 40.375 
M 52.59375 71.296875 
L 52.59375 62.3125 
Q 48.875 64.0625 45.09375 64.984375 
Q 41.3125 65.921875 37.59375 65.921875 
Q 27.828125 65.921875 22.671875 59.328125 
Q 17.53125 52.734375 16.796875 39.40625 
Q 19.671875 43.65625 24.015625 45.921875 
Q 28.375 48.1875 33.59375 48.1875 
Q 44.578125 48.1875 50.953125 41.515625 
Q 57.328125 34.859375 57.328125 23.390625 
Q 57.328125 12.15625 50.6875 5.359375 
Q 44.046875 -1.421875 33.015625 -1.421875 
Q 20.359375 -1.421875 13.671875 8.265625 
Q 6.984375 17.96875 6.984375 36.375 
Q 6.984375 53.65625 15.1875 63.9375 
Q 23.390625 74.21875 37.203125 74.21875 
Q 40.921875 74.21875 44.703125 73.484375 
Q 48.484375 72.75 52.59375 71.296875 
" id="DejaVuSans-36"/>
      </defs>
      <g style="fill:#ffffff;" transform="translate(127.27836 357.938437)scale(0.1 -0.1)">
       <use xlink:href="#DejaVuSans-39"/>
       <use x="63.623047" xlink:href="#DejaVuSans-36"/>
      </g>
     </g>
    </g>
    <g id="xtick_3">
     <g id="line2d_3">
      <g>
       <use style="stroke:#000000;stroke-width:0.8;" x="163.931043" xlink:href="#m51ea15c100" y="343.34"/>
      </g>
     </g>
     <g id="text_3">
      <!-- 144 -->
      <defs>
       <path d="M 12.40625 8.296875 
L 28.515625 8.296875 
L 28.515625 63.921875 
L 10.984375 60.40625 
L 10.984375 69.390625 
L 28.421875 72.90625 
L 38.28125 72.90625 
L 38.28125 8.296875 
L 54.390625 8.296875 
L 54.390625 0 
L 12.40625 0 
z
" id="DejaVuSans-31"/>
      </defs>
      <g style="fill:#ffffff;" transform="translate(154.387293 357.938437)scale(0.1 -0.1)">
       <use xlink:href="#DejaVuSans-31"/>
       <use x="63.623047" xlink:href="#DejaVuSans-34"/>
       <use x="127.246094" xlink:href="#DejaVuSans-34"/>
      </g>
     </g>
    </g>
    <g id="xtick_4">
     <g id="line2d_4">
      <g>
       <use style="stroke:#000000;stroke-width:0.8;" x="194.980039" xlink:href="#m51ea15c100" y="343.34"/>
      </g>
     </g>
     <g id="text_4">
      <!-- 192 -->
      <defs>
       <path d="M 19.1875 8.296875 
L 53.609375 8.296875 
L 53.609375 0 
L 7.328125 0 
L 7.328125 8.296875 
Q 12.9375 14.109375 22.625 23.890625 
Q 32.328125 33.6875 34.8125 36.53125 
Q 39.546875 41.84375 41.421875 45.53125 
Q 43.3125 49.21875 43.3125 52.78125 
Q 43.3125 58.59375 39.234375 62.25 
Q 35.15625 65.921875 28.609375 65.921875 
Q 23.96875 65.921875 18.8125 64.3125 
Q 13.671875 62.703125 7.8125 59.421875 
L 7.8125 69.390625 
Q 13.765625 71.78125 18.9375 73 
Q 24.125 74.21875 28.421875 74.21875 
Q 39.75 74.21875 46.484375 68.546875 
Q 53.21875 62.890625 53.21875 53.421875 
Q 53.21875 48.921875 51.53125 44.890625 
Q 49.859375 40.875 45.40625 35.40625 
Q 44.1875 33.984375 37.640625 27.21875 
Q 31.109375 20.453125 19.1875 8.296875 
" id="DejaVuSans-32"/>
      </defs>
      <g style="fill:#ffffff;" transform="translate(185.436289 357.938437)scale(0.1 -0.1)">
       <use xlink:href="#DejaVuSans-31"/>
       <use x="63.623047" xlink:href="#DejaVuSans-39"/>
       <use x="127.246094" xlink:href="#DejaVuSans-32"/>
      </g>
     </g>
    </g>
    <g id="xtick_5">
     <g id="line2d_5">
      <g>
       <use style="stroke:#000000;stroke-width:0.8;" x="225.270222" xlink:href="#m51ea15c100" y="343.34"/>
      </g>
     </g>
     <g id="text_5">
      <!-- 288 -->
      <g style="fill:#ffffff;" transform="translate(215.726472 357.938437)scale(0.1 -0.1)">
       <use xlink:href="#DejaVuSans-32"/>
       <use x="63.623047" xlink:href="#DejaVuSans-38"/>
       <use x="127.246094" xlink:href="#DejaVuSans-38"/>
      </g>
     </g>
    </g>
    <g id="xtick_6">
     <g id="line2d_6">
      <g>
       <use style="stroke:#000000;stroke-width:0.8;" x="243.203036" xlink:href="#m51ea15c100" y="343.34"/>
      </g>
     </g>
     <g id="text_6">
      <!-- 384 -->
      <defs>
       <path d="M 40.578125 39.3125 
Q 47.65625 37.796875 51.625 33 
Q 55.609375 28.21875 55.609375 21.1875 
Q 55.609375 10.40625 48.1875 4.484375 
Q 40.765625 -1.421875 27.09375 -1.421875 
Q 22.515625 -1.421875 17.65625 -0.515625 
Q 12.796875 0.390625 7.625 2.203125 
L 7.625 11.71875 
Q 11.71875 9.328125 16.59375 8.109375 
Q 21.484375 6.890625 26.8125 6.890625 
Q 36.078125 6.890625 40.9375 10.546875 
Q 45.796875 14.203125 45.796875 21.1875 
Q 45.796875 27.640625 41.28125 31.265625 
Q 36.765625 34.90625 28.71875 34.90625 
L 20.21875 34.90625 
L 20.21875 43.015625 
L 29.109375 43.015625 
Q 36.375 43.015625 40.234375 45.921875 
Q 44.09375 48.828125 44.09375 54.296875 
Q 44.09375 59.90625 40.109375 62.90625 
Q 36.140625 65.921875 28.71875 65.921875 
Q 24.65625 65.921875 20.015625 65.03125 
Q 15.375 64.15625 9.8125 62.3125 
L 9.8125 71.09375 
Q 15.4375 72.65625 20.34375 73.4375 
Q 25.25 74.21875 29.59375 74.21875 
Q 40.828125 74.21875 47.359375 69.109375 
Q 53.90625 64.015625 53.90625 55.328125 
Q 53.90625 49.265625 50.4375 45.09375 
Q 46.96875 40.921875 40.578125 39.3125 
" id="DejaVuSans-33"/>
      </defs>
      <g style="fill:#ffffff;" transform="translate(233.659286 357.938437)scale(0.1 -0.1)">
       <use xlink:href="#DejaVuSans-33"/>
       <use x="63.623047" xlink:href="#DejaVuSans-38"/>
       <use x="127.246094" xlink:href="#DejaVuSans-34"/>
      </g>
     </g>
    </g>
    <g id="xtick_7">
     <g id="line2d_7">
      <g>
       <use style="stroke:#000000;stroke-width:0.8;" x="261.151341" xlink:href="#m51ea15c100" y="343.34"/>
      </g>
     </g>
     <g id="text_7">
      <!-- 432 -->
      <g style="fill:#ffffff;" transform="translate(251.607591 357.938437)scale(0.1 -0.1)">
       <use xlink:href="#DejaVuSans-34"/>
       <use x="63.623047" xlink:href="#DejaVuSans-33"/>
       <use x="127.246094" xlink:href="#DejaVuSans-32"/>
      </g>
     </g>
    </g>
    <g id="xtick_8">
     <g id="line2d_8">
      <g>
       <use style="stroke:#000000;stroke-width:0.8;" x="286.609401" xlink:href="#m51ea15c100" y="343.34"/>
      </g>
     </g>
     <g id="text_8">
      <!-- 576 -->
      <defs>
       <path d="M 10.796875 72.90625 
L 49.515625 72.90625 
L 49.515625 64.59375 
L 19.828125 64.59375 
L 19.828125 46.734375 
Q 21.96875 47.46875 24.109375 47.828125 
Q 26.265625 48.1875 28.421875 48.1875 
Q 40.625 48.1875 47.75 41.5 
Q 54.890625 34.8125 54.890625 23.390625 
Q 54.890625 11.625 47.5625 5.09375 
Q 40.234375 -1.421875 26.90625 -1.421875 
Q 22.3125 -1.421875 17.546875 -0.640625 
Q 12.796875 0.140625 7.71875 1.703125 
L 7.71875 11.625 
Q 12.109375 9.234375 16.796875 8.0625 
Q 21.484375 6.890625 26.703125 6.890625 
Q 35.15625 6.890625 40.078125 11.328125 
Q 45.015625 15.765625 45.015625 23.390625 
Q 45.015625 31 40.078125 35.4375 
Q 35.15625 39.890625 26.703125 39.890625 
Q 22.75 39.890625 18.8125 39.015625 
Q 14.890625 38.140625 10.796875 36.28125 
z
" id="DejaVuSans-35"/>
       <path d="M 8.203125 72.90625 
L 55.078125 72.90625 
L 55.078125 68.703125 
L 28.609375 0 
L 18.3125 0 
L 43.21875 64.59375 
L 8.203125 64.59375 
z
" id="DejaVuSans-37"/>
      </defs>
      <g style="fill:#ffffff;" transform="translate(277.065651 357.938437)scale(0.1 -0.1)">
       <use xlink:href="#DejaVuSans-35"/>
       <use x="63.623047" xlink:href="#DejaVuSans-37"/>
       <use x="127.246094" xlink:href="#DejaVuSans-36"/>
      </g>
     </g>
    </g>
    <g id="xtick_9">
     <g id="line2d_9">
      <g>
       <use style="stroke:#000000;stroke-width:0.8;" x="317.658397" xlink:href="#m51ea15c100" y="343.34"/>
      </g>
     </g>
     <g id="text_9">
      <!-- 768 -->
      <g style="fill:#ffffff;" transform="translate(308.114647 357.938437)scale(0.1 -0.1)">
       <use xlink:href="#DejaVuSans-37"/>
       <use x="63.623047" xlink:href="#DejaVuSans-36"/>
       <use x="127.246094" xlink:href="#DejaVuSans-38"/>
      </g>
     </g>
    </g>
    <g id="text_10">
     <!-- # of atm CPUs -->
     <defs>
      <path d="M 51.125 44 
L 36.921875 44 
L 32.8125 27.6875 
L 47.125 27.6875 
z
M 43.796875 71.78125 
L 38.71875 51.515625 
L 52.984375 51.515625 
L 58.109375 71.78125 
L 65.921875 71.78125 
L 60.890625 51.515625 
L 76.125 51.515625 
L 76.125 44 
L 58.984375 44 
L 54.984375 27.6875 
L 70.515625 27.6875 
L 70.515625 20.21875 
L 53.078125 20.21875 
L 48 0 
L 40.1875 0 
L 45.21875 20.21875 
L 30.90625 20.21875 
L 25.875 0 
L 18.015625 0 
L 23.09375 20.21875 
L 7.71875 20.21875 
L 7.71875 27.6875 
L 24.90625 27.6875 
L 29 44 
L 13.28125 44 
L 13.28125 51.515625 
L 30.90625 51.515625 
L 35.890625 71.78125 
z
" id="DejaVuSans-23"/>
      <path id="DejaVuSans-20"/>
      <path d="M 30.609375 48.390625 
Q 23.390625 48.390625 19.1875 42.75 
Q 14.984375 37.109375 14.984375 27.296875 
Q 14.984375 17.484375 19.15625 11.84375 
Q 23.34375 6.203125 30.609375 6.203125 
Q 37.796875 6.203125 41.984375 11.859375 
Q 46.1875 17.53125 46.1875 27.296875 
Q 46.1875 37.015625 41.984375 42.703125 
Q 37.796875 48.390625 30.609375 48.390625 
M 30.609375 56 
Q 42.328125 56 49.015625 48.375 
Q 55.71875 40.765625 55.71875 27.296875 
Q 55.71875 13.875 49.015625 6.21875 
Q 42.328125 -1.421875 30.609375 -1.421875 
Q 18.84375 -1.421875 12.171875 6.21875 
Q 5.515625 13.875 5.515625 27.296875 
Q 5.515625 40.765625 12.171875 48.375 
Q 18.84375 56 30.609375 56 
" id="DejaVuSans-6f"/>
      <path d="M 37.109375 75.984375 
L 37.109375 68.5 
L 28.515625 68.5 
Q 23.6875 68.5 21.796875 66.546875 
Q 19.921875 64.59375 19.921875 59.515625 
L 19.921875 54.6875 
L 34.71875 54.6875 
L 34.71875 47.703125 
L 19.921875 47.703125 
L 19.921875 0 
L 10.890625 0 
L 10.890625 47.703125 
L 2.296875 47.703125 
L 2.296875 54.6875 
L 10.890625 54.6875 
L 10.890625 58.5 
Q 10.890625 67.625 15.140625 71.796875 
Q 19.390625 75.984375 28.609375 75.984375 
z
" id="DejaVuSans-66"/>
      <path d="M 34.28125 27.484375 
Q 23.390625 27.484375 19.1875 25 
Q 14.984375 22.515625 14.984375 16.5 
Q 14.984375 11.71875 18.140625 8.90625 
Q 21.296875 6.109375 26.703125 6.109375 
Q 34.1875 6.109375 38.703125 11.40625 
Q 43.21875 16.703125 43.21875 25.484375 
L 43.21875 27.484375 
z
M 52.203125 31.203125 
L 52.203125 0 
L 43.21875 0 
L 43.21875 8.296875 
Q 40.140625 3.328125 35.546875 0.953125 
Q 30.953125 -1.421875 24.3125 -1.421875 
Q 15.921875 -1.421875 10.953125 3.296875 
Q 6 8.015625 6 15.921875 
Q 6 25.140625 12.171875 29.828125 
Q 18.359375 34.515625 30.609375 34.515625 
L 43.21875 34.515625 
L 43.21875 35.40625 
Q 43.21875 41.609375 39.140625 45 
Q 35.0625 48.390625 27.6875 48.390625 
Q 23 48.390625 18.546875 47.265625 
Q 14.109375 46.140625 10.015625 43.890625 
L 10.015625 52.203125 
Q 14.9375 54.109375 19.578125 55.046875 
Q 24.21875 56 28.609375 56 
Q 40.484375 56 46.34375 49.84375 
Q 52.203125 43.703125 52.203125 31.203125 
" id="DejaVuSans-61"/>
      <path d="M 18.3125 70.21875 
L 18.3125 54.6875 
L 36.8125 54.6875 
L 36.8125 47.703125 
L 18.3125 47.703125 
L 18.3125 18.015625 
Q 18.3125 11.328125 20.140625 9.421875 
Q 21.96875 7.515625 27.59375 7.515625 
L 36.8125 7.515625 
L 36.8125 0 
L 27.59375 0 
Q 17.1875 0 13.234375 3.875 
Q 9.28125 7.765625 9.28125 18.015625 
L 9.28125 47.703125 
L 2.6875 47.703125 
L 2.6875 54.6875 
L 9.28125 54.6875 
L 9.28125 70.21875 
z
" id="DejaVuSans-74"/>
      <path d="M 52 44.1875 
Q 55.375 50.25 60.0625 53.125 
Q 64.75 56 71.09375 56 
Q 79.640625 56 84.28125 50.015625 
Q 88.921875 44.046875 88.921875 33.015625 
L 88.921875 0 
L 79.890625 0 
L 79.890625 32.71875 
Q 79.890625 40.578125 77.09375 44.375 
Q 74.3125 48.1875 68.609375 48.1875 
Q 61.625 48.1875 57.5625 43.546875 
Q 53.515625 38.921875 53.515625 30.90625 
L 53.515625 0 
L 44.484375 0 
L 44.484375 32.71875 
Q 44.484375 40.625 41.703125 44.40625 
Q 38.921875 48.1875 33.109375 48.1875 
Q 26.21875 48.1875 22.15625 43.53125 
Q 18.109375 38.875 18.109375 30.90625 
L 18.109375 0 
L 9.078125 0 
L 9.078125 54.6875 
L 18.109375 54.6875 
L 18.109375 46.1875 
Q 21.1875 51.21875 25.484375 53.609375 
Q 29.78125 56 35.6875 56 
Q 41.65625 56 45.828125 52.96875 
Q 50 49.953125 52 44.1875 
" id="DejaVuSans-6d"/>
      <path d="M 64.40625 67.28125 
L 64.40625 56.890625 
Q 59.421875 61.53125 53.78125 63.8125 
Q 48.140625 66.109375 41.796875 66.109375 
Q 29.296875 66.109375 22.65625 58.46875 
Q 16.015625 50.828125 16.015625 36.375 
Q 16.015625 21.96875 22.65625 14.328125 
Q 29.296875 6.6875 41.796875 6.6875 
Q 48.140625 6.6875 53.78125 8.984375 
Q 59.421875 11.28125 64.40625 15.921875 
L 64.40625 5.609375 
Q 59.234375 2.09375 53.4375 0.328125 
Q 47.65625 -1.421875 41.21875 -1.421875 
Q 24.65625 -1.421875 15.125 8.703125 
Q 5.609375 18.84375 5.609375 36.375 
Q 5.609375 53.953125 15.125 64.078125 
Q 24.65625 74.21875 41.21875 74.21875 
Q 47.75 74.21875 53.53125 72.484375 
Q 59.328125 70.75 64.40625 67.28125 
" id="DejaVuSans-43"/>
      <path d="M 19.671875 64.796875 
L 19.671875 37.40625 
L 32.078125 37.40625 
Q 38.96875 37.40625 42.71875 40.96875 
Q 46.484375 44.53125 46.484375 51.125 
Q 46.484375 57.671875 42.71875 61.234375 
Q 38.96875 64.796875 32.078125 64.796875 
z
M 9.8125 72.90625 
L 32.078125 72.90625 
Q 44.34375 72.90625 50.609375 67.359375 
Q 56.890625 61.8125 56.890625 51.125 
Q 56.890625 40.328125 50.609375 34.8125 
Q 44.34375 29.296875 32.078125 29.296875 
L 19.671875 29.296875 
L 19.671875 0 
L 9.8125 0 
z
" id="DejaVuSans-50"/>
      <path d="M 8.6875 72.90625 
L 18.609375 72.90625 
L 18.609375 28.609375 
Q 18.609375 16.890625 22.84375 11.734375 
Q 27.09375 6.59375 36.625 6.59375 
Q 46.09375 6.59375 50.34375 11.734375 
Q 54.59375 16.890625 54.59375 28.609375 
L 54.59375 72.90625 
L 64.5 72.90625 
L 64.5 27.390625 
Q 64.5 13.140625 57.4375 5.859375 
Q 50.390625 -1.421875 36.625 -1.421875 
Q 22.796875 -1.421875 15.734375 5.859375 
Q 8.6875 13.140625 8.6875 27.390625 
z
" id="DejaVuSans-55"/>
      <path d="M 44.28125 53.078125 
L 44.28125 44.578125 
Q 40.484375 46.53125 36.375 47.5 
Q 32.28125 48.484375 27.875 48.484375 
Q 21.1875 48.484375 17.84375 46.4375 
Q 14.5 44.390625 14.5 40.28125 
Q 14.5 37.15625 16.890625 35.375 
Q 19.28125 33.59375 26.515625 31.984375 
L 29.59375 31.296875 
Q 39.15625 29.25 43.1875 25.515625 
Q 47.21875 21.78125 47.21875 15.09375 
Q 47.21875 7.46875 41.1875 3.015625 
Q 35.15625 -1.421875 24.609375 -1.421875 
Q 20.21875 -1.421875 15.453125 -0.5625 
Q 10.6875 0.296875 5.421875 2 
L 5.421875 11.28125 
Q 10.40625 8.6875 15.234375 7.390625 
Q 20.0625 6.109375 24.8125 6.109375 
Q 31.15625 6.109375 34.5625 8.28125 
Q 37.984375 10.453125 37.984375 14.40625 
Q 37.984375 18.0625 35.515625 20.015625 
Q 33.0625 21.96875 24.703125 23.78125 
L 21.578125 24.515625 
Q 13.234375 26.265625 9.515625 29.90625 
Q 5.8125 33.546875 5.8125 39.890625 
Q 5.8125 47.609375 11.28125 51.796875 
Q 16.75 56 26.8125 56 
Q 31.78125 56 36.171875 55.265625 
Q 40.578125 54.546875 44.28125 53.078125 
" id="DejaVuSans-73"/>
     </defs>
     <g style="fill:#ffffff;" transform="translate(155.045726 371.616562)scale(0.1 -0.1)">
      <use xlink:href="#DejaVuSans-23"/>
      <use x="83.789062" xlink:href="#DejaVuSans-20"/>
      <use x="115.576172" xlink:href="#DejaVuSans-6f"/>
      <use x="176.757812" xlink:href="#DejaVuSans-66"/>
      <use x="211.962891" xlink:href="#DejaVuSans-20"/>
      <use x="243.75" xlink:href="#DejaVuSans-61"/>
      <use x="305.029297" xlink:href="#DejaVuSans-74"/>
      <use x="344.238281" xlink:href="#DejaVuSans-6d"/>
      <use x="441.650391" xlink:href="#DejaVuSans-20"/>
      <use x="473.4375" xlink:href="#DejaVuSans-43"/>
      <use x="543.261719" xlink:href="#DejaVuSans-50"/>
      <use x="603.564453" xlink:href="#DejaVuSans-55"/>
      <use x="676.757812" xlink:href="#DejaVuSans-73"/>
     </g>
    </g>
   </g>
   <g id="matplotlib.axis_2">
    <g id="ytick_1">
     <g id="line2d_10">
      <defs>
       <path d="M 0 0 
L -3.5 0 
" id="m83f8b34c7b" style="stroke:#000000;stroke-width:0.8;"/>
      </defs>
      <g>
       <use style="stroke:#000000;stroke-width:0.8;" x="43.78125" xlink:href="#m83f8b34c7b" y="343.34"/>
      </g>
     </g>
     <g id="text_11">
      <!-- 0.0 -->
      <defs>
       <path d="M 31.78125 66.40625 
Q 24.171875 66.40625 20.328125 58.90625 
Q 16.5 51.421875 16.5 36.375 
Q 16.5 21.390625 20.328125 13.890625 
Q 24.171875 6.390625 31.78125 6.390625 
Q 39.453125 6.390625 43.28125 13.890625 
Q 47.125 21.390625 47.125 36.375 
Q 47.125 51.421875 43.28125 58.90625 
Q 39.453125 66.40625 31.78125 66.40625 
M 31.78125 74.21875 
Q 44.046875 74.21875 50.515625 64.515625 
Q 56.984375 54.828125 56.984375 36.375 
Q 56.984375 17.96875 50.515625 8.265625 
Q 44.046875 -1.421875 31.78125 -1.421875 
Q 19.53125 -1.421875 13.0625 8.265625 
Q 6.59375 17.96875 6.59375 36.375 
Q 6.59375 54.828125 13.0625 64.515625 
Q 19.53125 74.21875 31.78125 74.21875 
" id="DejaVuSans-30"/>
       <path d="M 10.6875 12.40625 
L 21 12.40625 
L 21 0 
L 10.6875 0 
z
" id="DejaVuSans-2e"/>
      </defs>
      <g style="fill:#ffffff;" transform="translate(20.878125 347.139219)scale(0.1 -0.1)">
       <use xlink:href="#DejaVuSans-30"/>
       <use x="63.623047" xlink:href="#DejaVuSans-2e"/>
       <use x="95.410156" xlink:href="#DejaVuSans-30"/>
      </g>
     </g>
    </g>
    <g id="ytick_2">
     <g id="line2d_11">
      <g>
       <use style="stroke:#000000;stroke-width:0.8;" x="43.78125" xlink:href="#m83f8b34c7b" y="278.434634"/>
      </g>
     </g>
     <g id="text_12">
      <!-- 0.2 -->
      <g style="fill:#ffffff;" transform="translate(20.878125 282.233853)scale(0.1 -0.1)">
       <use xlink:href="#DejaVuSans-30"/>
       <use x="63.623047" xlink:href="#DejaVuSans-2e"/>
       <use x="95.410156" xlink:href="#DejaVuSans-32"/>
      </g>
     </g>
    </g>
    <g id="ytick_3">
     <g id="line2d_12">
      <g>
       <use style="stroke:#000000;stroke-width:0.8;" x="43.78125" xlink:href="#m83f8b34c7b" y="213.529268"/>
      </g>
     </g>
     <g id="text_13">
      <!-- 0.4 -->
      <g style="fill:#ffffff;" transform="translate(20.878125 217.328487)scale(0.1 -0.1)">
       <use xlink:href="#DejaVuSans-30"/>
       <use x="63.623047" xlink:href="#DejaVuSans-2e"/>
       <use x="95.410156" xlink:href="#DejaVuSans-34"/>
      </g>
     </g>
    </g>
    <g id="ytick_4">
     <g id="line2d_13">
      <g>
       <use style="stroke:#000000;stroke-width:0.8;" x="43.78125" xlink:href="#m83f8b34c7b" y="148.623902"/>
      </g>
     </g>
     <g id="text_14">
      <!-- 0.6 -->
      <g style="fill:#ffffff;" transform="translate(20.878125 152.423121)scale(0.1 -0.1)">
       <use xlink:href="#DejaVuSans-30"/>
       <use x="63.623047" xlink:href="#DejaVuSans-2e"/>
       <use x="95.410156" xlink:href="#DejaVuSans-36"/>
      </g>
     </g>
    </g>
    <g id="ytick_5">
     <g id="line2d_14">
      <g>
       <use style="stroke:#000000;stroke-width:0.8;" x="43.78125" xlink:href="#m83f8b34c7b" y="83.718537"/>
      </g>
     </g>
     <g id="text_15">
      <!-- 0.8 -->
      <g style="fill:#ffffff;" transform="translate(20.878125 87.517755)scale(0.1 -0.1)">
       <use xlink:href="#DejaVuSans-30"/>
       <use x="63.623047" xlink:href="#DejaVuSans-2e"/>
       <use x="95.410156" xlink:href="#DejaVuSans-38"/>
      </g>
     </g>
    </g>
    <g id="ytick_6">
     <g id="line2d_15">
      <g>
       <use style="stroke:#000000;stroke-width:0.8;" x="43.78125" xlink:href="#m83f8b34c7b" y="18.813171"/>
      </g>
     </g>
     <g id="text_16">
      <!-- 1.0 -->
      <g style="fill:#ffffff;" transform="translate(20.878125 22.612389)scale(0.1 -0.1)">
       <use xlink:href="#DejaVuSans-31"/>
       <use x="63.623047" xlink:href="#DejaVuSans-2e"/>
       <use x="95.410156" xlink:href="#DejaVuSans-30"/>
      </g>
     </g>
    </g>
    <g id="text_17">
     <!-- Relative runtime -->
     <defs>
      <path d="M 44.390625 34.1875 
Q 47.5625 33.109375 50.5625 29.59375 
Q 53.5625 26.078125 56.59375 19.921875 
L 66.609375 0 
L 56 0 
L 46.6875 18.703125 
Q 43.0625 26.03125 39.671875 28.421875 
Q 36.28125 30.8125 30.421875 30.8125 
L 19.671875 30.8125 
L 19.671875 0 
L 9.8125 0 
L 9.8125 72.90625 
L 32.078125 72.90625 
Q 44.578125 72.90625 50.734375 67.671875 
Q 56.890625 62.453125 56.890625 51.90625 
Q 56.890625 45.015625 53.6875 40.46875 
Q 50.484375 35.9375 44.390625 34.1875 
M 19.671875 64.796875 
L 19.671875 38.921875 
L 32.078125 38.921875 
Q 39.203125 38.921875 42.84375 42.21875 
Q 46.484375 45.515625 46.484375 51.90625 
Q 46.484375 58.296875 42.84375 61.546875 
Q 39.203125 64.796875 32.078125 64.796875 
z
" id="DejaVuSans-52"/>
      <path d="M 56.203125 29.59375 
L 56.203125 25.203125 
L 14.890625 25.203125 
Q 15.484375 15.921875 20.484375 11.0625 
Q 25.484375 6.203125 34.421875 6.203125 
Q 39.59375 6.203125 44.453125 7.46875 
Q 49.3125 8.734375 54.109375 11.28125 
L 54.109375 2.78125 
Q 49.265625 0.734375 44.1875 -0.34375 
Q 39.109375 -1.421875 33.890625 -1.421875 
Q 20.796875 -1.421875 13.15625 6.1875 
Q 5.515625 13.8125 5.515625 26.8125 
Q 5.515625 40.234375 12.765625 48.109375 
Q 20.015625 56 32.328125 56 
Q 43.359375 56 49.78125 48.890625 
Q 56.203125 41.796875 56.203125 29.59375 
M 47.21875 32.234375 
Q 47.125 39.59375 43.09375 43.984375 
Q 39.0625 48.390625 32.421875 48.390625 
Q 24.90625 48.390625 20.390625 44.140625 
Q 15.875 39.890625 15.1875 32.171875 
z
" id="DejaVuSans-65"/>
      <path d="M 9.421875 75.984375 
L 18.40625 75.984375 
L 18.40625 0 
L 9.421875 0 
z
" id="DejaVuSans-6c"/>
      <path d="M 9.421875 54.6875 
L 18.40625 54.6875 
L 18.40625 0 
L 9.421875 0 
z
M 9.421875 75.984375 
L 18.40625 75.984375 
L 18.40625 64.59375 
L 9.421875 64.59375 
z
" id="DejaVuSans-69"/>
      <path d="M 2.984375 54.6875 
L 12.5 54.6875 
L 29.59375 8.796875 
L 46.6875 54.6875 
L 56.203125 54.6875 
L 35.6875 0 
L 23.484375 0 
z
" id="DejaVuSans-76"/>
      <path d="M 41.109375 46.296875 
Q 39.59375 47.171875 37.8125 47.578125 
Q 36.03125 48 33.890625 48 
Q 26.265625 48 22.1875 43.046875 
Q 18.109375 38.09375 18.109375 28.8125 
L 18.109375 0 
L 9.078125 0 
L 9.078125 54.6875 
L 18.109375 54.6875 
L 18.109375 46.1875 
Q 20.953125 51.171875 25.484375 53.578125 
Q 30.03125 56 36.53125 56 
Q 37.453125 56 38.578125 55.875 
Q 39.703125 55.765625 41.0625 55.515625 
z
" id="DejaVuSans-72"/>
      <path d="M 8.5 21.578125 
L 8.5 54.6875 
L 17.484375 54.6875 
L 17.484375 21.921875 
Q 17.484375 14.15625 20.5 10.265625 
Q 23.53125 6.390625 29.59375 6.390625 
Q 36.859375 6.390625 41.078125 11.03125 
Q 45.3125 15.671875 45.3125 23.6875 
L 45.3125 54.6875 
L 54.296875 54.6875 
L 54.296875 0 
L 45.3125 0 
L 45.3125 8.40625 
Q 42.046875 3.421875 37.71875 1 
Q 33.40625 -1.421875 27.6875 -1.421875 
Q 18.265625 -1.421875 13.375 4.4375 
Q 8.5 10.296875 8.5 21.578125 
M 31.109375 56 
z
" id="DejaVuSans-75"/>
      <path d="M 54.890625 33.015625 
L 54.890625 0 
L 45.90625 0 
L 45.90625 32.71875 
Q 45.90625 40.484375 42.875 44.328125 
Q 39.84375 48.1875 33.796875 48.1875 
Q 26.515625 48.1875 22.3125 43.546875 
Q 18.109375 38.921875 18.109375 30.90625 
L 18.109375 0 
L 9.078125 0 
L 9.078125 54.6875 
L 18.109375 54.6875 
L 18.109375 46.1875 
Q 21.34375 51.125 25.703125 53.5625 
Q 30.078125 56 35.796875 56 
Q 45.21875 56 50.046875 50.171875 
Q 54.890625 44.34375 54.890625 33.015625 
" id="DejaVuSans-6e"/>
     </defs>
     <g style="fill:#ffffff;" transform="translate(14.798437 218.684062)rotate(-90)scale(0.1 -0.1)">
      <use xlink:href="#DejaVuSans-52"/>
      <use x="69.419922" xlink:href="#DejaVuSans-65"/>
      <use x="130.943359" xlink:href="#DejaVuSans-6c"/>
      <use x="158.726562" xlink:href="#DejaVuSans-61"/>
      <use x="220.005859" xlink:href="#DejaVuSans-74"/>
      <use x="259.214844" xlink:href="#DejaVuSans-69"/>
      <use x="286.998047" xlink:href="#DejaVuSans-76"/>
      <use x="346.177734" xlink:href="#DejaVuSans-65"/>
      <use x="407.701172" xlink:href="#DejaVuSans-20"/>
      <use x="439.488281" xlink:href="#DejaVuSans-72"/>
      <use x="480.601562" xlink:href="#DejaVuSans-75"/>
      <use x="543.980469" xlink:href="#DejaVuSans-6e"/>
      <use x="607.359375" xlink:href="#DejaVuSans-74"/>
      <use x="646.568359" xlink:href="#DejaVuSans-69"/>
      <use x="674.351562" xlink:href="#DejaVuSans-6d"/>
      <use x="771.763672" xlink:href="#DejaVuSans-65"/>
     </g>
    </g>
   </g>
   <g id="patch_53">
    <path d="M 43.78125 343.34 
L 43.78125 10.7 
" style="fill:none;stroke:#000000;stroke-linecap:square;stroke-linejoin:miter;stroke-width:0.8;"/>
   </g>
   <g id="patch_54">
    <path d="M 339.193015 343.34 
L 339.193015 10.7 
" style="fill:none;stroke:#000000;stroke-linecap:square;stroke-linejoin:miter;stroke-width:0.8;"/>
   </g>
   <g id="patch_55">
    <path d="M 43.78125 343.34 
L 339.193015 343.34 
" style="fill:none;stroke:#000000;stroke-linecap:square;stroke-linejoin:miter;stroke-width:0.8;"/>
   </g>
   <g id="patch_56">
    <path d="M 43.78125 10.7 
L 339.193015 10.7 
" style="fill:none;stroke:#000000;stroke-linecap:square;stroke-linejoin:miter;stroke-width:0.8;"/>
   </g>
   <g id="legend_1">
    <g id="patch_57">
     <path d="M 260.644108 338.84 
L 332.893015 338.84 
Q 334.693015 338.84 334.693015 337.04 
L 334.693015 270.636875 
Q 334.693015 268.836875 332.893015 268.836875 
L 260.644108 268.836875 
Q 258.844108 268.836875 258.844108 270.636875 
L 258.844108 337.04 
Q 258.844108 338.84 260.644108 338.84 
z
" style="fill:#ffffff;opacity:0.8;stroke:#cccccc;stroke-linejoin:miter;"/>
    </g>
    <g id="patch_58">
     <path d="M 262.444108 279.275469 
L 280.444108 279.275469 
L 280.444108 272.975469 
L 262.444108 272.975469 
z
" style="fill:#1f77b4;stroke:#000000;stroke-linejoin:miter;"/>
    </g>
    <g id="text_18">
     <!-- ice_step -->
     <defs>
      <path d="M 48.78125 52.59375 
L 48.78125 44.1875 
Q 44.96875 46.296875 41.140625 47.34375 
Q 37.3125 48.390625 33.40625 48.390625 
Q 24.65625 48.390625 19.8125 42.84375 
Q 14.984375 37.3125 14.984375 27.296875 
Q 14.984375 17.28125 19.8125 11.734375 
Q 24.65625 6.203125 33.40625 6.203125 
Q 37.3125 6.203125 41.140625 7.25 
Q 44.96875 8.296875 48.78125 10.40625 
L 48.78125 2.09375 
Q 45.015625 0.34375 40.984375 -0.53125 
Q 36.96875 -1.421875 32.421875 -1.421875 
Q 20.0625 -1.421875 12.78125 6.34375 
Q 5.515625 14.109375 5.515625 27.296875 
Q 5.515625 40.671875 12.859375 48.328125 
Q 20.21875 56 33.015625 56 
Q 37.15625 56 41.109375 55.140625 
Q 45.0625 54.296875 48.78125 52.59375 
" id="DejaVuSans-63"/>
      <path d="M 50.984375 -16.609375 
L 50.984375 -23.578125 
L -0.984375 -23.578125 
L -0.984375 -16.609375 
z
" id="DejaVuSans-5f"/>
      <path d="M 18.109375 8.203125 
L 18.109375 -20.796875 
L 9.078125 -20.796875 
L 9.078125 54.6875 
L 18.109375 54.6875 
L 18.109375 46.390625 
Q 20.953125 51.265625 25.265625 53.625 
Q 29.59375 56 35.59375 56 
Q 45.5625 56 51.78125 48.09375 
Q 58.015625 40.1875 58.015625 27.296875 
Q 58.015625 14.40625 51.78125 6.484375 
Q 45.5625 -1.421875 35.59375 -1.421875 
Q 29.59375 -1.421875 25.265625 0.953125 
Q 20.953125 3.328125 18.109375 8.203125 
M 48.6875 27.296875 
Q 48.6875 37.203125 44.609375 42.84375 
Q 40.53125 48.484375 33.40625 48.484375 
Q 26.265625 48.484375 22.1875 42.84375 
Q 18.109375 37.203125 18.109375 27.296875 
Q 18.109375 17.390625 22.1875 11.75 
Q 26.265625 6.109375 33.40625 6.109375 
Q 40.53125 6.109375 44.609375 11.75 
Q 48.6875 17.390625 48.6875 27.296875 
" id="DejaVuSans-70"/>
     </defs>
     <g transform="translate(287.644108 279.275469)scale(0.09 -0.09)">
      <use xlink:href="#DejaVuSans-69"/>
      <use x="27.783203" xlink:href="#DejaVuSans-63"/>
      <use x="82.763672" xlink:href="#DejaVuSans-65"/>
      <use x="144.287109" xlink:href="#DejaVuSans-5f"/>
      <use x="194.287109" xlink:href="#DejaVuSans-73"/>
      <use x="246.386719" xlink:href="#DejaVuSans-74"/>
      <use x="285.595703" xlink:href="#DejaVuSans-65"/>
      <use x="347.119141" xlink:href="#DejaVuSans-70"/>
     </g>
    </g>
    <g id="patch_59">
     <path d="M 262.444108 292.736094 
L 280.444108 292.736094 
L 280.444108 286.436094 
L 262.444108 286.436094 
z
" style="fill:#ff7f0e;stroke:#000000;stroke-linejoin:miter;"/>
    </g>
    <g id="text_19">
     <!-- into_atm -->
     <g transform="translate(287.644108 292.736094)scale(0.09 -0.09)">
      <use xlink:href="#DejaVuSans-69"/>
      <use x="27.783203" xlink:href="#DejaVuSans-6e"/>
      <use x="91.162109" xlink:href="#DejaVuSans-74"/>
      <use x="130.371094" xlink:href="#DejaVuSans-6f"/>
      <use x="191.552734" xlink:href="#DejaVuSans-5f"/>
      <use x="241.552734" xlink:href="#DejaVuSans-61"/>
      <use x="302.832031" xlink:href="#DejaVuSans-74"/>
      <use x="342.041016" xlink:href="#DejaVuSans-6d"/>
     </g>
    </g>
    <g id="patch_60">
     <path d="M 262.444108 306.196719 
L 280.444108 306.196719 
L 280.444108 299.896719 
L 262.444108 299.896719 
z
" style="fill:#2ca02c;stroke:#000000;stroke-linejoin:miter;"/>
    </g>
    <g id="text_20">
     <!-- into_ocn -->
     <g transform="translate(287.644108 306.196719)scale(0.09 -0.09)">
      <use xlink:href="#DejaVuSans-69"/>
      <use x="27.783203" xlink:href="#DejaVuSans-6e"/>
      <use x="91.162109" xlink:href="#DejaVuSans-74"/>
      <use x="130.371094" xlink:href="#DejaVuSans-6f"/>
      <use x="191.552734" xlink:href="#DejaVuSans-5f"/>
      <use x="241.552734" xlink:href="#DejaVuSans-6f"/>
      <use x="302.734375" xlink:href="#DejaVuSans-63"/>
      <use x="357.714844" xlink:href="#DejaVuSans-6e"/>
     </g>
    </g>
    <g id="patch_61">
     <path d="M 262.444108 319.657344 
L 280.444108 319.657344 
L 280.444108 313.357344 
L 262.444108 313.357344 
z
" style="fill:#d62728;stroke:#000000;stroke-linejoin:miter;"/>
    </g>
    <g id="text_21">
     <!-- from_ocn -->
     <g transform="translate(287.644108 319.657344)scale(0.09 -0.09)">
      <use xlink:href="#DejaVuSans-66"/>
      <use x="35.205078" xlink:href="#DejaVuSans-72"/>
      <use x="76.287109" xlink:href="#DejaVuSans-6f"/>
      <use x="137.46875" xlink:href="#DejaVuSans-6d"/>
      <use x="234.880859" xlink:href="#DejaVuSans-5f"/>
      <use x="284.880859" xlink:href="#DejaVuSans-6f"/>
      <use x="346.0625" xlink:href="#DejaVuSans-63"/>
      <use x="401.042969" xlink:href="#DejaVuSans-6e"/>
     </g>
    </g>
    <g id="patch_62">
     <path d="M 262.444108 333.117969 
L 280.444108 333.117969 
L 280.444108 326.817969 
L 262.444108 326.817969 
z
" style="fill:#9467bd;stroke:#000000;stroke-linejoin:miter;"/>
    </g>
    <g id="text_22">
     <!-- from_atm -->
     <g transform="translate(287.644108 333.117969)scale(0.09 -0.09)">
      <use xlink:href="#DejaVuSans-66"/>
      <use x="35.205078" xlink:href="#DejaVuSans-72"/>
      <use x="76.287109" xlink:href="#DejaVuSans-6f"/>
      <use x="137.46875" xlink:href="#DejaVuSans-6d"/>
      <use x="234.880859" xlink:href="#DejaVuSans-5f"/>
      <use x="284.880859" xlink:href="#DejaVuSans-61"/>
      <use x="346.160156" xlink:href="#DejaVuSans-74"/>
      <use x="385.369141" xlink:href="#DejaVuSans-6d"/>
     </g>
    </g>
   </g>
  </g>
  <g id="axes_2">
   <g id="patch_63">
    <path d="M 398.275368 343.34 
L 693.687132 343.34 
L 693.687132 10.7 
L 398.275368 10.7 
z
" style="fill:#ffffff;"/>
   </g>
   <g id="patch_64">
    <path clip-path="url(#pb59cd463bc)" d="M 408.12032 343.34 
L 461.067054 343.34 
L 461.067054 27.179787 
L 408.12032 27.179787 
z
" style="fill:#1f77b4;stroke:#000000;stroke-linejoin:miter;"/>
   </g>
   <g id="patch_65">
    <path clip-path="url(#pb59cd463bc)" d="M 465.298254 343.34 
L 518.244988 343.34 
L 518.244988 39.155138 
L 465.298254 39.155138 
z
" style="fill:#1f77b4;stroke:#000000;stroke-linejoin:miter;"/>
   </g>
   <g id="patch_66">
    <path clip-path="url(#pb59cd463bc)" d="M 522.476189 343.34 
L 570.388052 343.34 
L 570.388052 57.890634 
L 522.476189 57.890634 
z
" style="fill:#1f77b4;stroke:#000000;stroke-linejoin:miter;"/>
   </g>
   <g id="patch_67">
    <path clip-path="url(#pb59cd463bc)" d="M 574.330319 343.34 
L 627.277053 343.34 
L 627.277053 157.597341 
L 574.330319 157.597341 
z
" style="fill:#1f77b4;stroke:#000000;stroke-linejoin:miter;"/>
   </g>
   <g id="patch_68">
    <path clip-path="url(#pb59cd463bc)" d="M 631.508254 343.34 
L 684.454987 343.34 
L 684.454987 215.977131 
L 631.508254 215.977131 
z
" style="fill:#1f77b4;stroke:#000000;stroke-linejoin:miter;"/>
   </g>
   <g id="patch_69">
    <path clip-path="url(#pb59cd463bc)" d="M 522.476189 343.34 
L 570.388052 343.34 
L 570.388052 57.890634 
L 522.476189 57.890634 
z
" style="fill:url(#hbe4e6c398a);"/>
   </g>
   <g id="patch_70">
    <path clip-path="url(#pb59cd463bc)" d="M 408.12032 27.179787 
L 461.067054 27.179787 
L 461.067054 26.067731 
L 408.12032 26.067731 
z
" style="fill:#ff7f0e;stroke:#000000;stroke-linejoin:miter;"/>
   </g>
   <g id="patch_71">
    <path clip-path="url(#pb59cd463bc)" d="M 465.298254 39.155138 
L 518.244988 39.155138 
L 518.244988 36.876809 
L 465.298254 36.876809 
z
" style="fill:#ff7f0e;stroke:#000000;stroke-linejoin:miter;"/>
   </g>
   <g id="patch_72">
    <path clip-path="url(#pb59cd463bc)" d="M 522.476189 57.890634 
L 570.388052 57.890634 
L 570.388052 52.801985 
L 522.476189 52.801985 
z
" style="fill:#ff7f0e;stroke:#000000;stroke-linejoin:miter;"/>
   </g>
   <g id="patch_73">
    <path clip-path="url(#pb59cd463bc)" d="M 574.330319 157.597341 
L 627.277053 157.597341 
L 627.277053 152.413449 
L 574.330319 152.413449 
z
" style="fill:#ff7f0e;stroke:#000000;stroke-linejoin:miter;"/>
   </g>
   <g id="patch_74">
    <path clip-path="url(#pb59cd463bc)" d="M 631.508254 215.977131 
L 684.454987 215.977131 
L 684.454987 207.799202 
L 631.508254 207.799202 
z
" style="fill:#ff7f0e;stroke:#000000;stroke-linejoin:miter;"/>
   </g>
   <g id="patch_75">
    <path clip-path="url(#pb59cd463bc)" d="M 522.476189 57.890634 
L 570.388052 57.890634 
L 570.388052 52.801985 
L 522.476189 52.801985 
z
" style="fill:url(#hbe4e6c398a);"/>
   </g>
   <g id="patch_76">
    <path clip-path="url(#pb59cd463bc)" d="M 408.12032 26.067731 
L 461.067054 26.067731 
L 461.067054 23.392571 
L 408.12032 23.392571 
z
" style="fill:#2ca02c;stroke:#000000;stroke-linejoin:miter;"/>
   </g>
   <g id="patch_77">
    <path clip-path="url(#pb59cd463bc)" d="M 465.298254 36.876809 
L 518.244988 36.876809 
L 518.244988 33.921385 
L 465.298254 33.921385 
z
" style="fill:#2ca02c;stroke:#000000;stroke-linejoin:miter;"/>
   </g>
   <g id="patch_78">
    <path clip-path="url(#pb59cd463bc)" d="M 522.476189 52.801985 
L 570.388052 52.801985 
L 570.388052 49.575995 
L 522.476189 49.575995 
z
" style="fill:#2ca02c;stroke:#000000;stroke-linejoin:miter;"/>
   </g>
   <g id="patch_79">
    <path clip-path="url(#pb59cd463bc)" d="M 574.330319 152.413449 
L 627.277053 152.413449 
L 627.277053 149.725376 
L 574.330319 149.725376 
z
" style="fill:#2ca02c;stroke:#000000;stroke-linejoin:miter;"/>
   </g>
   <g id="patch_80">
    <path clip-path="url(#pb59cd463bc)" d="M 631.508254 207.799202 
L 684.454987 207.799202 
L 684.454987 205.412882 
L 631.508254 205.412882 
z
" style="fill:#2ca02c;stroke:#000000;stroke-linejoin:miter;"/>
   </g>
   <g id="patch_81">
    <path clip-path="url(#pb59cd463bc)" d="M 522.476189 52.801985 
L 570.388052 52.801985 
L 570.388052 49.575995 
L 522.476189 49.575995 
z
" style="fill:url(#hbe4e6c398a);"/>
   </g>
   <g id="patch_82">
    <path clip-path="url(#pb59cd463bc)" d="M 408.12032 23.392571 
L 461.067054 23.392571 
L 461.067054 19.273177 
L 408.12032 19.273177 
z
" style="fill:#d62728;stroke:#000000;stroke-linejoin:miter;"/>
   </g>
   <g id="patch_83">
    <path clip-path="url(#pb59cd463bc)" d="M 465.298254 33.921385 
L 518.244988 33.921385 
L 518.244988 19.664469 
L 465.298254 19.664469 
z
" style="fill:#d62728;stroke:#000000;stroke-linejoin:miter;"/>
   </g>
   <g id="patch_84">
    <path clip-path="url(#pb59cd463bc)" d="M 522.476189 49.575995 
L 570.388052 49.575995 
L 570.388052 20.059097 
L 522.476189 20.059097 
z
" style="fill:#d62728;stroke:#000000;stroke-linejoin:miter;"/>
   </g>
   <g id="patch_85">
    <path clip-path="url(#pb59cd463bc)" d="M 574.330319 149.725376 
L 627.277053 149.725376 
L 627.277053 20.158898 
L 574.330319 20.158898 
z
" style="fill:#d62728;stroke:#000000;stroke-linejoin:miter;"/>
   </g>
   <g id="patch_86">
    <path clip-path="url(#pb59cd463bc)" d="M 631.508254 205.412882 
L 684.454987 205.412882 
L 684.454987 34.344923 
L 631.508254 34.344923 
z
" style="fill:#d62728;stroke:#000000;stroke-linejoin:miter;"/>
   </g>
   <g id="patch_87">
    <path clip-path="url(#pb59cd463bc)" d="M 522.476189 49.575995 
L 570.388052 49.575995 
L 570.388052 20.059097 
L 522.476189 20.059097 
z
" style="fill:url(#hbe4e6c398a);"/>
   </g>
   <g id="patch_88">
    <path clip-path="url(#pb59cd463bc)" d="M 408.12032 19.273177 
L 461.067054 19.273177 
L 461.067054 18.813171 
L 408.12032 18.813171 
z
" style="fill:#9467bd;stroke:#000000;stroke-linejoin:miter;"/>
   </g>
   <g id="patch_89">
    <path clip-path="url(#pb59cd463bc)" d="M 465.298254 19.664469 
L 518.244988 19.664469 
L 518.244988 18.813171 
L 465.298254 18.813171 
z
" style="fill:#9467bd;stroke:#000000;stroke-linejoin:miter;"/>
   </g>
   <g id="patch_90">
    <path clip-path="url(#pb59cd463bc)" d="M 522.476189 20.059097 
L 570.388052 20.059097 
L 570.388052 18.813171 
L 522.476189 18.813171 
z
" style="fill:#9467bd;stroke:#000000;stroke-linejoin:miter;"/>
   </g>
   <g id="patch_91">
    <path clip-path="url(#pb59cd463bc)" d="M 574.330319 20.158898 
L 627.277053 20.158898 
L 627.277053 18.813171 
L 574.330319 18.813171 
z
" style="fill:#9467bd;stroke:#000000;stroke-linejoin:miter;"/>
   </g>
   <g id="patch_92">
    <path clip-path="url(#pb59cd463bc)" d="M 631.508254 34.344923 
L 684.454987 34.344923 
L 684.454987 18.813171 
L 631.508254 18.813171 
z
" style="fill:#9467bd;stroke:#000000;stroke-linejoin:miter;"/>
   </g>
   <g id="patch_93">
    <path clip-path="url(#pb59cd463bc)" d="M 522.476189 20.059097 
L 570.388052 20.059097 
L 570.388052 18.813171 
L 522.476189 18.813171 
z
" style="fill:url(#hbe4e6c398a);"/>
   </g>
   <g id="matplotlib.axis_3">
    <g id="xtick_10">
     <g id="line2d_16">
      <g>
       <use style="stroke:#000000;stroke-width:0.8;" x="438.770718" xlink:href="#m51ea15c100" y="343.34"/>
      </g>
     </g>
     <g id="text_23">
      <!-- 48 -->
      <g style="fill:#ffffff;" transform="translate(432.408218 357.938437)scale(0.1 -0.1)">
       <use xlink:href="#DejaVuSans-34"/>
       <use x="63.623047" xlink:href="#DejaVuSans-38"/>
      </g>
     </g>
    </g>
    <g id="xtick_11">
     <g id="line2d_17">
      <g>
       <use style="stroke:#000000;stroke-width:0.8;" x="495.948652" xlink:href="#m51ea15c100" y="343.34"/>
      </g>
     </g>
     <g id="text_24">
      <!-- 96 -->
      <g style="fill:#ffffff;" transform="translate(489.586152 357.938437)scale(0.1 -0.1)">
       <use xlink:href="#DejaVuSans-39"/>
       <use x="63.623047" xlink:href="#DejaVuSans-36"/>
      </g>
     </g>
    </g>
    <g id="xtick_12">
     <g id="line2d_18">
      <g>
       <use style="stroke:#000000;stroke-width:0.8;" x="549.862807" xlink:href="#m51ea15c100" y="343.34"/>
      </g>
     </g>
     <g id="text_25">
      <!-- 192 -->
      <g style="fill:#ffffff;" transform="translate(540.319057 357.938437)scale(0.1 -0.1)">
       <use xlink:href="#DejaVuSans-31"/>
       <use x="63.623047" xlink:href="#DejaVuSans-39"/>
       <use x="127.246094" xlink:href="#DejaVuSans-32"/>
      </g>
     </g>
    </g>
    <g id="xtick_13">
     <g id="line2d_19">
      <g>
       <use style="stroke:#000000;stroke-width:0.8;" x="604.980717" xlink:href="#m51ea15c100" y="343.34"/>
      </g>
     </g>
     <g id="text_26">
      <!-- 360 -->
      <g style="fill:#ffffff;" transform="translate(595.436967 357.938437)scale(0.1 -0.1)">
       <use xlink:href="#DejaVuSans-33"/>
       <use x="63.623047" xlink:href="#DejaVuSans-36"/>
       <use x="127.246094" xlink:href="#DejaVuSans-30"/>
      </g>
     </g>
    </g>
    <g id="xtick_14">
     <g id="line2d_20">
      <g>
       <use style="stroke:#000000;stroke-width:0.8;" x="662.158651" xlink:href="#m51ea15c100" y="343.34"/>
      </g>
     </g>
     <g id="text_27">
      <!-- 720 -->
      <g style="fill:#ffffff;" transform="translate(652.614901 357.938437)scale(0.1 -0.1)">
       <use xlink:href="#DejaVuSans-37"/>
       <use x="63.623047" xlink:href="#DejaVuSans-32"/>
       <use x="127.246094" xlink:href="#DejaVuSans-30"/>
      </g>
     </g>
    </g>
    <g id="text_28">
     <!-- # of ice CPUs -->
     <g style="fill:#ffffff;" transform="translate(512.219531 371.616562)scale(0.1 -0.1)">
      <use xlink:href="#DejaVuSans-23"/>
      <use x="83.789062" xlink:href="#DejaVuSans-20"/>
      <use x="115.576172" xlink:href="#DejaVuSans-6f"/>
      <use x="176.757812" xlink:href="#DejaVuSans-66"/>
      <use x="211.962891" xlink:href="#DejaVuSans-20"/>
      <use x="243.75" xlink:href="#DejaVuSans-69"/>
      <use x="271.533203" xlink:href="#DejaVuSans-63"/>
      <use x="326.513672" xlink:href="#DejaVuSans-65"/>
      <use x="388.037109" xlink:href="#DejaVuSans-20"/>
      <use x="419.824219" xlink:href="#DejaVuSans-43"/>
      <use x="489.648438" xlink:href="#DejaVuSans-50"/>
      <use x="549.951172" xlink:href="#DejaVuSans-55"/>
      <use x="623.144531" xlink:href="#DejaVuSans-73"/>
     </g>
    </g>
   </g>
   <g id="matplotlib.axis_4">
    <g id="ytick_7">
     <g id="line2d_21">
      <g>
       <use style="stroke:#000000;stroke-width:0.8;" x="398.275368" xlink:href="#m83f8b34c7b" y="343.34"/>
      </g>
     </g>
     <g id="text_29">
      <!-- 0.0 -->
      <g style="fill:#ffffff;" transform="translate(375.372243 347.139219)scale(0.1 -0.1)">
       <use xlink:href="#DejaVuSans-30"/>
       <use x="63.623047" xlink:href="#DejaVuSans-2e"/>
       <use x="95.410156" xlink:href="#DejaVuSans-30"/>
      </g>
     </g>
    </g>
    <g id="ytick_8">
     <g id="line2d_22">
      <g>
       <use style="stroke:#000000;stroke-width:0.8;" x="398.275368" xlink:href="#m83f8b34c7b" y="278.434634"/>
      </g>
     </g>
     <g id="text_30">
      <!-- 0.2 -->
      <g style="fill:#ffffff;" transform="translate(375.372243 282.233853)scale(0.1 -0.1)">
       <use xlink:href="#DejaVuSans-30"/>
       <use x="63.623047" xlink:href="#DejaVuSans-2e"/>
       <use x="95.410156" xlink:href="#DejaVuSans-32"/>
      </g>
     </g>
    </g>
    <g id="ytick_9">
     <g id="line2d_23">
      <g>
       <use style="stroke:#000000;stroke-width:0.8;" x="398.275368" xlink:href="#m83f8b34c7b" y="213.529268"/>
      </g>
     </g>
     <g id="text_31">
      <!-- 0.4 -->
      <g style="fill:#ffffff;" transform="translate(375.372243 217.328487)scale(0.1 -0.1)">
       <use xlink:href="#DejaVuSans-30"/>
       <use x="63.623047" xlink:href="#DejaVuSans-2e"/>
       <use x="95.410156" xlink:href="#DejaVuSans-34"/>
      </g>
     </g>
    </g>
    <g id="ytick_10">
     <g id="line2d_24">
      <g>
       <use style="stroke:#000000;stroke-width:0.8;" x="398.275368" xlink:href="#m83f8b34c7b" y="148.623902"/>
      </g>
     </g>
     <g id="text_32">
      <!-- 0.6 -->
      <g style="fill:#ffffff;" transform="translate(375.372243 152.423121)scale(0.1 -0.1)">
       <use xlink:href="#DejaVuSans-30"/>
       <use x="63.623047" xlink:href="#DejaVuSans-2e"/>
       <use x="95.410156" xlink:href="#DejaVuSans-36"/>
      </g>
     </g>
    </g>
    <g id="ytick_11">
     <g id="line2d_25">
      <g>
       <use style="stroke:#000000;stroke-width:0.8;" x="398.275368" xlink:href="#m83f8b34c7b" y="83.718537"/>
      </g>
     </g>
     <g id="text_33">
      <!-- 0.8 -->
      <g style="fill:#ffffff;" transform="translate(375.372243 87.517755)scale(0.1 -0.1)">
       <use xlink:href="#DejaVuSans-30"/>
       <use x="63.623047" xlink:href="#DejaVuSans-2e"/>
       <use x="95.410156" xlink:href="#DejaVuSans-38"/>
      </g>
     </g>
    </g>
    <g id="ytick_12">
     <g id="line2d_26">
      <g>
       <use style="stroke:#000000;stroke-width:0.8;" x="398.275368" xlink:href="#m83f8b34c7b" y="18.813171"/>
      </g>
     </g>
     <g id="text_34">
      <!-- 1.0 -->
      <g style="fill:#ffffff;" transform="translate(375.372243 22.612389)scale(0.1 -0.1)">
       <use xlink:href="#DejaVuSans-31"/>
       <use x="63.623047" xlink:href="#DejaVuSans-2e"/>
       <use x="95.410156" xlink:href="#DejaVuSans-30"/>
      </g>
     </g>
    </g>
   </g>
   <g id="patch_94">
    <path d="M 398.275368 343.34 
L 398.275368 10.7 
" style="fill:none;stroke:#000000;stroke-linecap:square;stroke-linejoin:miter;stroke-width:0.8;"/>
   </g>
   <g id="patch_95">
    <path d="M 693.687132 343.34 
L 693.687132 10.7 
" style="fill:none;stroke:#000000;stroke-linecap:square;stroke-linejoin:miter;stroke-width:0.8;"/>
   </g>
   <g id="patch_96">
    <path d="M 398.275368 343.34 
L 693.687132 343.34 
" style="fill:none;stroke:#000000;stroke-linecap:square;stroke-linejoin:miter;stroke-width:0.8;"/>
   </g>
   <g id="patch_97">
    <path d="M 398.275368 10.7 
L 693.687132 10.7 
" style="fill:none;stroke:#000000;stroke-linecap:square;stroke-linejoin:miter;stroke-width:0.8;"/>
   </g>
   <g id="legend_2">
    <g id="patch_98">
     <path d="M 615.138226 338.84 
L 687.387132 338.84 
Q 689.187132 338.84 689.187132 337.04 
L 689.187132 270.636875 
Q 689.187132 268.836875 687.387132 268.836875 
L 615.138226 268.836875 
Q 613.338226 268.836875 613.338226 270.636875 
L 613.338226 337.04 
Q 613.338226 338.84 615.138226 338.84 
z
" style="fill:#ffffff;opacity:0.8;stroke:#cccccc;stroke-linejoin:miter;"/>
    </g>
    <g id="patch_99">
     <path d="M 616.938226 279.275469 
L 634.938226 279.275469 
L 634.938226 272.975469 
L 616.938226 272.975469 
z
" style="fill:#1f77b4;stroke:#000000;stroke-linejoin:miter;"/>
    </g>
    <g id="text_35">
     <!-- ice_step -->
     <g transform="translate(642.138226 279.275469)scale(0.09 -0.09)">
      <use xlink:href="#DejaVuSans-69"/>
      <use x="27.783203" xlink:href="#DejaVuSans-63"/>
      <use x="82.763672" xlink:href="#DejaVuSans-65"/>
      <use x="144.287109" xlink:href="#DejaVuSans-5f"/>
      <use x="194.287109" xlink:href="#DejaVuSans-73"/>
      <use x="246.386719" xlink:href="#DejaVuSans-74"/>
      <use x="285.595703" xlink:href="#DejaVuSans-65"/>
      <use x="347.119141" xlink:href="#DejaVuSans-70"/>
     </g>
    </g>
    <g id="patch_100">
     <path d="M 616.938226 292.736094 
L 634.938226 292.736094 
L 634.938226 286.436094 
L 616.938226 286.436094 
z
" style="fill:#ff7f0e;stroke:#000000;stroke-linejoin:miter;"/>
    </g>
    <g id="text_36">
     <!-- into_atm -->
     <g transform="translate(642.138226 292.736094)scale(0.09 -0.09)">
      <use xlink:href="#DejaVuSans-69"/>
      <use x="27.783203" xlink:href="#DejaVuSans-6e"/>
      <use x="91.162109" xlink:href="#DejaVuSans-74"/>
      <use x="130.371094" xlink:href="#DejaVuSans-6f"/>
      <use x="191.552734" xlink:href="#DejaVuSans-5f"/>
      <use x="241.552734" xlink:href="#DejaVuSans-61"/>
      <use x="302.832031" xlink:href="#DejaVuSans-74"/>
      <use x="342.041016" xlink:href="#DejaVuSans-6d"/>
     </g>
    </g>
    <g id="patch_101">
     <path d="M 616.938226 306.196719 
L 634.938226 306.196719 
L 634.938226 299.896719 
L 616.938226 299.896719 
z
" style="fill:#2ca02c;stroke:#000000;stroke-linejoin:miter;"/>
    </g>
    <g id="text_37">
     <!-- into_ocn -->
     <g transform="translate(642.138226 306.196719)scale(0.09 -0.09)">
      <use xlink:href="#DejaVuSans-69"/>
      <use x="27.783203" xlink:href="#DejaVuSans-6e"/>
      <use x="91.162109" xlink:href="#DejaVuSans-74"/>
      <use x="130.371094" xlink:href="#DejaVuSans-6f"/>
      <use x="191.552734" xlink:href="#DejaVuSans-5f"/>
      <use x="241.552734" xlink:href="#DejaVuSans-6f"/>
      <use x="302.734375" xlink:href="#DejaVuSans-63"/>
      <use x="357.714844" xlink:href="#DejaVuSans-6e"/>
     </g>
    </g>
    <g id="patch_102">
     <path d="M 616.938226 319.657344 
L 634.938226 319.657344 
L 634.938226 313.357344 
L 616.938226 313.357344 
z
" style="fill:#d62728;stroke:#000000;stroke-linejoin:miter;"/>
    </g>
    <g id="text_38">
     <!-- from_ocn -->
     <g transform="translate(642.138226 319.657344)scale(0.09 -0.09)">
      <use xlink:href="#DejaVuSans-66"/>
      <use x="35.205078" xlink:href="#DejaVuSans-72"/>
      <use x="76.287109" xlink:href="#DejaVuSans-6f"/>
      <use x="137.46875" xlink:href="#DejaVuSans-6d"/>
      <use x="234.880859" xlink:href="#DejaVuSans-5f"/>
      <use x="284.880859" xlink:href="#DejaVuSans-6f"/>
      <use x="346.0625" xlink:href="#DejaVuSans-63"/>
      <use x="401.042969" xlink:href="#DejaVuSans-6e"/>
     </g>
    </g>
    <g id="patch_103">
     <path d="M 616.938226 333.117969 
L 634.938226 333.117969 
L 634.938226 326.817969 
L 616.938226 326.817969 
z
" style="fill:#9467bd;stroke:#000000;stroke-linejoin:miter;"/>
    </g>
    <g id="text_39">
     <!-- from_atm -->
     <g transform="translate(642.138226 333.117969)scale(0.09 -0.09)">
      <use xlink:href="#DejaVuSans-66"/>
      <use x="35.205078" xlink:href="#DejaVuSans-72"/>
      <use x="76.287109" xlink:href="#DejaVuSans-6f"/>
      <use x="137.46875" xlink:href="#DejaVuSans-6d"/>
      <use x="234.880859" xlink:href="#DejaVuSans-5f"/>
      <use x="284.880859" xlink:href="#DejaVuSans-61"/>
      <use x="346.160156" xlink:href="#DejaVuSans-74"/>
      <use x="385.369141" xlink:href="#DejaVuSans-6d"/>
     </g>
    </g>
   </g>
  </g>
  <g id="axes_3">
   <g id="patch_104">
    <path d="M 752.769485 343.34 
L 1048.18125 343.34 
L 1048.18125 10.7 
L 752.769485 10.7 
z
" style="fill:#ffffff;"/>
   </g>
   <g id="patch_105">
    <path clip-path="url(#pab16dc380f)" d="M 766.098571 343.34 
L 837.783177 343.34 
L 837.783177 271.128319 
L 766.098571 271.128319 
z
" style="fill:#1f77b4;stroke:#000000;stroke-linejoin:miter;"/>
   </g>
   <g id="patch_106">
    <path clip-path="url(#pab16dc380f)" d="M 843.511801 343.34 
L 915.196408 343.34 
L 915.196408 187.412247 
L 843.511801 187.412247 
z
" style="fill:#1f77b4;stroke:#000000;stroke-linejoin:miter;"/>
   </g>
   <g id="patch_107">
    <path clip-path="url(#pab16dc380f)" d="M 920.925032 343.34 
L 962.422619 343.34 
L 962.422619 57.890634 
L 920.925032 57.890634 
z
" style="fill:#1f77b4;stroke:#000000;stroke-linejoin:miter;"/>
   </g>
   <g id="patch_108">
    <path clip-path="url(#pab16dc380f)" d="M 966.208869 343.34 
L 995.510676 343.34 
L 995.510676 48.537894 
L 966.208869 48.537894 
z
" style="fill:#1f77b4;stroke:#000000;stroke-linejoin:miter;"/>
   </g>
   <g id="patch_109">
    <path clip-path="url(#pab16dc380f)" d="M 998.338262 343.34 
L 1039.835849 343.34 
L 1039.835849 47.533426 
L 998.338262 47.533426 
z
" style="fill:#1f77b4;stroke:#000000;stroke-linejoin:miter;"/>
   </g>
   <g id="patch_110">
    <path clip-path="url(#pab16dc380f)" d="M 920.925032 343.34 
L 962.422619 343.34 
L 962.422619 57.890634 
L 920.925032 57.890634 
z
" style="fill:url(#hbe4e6c398a);"/>
   </g>
   <g id="patch_111">
    <path clip-path="url(#pab16dc380f)" d="M 766.098571 271.128319 
L 837.783177 271.128319 
L 837.783177 269.526297 
L 766.098571 269.526297 
z
" style="fill:#ff7f0e;stroke:#000000;stroke-linejoin:miter;"/>
   </g>
   <g id="patch_112">
    <path clip-path="url(#pab16dc380f)" d="M 843.511801 187.412247 
L 915.196408 187.412247 
L 915.196408 181.757054 
L 843.511801 181.757054 
z
" style="fill:#ff7f0e;stroke:#000000;stroke-linejoin:miter;"/>
   </g>
   <g id="patch_113">
    <path clip-path="url(#pab16dc380f)" d="M 920.925032 57.890634 
L 962.422619 57.890634 
L 962.422619 52.801985 
L 920.925032 52.801985 
z
" style="fill:#ff7f0e;stroke:#000000;stroke-linejoin:miter;"/>
   </g>
   <g id="patch_114">
    <path clip-path="url(#pab16dc380f)" d="M 966.208869 48.537894 
L 995.510676 48.537894 
L 995.510676 42.163049 
L 966.208869 42.163049 
z
" style="fill:#ff7f0e;stroke:#000000;stroke-linejoin:miter;"/>
   </g>
   <g id="patch_115">
    <path clip-path="url(#pab16dc380f)" d="M 998.338262 47.533426 
L 1039.835849 47.533426 
L 1039.835849 39.787934 
L 998.338262 39.787934 
z
" style="fill:#ff7f0e;stroke:#000000;stroke-linejoin:miter;"/>
   </g>
   <g id="patch_116">
    <path clip-path="url(#pab16dc380f)" d="M 920.925032 57.890634 
L 962.422619 57.890634 
L 962.422619 52.801985 
L 920.925032 52.801985 
z
" style="fill:url(#hbe4e6c398a);"/>
   </g>
   <g id="patch_117">
    <path clip-path="url(#pab16dc380f)" d="M 766.098571 269.526297 
L 837.783177 269.526297 
L 837.783177 268.546956 
L 766.098571 268.546956 
z
" style="fill:#2ca02c;stroke:#000000;stroke-linejoin:miter;"/>
   </g>
   <g id="patch_118">
    <path clip-path="url(#pab16dc380f)" d="M 843.511801 181.757054 
L 915.196408 181.757054 
L 915.196408 179.68216 
L 843.511801 179.68216 
z
" style="fill:#2ca02c;stroke:#000000;stroke-linejoin:miter;"/>
   </g>
   <g id="patch_119">
    <path clip-path="url(#pab16dc380f)" d="M 920.925032 52.801985 
L 962.422619 52.801985 
L 962.422619 49.575995 
L 920.925032 49.575995 
z
" style="fill:#2ca02c;stroke:#000000;stroke-linejoin:miter;"/>
   </g>
   <g id="patch_120">
    <path clip-path="url(#pab16dc380f)" d="M 966.208869 42.163049 
L 995.510676 42.163049 
L 995.510676 38.268855 
L 966.208869 38.268855 
z
" style="fill:#2ca02c;stroke:#000000;stroke-linejoin:miter;"/>
   </g>
   <g id="patch_121">
    <path clip-path="url(#pab16dc380f)" d="M 998.338262 39.787934 
L 1039.835849 39.787934 
L 1039.835849 35.936773 
L 998.338262 35.936773 
z
" style="fill:#2ca02c;stroke:#000000;stroke-linejoin:miter;"/>
   </g>
   <g id="patch_122">
    <path clip-path="url(#pab16dc380f)" d="M 920.925032 52.801985 
L 962.422619 52.801985 
L 962.422619 49.575995 
L 920.925032 49.575995 
z
" style="fill:url(#hbe4e6c398a);"/>
   </g>
   <g id="patch_123">
    <path clip-path="url(#pab16dc380f)" d="M 766.098571 268.546956 
L 837.783177 268.546956 
L 837.783177 19.527432 
L 766.098571 19.527432 
z
" style="fill:#d62728;stroke:#000000;stroke-linejoin:miter;"/>
   </g>
   <g id="patch_124">
    <path clip-path="url(#pab16dc380f)" d="M 843.511801 179.68216 
L 915.196408 179.68216 
L 915.196408 21.328042 
L 843.511801 21.328042 
z
" style="fill:#d62728;stroke:#000000;stroke-linejoin:miter;"/>
   </g>
   <g id="patch_125">
    <path clip-path="url(#pab16dc380f)" d="M 920.925032 49.575995 
L 962.422619 49.575995 
L 962.422619 20.059097 
L 920.925032 20.059097 
z
" style="fill:#d62728;stroke:#000000;stroke-linejoin:miter;"/>
   </g>
   <g id="patch_126">
    <path clip-path="url(#pab16dc380f)" d="M 966.208869 38.268855 
L 995.510676 38.268855 
L 995.510676 24.023282 
L 966.208869 24.023282 
z
" style="fill:#d62728;stroke:#000000;stroke-linejoin:miter;"/>
   </g>
   <g id="patch_127">
    <path clip-path="url(#pab16dc380f)" d="M 998.338262 35.936773 
L 1039.835849 35.936773 
L 1039.835849 20.064144 
L 998.338262 20.064144 
z
" style="fill:#d62728;stroke:#000000;stroke-linejoin:miter;"/>
   </g>
   <g id="patch_128">
    <path clip-path="url(#pab16dc380f)" d="M 920.925032 49.575995 
L 962.422619 49.575995 
L 962.422619 20.059097 
L 920.925032 20.059097 
z
" style="fill:url(#hbe4e6c398a);"/>
   </g>
   <g id="patch_129">
    <path clip-path="url(#pab16dc380f)" d="M 766.098571 19.527432 
L 837.783177 19.527432 
L 837.783177 18.813171 
L 766.098571 18.813171 
z
" style="fill:#9467bd;stroke:#000000;stroke-linejoin:miter;"/>
   </g>
   <g id="patch_130">
    <path clip-path="url(#pab16dc380f)" d="M 843.511801 21.328042 
L 915.196408 21.328042 
L 915.196408 18.813171 
L 843.511801 18.813171 
z
" style="fill:#9467bd;stroke:#000000;stroke-linejoin:miter;"/>
   </g>
   <g id="patch_131">
    <path clip-path="url(#pab16dc380f)" d="M 920.925032 20.059097 
L 962.422619 20.059097 
L 962.422619 18.813171 
L 920.925032 18.813171 
z
" style="fill:#9467bd;stroke:#000000;stroke-linejoin:miter;"/>
   </g>
   <g id="patch_132">
    <path clip-path="url(#pab16dc380f)" d="M 966.208869 24.023282 
L 995.510676 24.023282 
L 995.510676 18.813171 
L 966.208869 18.813171 
z
" style="fill:#9467bd;stroke:#000000;stroke-linejoin:miter;"/>
   </g>
   <g id="patch_133">
    <path clip-path="url(#pab16dc380f)" d="M 998.338262 20.064144 
L 1039.835849 20.064144 
L 1039.835849 18.813171 
L 998.338262 18.813171 
z
" style="fill:#9467bd;stroke:#000000;stroke-linejoin:miter;"/>
   </g>
   <g id="patch_134">
    <path clip-path="url(#pab16dc380f)" d="M 920.925032 20.059097 
L 962.422619 20.059097 
L 962.422619 18.813171 
L 920.925032 18.813171 
z
" style="fill:url(#hbe4e6c398a);"/>
   </g>
   <g id="matplotlib.axis_5">
    <g id="xtick_15">
     <g id="line2d_27">
      <g>
       <use style="stroke:#000000;stroke-width:0.8;" x="807.596158" xlink:href="#m51ea15c100" y="343.34"/>
      </g>
     </g>
     <g id="text_40">
      <!-- 240 -->
      <g style="fill:#ffffff;" transform="translate(798.052408 357.938437)scale(0.1 -0.1)">
       <use xlink:href="#DejaVuSans-32"/>
       <use x="63.623047" xlink:href="#DejaVuSans-34"/>
       <use x="127.246094" xlink:href="#DejaVuSans-30"/>
      </g>
     </g>
    </g>
    <g id="xtick_16">
     <g id="line2d_28">
      <g>
       <use style="stroke:#000000;stroke-width:0.8;" x="885.009388" xlink:href="#m51ea15c100" y="343.34"/>
      </g>
     </g>
     <g id="text_41">
      <!-- 480 -->
      <g style="fill:#ffffff;" transform="translate(875.465638 357.938437)scale(0.1 -0.1)">
       <use xlink:href="#DejaVuSans-34"/>
       <use x="63.623047" xlink:href="#DejaVuSans-38"/>
       <use x="127.246094" xlink:href="#DejaVuSans-30"/>
      </g>
     </g>
    </g>
    <g id="xtick_17">
     <g id="line2d_29">
      <g>
       <use style="stroke:#000000;stroke-width:0.8;" x="943.590213" xlink:href="#m51ea15c100" y="343.34"/>
      </g>
     </g>
     <g id="text_42">
      <!-- 960 -->
      <g style="fill:#ffffff;" transform="translate(934.046463 357.938437)scale(0.1 -0.1)">
       <use xlink:href="#DejaVuSans-39"/>
       <use x="63.623047" xlink:href="#DejaVuSans-36"/>
       <use x="127.246094" xlink:href="#DejaVuSans-30"/>
      </g>
     </g>
    </g>
    <g id="xtick_18">
     <g id="line2d_30">
      <g>
       <use style="stroke:#000000;stroke-width:0.8;" x="981.817997" xlink:href="#m51ea15c100" y="343.34"/>
      </g>
     </g>
     <g id="text_43">
      <!-- 1440 -->
      <g style="fill:#ffffff;" transform="translate(969.092997 357.938437)scale(0.1 -0.1)">
       <use xlink:href="#DejaVuSans-31"/>
       <use x="63.623047" xlink:href="#DejaVuSans-34"/>
       <use x="127.246094" xlink:href="#DejaVuSans-34"/>
       <use x="190.869141" xlink:href="#DejaVuSans-30"/>
      </g>
     </g>
    </g>
    <g id="xtick_19">
     <g id="line2d_31">
      <g>
       <use style="stroke:#000000;stroke-width:0.8;" x="1021.003443" xlink:href="#m51ea15c100" y="343.34"/>
      </g>
     </g>
     <g id="text_44">
      <!-- 1920 -->
      <g style="fill:#ffffff;" transform="translate(1008.278443 357.938437)scale(0.1 -0.1)">
       <use xlink:href="#DejaVuSans-31"/>
       <use x="63.623047" xlink:href="#DejaVuSans-39"/>
       <use x="127.246094" xlink:href="#DejaVuSans-32"/>
       <use x="190.869141" xlink:href="#DejaVuSans-30"/>
      </g>
     </g>
    </g>
    <g id="text_45">
     <!-- # of ocn CPUs -->
     <g style="fill:#ffffff;" transform="translate(864.951149 371.616562)scale(0.1 -0.1)">
      <use xlink:href="#DejaVuSans-23"/>
      <use x="83.789062" xlink:href="#DejaVuSans-20"/>
      <use x="115.576172" xlink:href="#DejaVuSans-6f"/>
      <use x="176.757812" xlink:href="#DejaVuSans-66"/>
      <use x="211.962891" xlink:href="#DejaVuSans-20"/>
      <use x="243.75" xlink:href="#DejaVuSans-6f"/>
      <use x="304.931641" xlink:href="#DejaVuSans-63"/>
      <use x="359.912109" xlink:href="#DejaVuSans-6e"/>
      <use x="423.291016" xlink:href="#DejaVuSans-20"/>
      <use x="455.078125" xlink:href="#DejaVuSans-43"/>
      <use x="524.902344" xlink:href="#DejaVuSans-50"/>
      <use x="585.205078" xlink:href="#DejaVuSans-55"/>
      <use x="658.398438" xlink:href="#DejaVuSans-73"/>
     </g>
    </g>
   </g>
   <g id="matplotlib.axis_6">
    <g id="ytick_13">
     <g id="line2d_32">
      <g>
       <use style="stroke:#000000;stroke-width:0.8;" x="752.769485" xlink:href="#m83f8b34c7b" y="343.34"/>
      </g>
     </g>
     <g id="text_46">
      <!-- 0.0 -->
      <g style="fill:#ffffff;" transform="translate(729.86636 347.139219)scale(0.1 -0.1)">
       <use xlink:href="#DejaVuSans-30"/>
       <use x="63.623047" xlink:href="#DejaVuSans-2e"/>
       <use x="95.410156" xlink:href="#DejaVuSans-30"/>
      </g>
     </g>
    </g>
    <g id="ytick_14">
     <g id="line2d_33">
      <g>
       <use style="stroke:#000000;stroke-width:0.8;" x="752.769485" xlink:href="#m83f8b34c7b" y="278.434634"/>
      </g>
     </g>
     <g id="text_47">
      <!-- 0.2 -->
      <g style="fill:#ffffff;" transform="translate(729.86636 282.233853)scale(0.1 -0.1)">
       <use xlink:href="#DejaVuSans-30"/>
       <use x="63.623047" xlink:href="#DejaVuSans-2e"/>
       <use x="95.410156" xlink:href="#DejaVuSans-32"/>
      </g>
     </g>
    </g>
    <g id="ytick_15">
     <g id="line2d_34">
      <g>
       <use style="stroke:#000000;stroke-width:0.8;" x="752.769485" xlink:href="#m83f8b34c7b" y="213.529268"/>
      </g>
     </g>
     <g id="text_48">
      <!-- 0.4 -->
      <g style="fill:#ffffff;" transform="translate(729.86636 217.328487)scale(0.1 -0.1)">
       <use xlink:href="#DejaVuSans-30"/>
       <use x="63.623047" xlink:href="#DejaVuSans-2e"/>
       <use x="95.410156" xlink:href="#DejaVuSans-34"/>
      </g>
     </g>
    </g>
    <g id="ytick_16">
     <g id="line2d_35">
      <g>
       <use style="stroke:#000000;stroke-width:0.8;" x="752.769485" xlink:href="#m83f8b34c7b" y="148.623902"/>
      </g>
     </g>
     <g id="text_49">
      <!-- 0.6 -->
      <g style="fill:#ffffff;" transform="translate(729.86636 152.423121)scale(0.1 -0.1)">
       <use xlink:href="#DejaVuSans-30"/>
       <use x="63.623047" xlink:href="#DejaVuSans-2e"/>
       <use x="95.410156" xlink:href="#DejaVuSans-36"/>
      </g>
     </g>
    </g>
    <g id="ytick_17">
     <g id="line2d_36">
      <g>
       <use style="stroke:#000000;stroke-width:0.8;" x="752.769485" xlink:href="#m83f8b34c7b" y="83.718537"/>
      </g>
     </g>
     <g id="text_50">
      <!-- 0.8 -->
      <g style="fill:#ffffff;" transform="translate(729.86636 87.517755)scale(0.1 -0.1)">
       <use xlink:href="#DejaVuSans-30"/>
       <use x="63.623047" xlink:href="#DejaVuSans-2e"/>
       <use x="95.410156" xlink:href="#DejaVuSans-38"/>
      </g>
     </g>
    </g>
    <g id="ytick_18">
     <g id="line2d_37">
      <g>
       <use style="stroke:#000000;stroke-width:0.8;" x="752.769485" xlink:href="#m83f8b34c7b" y="18.813171"/>
      </g>
     </g>
     <g id="text_51">
      <!-- 1.0 -->
      <g style="fill:#ffffff;" transform="translate(729.86636 22.612389)scale(0.1 -0.1)">
       <use xlink:href="#DejaVuSans-31"/>
       <use x="63.623047" xlink:href="#DejaVuSans-2e"/>
       <use x="95.410156" xlink:href="#DejaVuSans-30"/>
      </g>
     </g>
    </g>
   </g>
   <g id="patch_135">
    <path d="M 752.769485 343.34 
L 752.769485 10.7 
" style="fill:none;stroke:#000000;stroke-linecap:square;stroke-linejoin:miter;stroke-width:0.8;"/>
   </g>
   <g id="patch_136">
    <path d="M 1048.18125 343.34 
L 1048.18125 10.7 
" style="fill:none;stroke:#000000;stroke-linecap:square;stroke-linejoin:miter;stroke-width:0.8;"/>
   </g>
   <g id="patch_137">
    <path d="M 752.769485 343.34 
L 1048.18125 343.34 
" style="fill:none;stroke:#000000;stroke-linecap:square;stroke-linejoin:miter;stroke-width:0.8;"/>
   </g>
   <g id="patch_138">
    <path d="M 752.769485 10.7 
L 1048.18125 10.7 
" style="fill:none;stroke:#000000;stroke-linecap:square;stroke-linejoin:miter;stroke-width:0.8;"/>
   </g>
   <g id="legend_3">
    <g id="patch_139">
     <path d="M 969.632344 338.84 
L 1041.88125 338.84 
Q 1043.68125 338.84 1043.68125 337.04 
L 1043.68125 270.636875 
Q 1043.68125 268.836875 1041.88125 268.836875 
L 969.632344 268.836875 
Q 967.832344 268.836875 967.832344 270.636875 
L 967.832344 337.04 
Q 967.832344 338.84 969.632344 338.84 
z
" style="fill:#ffffff;opacity:0.8;stroke:#cccccc;stroke-linejoin:miter;"/>
    </g>
    <g id="patch_140">
     <path d="M 971.432344 279.275469 
L 989.432344 279.275469 
L 989.432344 272.975469 
L 971.432344 272.975469 
z
" style="fill:#1f77b4;stroke:#000000;stroke-linejoin:miter;"/>
    </g>
    <g id="text_52">
     <!-- ice_step -->
     <g transform="translate(996.632344 279.275469)scale(0.09 -0.09)">
      <use xlink:href="#DejaVuSans-69"/>
      <use x="27.783203" xlink:href="#DejaVuSans-63"/>
      <use x="82.763672" xlink:href="#DejaVuSans-65"/>
      <use x="144.287109" xlink:href="#DejaVuSans-5f"/>
      <use x="194.287109" xlink:href="#DejaVuSans-73"/>
      <use x="246.386719" xlink:href="#DejaVuSans-74"/>
      <use x="285.595703" xlink:href="#DejaVuSans-65"/>
      <use x="347.119141" xlink:href="#DejaVuSans-70"/>
     </g>
    </g>
    <g id="patch_141">
     <path d="M 971.432344 292.736094 
L 989.432344 292.736094 
L 989.432344 286.436094 
L 971.432344 286.436094 
z
" style="fill:#ff7f0e;stroke:#000000;stroke-linejoin:miter;"/>
    </g>
    <g id="text_53">
     <!-- into_atm -->
     <g transform="translate(996.632344 292.736094)scale(0.09 -0.09)">
      <use xlink:href="#DejaVuSans-69"/>
      <use x="27.783203" xlink:href="#DejaVuSans-6e"/>
      <use x="91.162109" xlink:href="#DejaVuSans-74"/>
      <use x="130.371094" xlink:href="#DejaVuSans-6f"/>
      <use x="191.552734" xlink:href="#DejaVuSans-5f"/>
      <use x="241.552734" xlink:href="#DejaVuSans-61"/>
      <use x="302.832031" xlink:href="#DejaVuSans-74"/>
      <use x="342.041016" xlink:href="#DejaVuSans-6d"/>
     </g>
    </g>
    <g id="patch_142">
     <path d="M 971.432344 306.196719 
L 989.432344 306.196719 
L 989.432344 299.896719 
L 971.432344 299.896719 
z
" style="fill:#2ca02c;stroke:#000000;stroke-linejoin:miter;"/>
    </g>
    <g id="text_54">
     <!-- into_ocn -->
     <g transform="translate(996.632344 306.196719)scale(0.09 -0.09)">
      <use xlink:href="#DejaVuSans-69"/>
      <use x="27.783203" xlink:href="#DejaVuSans-6e"/>
      <use x="91.162109" xlink:href="#DejaVuSans-74"/>
      <use x="130.371094" xlink:href="#DejaVuSans-6f"/>
      <use x="191.552734" xlink:href="#DejaVuSans-5f"/>
      <use x="241.552734" xlink:href="#DejaVuSans-6f"/>
      <use x="302.734375" xlink:href="#DejaVuSans-63"/>
      <use x="357.714844" xlink:href="#DejaVuSans-6e"/>
     </g>
    </g>
    <g id="patch_143">
     <path d="M 971.432344 319.657344 
L 989.432344 319.657344 
L 989.432344 313.357344 
L 971.432344 313.357344 
z
" style="fill:#d62728;stroke:#000000;stroke-linejoin:miter;"/>
    </g>
    <g id="text_55">
     <!-- from_ocn -->
     <g transform="translate(996.632344 319.657344)scale(0.09 -0.09)">
      <use xlink:href="#DejaVuSans-66"/>
      <use x="35.205078" xlink:href="#DejaVuSans-72"/>
      <use x="76.287109" xlink:href="#DejaVuSans-6f"/>
      <use x="137.46875" xlink:href="#DejaVuSans-6d"/>
      <use x="234.880859" xlink:href="#DejaVuSans-5f"/>
      <use x="284.880859" xlink:href="#DejaVuSans-6f"/>
      <use x="346.0625" xlink:href="#DejaVuSans-63"/>
      <use x="401.042969" xlink:href="#DejaVuSans-6e"/>
     </g>
    </g>
    <g id="patch_144">
     <path d="M 971.432344 333.117969 
L 989.432344 333.117969 
L 989.432344 326.817969 
L 971.432344 326.817969 
z
" style="fill:#9467bd;stroke:#000000;stroke-linejoin:miter;"/>
    </g>
    <g id="text_56">
     <!-- from_atm -->
     <g transform="translate(996.632344 333.117969)scale(0.09 -0.09)">
      <use xlink:href="#DejaVuSans-66"/>
      <use x="35.205078" xlink:href="#DejaVuSans-72"/>
      <use x="76.287109" xlink:href="#DejaVuSans-6f"/>
      <use x="137.46875" xlink:href="#DejaVuSans-6d"/>
      <use x="234.880859" xlink:href="#DejaVuSans-5f"/>
      <use x="284.880859" xlink:href="#DejaVuSans-61"/>
      <use x="346.160156" xlink:href="#DejaVuSans-74"/>
      <use x="385.369141" xlink:href="#DejaVuSans-6d"/>
     </g>
    </g>
   </g>
  </g>
 </g>
 <defs>
  <clipPath id="pc4b801ca91">
   <rect height="332.64" width="295.411765" x="43.78125" y="10.7"/>
  </clipPath>
  <clipPath id="pb59cd463bc">
   <rect height="332.64" width="295.411765" x="398.275368" y="10.7"/>
  </clipPath>
  <clipPath id="pab16dc380f">
   <rect height="332.64" width="295.411765" x="752.769485" y="10.7"/>
  </clipPath>
 </defs>
 <defs>
  <pattern height="72" id="hbe4e6c398a" patternUnits="userSpaceOnUse" width="72" x="0" y="0">
   <rect fill="none" height="73" width="73" x="0" y="0"/>
   <path d="M -36 36 
L 36 -36 
M -24 48 
L 48 -24 
M -12 60 
L 60 -12 
M 0 72 
L 72 0 
M 12 84 
L 84 12 
M 24 96 
L 96 24 
M 36 108 
L 108 36 
M -36 36 
L 36 108 
M -24 24 
L 48 96 
M -12 12 
L 60 84 
M 0 0 
L 72 72 
M 12 -12 
L 84 60 
M 24 -24 
L 96 48 
M 36 -36 
L 108 36 
" style="fill:#000000;stroke:#000000;stroke-linecap:butt;stroke-linejoin:miter;stroke-width:1.0;"/>
  </pattern>
 </defs>
</svg>
