<?xml version="1.0" encoding="utf-8" standalone="no"?>
<!DOCTYPE svg PUBLIC "-//W3C//DTD SVG 1.1//EN"
  "http://www.w3.org/Graphics/SVG/1.1/DTD/svg11.dtd">
<!-- Created with matplotlib (http://matplotlib.org/) -->
<svg height="380pt" version="1.1" viewBox="0 0 1058 380" width="1058pt" xmlns="http://www.w3.org/2000/svg" xmlns:xlink="http://www.w3.org/1999/xlink">
 <defs>
  <style type="text/css">
*{stroke-linecap:butt;stroke-linejoin:round;}
  </style>
 </defs>
 <g id="figure_1">
  <g id="patch_1">
   <path d="M 0 380.89625 
L 1058.88125 380.89625 
L 1058.88125 0 
L 0 0 
z
" style="fill:none;"/>
  </g>
  <g id="axes_1">
   <g id="patch_2">
    <path d="M 43.78125 343.34 
L 339.193015 343.34 
L 339.193015 10.7 
L 43.78125 10.7 
z
" style="fill:#ffffff;"/>
   </g>
   <g id="patch_3">
    <path clip-path="url(#pf443ccbe6e)" d="M 54.34269 343.34 
L 111.142734 343.34 
L 111.142734 250.900649 
L 54.34269 250.900649 
z
" style="fill:#1f77b4;stroke:#000000;stroke-linejoin:miter;"/>
   </g>
   <g id="patch_4">
    <path clip-path="url(#pf443ccbe6e)" d="M 115.681868 343.34 
L 148.562913 343.34 
L 148.562913 190.635805 
L 115.681868 190.635805 
z
" style="fill:#1f77b4;stroke:#000000;stroke-linejoin:miter;"/>
   </g>
   <g id="patch_5">
    <path clip-path="url(#pf443ccbe6e)" d="M 151.562988 343.34 
L 174.78058 343.34 
L 174.78058 136.519145 
L 151.562988 136.519145 
z
" style="fill:#1f77b4;stroke:#000000;stroke-linejoin:miter;"/>
   </g>
   <g id="patch_6">
    <path clip-path="url(#pf443ccbe6e)" d="M 177.021047 343.34 
L 209.902092 343.34 
L 209.902092 86.124292 
L 177.021047 86.124292 
z
" style="fill:#1f77b4;stroke:#000000;stroke-linejoin:miter;"/>
   </g>
   <g id="patch_7">
    <path clip-path="url(#pf443ccbe6e)" d="M 212.902167 343.34 
L 236.119759 343.34 
L 236.119759 58.020414 
L 212.902167 58.020414 
z
" style="fill:#1f77b4;stroke:#000000;stroke-linejoin:miter;"/>
   </g>
   <g id="patch_8">
    <path clip-path="url(#pf443ccbe6e)" d="M 238.360226 343.34 
L 247.794519 343.34 
L 247.794519 58.168497 
L 238.360226 58.168497 
z
" style="fill:#1f77b4;stroke:#000000;stroke-linejoin:miter;"/>
   </g>
   <g id="patch_9">
    <path clip-path="url(#pf443ccbe6e)" d="M 248.783286 343.34 
L 272.000878 343.34 
L 272.000878 62.484676 
L 248.783286 62.484676 
z
" style="fill:#1f77b4;stroke:#000000;stroke-linejoin:miter;"/>
   </g>
   <g id="patch_10">
    <path clip-path="url(#pf443ccbe6e)" d="M 274.241345 343.34 
L 297.458938 343.34 
L 297.458938 55.102832 
L 274.241345 55.102832 
z
" style="fill:#1f77b4;stroke:#000000;stroke-linejoin:miter;"/>
   </g>
   <g id="patch_11">
    <path clip-path="url(#pf443ccbe6e)" d="M 299.699405 343.34 
L 332.580449 343.34 
L 332.580449 54.074245 
L 299.699405 54.074245 
z
" style="fill:#1f77b4;stroke:#000000;stroke-linejoin:miter;"/>
   </g>
   <g id="patch_12">
    <path clip-path="url(#pf443ccbe6e)" d="M 248.783286 343.34 
L 272.000878 343.34 
L 272.000878 62.484676 
L 248.783286 62.484676 
z
" style="fill:url(#h5a513e4d85);"/>
   </g>
   <g id="patch_13">
    <path clip-path="url(#pf443ccbe6e)" d="M 54.34269 250.900649 
L 111.142734 250.900649 
L 111.142734 27.205479 
L 54.34269 27.205479 
z
" style="fill:#ff7f0e;stroke:#000000;stroke-linejoin:miter;"/>
   </g>
   <g id="patch_14">
    <path clip-path="url(#pf443ccbe6e)" d="M 115.681868 190.635805 
L 148.562913 190.635805 
L 148.562913 27.620123 
L 115.681868 27.620123 
z
" style="fill:#ff7f0e;stroke:#000000;stroke-linejoin:miter;"/>
   </g>
   <g id="patch_15">
    <path clip-path="url(#pf443ccbe6e)" d="M 151.562988 136.519145 
L 174.78058 136.519145 
L 174.78058 28.695418 
L 151.562988 28.695418 
z
" style="fill:#ff7f0e;stroke:#000000;stroke-linejoin:miter;"/>
   </g>
   <g id="patch_16">
    <path clip-path="url(#pf443ccbe6e)" d="M 177.021047 86.124292 
L 209.902092 86.124292 
L 209.902092 28.893047 
L 177.021047 28.893047 
z
" style="fill:#ff7f0e;stroke:#000000;stroke-linejoin:miter;"/>
   </g>
   <g id="patch_17">
    <path clip-path="url(#pf443ccbe6e)" d="M 212.902167 58.020414 
L 236.119759 58.020414 
L 236.119759 28.752769 
L 212.902167 28.752769 
z
" style="fill:#ff7f0e;stroke:#000000;stroke-linejoin:miter;"/>
   </g>
   <g id="patch_18">
    <path clip-path="url(#pf443ccbe6e)" d="M 238.360226 58.168497 
L 247.794519 58.168497 
L 247.794519 28.593866 
L 238.360226 28.593866 
z
" style="fill:#ff7f0e;stroke:#000000;stroke-linejoin:miter;"/>
   </g>
   <g id="patch_19">
    <path clip-path="url(#pf443ccbe6e)" d="M 248.783286 62.484676 
L 272.000878 62.484676 
L 272.000878 31.020163 
L 248.783286 31.020163 
z
" style="fill:#ff7f0e;stroke:#000000;stroke-linejoin:miter;"/>
   </g>
   <g id="patch_20">
    <path clip-path="url(#pf443ccbe6e)" d="M 274.241345 55.102832 
L 297.458938 55.102832 
L 297.458938 28.685923 
L 274.241345 28.685923 
z
" style="fill:#ff7f0e;stroke:#000000;stroke-linejoin:miter;"/>
   </g>
   <g id="patch_21">
    <path clip-path="url(#pf443ccbe6e)" d="M 299.699405 54.074245 
L 332.580449 54.074245 
L 332.580449 29.293966 
L 299.699405 29.293966 
z
" style="fill:#ff7f0e;stroke:#000000;stroke-linejoin:miter;"/>
   </g>
   <g id="patch_22">
    <path clip-path="url(#pf443ccbe6e)" d="M 248.783286 62.484676 
L 272.000878 62.484676 
L 272.000878 31.020163 
L 248.783286 31.020163 
z
" style="fill:url(#h5a513e4d85);"/>
   </g>
   <g id="patch_23">
    <path clip-path="url(#pf443ccbe6e)" d="M 54.34269 27.205479 
L 111.142734 27.205479 
L 111.142734 27.006558 
L 54.34269 27.006558 
z
" style="fill:#2ca02c;stroke:#000000;stroke-linejoin:miter;"/>
   </g>
   <g id="patch_24">
    <path clip-path="url(#pf443ccbe6e)" d="M 115.681868 27.620123 
L 148.562913 27.620123 
L 148.562913 27.290463 
L 115.681868 27.290463 
z
" style="fill:#2ca02c;stroke:#000000;stroke-linejoin:miter;"/>
   </g>
   <g id="patch_25">
    <path clip-path="url(#pf443ccbe6e)" d="M 151.562988 28.695418 
L 174.78058 28.695418 
L 174.78058 28.22885 
L 151.562988 28.22885 
z
" style="fill:#2ca02c;stroke:#000000;stroke-linejoin:miter;"/>
   </g>
   <g id="patch_26">
    <path clip-path="url(#pf443ccbe6e)" d="M 177.021047 28.893047 
L 209.902092 28.893047 
L 209.902092 28.334771 
L 177.021047 28.334771 
z
" style="fill:#2ca02c;stroke:#000000;stroke-linejoin:miter;"/>
   </g>
   <g id="patch_27">
    <path clip-path="url(#pf443ccbe6e)" d="M 212.902167 28.752769 
L 236.119759 28.752769 
L 236.119759 28.123704 
L 212.902167 28.123704 
z
" style="fill:#2ca02c;stroke:#000000;stroke-linejoin:miter;"/>
   </g>
   <g id="patch_28">
    <path clip-path="url(#pf443ccbe6e)" d="M 238.360226 28.593866 
L 247.794519 28.593866 
L 247.794519 27.964903 
L 238.360226 27.964903 
z
" style="fill:#2ca02c;stroke:#000000;stroke-linejoin:miter;"/>
   </g>
   <g id="patch_29">
    <path clip-path="url(#pf443ccbe6e)" d="M 248.783286 31.020163 
L 272.000878 31.020163 
L 272.000878 30.385213 
L 248.783286 30.385213 
z
" style="fill:#2ca02c;stroke:#000000;stroke-linejoin:miter;"/>
   </g>
   <g id="patch_30">
    <path clip-path="url(#pf443ccbe6e)" d="M 274.241345 28.685923 
L 297.458938 28.685923 
L 297.458938 28.044476 
L 274.241345 28.044476 
z
" style="fill:#2ca02c;stroke:#000000;stroke-linejoin:miter;"/>
   </g>
   <g id="patch_31">
    <path clip-path="url(#pf443ccbe6e)" d="M 299.699405 29.293966 
L 332.580449 29.293966 
L 332.580449 28.658338 
L 299.699405 28.658338 
z
" style="fill:#2ca02c;stroke:#000000;stroke-linejoin:miter;"/>
   </g>
   <g id="patch_32">
    <path clip-path="url(#pf443ccbe6e)" d="M 248.783286 31.020163 
L 272.000878 31.020163 
L 272.000878 30.385213 
L 248.783286 30.385213 
z
" style="fill:url(#h5a513e4d85);"/>
   </g>
   <g id="patch_33">
    <path clip-path="url(#pf443ccbe6e)" d="M 54.34269 27.006558 
L 111.142734 27.006558 
L 111.142734 26.54 
L 54.34269 26.54 
z
" style="fill:#d62728;stroke:#000000;stroke-linejoin:miter;"/>
   </g>
   <g id="patch_34">
    <path clip-path="url(#pf443ccbe6e)" d="M 115.681868 27.290463 
L 148.562913 27.290463 
L 148.562913 26.54 
L 115.681868 26.54 
z
" style="fill:#d62728;stroke:#000000;stroke-linejoin:miter;"/>
   </g>
   <g id="patch_35">
    <path clip-path="url(#pf443ccbe6e)" d="M 151.562988 28.22885 
L 174.78058 28.22885 
L 174.78058 26.54 
L 151.562988 26.54 
z
" style="fill:#d62728;stroke:#000000;stroke-linejoin:miter;"/>
   </g>
   <g id="patch_36">
    <path clip-path="url(#pf443ccbe6e)" d="M 177.021047 28.334771 
L 209.902092 28.334771 
L 209.902092 26.54 
L 177.021047 26.54 
z
" style="fill:#d62728;stroke:#000000;stroke-linejoin:miter;"/>
   </g>
   <g id="patch_37">
    <path clip-path="url(#pf443ccbe6e)" d="M 212.902167 28.123704 
L 236.119759 28.123704 
L 236.119759 26.54 
L 212.902167 26.54 
z
" style="fill:#d62728;stroke:#000000;stroke-linejoin:miter;"/>
   </g>
   <g id="patch_38">
    <path clip-path="url(#pf443ccbe6e)" d="M 238.360226 27.964903 
L 247.794519 27.964903 
L 247.794519 26.54 
L 238.360226 26.54 
z
" style="fill:#d62728;stroke:#000000;stroke-linejoin:miter;"/>
   </g>
   <g id="patch_39">
    <path clip-path="url(#pf443ccbe6e)" d="M 248.783286 30.385213 
L 272.000878 30.385213 
L 272.000878 26.54 
L 248.783286 26.54 
z
" style="fill:#d62728;stroke:#000000;stroke-linejoin:miter;"/>
   </g>
   <g id="patch_40">
    <path clip-path="url(#pf443ccbe6e)" d="M 274.241345 28.044476 
L 297.458938 28.044476 
L 297.458938 26.54 
L 274.241345 26.54 
z
" style="fill:#d62728;stroke:#000000;stroke-linejoin:miter;"/>
   </g>
   <g id="patch_41">
    <path clip-path="url(#pf443ccbe6e)" d="M 299.699405 28.658338 
L 332.580449 28.658338 
L 332.580449 26.54 
L 299.699405 26.54 
z
" style="fill:#d62728;stroke:#000000;stroke-linejoin:miter;"/>
   </g>
   <g id="patch_42">
    <path clip-path="url(#pf443ccbe6e)" d="M 248.783286 30.385213 
L 272.000878 30.385213 
L 272.000878 26.54 
L 248.783286 26.54 
z
" style="fill:url(#h5a513e4d85);"/>
   </g>
   <g id="matplotlib.axis_1">
    <g id="xtick_1">
     <g id="line2d_1">
      <defs>
       <path d="M 0 0 
L 0 3.5 
" id="m6998f13437" style="stroke:#000000;stroke-width:0.8;"/>
      </defs>
      <g>
       <use style="stroke:#000000;stroke-width:0.8;" x="87.223734" xlink:href="#m6998f13437" y="343.34"/>
      </g>
     </g>
     <g id="text_1">
      <!-- 48 -->
      <defs>
       <path d="M 37.796875 64.3125 
L 12.890625 25.390625 
L 37.796875 25.390625 
z
M 35.203125 72.90625 
L 47.609375 72.90625 
L 47.609375 25.390625 
L 58.015625 25.390625 
L 58.015625 17.1875 
L 47.609375 17.1875 
L 47.609375 0 
L 37.796875 0 
L 37.796875 17.1875 
L 4.890625 17.1875 
L 4.890625 26.703125 
z
" id="DejaVuSans-34"/>
       <path d="M 31.78125 34.625 
Q 24.75 34.625 20.71875 30.859375 
Q 16.703125 27.09375 16.703125 20.515625 
Q 16.703125 13.921875 20.71875 10.15625 
Q 24.75 6.390625 31.78125 6.390625 
Q 38.8125 6.390625 42.859375 10.171875 
Q 46.921875 13.96875 46.921875 20.515625 
Q 46.921875 27.09375 42.890625 30.859375 
Q 38.875 34.625 31.78125 34.625 
M 21.921875 38.8125 
Q 15.578125 40.375 12.03125 44.71875 
Q 8.5 49.078125 8.5 55.328125 
Q 8.5 64.0625 14.71875 69.140625 
Q 20.953125 74.21875 31.78125 74.21875 
Q 42.671875 74.21875 48.875 69.140625 
Q 55.078125 64.0625 55.078125 55.328125 
Q 55.078125 49.078125 51.53125 44.71875 
Q 48 40.375 41.703125 38.8125 
Q 48.828125 37.15625 52.796875 32.3125 
Q 56.78125 27.484375 56.78125 20.515625 
Q 56.78125 9.90625 50.3125 4.234375 
Q 43.84375 -1.421875 31.78125 -1.421875 
Q 19.734375 -1.421875 13.25 4.234375 
Q 6.78125 9.90625 6.78125 20.515625 
Q 6.78125 27.484375 10.78125 32.3125 
Q 14.796875 37.15625 21.921875 38.8125 
M 18.3125 54.390625 
Q 18.3125 48.734375 21.84375 45.5625 
Q 25.390625 42.390625 31.78125 42.390625 
Q 38.140625 42.390625 41.71875 45.5625 
Q 45.3125 48.734375 45.3125 54.390625 
Q 45.3125 60.0625 41.71875 63.234375 
Q 38.140625 66.40625 31.78125 66.40625 
Q 25.390625 66.40625 21.84375 63.234375 
Q 18.3125 60.0625 18.3125 54.390625 
" id="DejaVuSans-38"/>
      </defs>
      <g style="fill:#ffffff;" transform="translate(80.861234 357.938437)scale(0.1 -0.1)">
       <use xlink:href="#DejaVuSans-34"/>
       <use x="63.623047" xlink:href="#DejaVuSans-38"/>
      </g>
     </g>
    </g>
    <g id="xtick_2">
     <g id="line2d_2">
      <g>
       <use style="stroke:#000000;stroke-width:0.8;" x="133.64086" xlink:href="#m6998f13437" y="343.34"/>
      </g>
     </g>
     <g id="text_2">
      <!-- 96 -->
      <defs>
       <path d="M 10.984375 1.515625 
L 10.984375 10.5 
Q 14.703125 8.734375 18.5 7.8125 
Q 22.3125 6.890625 25.984375 6.890625 
Q 35.75 6.890625 40.890625 13.453125 
Q 46.046875 20.015625 46.78125 33.40625 
Q 43.953125 29.203125 39.59375 26.953125 
Q 35.25 24.703125 29.984375 24.703125 
Q 19.046875 24.703125 12.671875 31.3125 
Q 6.296875 37.9375 6.296875 49.421875 
Q 6.296875 60.640625 12.9375 67.421875 
Q 19.578125 74.21875 30.609375 74.21875 
Q 43.265625 74.21875 49.921875 64.515625 
Q 56.59375 54.828125 56.59375 36.375 
Q 56.59375 19.140625 48.40625 8.859375 
Q 40.234375 -1.421875 26.421875 -1.421875 
Q 22.703125 -1.421875 18.890625 -0.6875 
Q 15.09375 0.046875 10.984375 1.515625 
M 30.609375 32.421875 
Q 37.25 32.421875 41.125 36.953125 
Q 45.015625 41.5 45.015625 49.421875 
Q 45.015625 57.28125 41.125 61.84375 
Q 37.25 66.40625 30.609375 66.40625 
Q 23.96875 66.40625 20.09375 61.84375 
Q 16.21875 57.28125 16.21875 49.421875 
Q 16.21875 41.5 20.09375 36.953125 
Q 23.96875 32.421875 30.609375 32.421875 
" id="DejaVuSans-39"/>
       <path d="M 33.015625 40.375 
Q 26.375 40.375 22.484375 35.828125 
Q 18.609375 31.296875 18.609375 23.390625 
Q 18.609375 15.53125 22.484375 10.953125 
Q 26.375 6.390625 33.015625 6.390625 
Q 39.65625 6.390625 43.53125 10.953125 
Q 47.40625 15.53125 47.40625 23.390625 
Q 47.40625 31.296875 43.53125 35.828125 
Q 39.65625 40.375 33.015625 40.375 
M 52.59375 71.296875 
L 52.59375 62.3125 
Q 48.875 64.0625 45.09375 64.984375 
Q 41.3125 65.921875 37.59375 65.921875 
Q 27.828125 65.921875 22.671875 59.328125 
Q 17.53125 52.734375 16.796875 39.40625 
Q 19.671875 43.65625 24.015625 45.921875 
Q 28.375 48.1875 33.59375 48.1875 
Q 44.578125 48.1875 50.953125 41.515625 
Q 57.328125 34.859375 57.328125 23.390625 
Q 57.328125 12.15625 50.6875 5.359375 
Q 44.046875 -1.421875 33.015625 -1.421875 
Q 20.359375 -1.421875 13.671875 8.265625 
Q 6.984375 17.96875 6.984375 36.375 
Q 6.984375 53.65625 15.1875 63.9375 
Q 23.390625 74.21875 37.203125 74.21875 
Q 40.921875 74.21875 44.703125 73.484375 
Q 48.484375 72.75 52.59375 71.296875 
" id="DejaVuSans-36"/>
      </defs>
      <g style="fill:#ffffff;" transform="translate(127.27836 357.938437)scale(0.1 -0.1)">
       <use xlink:href="#DejaVuSans-39"/>
       <use x="63.623047" xlink:href="#DejaVuSans-36"/>
      </g>
     </g>
    </g>
    <g id="xtick_3">
     <g id="line2d_3">
      <g>
       <use style="stroke:#000000;stroke-width:0.8;" x="163.931043" xlink:href="#m6998f13437" y="343.34"/>
      </g>
     </g>
     <g id="text_3">
      <!-- 144 -->
      <defs>
       <path d="M 12.40625 8.296875 
L 28.515625 8.296875 
L 28.515625 63.921875 
L 10.984375 60.40625 
L 10.984375 69.390625 
L 28.421875 72.90625 
L 38.28125 72.90625 
L 38.28125 8.296875 
L 54.390625 8.296875 
L 54.390625 0 
L 12.40625 0 
z
" id="DejaVuSans-31"/>
      </defs>
      <g style="fill:#ffffff;" transform="translate(154.387293 357.938437)scale(0.1 -0.1)">
       <use xlink:href="#DejaVuSans-31"/>
       <use x="63.623047" xlink:href="#DejaVuSans-34"/>
       <use x="127.246094" xlink:href="#DejaVuSans-34"/>
      </g>
     </g>
    </g>
    <g id="xtick_4">
     <g id="line2d_4">
      <g>
       <use style="stroke:#000000;stroke-width:0.8;" x="194.980039" xlink:href="#m6998f13437" y="343.34"/>
      </g>
     </g>
     <g id="text_4">
      <!-- 192 -->
      <defs>
       <path d="M 19.1875 8.296875 
L 53.609375 8.296875 
L 53.609375 0 
L 7.328125 0 
L 7.328125 8.296875 
Q 12.9375 14.109375 22.625 23.890625 
Q 32.328125 33.6875 34.8125 36.53125 
Q 39.546875 41.84375 41.421875 45.53125 
Q 43.3125 49.21875 43.3125 52.78125 
Q 43.3125 58.59375 39.234375 62.25 
Q 35.15625 65.921875 28.609375 65.921875 
Q 23.96875 65.921875 18.8125 64.3125 
Q 13.671875 62.703125 7.8125 59.421875 
L 7.8125 69.390625 
Q 13.765625 71.78125 18.9375 73 
Q 24.125 74.21875 28.421875 74.21875 
Q 39.75 74.21875 46.484375 68.546875 
Q 53.21875 62.890625 53.21875 53.421875 
Q 53.21875 48.921875 51.53125 44.890625 
Q 49.859375 40.875 45.40625 35.40625 
Q 44.1875 33.984375 37.640625 27.21875 
Q 31.109375 20.453125 19.1875 8.296875 
" id="DejaVuSans-32"/>
      </defs>
      <g style="fill:#ffffff;" transform="translate(185.436289 357.938437)scale(0.1 -0.1)">
       <use xlink:href="#DejaVuSans-31"/>
       <use x="63.623047" xlink:href="#DejaVuSans-39"/>
       <use x="127.246094" xlink:href="#DejaVuSans-32"/>
      </g>
     </g>
    </g>
    <g id="xtick_5">
     <g id="line2d_5">
      <g>
       <use style="stroke:#000000;stroke-width:0.8;" x="225.270222" xlink:href="#m6998f13437" y="343.34"/>
      </g>
     </g>
     <g id="text_5">
      <!-- 288 -->
      <g style="fill:#ffffff;" transform="translate(215.726472 357.938437)scale(0.1 -0.1)">
       <use xlink:href="#DejaVuSans-32"/>
       <use x="63.623047" xlink:href="#DejaVuSans-38"/>
       <use x="127.246094" xlink:href="#DejaVuSans-38"/>
      </g>
     </g>
    </g>
    <g id="xtick_6">
     <g id="line2d_6">
      <g>
       <use style="stroke:#000000;stroke-width:0.8;" x="243.203036" xlink:href="#m6998f13437" y="343.34"/>
      </g>
     </g>
     <g id="text_6">
      <!-- 384 -->
      <defs>
       <path d="M 40.578125 39.3125 
Q 47.65625 37.796875 51.625 33 
Q 55.609375 28.21875 55.609375 21.1875 
Q 55.609375 10.40625 48.1875 4.484375 
Q 40.765625 -1.421875 27.09375 -1.421875 
Q 22.515625 -1.421875 17.65625 -0.515625 
Q 12.796875 0.390625 7.625 2.203125 
L 7.625 11.71875 
Q 11.71875 9.328125 16.59375 8.109375 
Q 21.484375 6.890625 26.8125 6.890625 
Q 36.078125 6.890625 40.9375 10.546875 
Q 45.796875 14.203125 45.796875 21.1875 
Q 45.796875 27.640625 41.28125 31.265625 
Q 36.765625 34.90625 28.71875 34.90625 
L 20.21875 34.90625 
L 20.21875 43.015625 
L 29.109375 43.015625 
Q 36.375 43.015625 40.234375 45.921875 
Q 44.09375 48.828125 44.09375 54.296875 
Q 44.09375 59.90625 40.109375 62.90625 
Q 36.140625 65.921875 28.71875 65.921875 
Q 24.65625 65.921875 20.015625 65.03125 
Q 15.375 64.15625 9.8125 62.3125 
L 9.8125 71.09375 
Q 15.4375 72.65625 20.34375 73.4375 
Q 25.25 74.21875 29.59375 74.21875 
Q 40.828125 74.21875 47.359375 69.109375 
Q 53.90625 64.015625 53.90625 55.328125 
Q 53.90625 49.265625 50.4375 45.09375 
Q 46.96875 40.921875 40.578125 39.3125 
" id="DejaVuSans-33"/>
      </defs>
      <g style="fill:#ffffff;" transform="translate(233.659286 357.938437)scale(0.1 -0.1)">
       <use xlink:href="#DejaVuSans-33"/>
       <use x="63.623047" xlink:href="#DejaVuSans-38"/>
       <use x="127.246094" xlink:href="#DejaVuSans-34"/>
      </g>
     </g>
    </g>
    <g id="xtick_7">
     <g id="line2d_7">
      <g>
       <use style="stroke:#000000;stroke-width:0.8;" x="261.151341" xlink:href="#m6998f13437" y="343.34"/>
      </g>
     </g>
     <g id="text_7">
      <!-- 432 -->
      <g style="fill:#ffffff;" transform="translate(251.607591 357.938437)scale(0.1 -0.1)">
       <use xlink:href="#DejaVuSans-34"/>
       <use x="63.623047" xlink:href="#DejaVuSans-33"/>
       <use x="127.246094" xlink:href="#DejaVuSans-32"/>
      </g>
     </g>
    </g>
    <g id="xtick_8">
     <g id="line2d_8">
      <g>
       <use style="stroke:#000000;stroke-width:0.8;" x="286.609401" xlink:href="#m6998f13437" y="343.34"/>
      </g>
     </g>
     <g id="text_8">
      <!-- 576 -->
      <defs>
       <path d="M 10.796875 72.90625 
L 49.515625 72.90625 
L 49.515625 64.59375 
L 19.828125 64.59375 
L 19.828125 46.734375 
Q 21.96875 47.46875 24.109375 47.828125 
Q 26.265625 48.1875 28.421875 48.1875 
Q 40.625 48.1875 47.75 41.5 
Q 54.890625 34.8125 54.890625 23.390625 
Q 54.890625 11.625 47.5625 5.09375 
Q 40.234375 -1.421875 26.90625 -1.421875 
Q 22.3125 -1.421875 17.546875 -0.640625 
Q 12.796875 0.140625 7.71875 1.703125 
L 7.71875 11.625 
Q 12.109375 9.234375 16.796875 8.0625 
Q 21.484375 6.890625 26.703125 6.890625 
Q 35.15625 6.890625 40.078125 11.328125 
Q 45.015625 15.765625 45.015625 23.390625 
Q 45.015625 31 40.078125 35.4375 
Q 35.15625 39.890625 26.703125 39.890625 
Q 22.75 39.890625 18.8125 39.015625 
Q 14.890625 38.140625 10.796875 36.28125 
z
" id="DejaVuSans-35"/>
       <path d="M 8.203125 72.90625 
L 55.078125 72.90625 
L 55.078125 68.703125 
L 28.609375 0 
L 18.3125 0 
L 43.21875 64.59375 
L 8.203125 64.59375 
z
" id="DejaVuSans-37"/>
      </defs>
      <g style="fill:#ffffff;" transform="translate(277.065651 357.938437)scale(0.1 -0.1)">
       <use xlink:href="#DejaVuSans-35"/>
       <use x="63.623047" xlink:href="#DejaVuSans-37"/>
       <use x="127.246094" xlink:href="#DejaVuSans-36"/>
      </g>
     </g>
    </g>
    <g id="xtick_9">
     <g id="line2d_9">
      <g>
       <use style="stroke:#000000;stroke-width:0.8;" x="317.658397" xlink:href="#m6998f13437" y="343.34"/>
      </g>
     </g>
     <g id="text_9">
      <!-- 768 -->
      <g style="fill:#ffffff;" transform="translate(308.114647 357.938437)scale(0.1 -0.1)">
       <use xlink:href="#DejaVuSans-37"/>
       <use x="63.623047" xlink:href="#DejaVuSans-36"/>
       <use x="127.246094" xlink:href="#DejaVuSans-38"/>
      </g>
     </g>
    </g>
    <g id="text_10">
     <!-- # of atm CPUs -->
     <defs>
      <path d="M 51.125 44 
L 36.921875 44 
L 32.8125 27.6875 
L 47.125 27.6875 
z
M 43.796875 71.78125 
L 38.71875 51.515625 
L 52.984375 51.515625 
L 58.109375 71.78125 
L 65.921875 71.78125 
L 60.890625 51.515625 
L 76.125 51.515625 
L 76.125 44 
L 58.984375 44 
L 54.984375 27.6875 
L 70.515625 27.6875 
L 70.515625 20.21875 
L 53.078125 20.21875 
L 48 0 
L 40.1875 0 
L 45.21875 20.21875 
L 30.90625 20.21875 
L 25.875 0 
L 18.015625 0 
L 23.09375 20.21875 
L 7.71875 20.21875 
L 7.71875 27.6875 
L 24.90625 27.6875 
L 29 44 
L 13.28125 44 
L 13.28125 51.515625 
L 30.90625 51.515625 
L 35.890625 71.78125 
z
" id="DejaVuSans-23"/>
      <path id="DejaVuSans-20"/>
      <path d="M 30.609375 48.390625 
Q 23.390625 48.390625 19.1875 42.75 
Q 14.984375 37.109375 14.984375 27.296875 
Q 14.984375 17.484375 19.15625 11.84375 
Q 23.34375 6.203125 30.609375 6.203125 
Q 37.796875 6.203125 41.984375 11.859375 
Q 46.1875 17.53125 46.1875 27.296875 
Q 46.1875 37.015625 41.984375 42.703125 
Q 37.796875 48.390625 30.609375 48.390625 
M 30.609375 56 
Q 42.328125 56 49.015625 48.375 
Q 55.71875 40.765625 55.71875 27.296875 
Q 55.71875 13.875 49.015625 6.21875 
Q 42.328125 -1.421875 30.609375 -1.421875 
Q 18.84375 -1.421875 12.171875 6.21875 
Q 5.515625 13.875 5.515625 27.296875 
Q 5.515625 40.765625 12.171875 48.375 
Q 18.84375 56 30.609375 56 
" id="DejaVuSans-6f"/>
      <path d="M 37.109375 75.984375 
L 37.109375 68.5 
L 28.515625 68.5 
Q 23.6875 68.5 21.796875 66.546875 
Q 19.921875 64.59375 19.921875 59.515625 
L 19.921875 54.6875 
L 34.71875 54.6875 
L 34.71875 47.703125 
L 19.921875 47.703125 
L 19.921875 0 
L 10.890625 0 
L 10.890625 47.703125 
L 2.296875 47.703125 
L 2.296875 54.6875 
L 10.890625 54.6875 
L 10.890625 58.5 
Q 10.890625 67.625 15.140625 71.796875 
Q 19.390625 75.984375 28.609375 75.984375 
z
" id="DejaVuSans-66"/>
      <path d="M 34.28125 27.484375 
Q 23.390625 27.484375 19.1875 25 
Q 14.984375 22.515625 14.984375 16.5 
Q 14.984375 11.71875 18.140625 8.90625 
Q 21.296875 6.109375 26.703125 6.109375 
Q 34.1875 6.109375 38.703125 11.40625 
Q 43.21875 16.703125 43.21875 25.484375 
L 43.21875 27.484375 
z
M 52.203125 31.203125 
L 52.203125 0 
L 43.21875 0 
L 43.21875 8.296875 
Q 40.140625 3.328125 35.546875 0.953125 
Q 30.953125 -1.421875 24.3125 -1.421875 
Q 15.921875 -1.421875 10.953125 3.296875 
Q 6 8.015625 6 15.921875 
Q 6 25.140625 12.171875 29.828125 
Q 18.359375 34.515625 30.609375 34.515625 
L 43.21875 34.515625 
L 43.21875 35.40625 
Q 43.21875 41.609375 39.140625 45 
Q 35.0625 48.390625 27.6875 48.390625 
Q 23 48.390625 18.546875 47.265625 
Q 14.109375 46.140625 10.015625 43.890625 
L 10.015625 52.203125 
Q 14.9375 54.109375 19.578125 55.046875 
Q 24.21875 56 28.609375 56 
Q 40.484375 56 46.34375 49.84375 
Q 52.203125 43.703125 52.203125 31.203125 
" id="DejaVuSans-61"/>
      <path d="M 18.3125 70.21875 
L 18.3125 54.6875 
L 36.8125 54.6875 
L 36.8125 47.703125 
L 18.3125 47.703125 
L 18.3125 18.015625 
Q 18.3125 11.328125 20.140625 9.421875 
Q 21.96875 7.515625 27.59375 7.515625 
L 36.8125 7.515625 
L 36.8125 0 
L 27.59375 0 
Q 17.1875 0 13.234375 3.875 
Q 9.28125 7.765625 9.28125 18.015625 
L 9.28125 47.703125 
L 2.6875 47.703125 
L 2.6875 54.6875 
L 9.28125 54.6875 
L 9.28125 70.21875 
z
" id="DejaVuSans-74"/>
      <path d="M 52 44.1875 
Q 55.375 50.25 60.0625 53.125 
Q 64.75 56 71.09375 56 
Q 79.640625 56 84.28125 50.015625 
Q 88.921875 44.046875 88.921875 33.015625 
L 88.921875 0 
L 79.890625 0 
L 79.890625 32.71875 
Q 79.890625 40.578125 77.09375 44.375 
Q 74.3125 48.1875 68.609375 48.1875 
Q 61.625 48.1875 57.5625 43.546875 
Q 53.515625 38.921875 53.515625 30.90625 
L 53.515625 0 
L 44.484375 0 
L 44.484375 32.71875 
Q 44.484375 40.625 41.703125 44.40625 
Q 38.921875 48.1875 33.109375 48.1875 
Q 26.21875 48.1875 22.15625 43.53125 
Q 18.109375 38.875 18.109375 30.90625 
L 18.109375 0 
L 9.078125 0 
L 9.078125 54.6875 
L 18.109375 54.6875 
L 18.109375 46.1875 
Q 21.1875 51.21875 25.484375 53.609375 
Q 29.78125 56 35.6875 56 
Q 41.65625 56 45.828125 52.96875 
Q 50 49.953125 52 44.1875 
" id="DejaVuSans-6d"/>
      <path d="M 64.40625 67.28125 
L 64.40625 56.890625 
Q 59.421875 61.53125 53.78125 63.8125 
Q 48.140625 66.109375 41.796875 66.109375 
Q 29.296875 66.109375 22.65625 58.46875 
Q 16.015625 50.828125 16.015625 36.375 
Q 16.015625 21.96875 22.65625 14.328125 
Q 29.296875 6.6875 41.796875 6.6875 
Q 48.140625 6.6875 53.78125 8.984375 
Q 59.421875 11.28125 64.40625 15.921875 
L 64.40625 5.609375 
Q 59.234375 2.09375 53.4375 0.328125 
Q 47.65625 -1.421875 41.21875 -1.421875 
Q 24.65625 -1.421875 15.125 8.703125 
Q 5.609375 18.84375 5.609375 36.375 
Q 5.609375 53.953125 15.125 64.078125 
Q 24.65625 74.21875 41.21875 74.21875 
Q 47.75 74.21875 53.53125 72.484375 
Q 59.328125 70.75 64.40625 67.28125 
" id="DejaVuSans-43"/>
      <path d="M 19.671875 64.796875 
L 19.671875 37.40625 
L 32.078125 37.40625 
Q 38.96875 37.40625 42.71875 40.96875 
Q 46.484375 44.53125 46.484375 51.125 
Q 46.484375 57.671875 42.71875 61.234375 
Q 38.96875 64.796875 32.078125 64.796875 
z
M 9.8125 72.90625 
L 32.078125 72.90625 
Q 44.34375 72.90625 50.609375 67.359375 
Q 56.890625 61.8125 56.890625 51.125 
Q 56.890625 40.328125 50.609375 34.8125 
Q 44.34375 29.296875 32.078125 29.296875 
L 19.671875 29.296875 
L 19.671875 0 
L 9.8125 0 
z
" id="DejaVuSans-50"/>
      <path d="M 8.6875 72.90625 
L 18.609375 72.90625 
L 18.609375 28.609375 
Q 18.609375 16.890625 22.84375 11.734375 
Q 27.09375 6.59375 36.625 6.59375 
Q 46.09375 6.59375 50.34375 11.734375 
Q 54.59375 16.890625 54.59375 28.609375 
L 54.59375 72.90625 
L 64.5 72.90625 
L 64.5 27.390625 
Q 64.5 13.140625 57.4375 5.859375 
Q 50.390625 -1.421875 36.625 -1.421875 
Q 22.796875 -1.421875 15.734375 5.859375 
Q 8.6875 13.140625 8.6875 27.390625 
z
" id="DejaVuSans-55"/>
      <path d="M 44.28125 53.078125 
L 44.28125 44.578125 
Q 40.484375 46.53125 36.375 47.5 
Q 32.28125 48.484375 27.875 48.484375 
Q 21.1875 48.484375 17.84375 46.4375 
Q 14.5 44.390625 14.5 40.28125 
Q 14.5 37.15625 16.890625 35.375 
Q 19.28125 33.59375 26.515625 31.984375 
L 29.59375 31.296875 
Q 39.15625 29.25 43.1875 25.515625 
Q 47.21875 21.78125 47.21875 15.09375 
Q 47.21875 7.46875 41.1875 3.015625 
Q 35.15625 -1.421875 24.609375 -1.421875 
Q 20.21875 -1.421875 15.453125 -0.5625 
Q 10.6875 0.296875 5.421875 2 
L 5.421875 11.28125 
Q 10.40625 8.6875 15.234375 7.390625 
Q 20.0625 6.109375 24.8125 6.109375 
Q 31.15625 6.109375 34.5625 8.28125 
Q 37.984375 10.453125 37.984375 14.40625 
Q 37.984375 18.0625 35.515625 20.015625 
Q 33.0625 21.96875 24.703125 23.78125 
L 21.578125 24.515625 
Q 13.234375 26.265625 9.515625 29.90625 
Q 5.8125 33.546875 5.8125 39.890625 
Q 5.8125 47.609375 11.28125 51.796875 
Q 16.75 56 26.8125 56 
Q 31.78125 56 36.171875 55.265625 
Q 40.578125 54.546875 44.28125 53.078125 
" id="DejaVuSans-73"/>
     </defs>
     <g style="fill:#ffffff;" transform="translate(155.045726 371.616562)scale(0.1 -0.1)">
      <use xlink:href="#DejaVuSans-23"/>
      <use x="83.789062" xlink:href="#DejaVuSans-20"/>
      <use x="115.576172" xlink:href="#DejaVuSans-6f"/>
      <use x="176.757812" xlink:href="#DejaVuSans-66"/>
      <use x="211.962891" xlink:href="#DejaVuSans-20"/>
      <use x="243.75" xlink:href="#DejaVuSans-61"/>
      <use x="305.029297" xlink:href="#DejaVuSans-74"/>
      <use x="344.238281" xlink:href="#DejaVuSans-6d"/>
      <use x="441.650391" xlink:href="#DejaVuSans-20"/>
      <use x="473.4375" xlink:href="#DejaVuSans-43"/>
      <use x="543.261719" xlink:href="#DejaVuSans-50"/>
      <use x="603.564453" xlink:href="#DejaVuSans-55"/>
      <use x="676.757812" xlink:href="#DejaVuSans-73"/>
     </g>
    </g>
   </g>
   <g id="matplotlib.axis_2">
    <g id="ytick_1">
     <g id="line2d_10">
      <defs>
       <path d="M 0 0 
L -3.5 0 
" id="m0070a86666" style="stroke:#000000;stroke-width:0.8;"/>
      </defs>
      <g>
       <use style="stroke:#000000;stroke-width:0.8;" x="43.78125" xlink:href="#m0070a86666" y="343.34"/>
      </g>
     </g>
     <g id="text_11">
      <!-- 0.0 -->
      <defs>
       <path d="M 31.78125 66.40625 
Q 24.171875 66.40625 20.328125 58.90625 
Q 16.5 51.421875 16.5 36.375 
Q 16.5 21.390625 20.328125 13.890625 
Q 24.171875 6.390625 31.78125 6.390625 
Q 39.453125 6.390625 43.28125 13.890625 
Q 47.125 21.390625 47.125 36.375 
Q 47.125 51.421875 43.28125 58.90625 
Q 39.453125 66.40625 31.78125 66.40625 
M 31.78125 74.21875 
Q 44.046875 74.21875 50.515625 64.515625 
Q 56.984375 54.828125 56.984375 36.375 
Q 56.984375 17.96875 50.515625 8.265625 
Q 44.046875 -1.421875 31.78125 -1.421875 
Q 19.53125 -1.421875 13.0625 8.265625 
Q 6.59375 17.96875 6.59375 36.375 
Q 6.59375 54.828125 13.0625 64.515625 
Q 19.53125 74.21875 31.78125 74.21875 
" id="DejaVuSans-30"/>
       <path d="M 10.6875 12.40625 
L 21 12.40625 
L 21 0 
L 10.6875 0 
z
" id="DejaVuSans-2e"/>
      </defs>
      <g style="fill:#ffffff;" transform="translate(20.878125 347.139219)scale(0.1 -0.1)">
       <use xlink:href="#DejaVuSans-30"/>
       <use x="63.623047" xlink:href="#DejaVuSans-2e"/>
       <use x="95.410156" xlink:href="#DejaVuSans-30"/>
      </g>
     </g>
    </g>
    <g id="ytick_2">
     <g id="line2d_11">
      <g>
       <use style="stroke:#000000;stroke-width:0.8;" x="43.78125" xlink:href="#m0070a86666" y="279.98"/>
      </g>
     </g>
     <g id="text_12">
      <!-- 0.2 -->
      <g style="fill:#ffffff;" transform="translate(20.878125 283.779219)scale(0.1 -0.1)">
       <use xlink:href="#DejaVuSans-30"/>
       <use x="63.623047" xlink:href="#DejaVuSans-2e"/>
       <use x="95.410156" xlink:href="#DejaVuSans-32"/>
      </g>
     </g>
    </g>
    <g id="ytick_3">
     <g id="line2d_12">
      <g>
       <use style="stroke:#000000;stroke-width:0.8;" x="43.78125" xlink:href="#m0070a86666" y="216.62"/>
      </g>
     </g>
     <g id="text_13">
      <!-- 0.4 -->
      <g style="fill:#ffffff;" transform="translate(20.878125 220.419219)scale(0.1 -0.1)">
       <use xlink:href="#DejaVuSans-30"/>
       <use x="63.623047" xlink:href="#DejaVuSans-2e"/>
       <use x="95.410156" xlink:href="#DejaVuSans-34"/>
      </g>
     </g>
    </g>
    <g id="ytick_4">
     <g id="line2d_13">
      <g>
       <use style="stroke:#000000;stroke-width:0.8;" x="43.78125" xlink:href="#m0070a86666" y="153.26"/>
      </g>
     </g>
     <g id="text_14">
      <!-- 0.6 -->
      <g style="fill:#ffffff;" transform="translate(20.878125 157.059219)scale(0.1 -0.1)">
       <use xlink:href="#DejaVuSans-30"/>
       <use x="63.623047" xlink:href="#DejaVuSans-2e"/>
       <use x="95.410156" xlink:href="#DejaVuSans-36"/>
      </g>
     </g>
    </g>
    <g id="ytick_5">
     <g id="line2d_14">
      <g>
       <use style="stroke:#000000;stroke-width:0.8;" x="43.78125" xlink:href="#m0070a86666" y="89.9"/>
      </g>
     </g>
     <g id="text_15">
      <!-- 0.8 -->
      <g style="fill:#ffffff;" transform="translate(20.878125 93.699219)scale(0.1 -0.1)">
       <use xlink:href="#DejaVuSans-30"/>
       <use x="63.623047" xlink:href="#DejaVuSans-2e"/>
       <use x="95.410156" xlink:href="#DejaVuSans-38"/>
      </g>
     </g>
    </g>
    <g id="ytick_6">
     <g id="line2d_15">
      <g>
       <use style="stroke:#000000;stroke-width:0.8;" x="43.78125" xlink:href="#m0070a86666" y="26.54"/>
      </g>
     </g>
     <g id="text_16">
      <!-- 1.0 -->
      <g style="fill:#ffffff;" transform="translate(20.878125 30.339219)scale(0.1 -0.1)">
       <use xlink:href="#DejaVuSans-31"/>
       <use x="63.623047" xlink:href="#DejaVuSans-2e"/>
       <use x="95.410156" xlink:href="#DejaVuSans-30"/>
      </g>
     </g>
    </g>
    <g id="text_17">
     <!-- Relative runtime -->
     <defs>
      <path d="M 44.390625 34.1875 
Q 47.5625 33.109375 50.5625 29.59375 
Q 53.5625 26.078125 56.59375 19.921875 
L 66.609375 0 
L 56 0 
L 46.6875 18.703125 
Q 43.0625 26.03125 39.671875 28.421875 
Q 36.28125 30.8125 30.421875 30.8125 
L 19.671875 30.8125 
L 19.671875 0 
L 9.8125 0 
L 9.8125 72.90625 
L 32.078125 72.90625 
Q 44.578125 72.90625 50.734375 67.671875 
Q 56.890625 62.453125 56.890625 51.90625 
Q 56.890625 45.015625 53.6875 40.46875 
Q 50.484375 35.9375 44.390625 34.1875 
M 19.671875 64.796875 
L 19.671875 38.921875 
L 32.078125 38.921875 
Q 39.203125 38.921875 42.84375 42.21875 
Q 46.484375 45.515625 46.484375 51.90625 
Q 46.484375 58.296875 42.84375 61.546875 
Q 39.203125 64.796875 32.078125 64.796875 
z
" id="DejaVuSans-52"/>
      <path d="M 56.203125 29.59375 
L 56.203125 25.203125 
L 14.890625 25.203125 
Q 15.484375 15.921875 20.484375 11.0625 
Q 25.484375 6.203125 34.421875 6.203125 
Q 39.59375 6.203125 44.453125 7.46875 
Q 49.3125 8.734375 54.109375 11.28125 
L 54.109375 2.78125 
Q 49.265625 0.734375 44.1875 -0.34375 
Q 39.109375 -1.421875 33.890625 -1.421875 
Q 20.796875 -1.421875 13.15625 6.1875 
Q 5.515625 13.8125 5.515625 26.8125 
Q 5.515625 40.234375 12.765625 48.109375 
Q 20.015625 56 32.328125 56 
Q 43.359375 56 49.78125 48.890625 
Q 56.203125 41.796875 56.203125 29.59375 
M 47.21875 32.234375 
Q 47.125 39.59375 43.09375 43.984375 
Q 39.0625 48.390625 32.421875 48.390625 
Q 24.90625 48.390625 20.390625 44.140625 
Q 15.875 39.890625 15.1875 32.171875 
z
" id="DejaVuSans-65"/>
      <path d="M 9.421875 75.984375 
L 18.40625 75.984375 
L 18.40625 0 
L 9.421875 0 
z
" id="DejaVuSans-6c"/>
      <path d="M 9.421875 54.6875 
L 18.40625 54.6875 
L 18.40625 0 
L 9.421875 0 
z
M 9.421875 75.984375 
L 18.40625 75.984375 
L 18.40625 64.59375 
L 9.421875 64.59375 
z
" id="DejaVuSans-69"/>
      <path d="M 2.984375 54.6875 
L 12.5 54.6875 
L 29.59375 8.796875 
L 46.6875 54.6875 
L 56.203125 54.6875 
L 35.6875 0 
L 23.484375 0 
z
" id="DejaVuSans-76"/>
      <path d="M 41.109375 46.296875 
Q 39.59375 47.171875 37.8125 47.578125 
Q 36.03125 48 33.890625 48 
Q 26.265625 48 22.1875 43.046875 
Q 18.109375 38.09375 18.109375 28.8125 
L 18.109375 0 
L 9.078125 0 
L 9.078125 54.6875 
L 18.109375 54.6875 
L 18.109375 46.1875 
Q 20.953125 51.171875 25.484375 53.578125 
Q 30.03125 56 36.53125 56 
Q 37.453125 56 38.578125 55.875 
Q 39.703125 55.765625 41.0625 55.515625 
z
" id="DejaVuSans-72"/>
      <path d="M 8.5 21.578125 
L 8.5 54.6875 
L 17.484375 54.6875 
L 17.484375 21.921875 
Q 17.484375 14.15625 20.5 10.265625 
Q 23.53125 6.390625 29.59375 6.390625 
Q 36.859375 6.390625 41.078125 11.03125 
Q 45.3125 15.671875 45.3125 23.6875 
L 45.3125 54.6875 
L 54.296875 54.6875 
L 54.296875 0 
L 45.3125 0 
L 45.3125 8.40625 
Q 42.046875 3.421875 37.71875 1 
Q 33.40625 -1.421875 27.6875 -1.421875 
Q 18.265625 -1.421875 13.375 4.4375 
Q 8.5 10.296875 8.5 21.578125 
M 31.109375 56 
z
" id="DejaVuSans-75"/>
      <path d="M 54.890625 33.015625 
L 54.890625 0 
L 45.90625 0 
L 45.90625 32.71875 
Q 45.90625 40.484375 42.875 44.328125 
Q 39.84375 48.1875 33.796875 48.1875 
Q 26.515625 48.1875 22.3125 43.546875 
Q 18.109375 38.921875 18.109375 30.90625 
L 18.109375 0 
L 9.078125 0 
L 9.078125 54.6875 
L 18.109375 54.6875 
L 18.109375 46.1875 
Q 21.34375 51.125 25.703125 53.5625 
Q 30.078125 56 35.796875 56 
Q 45.21875 56 50.046875 50.171875 
Q 54.890625 44.34375 54.890625 33.015625 
" id="DejaVuSans-6e"/>
     </defs>
     <g style="fill:#ffffff;" transform="translate(14.798437 218.684062)rotate(-90)scale(0.1 -0.1)">
      <use xlink:href="#DejaVuSans-52"/>
      <use x="69.419922" xlink:href="#DejaVuSans-65"/>
      <use x="130.943359" xlink:href="#DejaVuSans-6c"/>
      <use x="158.726562" xlink:href="#DejaVuSans-61"/>
      <use x="220.005859" xlink:href="#DejaVuSans-74"/>
      <use x="259.214844" xlink:href="#DejaVuSans-69"/>
      <use x="286.998047" xlink:href="#DejaVuSans-76"/>
      <use x="346.177734" xlink:href="#DejaVuSans-65"/>
      <use x="407.701172" xlink:href="#DejaVuSans-20"/>
      <use x="439.488281" xlink:href="#DejaVuSans-72"/>
      <use x="480.601562" xlink:href="#DejaVuSans-75"/>
      <use x="543.980469" xlink:href="#DejaVuSans-6e"/>
      <use x="607.359375" xlink:href="#DejaVuSans-74"/>
      <use x="646.568359" xlink:href="#DejaVuSans-69"/>
      <use x="674.351562" xlink:href="#DejaVuSans-6d"/>
      <use x="771.763672" xlink:href="#DejaVuSans-65"/>
     </g>
    </g>
   </g>
   <g id="patch_43">
    <path d="M 43.78125 343.34 
L 43.78125 10.7 
" style="fill:none;stroke:#000000;stroke-linecap:square;stroke-linejoin:miter;stroke-width:0.8;"/>
   </g>
   <g id="patch_44">
    <path d="M 339.193015 343.34 
L 339.193015 10.7 
" style="fill:none;stroke:#000000;stroke-linecap:square;stroke-linejoin:miter;stroke-width:0.8;"/>
   </g>
   <g id="patch_45">
    <path d="M 43.78125 343.34 
L 339.193015 343.34 
" style="fill:none;stroke:#000000;stroke-linecap:square;stroke-linejoin:miter;stroke-width:0.8;"/>
   </g>
   <g id="patch_46">
    <path d="M 43.78125 10.7 
L 339.193015 10.7 
" style="fill:none;stroke:#000000;stroke-linecap:square;stroke-linejoin:miter;stroke-width:0.8;"/>
   </g>
   <g id="legend_1">
    <g id="patch_47">
     <path d="M 135.555358 338.84 
L 332.893015 338.84 
Q 334.693015 338.84 334.693015 337.04 
L 334.693015 284.0975 
Q 334.693015 282.2975 332.893015 282.2975 
L 135.555358 282.2975 
Q 133.755358 282.2975 133.755358 284.0975 
L 133.755358 337.04 
Q 133.755358 338.84 135.555358 338.84 
z
" style="fill:#ffffff;opacity:0.8;stroke:#cccccc;stroke-linejoin:miter;"/>
    </g>
    <g id="patch_48">
     <path d="M 137.355358 292.736094 
L 155.355358 292.736094 
L 155.355358 286.436094 
L 137.355358 286.436094 
z
" style="fill:#1f77b4;stroke:#000000;stroke-linejoin:miter;"/>
    </g>
    <g id="text_18">
     <!-- update_ocean_model -->
     <defs>
      <path d="M 18.109375 8.203125 
L 18.109375 -20.796875 
L 9.078125 -20.796875 
L 9.078125 54.6875 
L 18.109375 54.6875 
L 18.109375 46.390625 
Q 20.953125 51.265625 25.265625 53.625 
Q 29.59375 56 35.59375 56 
Q 45.5625 56 51.78125 48.09375 
Q 58.015625 40.1875 58.015625 27.296875 
Q 58.015625 14.40625 51.78125 6.484375 
Q 45.5625 -1.421875 35.59375 -1.421875 
Q 29.59375 -1.421875 25.265625 0.953125 
Q 20.953125 3.328125 18.109375 8.203125 
M 48.6875 27.296875 
Q 48.6875 37.203125 44.609375 42.84375 
Q 40.53125 48.484375 33.40625 48.484375 
Q 26.265625 48.484375 22.1875 42.84375 
Q 18.109375 37.203125 18.109375 27.296875 
Q 18.109375 17.390625 22.1875 11.75 
Q 26.265625 6.109375 33.40625 6.109375 
Q 40.53125 6.109375 44.609375 11.75 
Q 48.6875 17.390625 48.6875 27.296875 
" id="DejaVuSans-70"/>
      <path d="M 45.40625 46.390625 
L 45.40625 75.984375 
L 54.390625 75.984375 
L 54.390625 0 
L 45.40625 0 
L 45.40625 8.203125 
Q 42.578125 3.328125 38.25 0.953125 
Q 33.9375 -1.421875 27.875 -1.421875 
Q 17.96875 -1.421875 11.734375 6.484375 
Q 5.515625 14.40625 5.515625 27.296875 
Q 5.515625 40.1875 11.734375 48.09375 
Q 17.96875 56 27.875 56 
Q 33.9375 56 38.25 53.625 
Q 42.578125 51.265625 45.40625 46.390625 
M 14.796875 27.296875 
Q 14.796875 17.390625 18.875 11.75 
Q 22.953125 6.109375 30.078125 6.109375 
Q 37.203125 6.109375 41.296875 11.75 
Q 45.40625 17.390625 45.40625 27.296875 
Q 45.40625 37.203125 41.296875 42.84375 
Q 37.203125 48.484375 30.078125 48.484375 
Q 22.953125 48.484375 18.875 42.84375 
Q 14.796875 37.203125 14.796875 27.296875 
" id="DejaVuSans-64"/>
      <path d="M 50.984375 -16.609375 
L 50.984375 -23.578125 
L -0.984375 -23.578125 
L -0.984375 -16.609375 
z
" id="DejaVuSans-5f"/>
      <path d="M 48.78125 52.59375 
L 48.78125 44.1875 
Q 44.96875 46.296875 41.140625 47.34375 
Q 37.3125 48.390625 33.40625 48.390625 
Q 24.65625 48.390625 19.8125 42.84375 
Q 14.984375 37.3125 14.984375 27.296875 
Q 14.984375 17.28125 19.8125 11.734375 
Q 24.65625 6.203125 33.40625 6.203125 
Q 37.3125 6.203125 41.140625 7.25 
Q 44.96875 8.296875 48.78125 10.40625 
L 48.78125 2.09375 
Q 45.015625 0.34375 40.984375 -0.53125 
Q 36.96875 -1.421875 32.421875 -1.421875 
Q 20.0625 -1.421875 12.78125 6.34375 
Q 5.515625 14.109375 5.515625 27.296875 
Q 5.515625 40.671875 12.859375 48.328125 
Q 20.21875 56 33.015625 56 
Q 37.15625 56 41.109375 55.140625 
Q 45.0625 54.296875 48.78125 52.59375 
" id="DejaVuSans-63"/>
     </defs>
     <g transform="translate(162.555358 292.736094)scale(0.09 -0.09)">
      <use xlink:href="#DejaVuSans-75"/>
      <use x="63.378906" xlink:href="#DejaVuSans-70"/>
      <use x="126.855469" xlink:href="#DejaVuSans-64"/>
      <use x="190.332031" xlink:href="#DejaVuSans-61"/>
      <use x="251.611328" xlink:href="#DejaVuSans-74"/>
      <use x="290.820312" xlink:href="#DejaVuSans-65"/>
      <use x="352.34375" xlink:href="#DejaVuSans-5f"/>
      <use x="402.34375" xlink:href="#DejaVuSans-6f"/>
      <use x="463.525391" xlink:href="#DejaVuSans-63"/>
      <use x="518.505859" xlink:href="#DejaVuSans-65"/>
      <use x="580.029297" xlink:href="#DejaVuSans-61"/>
      <use x="641.308594" xlink:href="#DejaVuSans-6e"/>
      <use x="704.6875" xlink:href="#DejaVuSans-5f"/>
      <use x="754.6875" xlink:href="#DejaVuSans-6d"/>
      <use x="852.099609" xlink:href="#DejaVuSans-6f"/>
      <use x="913.28125" xlink:href="#DejaVuSans-64"/>
      <use x="976.757812" xlink:href="#DejaVuSans-65"/>
      <use x="1038.28125" xlink:href="#DejaVuSans-6c"/>
     </g>
    </g>
    <g id="patch_49">
     <path d="M 137.355358 306.196719 
L 155.355358 306.196719 
L 155.355358 299.896719 
L 137.355358 299.896719 
z
" style="fill:#ff7f0e;stroke:#000000;stroke-linejoin:miter;"/>
    </g>
    <g id="text_19">
     <!-- main_IP_external_coupler_sbc_after -->
     <defs>
      <path d="M 9.8125 72.90625 
L 19.671875 72.90625 
L 19.671875 0 
L 9.8125 0 
z
" id="DejaVuSans-49"/>
      <path d="M 54.890625 54.6875 
L 35.109375 28.078125 
L 55.90625 0 
L 45.3125 0 
L 29.390625 21.484375 
L 13.484375 0 
L 2.875 0 
L 24.125 28.609375 
L 4.6875 54.6875 
L 15.28125 54.6875 
L 29.78125 35.203125 
L 44.28125 54.6875 
z
" id="DejaVuSans-78"/>
      <path d="M 48.6875 27.296875 
Q 48.6875 37.203125 44.609375 42.84375 
Q 40.53125 48.484375 33.40625 48.484375 
Q 26.265625 48.484375 22.1875 42.84375 
Q 18.109375 37.203125 18.109375 27.296875 
Q 18.109375 17.390625 22.1875 11.75 
Q 26.265625 6.109375 33.40625 6.109375 
Q 40.53125 6.109375 44.609375 11.75 
Q 48.6875 17.390625 48.6875 27.296875 
M 18.109375 46.390625 
Q 20.953125 51.265625 25.265625 53.625 
Q 29.59375 56 35.59375 56 
Q 45.5625 56 51.78125 48.09375 
Q 58.015625 40.1875 58.015625 27.296875 
Q 58.015625 14.40625 51.78125 6.484375 
Q 45.5625 -1.421875 35.59375 -1.421875 
Q 29.59375 -1.421875 25.265625 0.953125 
Q 20.953125 3.328125 18.109375 8.203125 
L 18.109375 0 
L 9.078125 0 
L 9.078125 75.984375 
L 18.109375 75.984375 
z
" id="DejaVuSans-62"/>
     </defs>
     <g transform="translate(162.555358 306.196719)scale(0.09 -0.09)">
      <use xlink:href="#DejaVuSans-6d"/>
      <use x="97.412109" xlink:href="#DejaVuSans-61"/>
      <use x="158.691406" xlink:href="#DejaVuSans-69"/>
      <use x="186.474609" xlink:href="#DejaVuSans-6e"/>
      <use x="249.853516" xlink:href="#DejaVuSans-5f"/>
      <use x="299.853516" xlink:href="#DejaVuSans-49"/>
      <use x="329.345703" xlink:href="#DejaVuSans-50"/>
      <use x="389.648438" xlink:href="#DejaVuSans-5f"/>
      <use x="439.648438" xlink:href="#DejaVuSans-65"/>
      <use x="501.15625" xlink:href="#DejaVuSans-78"/>
      <use x="560.335938" xlink:href="#DejaVuSans-74"/>
      <use x="599.544922" xlink:href="#DejaVuSans-65"/>
      <use x="661.068359" xlink:href="#DejaVuSans-72"/>
      <use x="702.166016" xlink:href="#DejaVuSans-6e"/>
      <use x="765.544922" xlink:href="#DejaVuSans-61"/>
      <use x="826.824219" xlink:href="#DejaVuSans-6c"/>
      <use x="854.607422" xlink:href="#DejaVuSans-5f"/>
      <use x="904.607422" xlink:href="#DejaVuSans-63"/>
      <use x="959.587891" xlink:href="#DejaVuSans-6f"/>
      <use x="1020.769531" xlink:href="#DejaVuSans-75"/>
      <use x="1084.148438" xlink:href="#DejaVuSans-70"/>
      <use x="1147.625" xlink:href="#DejaVuSans-6c"/>
      <use x="1175.408203" xlink:href="#DejaVuSans-65"/>
      <use x="1236.931641" xlink:href="#DejaVuSans-72"/>
      <use x="1278.044922" xlink:href="#DejaVuSans-5f"/>
      <use x="1328.044922" xlink:href="#DejaVuSans-73"/>
      <use x="1380.144531" xlink:href="#DejaVuSans-62"/>
      <use x="1443.621094" xlink:href="#DejaVuSans-63"/>
      <use x="1498.601562" xlink:href="#DejaVuSans-5f"/>
      <use x="1548.601562" xlink:href="#DejaVuSans-61"/>
      <use x="1609.880859" xlink:href="#DejaVuSans-66"/>
      <use x="1645.070312" xlink:href="#DejaVuSans-74"/>
      <use x="1684.279297" xlink:href="#DejaVuSans-65"/>
      <use x="1745.802734" xlink:href="#DejaVuSans-72"/>
     </g>
    </g>
    <g id="patch_50">
     <path d="M 137.355358 319.657344 
L 155.355358 319.657344 
L 155.355358 313.357344 
L 137.355358 313.357344 
z
" style="fill:#2ca02c;stroke:#000000;stroke-linejoin:miter;"/>
    </g>
    <g id="text_20">
     <!-- main_IP_external_coupler_sbc_before -->
     <g transform="translate(162.555358 319.657344)scale(0.09 -0.09)">
      <use xlink:href="#DejaVuSans-6d"/>
      <use x="97.412109" xlink:href="#DejaVuSans-61"/>
      <use x="158.691406" xlink:href="#DejaVuSans-69"/>
      <use x="186.474609" xlink:href="#DejaVuSans-6e"/>
      <use x="249.853516" xlink:href="#DejaVuSans-5f"/>
      <use x="299.853516" xlink:href="#DejaVuSans-49"/>
      <use x="329.345703" xlink:href="#DejaVuSans-50"/>
      <use x="389.648438" xlink:href="#DejaVuSans-5f"/>
      <use x="439.648438" xlink:href="#DejaVuSans-65"/>
      <use x="501.15625" xlink:href="#DejaVuSans-78"/>
      <use x="560.335938" xlink:href="#DejaVuSans-74"/>
      <use x="599.544922" xlink:href="#DejaVuSans-65"/>
      <use x="661.068359" xlink:href="#DejaVuSans-72"/>
      <use x="702.166016" xlink:href="#DejaVuSans-6e"/>
      <use x="765.544922" xlink:href="#DejaVuSans-61"/>
      <use x="826.824219" xlink:href="#DejaVuSans-6c"/>
      <use x="854.607422" xlink:href="#DejaVuSans-5f"/>
      <use x="904.607422" xlink:href="#DejaVuSans-63"/>
      <use x="959.587891" xlink:href="#DejaVuSans-6f"/>
      <use x="1020.769531" xlink:href="#DejaVuSans-75"/>
      <use x="1084.148438" xlink:href="#DejaVuSans-70"/>
      <use x="1147.625" xlink:href="#DejaVuSans-6c"/>
      <use x="1175.408203" xlink:href="#DejaVuSans-65"/>
      <use x="1236.931641" xlink:href="#DejaVuSans-72"/>
      <use x="1278.044922" xlink:href="#DejaVuSans-5f"/>
      <use x="1328.044922" xlink:href="#DejaVuSans-73"/>
      <use x="1380.144531" xlink:href="#DejaVuSans-62"/>
      <use x="1443.621094" xlink:href="#DejaVuSans-63"/>
      <use x="1498.601562" xlink:href="#DejaVuSans-5f"/>
      <use x="1548.601562" xlink:href="#DejaVuSans-62"/>
      <use x="1612.078125" xlink:href="#DejaVuSans-65"/>
      <use x="1673.601562" xlink:href="#DejaVuSans-66"/>
      <use x="1708.806641" xlink:href="#DejaVuSans-6f"/>
      <use x="1769.988281" xlink:href="#DejaVuSans-72"/>
      <use x="1811.070312" xlink:href="#DejaVuSans-65"/>
     </g>
    </g>
    <g id="patch_51">
     <path d="M 137.355358 333.117969 
L 155.355358 333.117969 
L 155.355358 326.817969 
L 137.355358 326.817969 
z
" style="fill:#d62728;stroke:#000000;stroke-linejoin:miter;"/>
    </g>
    <g id="text_21">
     <!-- mpp_clock_begin -->
     <defs>
      <path d="M 9.078125 75.984375 
L 18.109375 75.984375 
L 18.109375 31.109375 
L 44.921875 54.6875 
L 56.390625 54.6875 
L 27.390625 29.109375 
L 57.625 0 
L 45.90625 0 
L 18.109375 26.703125 
L 18.109375 0 
L 9.078125 0 
z
" id="DejaVuSans-6b"/>
      <path d="M 45.40625 27.984375 
Q 45.40625 37.75 41.375 43.109375 
Q 37.359375 48.484375 30.078125 48.484375 
Q 22.859375 48.484375 18.828125 43.109375 
Q 14.796875 37.75 14.796875 27.984375 
Q 14.796875 18.265625 18.828125 12.890625 
Q 22.859375 7.515625 30.078125 7.515625 
Q 37.359375 7.515625 41.375 12.890625 
Q 45.40625 18.265625 45.40625 27.984375 
M 54.390625 6.78125 
Q 54.390625 -7.171875 48.1875 -13.984375 
Q 42 -20.796875 29.203125 -20.796875 
Q 24.46875 -20.796875 20.265625 -20.09375 
Q 16.0625 -19.390625 12.109375 -17.921875 
L 12.109375 -9.1875 
Q 16.0625 -11.328125 19.921875 -12.34375 
Q 23.78125 -13.375 27.78125 -13.375 
Q 36.625 -13.375 41.015625 -8.765625 
Q 45.40625 -4.15625 45.40625 5.171875 
L 45.40625 9.625 
Q 42.625 4.78125 38.28125 2.390625 
Q 33.9375 0 27.875 0 
Q 17.828125 0 11.671875 7.65625 
Q 5.515625 15.328125 5.515625 27.984375 
Q 5.515625 40.671875 11.671875 48.328125 
Q 17.828125 56 27.875 56 
Q 33.9375 56 38.28125 53.609375 
Q 42.625 51.21875 45.40625 46.390625 
L 45.40625 54.6875 
L 54.390625 54.6875 
z
" id="DejaVuSans-67"/>
     </defs>
     <g transform="translate(162.555358 333.117969)scale(0.09 -0.09)">
      <use xlink:href="#DejaVuSans-6d"/>
      <use x="97.412109" xlink:href="#DejaVuSans-70"/>
      <use x="160.888672" xlink:href="#DejaVuSans-70"/>
      <use x="224.365234" xlink:href="#DejaVuSans-5f"/>
      <use x="274.365234" xlink:href="#DejaVuSans-63"/>
      <use x="329.345703" xlink:href="#DejaVuSans-6c"/>
      <use x="357.128906" xlink:href="#DejaVuSans-6f"/>
      <use x="418.310547" xlink:href="#DejaVuSans-63"/>
      <use x="473.291016" xlink:href="#DejaVuSans-6b"/>
      <use x="531.201172" xlink:href="#DejaVuSans-5f"/>
      <use x="581.201172" xlink:href="#DejaVuSans-62"/>
      <use x="644.677734" xlink:href="#DejaVuSans-65"/>
      <use x="706.201172" xlink:href="#DejaVuSans-67"/>
      <use x="769.677734" xlink:href="#DejaVuSans-69"/>
      <use x="797.460938" xlink:href="#DejaVuSans-6e"/>
     </g>
    </g>
   </g>
  </g>
  <g id="axes_2">
   <g id="patch_52">
    <path d="M 398.275368 343.34 
L 693.687132 343.34 
L 693.687132 10.7 
L 398.275368 10.7 
z
" style="fill:#ffffff;"/>
   </g>
   <g id="patch_53">
    <path clip-path="url(#p2f34bd2e02)" d="M 408.12032 343.34 
L 461.067054 343.34 
L 461.067054 251.488876 
L 408.12032 251.488876 
z
" style="fill:#1f77b4;stroke:#000000;stroke-linejoin:miter;"/>
   </g>
   <g id="patch_54">
    <path clip-path="url(#p2f34bd2e02)" d="M 465.298254 343.34 
L 518.244988 343.34 
L 518.244988 185.721573 
L 465.298254 185.721573 
z
" style="fill:#1f77b4;stroke:#000000;stroke-linejoin:miter;"/>
   </g>
   <g id="patch_55">
    <path clip-path="url(#p2f34bd2e02)" d="M 522.476189 343.34 
L 570.388052 343.34 
L 570.388052 62.484676 
L 522.476189 62.484676 
z
" style="fill:#1f77b4;stroke:#000000;stroke-linejoin:miter;"/>
   </g>
   <g id="patch_56">
    <path clip-path="url(#p2f34bd2e02)" d="M 574.330319 343.34 
L 627.277053 343.34 
L 627.277053 58.862194 
L 574.330319 58.862194 
z
" style="fill:#1f77b4;stroke:#000000;stroke-linejoin:miter;"/>
   </g>
   <g id="patch_57">
    <path clip-path="url(#p2f34bd2e02)" d="M 631.508254 343.34 
L 684.454987 343.34 
L 684.454987 69.433511 
L 631.508254 69.433511 
z
" style="fill:#1f77b4;stroke:#000000;stroke-linejoin:miter;"/>
   </g>
   <g id="patch_58">
    <path clip-path="url(#p2f34bd2e02)" d="M 522.476189 343.34 
L 570.388052 343.34 
L 570.388052 62.484676 
L 522.476189 62.484676 
z
" style="fill:url(#h5a513e4d85);"/>
   </g>
   <g id="patch_59">
    <path clip-path="url(#p2f34bd2e02)" d="M 408.12032 251.488876 
L 461.067054 251.488876 
L 461.067054 54.464792 
L 408.12032 54.464792 
z
" style="fill:#ff7f0e;stroke:#000000;stroke-linejoin:miter;"/>
   </g>
   <g id="patch_60">
    <path clip-path="url(#p2f34bd2e02)" d="M 465.298254 185.721573 
L 518.244988 185.721573 
L 518.244988 28.210378 
L 465.298254 28.210378 
z
" style="fill:#ff7f0e;stroke:#000000;stroke-linejoin:miter;"/>
   </g>
   <g id="patch_61">
    <path clip-path="url(#p2f34bd2e02)" d="M 522.476189 62.484676 
L 570.388052 62.484676 
L 570.388052 31.020163 
L 522.476189 31.020163 
z
" style="fill:#ff7f0e;stroke:#000000;stroke-linejoin:miter;"/>
   </g>
   <g id="patch_62">
    <path clip-path="url(#p2f34bd2e02)" d="M 574.330319 58.862194 
L 627.277053 58.862194 
L 627.277053 35.20467 
L 574.330319 35.20467 
z
" style="fill:#ff7f0e;stroke:#000000;stroke-linejoin:miter;"/>
   </g>
   <g id="patch_63">
    <path clip-path="url(#p2f34bd2e02)" d="M 631.508254 69.433511 
L 684.454987 69.433511 
L 684.454987 34.191683 
L 631.508254 34.191683 
z
" style="fill:#ff7f0e;stroke:#000000;stroke-linejoin:miter;"/>
   </g>
   <g id="patch_64">
    <path clip-path="url(#p2f34bd2e02)" d="M 522.476189 62.484676 
L 570.388052 62.484676 
L 570.388052 31.020163 
L 522.476189 31.020163 
z
" style="fill:url(#h5a513e4d85);"/>
   </g>
   <g id="patch_65">
    <path clip-path="url(#p2f34bd2e02)" d="M 408.12032 54.464792 
L 461.067054 54.464792 
L 461.067054 54.254717 
L 408.12032 54.254717 
z
" style="fill:#2ca02c;stroke:#000000;stroke-linejoin:miter;"/>
   </g>
   <g id="patch_66">
    <path clip-path="url(#p2f34bd2e02)" d="M 465.298254 28.210378 
L 518.244988 28.210378 
L 518.244988 27.894992 
L 465.298254 27.894992 
z
" style="fill:#2ca02c;stroke:#000000;stroke-linejoin:miter;"/>
   </g>
   <g id="patch_67">
    <path clip-path="url(#p2f34bd2e02)" d="M 522.476189 31.020163 
L 570.388052 31.020163 
L 570.388052 30.385213 
L 522.476189 30.385213 
z
" style="fill:#2ca02c;stroke:#000000;stroke-linejoin:miter;"/>
   </g>
   <g id="patch_68">
    <path clip-path="url(#p2f34bd2e02)" d="M 574.330319 35.20467 
L 627.277053 35.20467 
L 627.277053 34.378282 
L 574.330319 34.378282 
z
" style="fill:#2ca02c;stroke:#000000;stroke-linejoin:miter;"/>
   </g>
   <g id="patch_69">
    <path clip-path="url(#p2f34bd2e02)" d="M 631.508254 34.191683 
L 684.454987 34.191683 
L 684.454987 33.082282 
L 631.508254 33.082282 
z
" style="fill:#2ca02c;stroke:#000000;stroke-linejoin:miter;"/>
   </g>
   <g id="patch_70">
    <path clip-path="url(#p2f34bd2e02)" d="M 522.476189 31.020163 
L 570.388052 31.020163 
L 570.388052 30.385213 
L 522.476189 30.385213 
z
" style="fill:url(#h5a513e4d85);"/>
   </g>
   <g id="patch_71">
    <path clip-path="url(#p2f34bd2e02)" d="M 408.12032 54.254717 
L 461.067054 54.254717 
L 461.067054 26.54 
L 408.12032 26.54 
z
" style="fill:#d62728;stroke:#000000;stroke-linejoin:miter;"/>
   </g>
   <g id="patch_72">
    <path clip-path="url(#p2f34bd2e02)" d="M 465.298254 27.894992 
L 518.244988 27.894992 
L 518.244988 26.54 
L 465.298254 26.54 
z
" style="fill:#d62728;stroke:#000000;stroke-linejoin:miter;"/>
   </g>
   <g id="patch_73">
    <path clip-path="url(#p2f34bd2e02)" d="M 522.476189 30.385213 
L 570.388052 30.385213 
L 570.388052 26.54 
L 522.476189 26.54 
z
" style="fill:#d62728;stroke:#000000;stroke-linejoin:miter;"/>
   </g>
   <g id="patch_74">
    <path clip-path="url(#p2f34bd2e02)" d="M 574.330319 34.378282 
L 627.277053 34.378282 
L 627.277053 26.54 
L 574.330319 26.54 
z
" style="fill:#d62728;stroke:#000000;stroke-linejoin:miter;"/>
   </g>
   <g id="patch_75">
    <path clip-path="url(#p2f34bd2e02)" d="M 631.508254 33.082282 
L 684.454987 33.082282 
L 684.454987 26.54 
L 631.508254 26.54 
z
" style="fill:#d62728;stroke:#000000;stroke-linejoin:miter;"/>
   </g>
   <g id="patch_76">
    <path clip-path="url(#p2f34bd2e02)" d="M 522.476189 30.385213 
L 570.388052 30.385213 
L 570.388052 26.54 
L 522.476189 26.54 
z
" style="fill:url(#h5a513e4d85);"/>
   </g>
   <g id="matplotlib.axis_3">
    <g id="xtick_10">
     <g id="line2d_16">
      <g>
       <use style="stroke:#000000;stroke-width:0.8;" x="438.770718" xlink:href="#m6998f13437" y="343.34"/>
      </g>
     </g>
     <g id="text_22">
      <!-- 48 -->
      <g style="fill:#ffffff;" transform="translate(432.408218 357.938437)scale(0.1 -0.1)">
       <use xlink:href="#DejaVuSans-34"/>
       <use x="63.623047" xlink:href="#DejaVuSans-38"/>
      </g>
     </g>
    </g>
    <g id="xtick_11">
     <g id="line2d_17">
      <g>
       <use style="stroke:#000000;stroke-width:0.8;" x="495.948652" xlink:href="#m6998f13437" y="343.34"/>
      </g>
     </g>
     <g id="text_23">
      <!-- 96 -->
      <g style="fill:#ffffff;" transform="translate(489.586152 357.938437)scale(0.1 -0.1)">
       <use xlink:href="#DejaVuSans-39"/>
       <use x="63.623047" xlink:href="#DejaVuSans-36"/>
      </g>
     </g>
    </g>
    <g id="xtick_12">
     <g id="line2d_18">
      <g>
       <use style="stroke:#000000;stroke-width:0.8;" x="549.862807" xlink:href="#m6998f13437" y="343.34"/>
      </g>
     </g>
     <g id="text_24">
      <!-- 192 -->
      <g style="fill:#ffffff;" transform="translate(540.319057 357.938437)scale(0.1 -0.1)">
       <use xlink:href="#DejaVuSans-31"/>
       <use x="63.623047" xlink:href="#DejaVuSans-39"/>
       <use x="127.246094" xlink:href="#DejaVuSans-32"/>
      </g>
     </g>
    </g>
    <g id="xtick_13">
     <g id="line2d_19">
      <g>
       <use style="stroke:#000000;stroke-width:0.8;" x="604.980717" xlink:href="#m6998f13437" y="343.34"/>
      </g>
     </g>
     <g id="text_25">
      <!-- 360 -->
      <g style="fill:#ffffff;" transform="translate(595.436967 357.938437)scale(0.1 -0.1)">
       <use xlink:href="#DejaVuSans-33"/>
       <use x="63.623047" xlink:href="#DejaVuSans-36"/>
       <use x="127.246094" xlink:href="#DejaVuSans-30"/>
      </g>
     </g>
    </g>
    <g id="xtick_14">
     <g id="line2d_20">
      <g>
       <use style="stroke:#000000;stroke-width:0.8;" x="662.158651" xlink:href="#m6998f13437" y="343.34"/>
      </g>
     </g>
     <g id="text_26">
      <!-- 720 -->
      <g style="fill:#ffffff;" transform="translate(652.614901 357.938437)scale(0.1 -0.1)">
       <use xlink:href="#DejaVuSans-37"/>
       <use x="63.623047" xlink:href="#DejaVuSans-32"/>
       <use x="127.246094" xlink:href="#DejaVuSans-30"/>
      </g>
     </g>
    </g>
    <g id="text_27">
     <!-- # of ice CPUs -->
     <g style="fill:#ffffff;" transform="translate(512.219531 371.616562)scale(0.1 -0.1)">
      <use xlink:href="#DejaVuSans-23"/>
      <use x="83.789062" xlink:href="#DejaVuSans-20"/>
      <use x="115.576172" xlink:href="#DejaVuSans-6f"/>
      <use x="176.757812" xlink:href="#DejaVuSans-66"/>
      <use x="211.962891" xlink:href="#DejaVuSans-20"/>
      <use x="243.75" xlink:href="#DejaVuSans-69"/>
      <use x="271.533203" xlink:href="#DejaVuSans-63"/>
      <use x="326.513672" xlink:href="#DejaVuSans-65"/>
      <use x="388.037109" xlink:href="#DejaVuSans-20"/>
      <use x="419.824219" xlink:href="#DejaVuSans-43"/>
      <use x="489.648438" xlink:href="#DejaVuSans-50"/>
      <use x="549.951172" xlink:href="#DejaVuSans-55"/>
      <use x="623.144531" xlink:href="#DejaVuSans-73"/>
     </g>
    </g>
   </g>
   <g id="matplotlib.axis_4">
    <g id="ytick_7">
     <g id="line2d_21">
      <g>
       <use style="stroke:#000000;stroke-width:0.8;" x="398.275368" xlink:href="#m0070a86666" y="343.34"/>
      </g>
     </g>
     <g id="text_28">
      <!-- 0.0 -->
      <g style="fill:#ffffff;" transform="translate(375.372243 347.139219)scale(0.1 -0.1)">
       <use xlink:href="#DejaVuSans-30"/>
       <use x="63.623047" xlink:href="#DejaVuSans-2e"/>
       <use x="95.410156" xlink:href="#DejaVuSans-30"/>
      </g>
     </g>
    </g>
    <g id="ytick_8">
     <g id="line2d_22">
      <g>
       <use style="stroke:#000000;stroke-width:0.8;" x="398.275368" xlink:href="#m0070a86666" y="279.98"/>
      </g>
     </g>
     <g id="text_29">
      <!-- 0.2 -->
      <g style="fill:#ffffff;" transform="translate(375.372243 283.779219)scale(0.1 -0.1)">
       <use xlink:href="#DejaVuSans-30"/>
       <use x="63.623047" xlink:href="#DejaVuSans-2e"/>
       <use x="95.410156" xlink:href="#DejaVuSans-32"/>
      </g>
     </g>
    </g>
    <g id="ytick_9">
     <g id="line2d_23">
      <g>
       <use style="stroke:#000000;stroke-width:0.8;" x="398.275368" xlink:href="#m0070a86666" y="216.62"/>
      </g>
     </g>
     <g id="text_30">
      <!-- 0.4 -->
      <g style="fill:#ffffff;" transform="translate(375.372243 220.419219)scale(0.1 -0.1)">
       <use xlink:href="#DejaVuSans-30"/>
       <use x="63.623047" xlink:href="#DejaVuSans-2e"/>
       <use x="95.410156" xlink:href="#DejaVuSans-34"/>
      </g>
     </g>
    </g>
    <g id="ytick_10">
     <g id="line2d_24">
      <g>
       <use style="stroke:#000000;stroke-width:0.8;" x="398.275368" xlink:href="#m0070a86666" y="153.26"/>
      </g>
     </g>
     <g id="text_31">
      <!-- 0.6 -->
      <g style="fill:#ffffff;" transform="translate(375.372243 157.059219)scale(0.1 -0.1)">
       <use xlink:href="#DejaVuSans-30"/>
       <use x="63.623047" xlink:href="#DejaVuSans-2e"/>
       <use x="95.410156" xlink:href="#DejaVuSans-36"/>
      </g>
     </g>
    </g>
    <g id="ytick_11">
     <g id="line2d_25">
      <g>
       <use style="stroke:#000000;stroke-width:0.8;" x="398.275368" xlink:href="#m0070a86666" y="89.9"/>
      </g>
     </g>
     <g id="text_32">
      <!-- 0.8 -->
      <g style="fill:#ffffff;" transform="translate(375.372243 93.699219)scale(0.1 -0.1)">
       <use xlink:href="#DejaVuSans-30"/>
       <use x="63.623047" xlink:href="#DejaVuSans-2e"/>
       <use x="95.410156" xlink:href="#DejaVuSans-38"/>
      </g>
     </g>
    </g>
    <g id="ytick_12">
     <g id="line2d_26">
      <g>
       <use style="stroke:#000000;stroke-width:0.8;" x="398.275368" xlink:href="#m0070a86666" y="26.54"/>
      </g>
     </g>
     <g id="text_33">
      <!-- 1.0 -->
      <g style="fill:#ffffff;" transform="translate(375.372243 30.339219)scale(0.1 -0.1)">
       <use xlink:href="#DejaVuSans-31"/>
       <use x="63.623047" xlink:href="#DejaVuSans-2e"/>
       <use x="95.410156" xlink:href="#DejaVuSans-30"/>
      </g>
     </g>
    </g>
   </g>
   <g id="patch_77">
    <path d="M 398.275368 343.34 
L 398.275368 10.7 
" style="fill:none;stroke:#000000;stroke-linecap:square;stroke-linejoin:miter;stroke-width:0.8;"/>
   </g>
   <g id="patch_78">
    <path d="M 693.687132 343.34 
L 693.687132 10.7 
" style="fill:none;stroke:#000000;stroke-linecap:square;stroke-linejoin:miter;stroke-width:0.8;"/>
   </g>
   <g id="patch_79">
    <path d="M 398.275368 343.34 
L 693.687132 343.34 
" style="fill:none;stroke:#000000;stroke-linecap:square;stroke-linejoin:miter;stroke-width:0.8;"/>
   </g>
   <g id="patch_80">
    <path d="M 398.275368 10.7 
L 693.687132 10.7 
" style="fill:none;stroke:#000000;stroke-linecap:square;stroke-linejoin:miter;stroke-width:0.8;"/>
   </g>
   <g id="legend_2">
    <g id="patch_81">
     <path d="M 490.049476 338.84 
L 687.387132 338.84 
Q 689.187132 338.84 689.187132 337.04 
L 689.187132 284.0975 
Q 689.187132 282.2975 687.387132 282.2975 
L 490.049476 282.2975 
Q 488.249476 282.2975 488.249476 284.0975 
L 488.249476 337.04 
Q 488.249476 338.84 490.049476 338.84 
z
" style="fill:#ffffff;opacity:0.8;stroke:#cccccc;stroke-linejoin:miter;"/>
    </g>
    <g id="patch_82">
     <path d="M 491.849476 292.736094 
L 509.849476 292.736094 
L 509.849476 286.436094 
L 491.849476 286.436094 
z
" style="fill:#1f77b4;stroke:#000000;stroke-linejoin:miter;"/>
    </g>
    <g id="text_34">
     <!-- update_ocean_model -->
     <g transform="translate(517.049476 292.736094)scale(0.09 -0.09)">
      <use xlink:href="#DejaVuSans-75"/>
      <use x="63.378906" xlink:href="#DejaVuSans-70"/>
      <use x="126.855469" xlink:href="#DejaVuSans-64"/>
      <use x="190.332031" xlink:href="#DejaVuSans-61"/>
      <use x="251.611328" xlink:href="#DejaVuSans-74"/>
      <use x="290.820312" xlink:href="#DejaVuSans-65"/>
      <use x="352.34375" xlink:href="#DejaVuSans-5f"/>
      <use x="402.34375" xlink:href="#DejaVuSans-6f"/>
      <use x="463.525391" xlink:href="#DejaVuSans-63"/>
      <use x="518.505859" xlink:href="#DejaVuSans-65"/>
      <use x="580.029297" xlink:href="#DejaVuSans-61"/>
      <use x="641.308594" xlink:href="#DejaVuSans-6e"/>
      <use x="704.6875" xlink:href="#DejaVuSans-5f"/>
      <use x="754.6875" xlink:href="#DejaVuSans-6d"/>
      <use x="852.099609" xlink:href="#DejaVuSans-6f"/>
      <use x="913.28125" xlink:href="#DejaVuSans-64"/>
      <use x="976.757812" xlink:href="#DejaVuSans-65"/>
      <use x="1038.28125" xlink:href="#DejaVuSans-6c"/>
     </g>
    </g>
    <g id="patch_83">
     <path d="M 491.849476 306.196719 
L 509.849476 306.196719 
L 509.849476 299.896719 
L 491.849476 299.896719 
z
" style="fill:#ff7f0e;stroke:#000000;stroke-linejoin:miter;"/>
    </g>
    <g id="text_35">
     <!-- main_IP_external_coupler_sbc_after -->
     <g transform="translate(517.049476 306.196719)scale(0.09 -0.09)">
      <use xlink:href="#DejaVuSans-6d"/>
      <use x="97.412109" xlink:href="#DejaVuSans-61"/>
      <use x="158.691406" xlink:href="#DejaVuSans-69"/>
      <use x="186.474609" xlink:href="#DejaVuSans-6e"/>
      <use x="249.853516" xlink:href="#DejaVuSans-5f"/>
      <use x="299.853516" xlink:href="#DejaVuSans-49"/>
      <use x="329.345703" xlink:href="#DejaVuSans-50"/>
      <use x="389.648438" xlink:href="#DejaVuSans-5f"/>
      <use x="439.648438" xlink:href="#DejaVuSans-65"/>
      <use x="501.15625" xlink:href="#DejaVuSans-78"/>
      <use x="560.335938" xlink:href="#DejaVuSans-74"/>
      <use x="599.544922" xlink:href="#DejaVuSans-65"/>
      <use x="661.068359" xlink:href="#DejaVuSans-72"/>
      <use x="702.166016" xlink:href="#DejaVuSans-6e"/>
      <use x="765.544922" xlink:href="#DejaVuSans-61"/>
      <use x="826.824219" xlink:href="#DejaVuSans-6c"/>
      <use x="854.607422" xlink:href="#DejaVuSans-5f"/>
      <use x="904.607422" xlink:href="#DejaVuSans-63"/>
      <use x="959.587891" xlink:href="#DejaVuSans-6f"/>
      <use x="1020.769531" xlink:href="#DejaVuSans-75"/>
      <use x="1084.148438" xlink:href="#DejaVuSans-70"/>
      <use x="1147.625" xlink:href="#DejaVuSans-6c"/>
      <use x="1175.408203" xlink:href="#DejaVuSans-65"/>
      <use x="1236.931641" xlink:href="#DejaVuSans-72"/>
      <use x="1278.044922" xlink:href="#DejaVuSans-5f"/>
      <use x="1328.044922" xlink:href="#DejaVuSans-73"/>
      <use x="1380.144531" xlink:href="#DejaVuSans-62"/>
      <use x="1443.621094" xlink:href="#DejaVuSans-63"/>
      <use x="1498.601562" xlink:href="#DejaVuSans-5f"/>
      <use x="1548.601562" xlink:href="#DejaVuSans-61"/>
      <use x="1609.880859" xlink:href="#DejaVuSans-66"/>
      <use x="1645.070312" xlink:href="#DejaVuSans-74"/>
      <use x="1684.279297" xlink:href="#DejaVuSans-65"/>
      <use x="1745.802734" xlink:href="#DejaVuSans-72"/>
     </g>
    </g>
    <g id="patch_84">
     <path d="M 491.849476 319.657344 
L 509.849476 319.657344 
L 509.849476 313.357344 
L 491.849476 313.357344 
z
" style="fill:#2ca02c;stroke:#000000;stroke-linejoin:miter;"/>
    </g>
    <g id="text_36">
     <!-- main_IP_external_coupler_sbc_before -->
     <g transform="translate(517.049476 319.657344)scale(0.09 -0.09)">
      <use xlink:href="#DejaVuSans-6d"/>
      <use x="97.412109" xlink:href="#DejaVuSans-61"/>
      <use x="158.691406" xlink:href="#DejaVuSans-69"/>
      <use x="186.474609" xlink:href="#DejaVuSans-6e"/>
      <use x="249.853516" xlink:href="#DejaVuSans-5f"/>
      <use x="299.853516" xlink:href="#DejaVuSans-49"/>
      <use x="329.345703" xlink:href="#DejaVuSans-50"/>
      <use x="389.648438" xlink:href="#DejaVuSans-5f"/>
      <use x="439.648438" xlink:href="#DejaVuSans-65"/>
      <use x="501.15625" xlink:href="#DejaVuSans-78"/>
      <use x="560.335938" xlink:href="#DejaVuSans-74"/>
      <use x="599.544922" xlink:href="#DejaVuSans-65"/>
      <use x="661.068359" xlink:href="#DejaVuSans-72"/>
      <use x="702.166016" xlink:href="#DejaVuSans-6e"/>
      <use x="765.544922" xlink:href="#DejaVuSans-61"/>
      <use x="826.824219" xlink:href="#DejaVuSans-6c"/>
      <use x="854.607422" xlink:href="#DejaVuSans-5f"/>
      <use x="904.607422" xlink:href="#DejaVuSans-63"/>
      <use x="959.587891" xlink:href="#DejaVuSans-6f"/>
      <use x="1020.769531" xlink:href="#DejaVuSans-75"/>
      <use x="1084.148438" xlink:href="#DejaVuSans-70"/>
      <use x="1147.625" xlink:href="#DejaVuSans-6c"/>
      <use x="1175.408203" xlink:href="#DejaVuSans-65"/>
      <use x="1236.931641" xlink:href="#DejaVuSans-72"/>
      <use x="1278.044922" xlink:href="#DejaVuSans-5f"/>
      <use x="1328.044922" xlink:href="#DejaVuSans-73"/>
      <use x="1380.144531" xlink:href="#DejaVuSans-62"/>
      <use x="1443.621094" xlink:href="#DejaVuSans-63"/>
      <use x="1498.601562" xlink:href="#DejaVuSans-5f"/>
      <use x="1548.601562" xlink:href="#DejaVuSans-62"/>
      <use x="1612.078125" xlink:href="#DejaVuSans-65"/>
      <use x="1673.601562" xlink:href="#DejaVuSans-66"/>
      <use x="1708.806641" xlink:href="#DejaVuSans-6f"/>
      <use x="1769.988281" xlink:href="#DejaVuSans-72"/>
      <use x="1811.070312" xlink:href="#DejaVuSans-65"/>
     </g>
    </g>
    <g id="patch_85">
     <path d="M 491.849476 333.117969 
L 509.849476 333.117969 
L 509.849476 326.817969 
L 491.849476 326.817969 
z
" style="fill:#d62728;stroke:#000000;stroke-linejoin:miter;"/>
    </g>
    <g id="text_37">
     <!-- mpp_clock_begin -->
     <g transform="translate(517.049476 333.117969)scale(0.09 -0.09)">
      <use xlink:href="#DejaVuSans-6d"/>
      <use x="97.412109" xlink:href="#DejaVuSans-70"/>
      <use x="160.888672" xlink:href="#DejaVuSans-70"/>
      <use x="224.365234" xlink:href="#DejaVuSans-5f"/>
      <use x="274.365234" xlink:href="#DejaVuSans-63"/>
      <use x="329.345703" xlink:href="#DejaVuSans-6c"/>
      <use x="357.128906" xlink:href="#DejaVuSans-6f"/>
      <use x="418.310547" xlink:href="#DejaVuSans-63"/>
      <use x="473.291016" xlink:href="#DejaVuSans-6b"/>
      <use x="531.201172" xlink:href="#DejaVuSans-5f"/>
      <use x="581.201172" xlink:href="#DejaVuSans-62"/>
      <use x="644.677734" xlink:href="#DejaVuSans-65"/>
      <use x="706.201172" xlink:href="#DejaVuSans-67"/>
      <use x="769.677734" xlink:href="#DejaVuSans-69"/>
      <use x="797.460938" xlink:href="#DejaVuSans-6e"/>
     </g>
    </g>
   </g>
  </g>
  <g id="axes_3">
   <g id="patch_86">
    <path d="M 752.769485 343.34 
L 1048.18125 343.34 
L 1048.18125 10.7 
L 752.769485 10.7 
z
" style="fill:#ffffff;"/>
   </g>
   <g id="patch_87">
    <path clip-path="url(#pd55a10f584)" d="M 766.098571 343.34 
L 837.783177 343.34 
L 837.783177 60.31202 
L 766.098571 60.31202 
z
" style="fill:#1f77b4;stroke:#000000;stroke-linejoin:miter;"/>
   </g>
   <g id="patch_88">
    <path clip-path="url(#pd55a10f584)" d="M 843.511801 343.34 
L 915.196408 343.34 
L 915.196408 64.39353 
L 843.511801 64.39353 
z
" style="fill:#1f77b4;stroke:#000000;stroke-linejoin:miter;"/>
   </g>
   <g id="patch_89">
    <path clip-path="url(#pd55a10f584)" d="M 920.925032 343.34 
L 962.422619 343.34 
L 962.422619 62.484676 
L 920.925032 62.484676 
z
" style="fill:#1f77b4;stroke:#000000;stroke-linejoin:miter;"/>
   </g>
   <g id="patch_90">
    <path clip-path="url(#pd55a10f584)" d="M 966.208869 343.34 
L 995.510676 343.34 
L 995.510676 87.102968 
L 966.208869 87.102968 
z
" style="fill:#1f77b4;stroke:#000000;stroke-linejoin:miter;"/>
   </g>
   <g id="patch_91">
    <path clip-path="url(#pd55a10f584)" d="M 998.338262 343.34 
L 1039.835849 343.34 
L 1039.835849 161.979145 
L 998.338262 161.979145 
z
" style="fill:#1f77b4;stroke:#000000;stroke-linejoin:miter;"/>
   </g>
   <g id="patch_92">
    <path clip-path="url(#pd55a10f584)" d="M 920.925032 343.34 
L 962.422619 343.34 
L 962.422619 62.484676 
L 920.925032 62.484676 
z
" style="fill:url(#h5a513e4d85);"/>
   </g>
   <g id="patch_93">
    <path clip-path="url(#pd55a10f584)" d="M 766.098571 60.31202 
L 837.783177 60.31202 
L 837.783177 27.459817 
L 766.098571 27.459817 
z
" style="fill:#ff7f0e;stroke:#000000;stroke-linejoin:miter;"/>
   </g>
   <g id="patch_94">
    <path clip-path="url(#pd55a10f584)" d="M 843.511801 64.39353 
L 915.196408 64.39353 
L 915.196408 31.086328 
L 843.511801 31.086328 
z
" style="fill:#ff7f0e;stroke:#000000;stroke-linejoin:miter;"/>
   </g>
   <g id="patch_95">
    <path clip-path="url(#pd55a10f584)" d="M 920.925032 62.484676 
L 962.422619 62.484676 
L 962.422619 31.020163 
L 920.925032 31.020163 
z
" style="fill:#ff7f0e;stroke:#000000;stroke-linejoin:miter;"/>
   </g>
   <g id="patch_96">
    <path clip-path="url(#pd55a10f584)" d="M 966.208869 87.102968 
L 995.510676 87.102968 
L 995.510676 34.458418 
L 966.208869 34.458418 
z
" style="fill:#ff7f0e;stroke:#000000;stroke-linejoin:miter;"/>
   </g>
   <g id="patch_97">
    <path clip-path="url(#pd55a10f584)" d="M 998.338262 161.979145 
L 1039.835849 161.979145 
L 1039.835849 38.737334 
L 998.338262 38.737334 
z
" style="fill:#ff7f0e;stroke:#000000;stroke-linejoin:miter;"/>
   </g>
   <g id="patch_98">
    <path clip-path="url(#pd55a10f584)" d="M 920.925032 62.484676 
L 962.422619 62.484676 
L 962.422619 31.020163 
L 920.925032 31.020163 
z
" style="fill:url(#h5a513e4d85);"/>
   </g>
   <g id="patch_99">
    <path clip-path="url(#pd55a10f584)" d="M 766.098571 27.459817 
L 837.783177 27.459817 
L 837.783177 26.920868 
L 766.098571 26.920868 
z
" style="fill:#2ca02c;stroke:#000000;stroke-linejoin:miter;"/>
   </g>
   <g id="patch_100">
    <path clip-path="url(#pd55a10f584)" d="M 843.511801 31.086328 
L 915.196408 31.086328 
L 915.196408 30.432802 
L 843.511801 30.432802 
z
" style="fill:#2ca02c;stroke:#000000;stroke-linejoin:miter;"/>
   </g>
   <g id="patch_101">
    <path clip-path="url(#pd55a10f584)" d="M 920.925032 31.020163 
L 962.422619 31.020163 
L 962.422619 30.385213 
L 920.925032 30.385213 
z
" style="fill:#2ca02c;stroke:#000000;stroke-linejoin:miter;"/>
   </g>
   <g id="patch_102">
    <path clip-path="url(#pd55a10f584)" d="M 966.208869 34.458418 
L 995.510676 34.458418 
L 995.510676 33.756657 
L 966.208869 33.756657 
z
" style="fill:#2ca02c;stroke:#000000;stroke-linejoin:miter;"/>
   </g>
   <g id="patch_103">
    <path clip-path="url(#pd55a10f584)" d="M 998.338262 38.737334 
L 1039.835849 38.737334 
L 1039.835849 38.091055 
L 998.338262 38.091055 
z
" style="fill:#2ca02c;stroke:#000000;stroke-linejoin:miter;"/>
   </g>
   <g id="patch_104">
    <path clip-path="url(#pd55a10f584)" d="M 920.925032 31.020163 
L 962.422619 31.020163 
L 962.422619 30.385213 
L 920.925032 30.385213 
z
" style="fill:url(#h5a513e4d85);"/>
   </g>
   <g id="patch_105">
    <path clip-path="url(#pd55a10f584)" d="M 766.098571 26.920868 
L 837.783177 26.920868 
L 837.783177 26.54 
L 766.098571 26.54 
z
" style="fill:#d62728;stroke:#000000;stroke-linejoin:miter;"/>
   </g>
   <g id="patch_106">
    <path clip-path="url(#pd55a10f584)" d="M 843.511801 30.432802 
L 915.196408 30.432802 
L 915.196408 26.54 
L 843.511801 26.54 
z
" style="fill:#d62728;stroke:#000000;stroke-linejoin:miter;"/>
   </g>
   <g id="patch_107">
    <path clip-path="url(#pd55a10f584)" d="M 920.925032 30.385213 
L 962.422619 30.385213 
L 962.422619 26.54 
L 920.925032 26.54 
z
" style="fill:#d62728;stroke:#000000;stroke-linejoin:miter;"/>
   </g>
   <g id="patch_108">
    <path clip-path="url(#pd55a10f584)" d="M 966.208869 33.756657 
L 995.510676 33.756657 
L 995.510676 26.54 
L 966.208869 26.54 
z
" style="fill:#d62728;stroke:#000000;stroke-linejoin:miter;"/>
   </g>
   <g id="patch_109">
    <path clip-path="url(#pd55a10f584)" d="M 998.338262 38.091055 
L 1039.835849 38.091055 
L 1039.835849 26.54 
L 998.338262 26.54 
z
" style="fill:#d62728;stroke:#000000;stroke-linejoin:miter;"/>
   </g>
   <g id="patch_110">
    <path clip-path="url(#pd55a10f584)" d="M 920.925032 30.385213 
L 962.422619 30.385213 
L 962.422619 26.54 
L 920.925032 26.54 
z
" style="fill:url(#h5a513e4d85);"/>
   </g>
   <g id="matplotlib.axis_5">
    <g id="xtick_15">
     <g id="line2d_27">
      <g>
       <use style="stroke:#000000;stroke-width:0.8;" x="807.596158" xlink:href="#m6998f13437" y="343.34"/>
      </g>
     </g>
     <g id="text_38">
      <!-- 240 -->
      <g style="fill:#ffffff;" transform="translate(798.052408 357.938437)scale(0.1 -0.1)">
       <use xlink:href="#DejaVuSans-32"/>
       <use x="63.623047" xlink:href="#DejaVuSans-34"/>
       <use x="127.246094" xlink:href="#DejaVuSans-30"/>
      </g>
     </g>
    </g>
    <g id="xtick_16">
     <g id="line2d_28">
      <g>
       <use style="stroke:#000000;stroke-width:0.8;" x="885.009388" xlink:href="#m6998f13437" y="343.34"/>
      </g>
     </g>
     <g id="text_39">
      <!-- 480 -->
      <g style="fill:#ffffff;" transform="translate(875.465638 357.938437)scale(0.1 -0.1)">
       <use xlink:href="#DejaVuSans-34"/>
       <use x="63.623047" xlink:href="#DejaVuSans-38"/>
       <use x="127.246094" xlink:href="#DejaVuSans-30"/>
      </g>
     </g>
    </g>
    <g id="xtick_17">
     <g id="line2d_29">
      <g>
       <use style="stroke:#000000;stroke-width:0.8;" x="943.590213" xlink:href="#m6998f13437" y="343.34"/>
      </g>
     </g>
     <g id="text_40">
      <!-- 960 -->
      <g style="fill:#ffffff;" transform="translate(934.046463 357.938437)scale(0.1 -0.1)">
       <use xlink:href="#DejaVuSans-39"/>
       <use x="63.623047" xlink:href="#DejaVuSans-36"/>
       <use x="127.246094" xlink:href="#DejaVuSans-30"/>
      </g>
     </g>
    </g>
    <g id="xtick_18">
     <g id="line2d_30">
      <g>
       <use style="stroke:#000000;stroke-width:0.8;" x="981.817997" xlink:href="#m6998f13437" y="343.34"/>
      </g>
     </g>
     <g id="text_41">
      <!-- 1440 -->
      <g style="fill:#ffffff;" transform="translate(969.092997 357.938437)scale(0.1 -0.1)">
       <use xlink:href="#DejaVuSans-31"/>
       <use x="63.623047" xlink:href="#DejaVuSans-34"/>
       <use x="127.246094" xlink:href="#DejaVuSans-34"/>
       <use x="190.869141" xlink:href="#DejaVuSans-30"/>
      </g>
     </g>
    </g>
    <g id="xtick_19">
     <g id="line2d_31">
      <g>
       <use style="stroke:#000000;stroke-width:0.8;" x="1021.003443" xlink:href="#m6998f13437" y="343.34"/>
      </g>
     </g>
     <g id="text_42">
      <!-- 1920 -->
      <g style="fill:#ffffff;" transform="translate(1008.278443 357.938437)scale(0.1 -0.1)">
       <use xlink:href="#DejaVuSans-31"/>
       <use x="63.623047" xlink:href="#DejaVuSans-39"/>
       <use x="127.246094" xlink:href="#DejaVuSans-32"/>
       <use x="190.869141" xlink:href="#DejaVuSans-30"/>
      </g>
     </g>
    </g>
    <g id="text_43">
     <!-- # of ocn CPUs -->
     <g style="fill:#ffffff;" transform="translate(864.951149 371.616562)scale(0.1 -0.1)">
      <use xlink:href="#DejaVuSans-23"/>
      <use x="83.789062" xlink:href="#DejaVuSans-20"/>
      <use x="115.576172" xlink:href="#DejaVuSans-6f"/>
      <use x="176.757812" xlink:href="#DejaVuSans-66"/>
      <use x="211.962891" xlink:href="#DejaVuSans-20"/>
      <use x="243.75" xlink:href="#DejaVuSans-6f"/>
      <use x="304.931641" xlink:href="#DejaVuSans-63"/>
      <use x="359.912109" xlink:href="#DejaVuSans-6e"/>
      <use x="423.291016" xlink:href="#DejaVuSans-20"/>
      <use x="455.078125" xlink:href="#DejaVuSans-43"/>
      <use x="524.902344" xlink:href="#DejaVuSans-50"/>
      <use x="585.205078" xlink:href="#DejaVuSans-55"/>
      <use x="658.398438" xlink:href="#DejaVuSans-73"/>
     </g>
    </g>
   </g>
   <g id="matplotlib.axis_6">
    <g id="ytick_13">
     <g id="line2d_32">
      <g>
       <use style="stroke:#000000;stroke-width:0.8;" x="752.769485" xlink:href="#m0070a86666" y="343.34"/>
      </g>
     </g>
     <g id="text_44">
      <!-- 0.0 -->
      <g style="fill:#ffffff;" transform="translate(729.86636 347.139219)scale(0.1 -0.1)">
       <use xlink:href="#DejaVuSans-30"/>
       <use x="63.623047" xlink:href="#DejaVuSans-2e"/>
       <use x="95.410156" xlink:href="#DejaVuSans-30"/>
      </g>
     </g>
    </g>
    <g id="ytick_14">
     <g id="line2d_33">
      <g>
       <use style="stroke:#000000;stroke-width:0.8;" x="752.769485" xlink:href="#m0070a86666" y="279.98"/>
      </g>
     </g>
     <g id="text_45">
      <!-- 0.2 -->
      <g style="fill:#ffffff;" transform="translate(729.86636 283.779219)scale(0.1 -0.1)">
       <use xlink:href="#DejaVuSans-30"/>
       <use x="63.623047" xlink:href="#DejaVuSans-2e"/>
       <use x="95.410156" xlink:href="#DejaVuSans-32"/>
      </g>
     </g>
    </g>
    <g id="ytick_15">
     <g id="line2d_34">
      <g>
       <use style="stroke:#000000;stroke-width:0.8;" x="752.769485" xlink:href="#m0070a86666" y="216.62"/>
      </g>
     </g>
     <g id="text_46">
      <!-- 0.4 -->
      <g style="fill:#ffffff;" transform="translate(729.86636 220.419219)scale(0.1 -0.1)">
       <use xlink:href="#DejaVuSans-30"/>
       <use x="63.623047" xlink:href="#DejaVuSans-2e"/>
       <use x="95.410156" xlink:href="#DejaVuSans-34"/>
      </g>
     </g>
    </g>
    <g id="ytick_16">
     <g id="line2d_35">
      <g>
       <use style="stroke:#000000;stroke-width:0.8;" x="752.769485" xlink:href="#m0070a86666" y="153.26"/>
      </g>
     </g>
     <g id="text_47">
      <!-- 0.6 -->
      <g style="fill:#ffffff;" transform="translate(729.86636 157.059219)scale(0.1 -0.1)">
       <use xlink:href="#DejaVuSans-30"/>
       <use x="63.623047" xlink:href="#DejaVuSans-2e"/>
       <use x="95.410156" xlink:href="#DejaVuSans-36"/>
      </g>
     </g>
    </g>
    <g id="ytick_17">
     <g id="line2d_36">
      <g>
       <use style="stroke:#000000;stroke-width:0.8;" x="752.769485" xlink:href="#m0070a86666" y="89.9"/>
      </g>
     </g>
     <g id="text_48">
      <!-- 0.8 -->
      <g style="fill:#ffffff;" transform="translate(729.86636 93.699219)scale(0.1 -0.1)">
       <use xlink:href="#DejaVuSans-30"/>
       <use x="63.623047" xlink:href="#DejaVuSans-2e"/>
       <use x="95.410156" xlink:href="#DejaVuSans-38"/>
      </g>
     </g>
    </g>
    <g id="ytick_18">
     <g id="line2d_37">
      <g>
       <use style="stroke:#000000;stroke-width:0.8;" x="752.769485" xlink:href="#m0070a86666" y="26.54"/>
      </g>
     </g>
     <g id="text_49">
      <!-- 1.0 -->
      <g style="fill:#ffffff;" transform="translate(729.86636 30.339219)scale(0.1 -0.1)">
       <use xlink:href="#DejaVuSans-31"/>
       <use x="63.623047" xlink:href="#DejaVuSans-2e"/>
       <use x="95.410156" xlink:href="#DejaVuSans-30"/>
      </g>
     </g>
    </g>
   </g>
   <g id="patch_111">
    <path d="M 752.769485 343.34 
L 752.769485 10.7 
" style="fill:none;stroke:#000000;stroke-linecap:square;stroke-linejoin:miter;stroke-width:0.8;"/>
   </g>
   <g id="patch_112">
    <path d="M 1048.18125 343.34 
L 1048.18125 10.7 
" style="fill:none;stroke:#000000;stroke-linecap:square;stroke-linejoin:miter;stroke-width:0.8;"/>
   </g>
   <g id="patch_113">
    <path d="M 752.769485 343.34 
L 1048.18125 343.34 
" style="fill:none;stroke:#000000;stroke-linecap:square;stroke-linejoin:miter;stroke-width:0.8;"/>
   </g>
   <g id="patch_114">
    <path d="M 752.769485 10.7 
L 1048.18125 10.7 
" style="fill:none;stroke:#000000;stroke-linecap:square;stroke-linejoin:miter;stroke-width:0.8;"/>
   </g>
   <g id="legend_3">
    <g id="patch_115">
     <path d="M 844.543594 338.84 
L 1041.88125 338.84 
Q 1043.68125 338.84 1043.68125 337.04 
L 1043.68125 284.0975 
Q 1043.68125 282.2975 1041.88125 282.2975 
L 844.543594 282.2975 
Q 842.743594 282.2975 842.743594 284.0975 
L 842.743594 337.04 
Q 842.743594 338.84 844.543594 338.84 
z
" style="fill:#ffffff;opacity:0.8;stroke:#cccccc;stroke-linejoin:miter;"/>
    </g>
    <g id="patch_116">
     <path d="M 846.343594 292.736094 
L 864.343594 292.736094 
L 864.343594 286.436094 
L 846.343594 286.436094 
z
" style="fill:#1f77b4;stroke:#000000;stroke-linejoin:miter;"/>
    </g>
    <g id="text_50">
     <!-- update_ocean_model -->
     <g transform="translate(871.543594 292.736094)scale(0.09 -0.09)">
      <use xlink:href="#DejaVuSans-75"/>
      <use x="63.378906" xlink:href="#DejaVuSans-70"/>
      <use x="126.855469" xlink:href="#DejaVuSans-64"/>
      <use x="190.332031" xlink:href="#DejaVuSans-61"/>
      <use x="251.611328" xlink:href="#DejaVuSans-74"/>
      <use x="290.820312" xlink:href="#DejaVuSans-65"/>
      <use x="352.34375" xlink:href="#DejaVuSans-5f"/>
      <use x="402.34375" xlink:href="#DejaVuSans-6f"/>
      <use x="463.525391" xlink:href="#DejaVuSans-63"/>
      <use x="518.505859" xlink:href="#DejaVuSans-65"/>
      <use x="580.029297" xlink:href="#DejaVuSans-61"/>
      <use x="641.308594" xlink:href="#DejaVuSans-6e"/>
      <use x="704.6875" xlink:href="#DejaVuSans-5f"/>
      <use x="754.6875" xlink:href="#DejaVuSans-6d"/>
      <use x="852.099609" xlink:href="#DejaVuSans-6f"/>
      <use x="913.28125" xlink:href="#DejaVuSans-64"/>
      <use x="976.757812" xlink:href="#DejaVuSans-65"/>
      <use x="1038.28125" xlink:href="#DejaVuSans-6c"/>
     </g>
    </g>
    <g id="patch_117">
     <path d="M 846.343594 306.196719 
L 864.343594 306.196719 
L 864.343594 299.896719 
L 846.343594 299.896719 
z
" style="fill:#ff7f0e;stroke:#000000;stroke-linejoin:miter;"/>
    </g>
    <g id="text_51">
     <!-- main_IP_external_coupler_sbc_after -->
     <g transform="translate(871.543594 306.196719)scale(0.09 -0.09)">
      <use xlink:href="#DejaVuSans-6d"/>
      <use x="97.412109" xlink:href="#DejaVuSans-61"/>
      <use x="158.691406" xlink:href="#DejaVuSans-69"/>
      <use x="186.474609" xlink:href="#DejaVuSans-6e"/>
      <use x="249.853516" xlink:href="#DejaVuSans-5f"/>
      <use x="299.853516" xlink:href="#DejaVuSans-49"/>
      <use x="329.345703" xlink:href="#DejaVuSans-50"/>
      <use x="389.648438" xlink:href="#DejaVuSans-5f"/>
      <use x="439.648438" xlink:href="#DejaVuSans-65"/>
      <use x="501.15625" xlink:href="#DejaVuSans-78"/>
      <use x="560.335938" xlink:href="#DejaVuSans-74"/>
      <use x="599.544922" xlink:href="#DejaVuSans-65"/>
      <use x="661.068359" xlink:href="#DejaVuSans-72"/>
      <use x="702.166016" xlink:href="#DejaVuSans-6e"/>
      <use x="765.544922" xlink:href="#DejaVuSans-61"/>
      <use x="826.824219" xlink:href="#DejaVuSans-6c"/>
      <use x="854.607422" xlink:href="#DejaVuSans-5f"/>
      <use x="904.607422" xlink:href="#DejaVuSans-63"/>
      <use x="959.587891" xlink:href="#DejaVuSans-6f"/>
      <use x="1020.769531" xlink:href="#DejaVuSans-75"/>
      <use x="1084.148438" xlink:href="#DejaVuSans-70"/>
      <use x="1147.625" xlink:href="#DejaVuSans-6c"/>
      <use x="1175.408203" xlink:href="#DejaVuSans-65"/>
      <use x="1236.931641" xlink:href="#DejaVuSans-72"/>
      <use x="1278.044922" xlink:href="#DejaVuSans-5f"/>
      <use x="1328.044922" xlink:href="#DejaVuSans-73"/>
      <use x="1380.144531" xlink:href="#DejaVuSans-62"/>
      <use x="1443.621094" xlink:href="#DejaVuSans-63"/>
      <use x="1498.601562" xlink:href="#DejaVuSans-5f"/>
      <use x="1548.601562" xlink:href="#DejaVuSans-61"/>
      <use x="1609.880859" xlink:href="#DejaVuSans-66"/>
      <use x="1645.070312" xlink:href="#DejaVuSans-74"/>
      <use x="1684.279297" xlink:href="#DejaVuSans-65"/>
      <use x="1745.802734" xlink:href="#DejaVuSans-72"/>
     </g>
    </g>
    <g id="patch_118">
     <path d="M 846.343594 319.657344 
L 864.343594 319.657344 
L 864.343594 313.357344 
L 846.343594 313.357344 
z
" style="fill:#2ca02c;stroke:#000000;stroke-linejoin:miter;"/>
    </g>
    <g id="text_52">
     <!-- main_IP_external_coupler_sbc_before -->
     <g transform="translate(871.543594 319.657344)scale(0.09 -0.09)">
      <use xlink:href="#DejaVuSans-6d"/>
      <use x="97.412109" xlink:href="#DejaVuSans-61"/>
      <use x="158.691406" xlink:href="#DejaVuSans-69"/>
      <use x="186.474609" xlink:href="#DejaVuSans-6e"/>
      <use x="249.853516" xlink:href="#DejaVuSans-5f"/>
      <use x="299.853516" xlink:href="#DejaVuSans-49"/>
      <use x="329.345703" xlink:href="#DejaVuSans-50"/>
      <use x="389.648438" xlink:href="#DejaVuSans-5f"/>
      <use x="439.648438" xlink:href="#DejaVuSans-65"/>
      <use x="501.15625" xlink:href="#DejaVuSans-78"/>
      <use x="560.335938" xlink:href="#DejaVuSans-74"/>
      <use x="599.544922" xlink:href="#DejaVuSans-65"/>
      <use x="661.068359" xlink:href="#DejaVuSans-72"/>
      <use x="702.166016" xlink:href="#DejaVuSans-6e"/>
      <use x="765.544922" xlink:href="#DejaVuSans-61"/>
      <use x="826.824219" xlink:href="#DejaVuSans-6c"/>
      <use x="854.607422" xlink:href="#DejaVuSans-5f"/>
      <use x="904.607422" xlink:href="#DejaVuSans-63"/>
      <use x="959.587891" xlink:href="#DejaVuSans-6f"/>
      <use x="1020.769531" xlink:href="#DejaVuSans-75"/>
      <use x="1084.148438" xlink:href="#DejaVuSans-70"/>
      <use x="1147.625" xlink:href="#DejaVuSans-6c"/>
      <use x="1175.408203" xlink:href="#DejaVuSans-65"/>
      <use x="1236.931641" xlink:href="#DejaVuSans-72"/>
      <use x="1278.044922" xlink:href="#DejaVuSans-5f"/>
      <use x="1328.044922" xlink:href="#DejaVuSans-73"/>
      <use x="1380.144531" xlink:href="#DejaVuSans-62"/>
      <use x="1443.621094" xlink:href="#DejaVuSans-63"/>
      <use x="1498.601562" xlink:href="#DejaVuSans-5f"/>
      <use x="1548.601562" xlink:href="#DejaVuSans-62"/>
      <use x="1612.078125" xlink:href="#DejaVuSans-65"/>
      <use x="1673.601562" xlink:href="#DejaVuSans-66"/>
      <use x="1708.806641" xlink:href="#DejaVuSans-6f"/>
      <use x="1769.988281" xlink:href="#DejaVuSans-72"/>
      <use x="1811.070312" xlink:href="#DejaVuSans-65"/>
     </g>
    </g>
    <g id="patch_119">
     <path d="M 846.343594 333.117969 
L 864.343594 333.117969 
L 864.343594 326.817969 
L 846.343594 326.817969 
z
" style="fill:#d62728;stroke:#000000;stroke-linejoin:miter;"/>
    </g>
    <g id="text_53">
     <!-- mpp_clock_begin -->
     <g transform="translate(871.543594 333.117969)scale(0.09 -0.09)">
      <use xlink:href="#DejaVuSans-6d"/>
      <use x="97.412109" xlink:href="#DejaVuSans-70"/>
      <use x="160.888672" xlink:href="#DejaVuSans-70"/>
      <use x="224.365234" xlink:href="#DejaVuSans-5f"/>
      <use x="274.365234" xlink:href="#DejaVuSans-63"/>
      <use x="329.345703" xlink:href="#DejaVuSans-6c"/>
      <use x="357.128906" xlink:href="#DejaVuSans-6f"/>
      <use x="418.310547" xlink:href="#DejaVuSans-63"/>
      <use x="473.291016" xlink:href="#DejaVuSans-6b"/>
      <use x="531.201172" xlink:href="#DejaVuSans-5f"/>
      <use x="581.201172" xlink:href="#DejaVuSans-62"/>
      <use x="644.677734" xlink:href="#DejaVuSans-65"/>
      <use x="706.201172" xlink:href="#DejaVuSans-67"/>
      <use x="769.677734" xlink:href="#DejaVuSans-69"/>
      <use x="797.460938" xlink:href="#DejaVuSans-6e"/>
     </g>
    </g>
   </g>
  </g>
 </g>
 <defs>
  <clipPath id="pf443ccbe6e">
   <rect height="332.64" width="295.411765" x="43.78125" y="10.7"/>
  </clipPath>
  <clipPath id="p2f34bd2e02">
   <rect height="332.64" width="295.411765" x="398.275368" y="10.7"/>
  </clipPath>
  <clipPath id="pd55a10f584">
   <rect height="332.64" width="295.411765" x="752.769485" y="10.7"/>
  </clipPath>
 </defs>
 <defs>
  <pattern height="72" id="h5a513e4d85" patternUnits="userSpaceOnUse" width="72" x="0" y="0">
   <rect fill="none" height="73" width="73" x="0" y="0"/>
   <path d="M -36 36 
L 36 -36 
M -24 48 
L 48 -24 
M -12 60 
L 60 -12 
M 0 72 
L 72 0 
M 12 84 
L 84 12 
M 24 96 
L 96 24 
M 36 108 
L 108 36 
M -36 36 
L 36 108 
M -24 24 
L 48 96 
M -12 12 
L 60 84 
M 0 0 
L 72 72 
M 12 -12 
L 84 60 
M 24 -24 
L 96 48 
M 36 -36 
L 108 36 
" style="fill:#000000;stroke:#000000;stroke-linecap:butt;stroke-linejoin:miter;stroke-width:1.0;"/>
  </pattern>
 </defs>
</svg>
