<?xml version="1.0" encoding="utf-8" standalone="no"?>
<!DOCTYPE svg PUBLIC "-//W3C//DTD SVG 1.1//EN"
  "http://www.w3.org/Graphics/SVG/1.1/DTD/svg11.dtd">
<!-- Created with matplotlib (http://matplotlib.org/) -->
<svg height="408pt" version="1.1" viewBox="0 0 550 408" width="550pt" xmlns="http://www.w3.org/2000/svg" xmlns:xlink="http://www.w3.org/1999/xlink">
 <defs>
  <style type="text/css">
*{stroke-linecap:butt;stroke-linejoin:round;stroke-miterlimit:100000;}
  </style>
 </defs>
 <g id="figure_1">
  <g id="patch_1">
   <path d="M 0 408.16925 
L 550.08 408.16925 
L 550.08 0 
L 0 0 
L 0 408.16925 
z
" style="fill:none;"/>
  </g>
  <g id="axes_1">
   <g id="patch_2">
    <path d="M 208.08 368.74175 
L 542.88 368.74175 
L 542.88 23.14175 
L 208.08 23.14175 
z
" style="fill:#ffffff;"/>
   </g>
   <g id="patch_3">
    <path clip-path="url(#pa2f366df7a)" d="M 222.576072 368.74175 
L 267.794858 368.74175 
L 267.794858 122.719377 
L 222.576072 122.719377 
z
" style="fill:#e41a1c;stroke:#000000;stroke-linejoin:miter;"/>
   </g>
   <g id="patch_4">
    <path clip-path="url(#pa2f366df7a)" d="M 308.52707 368.74175 
L 353.690043 368.74175 
L 353.690043 160.590502 
L 308.52707 160.590502 
z
" style="fill:#e41a1c;stroke:#000000;stroke-linejoin:miter;"/>
   </g>
   <g id="patch_5">
    <path clip-path="url(#pa2f366df7a)" d="M 398.709773 368.74175 
L 443.904171 368.74175 
L 443.904171 276.75095 
L 398.709773 276.75095 
z
" style="fill:#e41a1c;stroke:#000000;stroke-linejoin:miter;"/>
   </g>
   <g id="patch_6">
    <path clip-path="url(#pa2f366df7a)" d="M 487.093908 368.74175 
L 532.292848 368.74175 
L 532.292848 326.866557 
L 487.093908 326.866557 
z
" style="fill:#e41a1c;stroke:#000000;stroke-linejoin:miter;"/>
   </g>
   <g id="patch_7">
    <path clip-path="url(#pa2f366df7a)" d="M 222.576072 122.719377 
L 267.794858 122.719377 
L 267.794858 105.88852 
L 222.576072 105.88852 
z
" style="fill:#67628d;stroke:#000000;stroke-linejoin:miter;"/>
   </g>
   <g id="patch_8">
    <path clip-path="url(#pa2f366df7a)" d="M 308.52707 160.590502 
L 353.690043 160.590502 
L 353.690043 145.756032 
L 308.52707 145.756032 
z
" style="fill:#67628d;stroke:#000000;stroke-linejoin:miter;"/>
   </g>
   <g id="patch_9">
    <path clip-path="url(#pa2f366df7a)" d="M 398.709773 276.75095 
L 443.904171 276.75095 
L 443.904171 270.108071 
L 398.709773 270.108071 
z
" style="fill:#67628d;stroke:#000000;stroke-linejoin:miter;"/>
   </g>
   <g id="patch_10">
    <path clip-path="url(#pa2f366df7a)" d="M 487.093908 326.866557 
L 532.292848 326.866557 
L 532.292848 323.816486 
L 487.093908 323.816486 
z
" style="fill:#67628d;stroke:#000000;stroke-linejoin:miter;"/>
   </g>
   <g id="patch_11">
    <path clip-path="url(#pa2f366df7a)" d="M 222.576072 105.88852 
L 267.794858 105.88852 
L 267.794858 94.258278 
L 222.576072 94.258278 
z
" style="fill:#419487;stroke:#000000;stroke-linejoin:miter;"/>
   </g>
   <g id="patch_12">
    <path clip-path="url(#pa2f366df7a)" d="M 308.52707 145.756032 
L 353.690043 145.756032 
L 353.690043 134.18741 
L 308.52707 134.18741 
z
" style="fill:#419487;stroke:#000000;stroke-linejoin:miter;"/>
   </g>
   <g id="patch_13">
    <path clip-path="url(#pa2f366df7a)" d="M 398.709773 270.108071 
L 443.904171 270.108071 
L 443.904171 264.155995 
L 398.709773 264.155995 
z
" style="fill:#419487;stroke:#000000;stroke-linejoin:miter;"/>
   </g>
   <g id="patch_14">
    <path clip-path="url(#pa2f366df7a)" d="M 487.093908 323.816486 
L 532.292848 323.816486 
L 532.292848 320.932629 
L 487.093908 320.932629 
z
" style="fill:#419487;stroke:#000000;stroke-linejoin:miter;"/>
   </g>
   <g id="patch_15">
    <path clip-path="url(#pa2f366df7a)" d="M 222.576072 94.258278 
L 267.794858 94.258278 
L 267.794858 90.127101 
L 222.576072 90.127101 
z
" style="fill:#599f59;stroke:#000000;stroke-linejoin:miter;"/>
   </g>
   <g id="patch_16">
    <path clip-path="url(#pa2f366df7a)" d="M 308.52707 134.18741 
L 353.690043 134.18741 
L 353.690043 122.868403 
L 308.52707 122.868403 
z
" style="fill:#599f59;stroke:#000000;stroke-linejoin:miter;"/>
   </g>
   <g id="patch_17">
    <path clip-path="url(#pa2f366df7a)" d="M 398.709773 264.155995 
L 443.904171 264.155995 
L 443.904171 254.309033 
L 398.709773 254.309033 
z
" style="fill:#599f59;stroke:#000000;stroke-linejoin:miter;"/>
   </g>
   <g id="patch_18">
    <path clip-path="url(#pa2f366df7a)" d="M 487.093908 320.932629 
L 532.292848 320.932629 
L 532.292848 309.632506 
L 487.093908 309.632506 
z
" style="fill:#599f59;stroke:#000000;stroke-linejoin:miter;"/>
   </g>
   <g id="patch_19">
    <path clip-path="url(#pa2f366df7a)" d="M 222.576072 90.127101 
L 267.794858 90.127101 
L 267.794858 82.68915 
L 222.576072 82.68915 
z
" style="fill:#92569c;stroke:#000000;stroke-linejoin:miter;"/>
   </g>
   <g id="patch_20">
    <path clip-path="url(#pa2f366df7a)" d="M 308.52707 122.868403 
L 353.690043 122.868403 
L 353.690043 114.750157 
L 308.52707 114.750157 
z
" style="fill:#92569c;stroke:#000000;stroke-linejoin:miter;"/>
   </g>
   <g id="patch_21">
    <path clip-path="url(#pa2f366df7a)" d="M 398.709773 254.309033 
L 443.904171 254.309033 
L 443.904171 250.456534 
L 398.709773 250.456534 
z
" style="fill:#92569c;stroke:#000000;stroke-linejoin:miter;"/>
   </g>
   <g id="patch_22">
    <path clip-path="url(#pa2f366df7a)" d="M 487.093908 309.632506 
L 532.292848 309.632506 
L 532.292848 307.236528 
L 487.093908 307.236528 
z
" style="fill:#92569c;stroke:#000000;stroke-linejoin:miter;"/>
   </g>
   <g id="patch_23">
    <path clip-path="url(#pa2f366df7a)" d="M 222.576072 82.68915 
L 267.794858 82.68915 
L 267.794858 76.694267 
L 222.576072 76.694267 
z
" style="fill:#da6d3b;stroke:#000000;stroke-linejoin:miter;"/>
   </g>
   <g id="patch_24">
    <path clip-path="url(#pa2f366df7a)" d="M 308.52707 114.750157 
L 353.690043 114.750157 
L 353.690043 108.4116 
L 308.52707 108.4116 
z
" style="fill:#da6d3b;stroke:#000000;stroke-linejoin:miter;"/>
   </g>
   <g id="patch_25">
    <path clip-path="url(#pa2f366df7a)" d="M 398.709773 250.456534 
L 443.904171 250.456534 
L 443.904171 246.965991 
L 398.709773 246.965991 
z
" style="fill:#da6d3b;stroke:#000000;stroke-linejoin:miter;"/>
   </g>
   <g id="patch_26">
    <path clip-path="url(#pa2f366df7a)" d="M 487.093908 307.236528 
L 532.292848 307.236528 
L 532.292848 305.43331 
L 487.093908 305.43331 
z
" style="fill:#da6d3b;stroke:#000000;stroke-linejoin:miter;"/>
   </g>
   <g id="patch_27">
    <path clip-path="url(#pa2f366df7a)" d="M 222.576072 76.694267 
L 267.794858 76.694267 
L 267.794858 71.662561 
L 222.576072 71.662561 
z
" style="fill:#ffad12;stroke:#000000;stroke-linejoin:miter;"/>
   </g>
   <g id="patch_28">
    <path clip-path="url(#pa2f366df7a)" d="M 308.52707 108.4116 
L 353.690043 108.4116 
L 353.690043 103.490645 
L 308.52707 103.490645 
z
" style="fill:#ffad12;stroke:#000000;stroke-linejoin:miter;"/>
   </g>
   <g id="patch_29">
    <path clip-path="url(#pa2f366df7a)" d="M 398.709773 246.965991 
L 443.904171 246.965991 
L 443.904171 244.534381 
L 398.709773 244.534381 
z
" style="fill:#ffad12;stroke:#000000;stroke-linejoin:miter;"/>
   </g>
   <g id="patch_30">
    <path clip-path="url(#pa2f366df7a)" d="M 487.093908 305.43331 
L 532.292848 305.43331 
L 532.292848 304.642241 
L 487.093908 304.642241 
z
" style="fill:#ffad12;stroke:#000000;stroke-linejoin:miter;"/>
   </g>
   <g id="patch_31">
    <path clip-path="url(#pa2f366df7a)" d="M 222.576072 71.662561 
L 267.794858 71.662561 
L 267.794858 69.422954 
L 222.576072 69.422954 
z
" style="fill:#f8f132;stroke:#000000;stroke-linejoin:miter;"/>
   </g>
   <g id="patch_32">
    <path clip-path="url(#pa2f366df7a)" d="M 308.52707 103.490645 
L 353.690043 103.490645 
L 353.690043 101.631003 
L 308.52707 101.631003 
z
" style="fill:#f8f132;stroke:#000000;stroke-linejoin:miter;"/>
   </g>
   <g id="patch_33">
    <path clip-path="url(#pa2f366df7a)" d="M 398.709773 244.534381 
L 443.904171 244.534381 
L 443.904171 243.61459 
L 398.709773 243.61459 
z
" style="fill:#f8f132;stroke:#000000;stroke-linejoin:miter;"/>
   </g>
   <g id="patch_34">
    <path clip-path="url(#pa2f366df7a)" d="M 487.093908 304.642241 
L 532.292848 304.642241 
L 532.292848 304.214621 
L 487.093908 304.214621 
z
" style="fill:#f8f132;stroke:#000000;stroke-linejoin:miter;"/>
   </g>
   <g id="patch_35">
    <path clip-path="url(#pa2f366df7a)" d="M 222.576072 69.422954 
L 267.794858 69.422954 
L 267.794858 62.331949 
L 222.576072 62.331949 
z
" style="fill:#b5722a;stroke:#000000;stroke-linejoin:miter;"/>
   </g>
   <g id="patch_36">
    <path clip-path="url(#pa2f366df7a)" d="M 308.52707 101.631003 
L 353.690043 101.631003 
L 353.690043 100.266781 
L 308.52707 100.266781 
z
" style="fill:#b5722a;stroke:#000000;stroke-linejoin:miter;"/>
   </g>
   <g id="patch_37">
    <path clip-path="url(#pa2f366df7a)" d="M 398.709773 243.61459 
L 443.904171 243.61459 
L 443.904171 242.497801 
L 398.709773 242.497801 
z
" style="fill:#b5722a;stroke:#000000;stroke-linejoin:miter;"/>
   </g>
   <g id="patch_38">
    <path clip-path="url(#pa2f366df7a)" d="M 487.093908 304.214621 
L 532.292848 304.214621 
L 532.292848 303.29117 
L 487.093908 303.29117 
z
" style="fill:#b5722a;stroke:#000000;stroke-linejoin:miter;"/>
   </g>
   <g id="patch_39">
    <path clip-path="url(#pa2f366df7a)" d="M 222.576072 62.331949 
L 267.794858 62.331949 
L 267.794858 61.859816 
L 222.576072 61.859816 
z
" style="fill:#d36e7c;stroke:#000000;stroke-linejoin:miter;"/>
   </g>
   <g id="patch_40">
    <path clip-path="url(#pa2f366df7a)" d="M 308.52707 100.266781 
L 353.690043 100.266781 
L 353.690043 31.513476 
L 308.52707 31.513476 
z
" style="fill:#d36e7c;stroke:#000000;stroke-linejoin:miter;"/>
   </g>
   <g id="patch_41">
    <path clip-path="url(#pa2f366df7a)" d="M 398.709773 242.497801 
L 443.904171 242.497801 
L 443.904171 28.620839 
L 398.709773 28.620839 
z
" style="fill:#d36e7c;stroke:#000000;stroke-linejoin:miter;"/>
   </g>
   <g id="patch_42">
    <path clip-path="url(#pa2f366df7a)" d="M 487.093908 303.29117 
L 532.292848 303.29117 
L 532.292848 28.102194 
L 487.093908 28.102194 
z
" style="fill:#d36e7c;stroke:#000000;stroke-linejoin:miter;"/>
   </g>
   <g id="patch_43">
    <path clip-path="url(#pa2f366df7a)" d="M 222.576072 61.859816 
L 267.794858 61.859816 
L 267.794858 28.57178 
L 222.576072 28.57178 
z
" style="fill:#dd88b4;stroke:#000000;stroke-linejoin:miter;"/>
   </g>
   <g id="patch_44">
    <path clip-path="url(#pa2f366df7a)" d="M 308.52707 31.513476 
L 353.690043 31.513476 
L 353.690043 30.124124 
L 308.52707 30.124124 
z
" style="fill:#dd88b4;stroke:#000000;stroke-linejoin:miter;"/>
   </g>
   <g id="patch_45">
    <path clip-path="url(#pa2f366df7a)" d="M 398.709773 28.620839 
L 443.904171 28.620839 
L 443.904171 27.949897 
L 398.709773 27.949897 
z
" style="fill:#dd88b4;stroke:#000000;stroke-linejoin:miter;"/>
   </g>
   <g id="patch_46">
    <path clip-path="url(#pa2f366df7a)" d="M 487.093908 28.102194 
L 532.292848 28.102194 
L 532.292848 27.353851 
L 487.093908 27.353851 
z
" style="fill:#dd88b4;stroke:#000000;stroke-linejoin:miter;"/>
   </g>
   <g id="patch_47">
    <path d="M 208.08 23.14175 
L 542.88 23.14175 
" style="fill:none;stroke:#000000;stroke-linecap:square;stroke-linejoin:miter;"/>
   </g>
   <g id="patch_48">
    <path d="M 542.88 368.74175 
L 542.88 23.14175 
" style="fill:none;stroke:#000000;stroke-linecap:square;stroke-linejoin:miter;"/>
   </g>
   <g id="patch_49">
    <path d="M 208.08 368.74175 
L 542.88 368.74175 
" style="fill:none;stroke:#000000;stroke-linecap:square;stroke-linejoin:miter;"/>
   </g>
   <g id="patch_50">
    <path d="M 208.08 368.74175 
L 208.08 23.14175 
" style="fill:none;stroke:#000000;stroke-linecap:square;stroke-linejoin:miter;"/>
   </g>
   <g id="matplotlib.axis_1">
    <g id="xtick_1">
     <g id="line2d_1">
      <defs>
       <path d="M 0 0 
L 0 -4 
" id="m13a05f6544" style="stroke:#000000;stroke-width:0.5;"/>
      </defs>
      <g>
       <use style="stroke:#000000;stroke-width:0.5;" x="247.03486309" xlink:href="#m13a05f6544" y="368.74175"/>
      </g>
     </g>
     <g id="line2d_2">
      <defs>
       <path d="M 0 0 
L 0 4 
" id="m65cb182e36" style="stroke:#000000;stroke-width:0.5;"/>
      </defs>
      <g>
       <use style="stroke:#000000;stroke-width:0.5;" x="247.03486309" xlink:href="#m65cb182e36" y="23.14175"/>
      </g>
     </g>
     <g id="text_1">
      <!-- 514 -->
      <defs>
       <path d="M 12.40625 8.296875 
L 28.515625 8.296875 
L 28.515625 63.921875 
L 10.984375 60.40625 
L 10.984375 69.390625 
L 28.421875 72.90625 
L 38.28125 72.90625 
L 38.28125 8.296875 
L 54.390625 8.296875 
L 54.390625 0 
L 12.40625 0 
z
" id="BitstreamVeraSans-Roman-31"/>
       <path d="M 37.796875 64.3125 
L 12.890625 25.390625 
L 37.796875 25.390625 
z
M 35.203125 72.90625 
L 47.609375 72.90625 
L 47.609375 25.390625 
L 58.015625 25.390625 
L 58.015625 17.1875 
L 47.609375 17.1875 
L 47.609375 0 
L 37.796875 0 
L 37.796875 17.1875 
L 4.890625 17.1875 
L 4.890625 26.703125 
z
" id="BitstreamVeraSans-Roman-34"/>
       <path d="M 10.796875 72.90625 
L 49.515625 72.90625 
L 49.515625 64.59375 
L 19.828125 64.59375 
L 19.828125 46.734375 
Q 21.96875 47.46875 24.109375 47.828125 
Q 26.265625 48.1875 28.421875 48.1875 
Q 40.625 48.1875 47.75 41.5 
Q 54.890625 34.8125 54.890625 23.390625 
Q 54.890625 11.625 47.5625 5.09375 
Q 40.234375 -1.421875 26.90625 -1.421875 
Q 22.3125 -1.421875 17.546875 -0.640625 
Q 12.796875 0.140625 7.71875 1.703125 
L 7.71875 11.625 
Q 12.109375 9.234375 16.796875 8.0625 
Q 21.484375 6.890625 26.703125 6.890625 
Q 35.15625 6.890625 40.078125 11.328125 
Q 45.015625 15.765625 45.015625 23.390625 
Q 45.015625 31 40.078125 35.4375 
Q 35.15625 39.890625 26.703125 39.890625 
Q 22.75 39.890625 18.8125 39.015625 
Q 14.890625 38.140625 10.796875 36.28125 
z
" id="BitstreamVeraSans-Roman-35"/>
      </defs>
      <g style="fill:#ffffff;" transform="translate(235.58236309 381.859875)scale(0.12 -0.12)">
       <use xlink:href="#BitstreamVeraSans-Roman-35"/>
       <use x="63.623046875" xlink:href="#BitstreamVeraSans-Roman-31"/>
       <use x="127.24609375" xlink:href="#BitstreamVeraSans-Roman-34"/>
      </g>
     </g>
    </g>
    <g id="xtick_2">
     <g id="line2d_3">
      <g>
       <use style="stroke:#000000;stroke-width:0.5;" x="332.953412155" xlink:href="#m13a05f6544" y="368.74175"/>
      </g>
     </g>
     <g id="line2d_4">
      <g>
       <use style="stroke:#000000;stroke-width:0.5;" x="332.953412155" xlink:href="#m65cb182e36" y="23.14175"/>
      </g>
     </g>
     <g id="text_2">
      <!-- 960 -->
      <defs>
       <path d="M 31.78125 66.40625 
Q 24.171875 66.40625 20.328125 58.90625 
Q 16.5 51.421875 16.5 36.375 
Q 16.5 21.390625 20.328125 13.890625 
Q 24.171875 6.390625 31.78125 6.390625 
Q 39.453125 6.390625 43.28125 13.890625 
Q 47.125 21.390625 47.125 36.375 
Q 47.125 51.421875 43.28125 58.90625 
Q 39.453125 66.40625 31.78125 66.40625 
M 31.78125 74.21875 
Q 44.046875 74.21875 50.515625 64.515625 
Q 56.984375 54.828125 56.984375 36.375 
Q 56.984375 17.96875 50.515625 8.265625 
Q 44.046875 -1.421875 31.78125 -1.421875 
Q 19.53125 -1.421875 13.0625 8.265625 
Q 6.59375 17.96875 6.59375 36.375 
Q 6.59375 54.828125 13.0625 64.515625 
Q 19.53125 74.21875 31.78125 74.21875 
" id="BitstreamVeraSans-Roman-30"/>
       <path d="M 10.984375 1.515625 
L 10.984375 10.5 
Q 14.703125 8.734375 18.5 7.8125 
Q 22.3125 6.890625 25.984375 6.890625 
Q 35.75 6.890625 40.890625 13.453125 
Q 46.046875 20.015625 46.78125 33.40625 
Q 43.953125 29.203125 39.59375 26.953125 
Q 35.25 24.703125 29.984375 24.703125 
Q 19.046875 24.703125 12.671875 31.3125 
Q 6.296875 37.9375 6.296875 49.421875 
Q 6.296875 60.640625 12.9375 67.421875 
Q 19.578125 74.21875 30.609375 74.21875 
Q 43.265625 74.21875 49.921875 64.515625 
Q 56.59375 54.828125 56.59375 36.375 
Q 56.59375 19.140625 48.40625 8.859375 
Q 40.234375 -1.421875 26.421875 -1.421875 
Q 22.703125 -1.421875 18.890625 -0.6875 
Q 15.09375 0.046875 10.984375 1.515625 
M 30.609375 32.421875 
Q 37.25 32.421875 41.125 36.953125 
Q 45.015625 41.5 45.015625 49.421875 
Q 45.015625 57.28125 41.125 61.84375 
Q 37.25 66.40625 30.609375 66.40625 
Q 23.96875 66.40625 20.09375 61.84375 
Q 16.21875 57.28125 16.21875 49.421875 
Q 16.21875 41.5 20.09375 36.953125 
Q 23.96875 32.421875 30.609375 32.421875 
" id="BitstreamVeraSans-Roman-39"/>
       <path d="M 33.015625 40.375 
Q 26.375 40.375 22.484375 35.828125 
Q 18.609375 31.296875 18.609375 23.390625 
Q 18.609375 15.53125 22.484375 10.953125 
Q 26.375 6.390625 33.015625 6.390625 
Q 39.65625 6.390625 43.53125 10.953125 
Q 47.40625 15.53125 47.40625 23.390625 
Q 47.40625 31.296875 43.53125 35.828125 
Q 39.65625 40.375 33.015625 40.375 
M 52.59375 71.296875 
L 52.59375 62.3125 
Q 48.875 64.0625 45.09375 64.984375 
Q 41.3125 65.921875 37.59375 65.921875 
Q 27.828125 65.921875 22.671875 59.328125 
Q 17.53125 52.734375 16.796875 39.40625 
Q 19.671875 43.65625 24.015625 45.921875 
Q 28.375 48.1875 33.59375 48.1875 
Q 44.578125 48.1875 50.953125 41.515625 
Q 57.328125 34.859375 57.328125 23.390625 
Q 57.328125 12.15625 50.6875 5.359375 
Q 44.046875 -1.421875 33.015625 -1.421875 
Q 20.359375 -1.421875 13.671875 8.265625 
Q 6.984375 17.96875 6.984375 36.375 
Q 6.984375 53.65625 15.1875 63.9375 
Q 23.390625 74.21875 37.203125 74.21875 
Q 40.921875 74.21875 44.703125 73.484375 
Q 48.484375 72.75 52.59375 71.296875 
" id="BitstreamVeraSans-Roman-36"/>
      </defs>
      <g style="fill:#ffffff;" transform="translate(321.500912155 381.859875)scale(0.12 -0.12)">
       <use xlink:href="#BitstreamVeraSans-Roman-39"/>
       <use x="63.623046875" xlink:href="#BitstreamVeraSans-Roman-36"/>
       <use x="127.24609375" xlink:href="#BitstreamVeraSans-Roman-30"/>
      </g>
     </g>
    </g>
    <g id="xtick_3">
     <g id="line2d_5">
      <g>
       <use style="stroke:#000000;stroke-width:0.5;" x="423.154384097" xlink:href="#m13a05f6544" y="368.74175"/>
      </g>
     </g>
     <g id="line2d_6">
      <g>
       <use style="stroke:#000000;stroke-width:0.5;" x="423.154384097" xlink:href="#m65cb182e36" y="23.14175"/>
      </g>
     </g>
     <g id="text_3">
      <!-- 1849 -->
      <defs>
       <path d="M 31.78125 34.625 
Q 24.75 34.625 20.71875 30.859375 
Q 16.703125 27.09375 16.703125 20.515625 
Q 16.703125 13.921875 20.71875 10.15625 
Q 24.75 6.390625 31.78125 6.390625 
Q 38.8125 6.390625 42.859375 10.171875 
Q 46.921875 13.96875 46.921875 20.515625 
Q 46.921875 27.09375 42.890625 30.859375 
Q 38.875 34.625 31.78125 34.625 
M 21.921875 38.8125 
Q 15.578125 40.375 12.03125 44.71875 
Q 8.5 49.078125 8.5 55.328125 
Q 8.5 64.0625 14.71875 69.140625 
Q 20.953125 74.21875 31.78125 74.21875 
Q 42.671875 74.21875 48.875 69.140625 
Q 55.078125 64.0625 55.078125 55.328125 
Q 55.078125 49.078125 51.53125 44.71875 
Q 48 40.375 41.703125 38.8125 
Q 48.828125 37.15625 52.796875 32.3125 
Q 56.78125 27.484375 56.78125 20.515625 
Q 56.78125 9.90625 50.3125 4.234375 
Q 43.84375 -1.421875 31.78125 -1.421875 
Q 19.734375 -1.421875 13.25 4.234375 
Q 6.78125 9.90625 6.78125 20.515625 
Q 6.78125 27.484375 10.78125 32.3125 
Q 14.796875 37.15625 21.921875 38.8125 
M 18.3125 54.390625 
Q 18.3125 48.734375 21.84375 45.5625 
Q 25.390625 42.390625 31.78125 42.390625 
Q 38.140625 42.390625 41.71875 45.5625 
Q 45.3125 48.734375 45.3125 54.390625 
Q 45.3125 60.0625 41.71875 63.234375 
Q 38.140625 66.40625 31.78125 66.40625 
Q 25.390625 66.40625 21.84375 63.234375 
Q 18.3125 60.0625 18.3125 54.390625 
" id="BitstreamVeraSans-Roman-38"/>
      </defs>
      <g style="fill:#ffffff;" transform="translate(407.884384097 381.859875)scale(0.12 -0.12)">
       <use xlink:href="#BitstreamVeraSans-Roman-31"/>
       <use x="63.623046875" xlink:href="#BitstreamVeraSans-Roman-38"/>
       <use x="127.24609375" xlink:href="#BitstreamVeraSans-Roman-34"/>
       <use x="190.869140625" xlink:href="#BitstreamVeraSans-Roman-39"/>
      </g>
     </g>
    </g>
    <g id="xtick_4">
     <g id="line2d_7">
      <g>
       <use style="stroke:#000000;stroke-width:0.5;" x="511.541159738" xlink:href="#m13a05f6544" y="368.74175"/>
      </g>
     </g>
     <g id="line2d_8">
      <g>
       <use style="stroke:#000000;stroke-width:0.5;" x="511.541159738" xlink:href="#m65cb182e36" y="23.14175"/>
      </g>
     </g>
     <g id="text_4">
      <!-- 3515 -->
      <defs>
       <path d="M 40.578125 39.3125 
Q 47.65625 37.796875 51.625 33 
Q 55.609375 28.21875 55.609375 21.1875 
Q 55.609375 10.40625 48.1875 4.484375 
Q 40.765625 -1.421875 27.09375 -1.421875 
Q 22.515625 -1.421875 17.65625 -0.515625 
Q 12.796875 0.390625 7.625 2.203125 
L 7.625 11.71875 
Q 11.71875 9.328125 16.59375 8.109375 
Q 21.484375 6.890625 26.8125 6.890625 
Q 36.078125 6.890625 40.9375 10.546875 
Q 45.796875 14.203125 45.796875 21.1875 
Q 45.796875 27.640625 41.28125 31.265625 
Q 36.765625 34.90625 28.71875 34.90625 
L 20.21875 34.90625 
L 20.21875 43.015625 
L 29.109375 43.015625 
Q 36.375 43.015625 40.234375 45.921875 
Q 44.09375 48.828125 44.09375 54.296875 
Q 44.09375 59.90625 40.109375 62.90625 
Q 36.140625 65.921875 28.71875 65.921875 
Q 24.65625 65.921875 20.015625 65.03125 
Q 15.375 64.15625 9.8125 62.3125 
L 9.8125 71.09375 
Q 15.4375 72.65625 20.34375 73.4375 
Q 25.25 74.21875 29.59375 74.21875 
Q 40.828125 74.21875 47.359375 69.109375 
Q 53.90625 64.015625 53.90625 55.328125 
Q 53.90625 49.265625 50.4375 45.09375 
Q 46.96875 40.921875 40.578125 39.3125 
" id="BitstreamVeraSans-Roman-33"/>
      </defs>
      <g style="fill:#ffffff;" transform="translate(496.271159738 381.859875)scale(0.12 -0.12)">
       <use xlink:href="#BitstreamVeraSans-Roman-33"/>
       <use x="63.623046875" xlink:href="#BitstreamVeraSans-Roman-35"/>
       <use x="127.24609375" xlink:href="#BitstreamVeraSans-Roman-31"/>
       <use x="190.869140625" xlink:href="#BitstreamVeraSans-Roman-35"/>
      </g>
     </g>
    </g>
    <g id="xtick_5">
     <g id="line2d_9">
      <defs>
       <path d="M 0 0 
L 0 -2 
" id="m317d2f7175" style="stroke:#000000;stroke-width:0.5;"/>
      </defs>
      <g>
       <use style="stroke:#000000;stroke-width:0.5;" x="218.776627382" xlink:href="#m317d2f7175" y="368.74175"/>
      </g>
     </g>
     <g id="line2d_10">
      <defs>
       <path d="M 0 0 
L 0 2 
" id="m0b5b9e2034" style="stroke:#000000;stroke-width:0.5;"/>
      </defs>
      <g>
       <use style="stroke:#000000;stroke-width:0.5;" x="218.776627382" xlink:href="#m0b5b9e2034" y="23.14175"/>
      </g>
     </g>
    </g>
    <g id="xtick_6">
     <g id="line2d_11">
      <g>
       <use style="stroke:#000000;stroke-width:0.5;" x="243.861417548" xlink:href="#m317d2f7175" y="368.74175"/>
      </g>
     </g>
     <g id="line2d_12">
      <g>
       <use style="stroke:#000000;stroke-width:0.5;" x="243.861417548" xlink:href="#m0b5b9e2034" y="23.14175"/>
      </g>
     </g>
    </g>
    <g id="xtick_7">
     <g id="line2d_13">
      <g>
       <use style="stroke:#000000;stroke-width:0.5;" x="265.070305436" xlink:href="#m317d2f7175" y="368.74175"/>
      </g>
     </g>
     <g id="line2d_14">
      <g>
       <use style="stroke:#000000;stroke-width:0.5;" x="265.070305436" xlink:href="#m0b5b9e2034" y="23.14175"/>
      </g>
     </g>
    </g>
    <g id="xtick_8">
     <g id="line2d_15">
      <g>
       <use style="stroke:#000000;stroke-width:0.5;" x="283.442279784" xlink:href="#m317d2f7175" y="368.74175"/>
      </g>
     </g>
     <g id="line2d_16">
      <g>
       <use style="stroke:#000000;stroke-width:0.5;" x="283.442279784" xlink:href="#m0b5b9e2034" y="23.14175"/>
      </g>
     </g>
    </g>
    <g id="xtick_9">
     <g id="line2d_17">
      <g>
       <use style="stroke:#000000;stroke-width:0.5;" x="299.647509635" xlink:href="#m317d2f7175" y="368.74175"/>
      </g>
     </g>
     <g id="line2d_18">
      <g>
       <use style="stroke:#000000;stroke-width:0.5;" x="299.647509635" xlink:href="#m0b5b9e2034" y="23.14175"/>
      </g>
     </g>
    </g>
    <g id="xtick_10">
     <g id="line2d_19">
      <g>
       <use style="stroke:#000000;stroke-width:0.5;" x="409.510536028" xlink:href="#m317d2f7175" y="368.74175"/>
      </g>
     </g>
     <g id="line2d_20">
      <g>
       <use style="stroke:#000000;stroke-width:0.5;" x="409.510536028" xlink:href="#m0b5b9e2034" y="23.14175"/>
      </g>
     </g>
    </g>
    <g id="xtick_11">
     <g id="line2d_21">
      <g>
       <use style="stroke:#000000;stroke-width:0.5;" x="465.296628115" xlink:href="#m317d2f7175" y="368.74175"/>
      </g>
     </g>
     <g id="line2d_22">
      <g>
       <use style="stroke:#000000;stroke-width:0.5;" x="465.296628115" xlink:href="#m0b5b9e2034" y="23.14175"/>
      </g>
     </g>
    </g>
    <g id="xtick_12">
     <g id="line2d_23">
      <g>
       <use style="stroke:#000000;stroke-width:0.5;" x="504.877490351" xlink:href="#m317d2f7175" y="368.74175"/>
      </g>
     </g>
     <g id="line2d_24">
      <g>
       <use style="stroke:#000000;stroke-width:0.5;" x="504.877490351" xlink:href="#m0b5b9e2034" y="23.14175"/>
      </g>
     </g>
    </g>
    <g id="xtick_13">
     <g id="line2d_25">
      <g>
       <use style="stroke:#000000;stroke-width:0.5;" x="535.578792272" xlink:href="#m317d2f7175" y="368.74175"/>
      </g>
     </g>
     <g id="line2d_26">
      <g>
       <use style="stroke:#000000;stroke-width:0.5;" x="535.578792272" xlink:href="#m0b5b9e2034" y="23.14175"/>
      </g>
     </g>
    </g>
    <g id="text_5">
     <!-- # of CPUs -->
     <defs>
      <path id="BitstreamVeraSans-Roman-20"/>
      <path d="M 51.125 44 
L 36.921875 44 
L 32.8125 27.6875 
L 47.125 27.6875 
z
M 43.796875 71.78125 
L 38.71875 51.515625 
L 52.984375 51.515625 
L 58.109375 71.78125 
L 65.921875 71.78125 
L 60.890625 51.515625 
L 76.125 51.515625 
L 76.125 44 
L 58.984375 44 
L 54.984375 27.6875 
L 70.515625 27.6875 
L 70.515625 20.21875 
L 53.078125 20.21875 
L 48 0 
L 40.1875 0 
L 45.21875 20.21875 
L 30.90625 20.21875 
L 25.875 0 
L 18.015625 0 
L 23.09375 20.21875 
L 7.71875 20.21875 
L 7.71875 27.6875 
L 24.90625 27.6875 
L 29 44 
L 13.28125 44 
L 13.28125 51.515625 
L 30.90625 51.515625 
L 35.890625 71.78125 
z
" id="BitstreamVeraSans-Roman-23"/>
      <path d="M 30.609375 48.390625 
Q 23.390625 48.390625 19.1875 42.75 
Q 14.984375 37.109375 14.984375 27.296875 
Q 14.984375 17.484375 19.15625 11.84375 
Q 23.34375 6.203125 30.609375 6.203125 
Q 37.796875 6.203125 41.984375 11.859375 
Q 46.1875 17.53125 46.1875 27.296875 
Q 46.1875 37.015625 41.984375 42.703125 
Q 37.796875 48.390625 30.609375 48.390625 
M 30.609375 56 
Q 42.328125 56 49.015625 48.375 
Q 55.71875 40.765625 55.71875 27.296875 
Q 55.71875 13.875 49.015625 6.21875 
Q 42.328125 -1.421875 30.609375 -1.421875 
Q 18.84375 -1.421875 12.171875 6.21875 
Q 5.515625 13.875 5.515625 27.296875 
Q 5.515625 40.765625 12.171875 48.375 
Q 18.84375 56 30.609375 56 
" id="BitstreamVeraSans-Roman-6f"/>
      <path d="M 19.671875 64.796875 
L 19.671875 37.40625 
L 32.078125 37.40625 
Q 38.96875 37.40625 42.71875 40.96875 
Q 46.484375 44.53125 46.484375 51.125 
Q 46.484375 57.671875 42.71875 61.234375 
Q 38.96875 64.796875 32.078125 64.796875 
z
M 9.8125 72.90625 
L 32.078125 72.90625 
Q 44.34375 72.90625 50.609375 67.359375 
Q 56.890625 61.8125 56.890625 51.125 
Q 56.890625 40.328125 50.609375 34.8125 
Q 44.34375 29.296875 32.078125 29.296875 
L 19.671875 29.296875 
L 19.671875 0 
L 9.8125 0 
z
" id="BitstreamVeraSans-Roman-50"/>
      <path d="M 64.40625 67.28125 
L 64.40625 56.890625 
Q 59.421875 61.53125 53.78125 63.8125 
Q 48.140625 66.109375 41.796875 66.109375 
Q 29.296875 66.109375 22.65625 58.46875 
Q 16.015625 50.828125 16.015625 36.375 
Q 16.015625 21.96875 22.65625 14.328125 
Q 29.296875 6.6875 41.796875 6.6875 
Q 48.140625 6.6875 53.78125 8.984375 
Q 59.421875 11.28125 64.40625 15.921875 
L 64.40625 5.609375 
Q 59.234375 2.09375 53.4375 0.328125 
Q 47.65625 -1.421875 41.21875 -1.421875 
Q 24.65625 -1.421875 15.125 8.703125 
Q 5.609375 18.84375 5.609375 36.375 
Q 5.609375 53.953125 15.125 64.078125 
Q 24.65625 74.21875 41.21875 74.21875 
Q 47.75 74.21875 53.53125 72.484375 
Q 59.328125 70.75 64.40625 67.28125 
" id="BitstreamVeraSans-Roman-43"/>
      <path d="M 8.6875 72.90625 
L 18.609375 72.90625 
L 18.609375 28.609375 
Q 18.609375 16.890625 22.84375 11.734375 
Q 27.09375 6.59375 36.625 6.59375 
Q 46.09375 6.59375 50.34375 11.734375 
Q 54.59375 16.890625 54.59375 28.609375 
L 54.59375 72.90625 
L 64.5 72.90625 
L 64.5 27.390625 
Q 64.5 13.140625 57.4375 5.859375 
Q 50.390625 -1.421875 36.625 -1.421875 
Q 22.796875 -1.421875 15.734375 5.859375 
Q 8.6875 13.140625 8.6875 27.390625 
z
" id="BitstreamVeraSans-Roman-55"/>
      <path d="M 37.109375 75.984375 
L 37.109375 68.5 
L 28.515625 68.5 
Q 23.6875 68.5 21.796875 66.546875 
Q 19.921875 64.59375 19.921875 59.515625 
L 19.921875 54.6875 
L 34.71875 54.6875 
L 34.71875 47.703125 
L 19.921875 47.703125 
L 19.921875 0 
L 10.890625 0 
L 10.890625 47.703125 
L 2.296875 47.703125 
L 2.296875 54.6875 
L 10.890625 54.6875 
L 10.890625 58.5 
Q 10.890625 67.625 15.140625 71.796875 
Q 19.390625 75.984375 28.609375 75.984375 
z
" id="BitstreamVeraSans-Roman-66"/>
      <path d="M 44.28125 53.078125 
L 44.28125 44.578125 
Q 40.484375 46.53125 36.375 47.5 
Q 32.28125 48.484375 27.875 48.484375 
Q 21.1875 48.484375 17.84375 46.4375 
Q 14.5 44.390625 14.5 40.28125 
Q 14.5 37.15625 16.890625 35.375 
Q 19.28125 33.59375 26.515625 31.984375 
L 29.59375 31.296875 
Q 39.15625 29.25 43.1875 25.515625 
Q 47.21875 21.78125 47.21875 15.09375 
Q 47.21875 7.46875 41.1875 3.015625 
Q 35.15625 -1.421875 24.609375 -1.421875 
Q 20.21875 -1.421875 15.453125 -0.5625 
Q 10.6875 0.296875 5.421875 2 
L 5.421875 11.28125 
Q 10.40625 8.6875 15.234375 7.390625 
Q 20.0625 6.109375 24.8125 6.109375 
Q 31.15625 6.109375 34.5625 8.28125 
Q 37.984375 10.453125 37.984375 14.40625 
Q 37.984375 18.0625 35.515625 20.015625 
Q 33.0625 21.96875 24.703125 23.78125 
L 21.578125 24.515625 
Q 13.234375 26.265625 9.515625 29.90625 
Q 5.8125 33.546875 5.8125 39.890625 
Q 5.8125 47.609375 11.28125 51.796875 
Q 16.75 56 26.8125 56 
Q 31.78125 56 36.171875 55.265625 
Q 40.578125 54.546875 44.28125 53.078125 
" id="BitstreamVeraSans-Roman-73"/>
     </defs>
     <g style="fill:#ffffff;" transform="translate(345.530625 398.473625)scale(0.12 -0.12)">
      <use xlink:href="#BitstreamVeraSans-Roman-23"/>
      <use x="83.7890625" xlink:href="#BitstreamVeraSans-Roman-20"/>
      <use x="115.576171875" xlink:href="#BitstreamVeraSans-Roman-6f"/>
      <use x="176.7578125" xlink:href="#BitstreamVeraSans-Roman-66"/>
      <use x="211.962890625" xlink:href="#BitstreamVeraSans-Roman-20"/>
      <use x="243.75" xlink:href="#BitstreamVeraSans-Roman-43"/>
      <use x="313.57421875" xlink:href="#BitstreamVeraSans-Roman-50"/>
      <use x="373.876953125" xlink:href="#BitstreamVeraSans-Roman-55"/>
      <use x="447.0703125" xlink:href="#BitstreamVeraSans-Roman-73"/>
     </g>
    </g>
   </g>
   <g id="matplotlib.axis_2">
    <g id="ytick_1">
     <g id="line2d_27">
      <defs>
       <path d="M 0 0 
L 4 0 
" id="m71651443b9" style="stroke:#000000;stroke-width:0.5;"/>
      </defs>
      <g>
       <use style="stroke:#000000;stroke-width:0.5;" x="208.08" xlink:href="#m71651443b9" y="368.74175"/>
      </g>
     </g>
     <g id="line2d_28">
      <defs>
       <path d="M 0 0 
L -4 0 
" id="m78f17e32ee" style="stroke:#000000;stroke-width:0.5;"/>
      </defs>
      <g>
       <use style="stroke:#000000;stroke-width:0.5;" x="542.88" xlink:href="#m78f17e32ee" y="368.74175"/>
      </g>
     </g>
     <g id="text_6">
      <!-- 0.0 -->
      <defs>
       <path d="M 10.6875 12.40625 
L 21 12.40625 
L 21 0 
L 10.6875 0 
z
" id="BitstreamVeraSans-Roman-2e"/>
      </defs>
      <g style="fill:#ffffff;" transform="translate(184.99625 372.053)scale(0.12 -0.12)">
       <use xlink:href="#BitstreamVeraSans-Roman-30"/>
       <use x="63.623046875" xlink:href="#BitstreamVeraSans-Roman-2e"/>
       <use x="95.41015625" xlink:href="#BitstreamVeraSans-Roman-30"/>
      </g>
     </g>
    </g>
    <g id="ytick_2">
     <g id="line2d_29">
      <g>
       <use style="stroke:#000000;stroke-width:0.5;" x="208.08" xlink:href="#m71651443b9" y="299.62175"/>
      </g>
     </g>
     <g id="line2d_30">
      <g>
       <use style="stroke:#000000;stroke-width:0.5;" x="542.88" xlink:href="#m78f17e32ee" y="299.62175"/>
      </g>
     </g>
     <g id="text_7">
      <!-- 0.2 -->
      <defs>
       <path d="M 19.1875 8.296875 
L 53.609375 8.296875 
L 53.609375 0 
L 7.328125 0 
L 7.328125 8.296875 
Q 12.9375 14.109375 22.625 23.890625 
Q 32.328125 33.6875 34.8125 36.53125 
Q 39.546875 41.84375 41.421875 45.53125 
Q 43.3125 49.21875 43.3125 52.78125 
Q 43.3125 58.59375 39.234375 62.25 
Q 35.15625 65.921875 28.609375 65.921875 
Q 23.96875 65.921875 18.8125 64.3125 
Q 13.671875 62.703125 7.8125 59.421875 
L 7.8125 69.390625 
Q 13.765625 71.78125 18.9375 73 
Q 24.125 74.21875 28.421875 74.21875 
Q 39.75 74.21875 46.484375 68.546875 
Q 53.21875 62.890625 53.21875 53.421875 
Q 53.21875 48.921875 51.53125 44.890625 
Q 49.859375 40.875 45.40625 35.40625 
Q 44.1875 33.984375 37.640625 27.21875 
Q 31.109375 20.453125 19.1875 8.296875 
" id="BitstreamVeraSans-Roman-32"/>
      </defs>
      <g style="fill:#ffffff;" transform="translate(184.99625 302.933)scale(0.12 -0.12)">
       <use xlink:href="#BitstreamVeraSans-Roman-30"/>
       <use x="63.623046875" xlink:href="#BitstreamVeraSans-Roman-2e"/>
       <use x="95.41015625" xlink:href="#BitstreamVeraSans-Roman-32"/>
      </g>
     </g>
    </g>
    <g id="ytick_3">
     <g id="line2d_31">
      <g>
       <use style="stroke:#000000;stroke-width:0.5;" x="208.08" xlink:href="#m71651443b9" y="230.50175"/>
      </g>
     </g>
     <g id="line2d_32">
      <g>
       <use style="stroke:#000000;stroke-width:0.5;" x="542.88" xlink:href="#m78f17e32ee" y="230.50175"/>
      </g>
     </g>
     <g id="text_8">
      <!-- 0.4 -->
      <g style="fill:#ffffff;" transform="translate(184.99625 233.813)scale(0.12 -0.12)">
       <use xlink:href="#BitstreamVeraSans-Roman-30"/>
       <use x="63.623046875" xlink:href="#BitstreamVeraSans-Roman-2e"/>
       <use x="95.41015625" xlink:href="#BitstreamVeraSans-Roman-34"/>
      </g>
     </g>
    </g>
    <g id="ytick_4">
     <g id="line2d_33">
      <g>
       <use style="stroke:#000000;stroke-width:0.5;" x="208.08" xlink:href="#m71651443b9" y="161.38175"/>
      </g>
     </g>
     <g id="line2d_34">
      <g>
       <use style="stroke:#000000;stroke-width:0.5;" x="542.88" xlink:href="#m78f17e32ee" y="161.38175"/>
      </g>
     </g>
     <g id="text_9">
      <!-- 0.6 -->
      <g style="fill:#ffffff;" transform="translate(184.99625 164.693)scale(0.12 -0.12)">
       <use xlink:href="#BitstreamVeraSans-Roman-30"/>
       <use x="63.623046875" xlink:href="#BitstreamVeraSans-Roman-2e"/>
       <use x="95.41015625" xlink:href="#BitstreamVeraSans-Roman-36"/>
      </g>
     </g>
    </g>
    <g id="ytick_5">
     <g id="line2d_35">
      <g>
       <use style="stroke:#000000;stroke-width:0.5;" x="208.08" xlink:href="#m71651443b9" y="92.26175"/>
      </g>
     </g>
     <g id="line2d_36">
      <g>
       <use style="stroke:#000000;stroke-width:0.5;" x="542.88" xlink:href="#m78f17e32ee" y="92.26175"/>
      </g>
     </g>
     <g id="text_10">
      <!-- 0.8 -->
      <g style="fill:#ffffff;" transform="translate(184.99625 95.573)scale(0.12 -0.12)">
       <use xlink:href="#BitstreamVeraSans-Roman-30"/>
       <use x="63.623046875" xlink:href="#BitstreamVeraSans-Roman-2e"/>
       <use x="95.41015625" xlink:href="#BitstreamVeraSans-Roman-38"/>
      </g>
     </g>
    </g>
    <g id="ytick_6">
     <g id="line2d_37">
      <g>
       <use style="stroke:#000000;stroke-width:0.5;" x="208.08" xlink:href="#m71651443b9" y="23.14175"/>
      </g>
     </g>
     <g id="line2d_38">
      <g>
       <use style="stroke:#000000;stroke-width:0.5;" x="542.88" xlink:href="#m78f17e32ee" y="23.14175"/>
      </g>
     </g>
     <g id="text_11">
      <!-- 1.0 -->
      <g style="fill:#ffffff;" transform="translate(184.99625 26.453)scale(0.12 -0.12)">
       <use xlink:href="#BitstreamVeraSans-Roman-31"/>
       <use x="63.623046875" xlink:href="#BitstreamVeraSans-Roman-2e"/>
       <use x="95.41015625" xlink:href="#BitstreamVeraSans-Roman-30"/>
      </g>
     </g>
    </g>
    <g id="text_12">
     <!-- Relative runtime -->
     <defs>
      <path d="M 54.890625 33.015625 
L 54.890625 0 
L 45.90625 0 
L 45.90625 32.71875 
Q 45.90625 40.484375 42.875 44.328125 
Q 39.84375 48.1875 33.796875 48.1875 
Q 26.515625 48.1875 22.3125 43.546875 
Q 18.109375 38.921875 18.109375 30.90625 
L 18.109375 0 
L 9.078125 0 
L 9.078125 54.6875 
L 18.109375 54.6875 
L 18.109375 46.1875 
Q 21.34375 51.125 25.703125 53.5625 
Q 30.078125 56 35.796875 56 
Q 45.21875 56 50.046875 50.171875 
Q 54.890625 44.34375 54.890625 33.015625 
" id="BitstreamVeraSans-Roman-6e"/>
      <path d="M 41.109375 46.296875 
Q 39.59375 47.171875 37.8125 47.578125 
Q 36.03125 48 33.890625 48 
Q 26.265625 48 22.1875 43.046875 
Q 18.109375 38.09375 18.109375 28.8125 
L 18.109375 0 
L 9.078125 0 
L 9.078125 54.6875 
L 18.109375 54.6875 
L 18.109375 46.1875 
Q 20.953125 51.171875 25.484375 53.578125 
Q 30.03125 56 36.53125 56 
Q 37.453125 56 38.578125 55.875 
Q 39.703125 55.765625 41.0625 55.515625 
z
" id="BitstreamVeraSans-Roman-72"/>
      <path d="M 9.421875 75.984375 
L 18.40625 75.984375 
L 18.40625 0 
L 9.421875 0 
z
" id="BitstreamVeraSans-Roman-6c"/>
      <path d="M 2.984375 54.6875 
L 12.5 54.6875 
L 29.59375 8.796875 
L 46.6875 54.6875 
L 56.203125 54.6875 
L 35.6875 0 
L 23.484375 0 
z
" id="BitstreamVeraSans-Roman-76"/>
      <path d="M 44.390625 34.1875 
Q 47.5625 33.109375 50.5625 29.59375 
Q 53.5625 26.078125 56.59375 19.921875 
L 66.609375 0 
L 56 0 
L 46.6875 18.703125 
Q 43.0625 26.03125 39.671875 28.421875 
Q 36.28125 30.8125 30.421875 30.8125 
L 19.671875 30.8125 
L 19.671875 0 
L 9.8125 0 
L 9.8125 72.90625 
L 32.078125 72.90625 
Q 44.578125 72.90625 50.734375 67.671875 
Q 56.890625 62.453125 56.890625 51.90625 
Q 56.890625 45.015625 53.6875 40.46875 
Q 50.484375 35.9375 44.390625 34.1875 
M 19.671875 64.796875 
L 19.671875 38.921875 
L 32.078125 38.921875 
Q 39.203125 38.921875 42.84375 42.21875 
Q 46.484375 45.515625 46.484375 51.90625 
Q 46.484375 58.296875 42.84375 61.546875 
Q 39.203125 64.796875 32.078125 64.796875 
z
" id="BitstreamVeraSans-Roman-52"/>
      <path d="M 9.421875 54.6875 
L 18.40625 54.6875 
L 18.40625 0 
L 9.421875 0 
z
M 9.421875 75.984375 
L 18.40625 75.984375 
L 18.40625 64.59375 
L 9.421875 64.59375 
z
" id="BitstreamVeraSans-Roman-69"/>
      <path d="M 52 44.1875 
Q 55.375 50.25 60.0625 53.125 
Q 64.75 56 71.09375 56 
Q 79.640625 56 84.28125 50.015625 
Q 88.921875 44.046875 88.921875 33.015625 
L 88.921875 0 
L 79.890625 0 
L 79.890625 32.71875 
Q 79.890625 40.578125 77.09375 44.375 
Q 74.3125 48.1875 68.609375 48.1875 
Q 61.625 48.1875 57.5625 43.546875 
Q 53.515625 38.921875 53.515625 30.90625 
L 53.515625 0 
L 44.484375 0 
L 44.484375 32.71875 
Q 44.484375 40.625 41.703125 44.40625 
Q 38.921875 48.1875 33.109375 48.1875 
Q 26.21875 48.1875 22.15625 43.53125 
Q 18.109375 38.875 18.109375 30.90625 
L 18.109375 0 
L 9.078125 0 
L 9.078125 54.6875 
L 18.109375 54.6875 
L 18.109375 46.1875 
Q 21.1875 51.21875 25.484375 53.609375 
Q 29.78125 56 35.6875 56 
Q 41.65625 56 45.828125 52.96875 
Q 50 49.953125 52 44.1875 
" id="BitstreamVeraSans-Roman-6d"/>
      <path d="M 56.203125 29.59375 
L 56.203125 25.203125 
L 14.890625 25.203125 
Q 15.484375 15.921875 20.484375 11.0625 
Q 25.484375 6.203125 34.421875 6.203125 
Q 39.59375 6.203125 44.453125 7.46875 
Q 49.3125 8.734375 54.109375 11.28125 
L 54.109375 2.78125 
Q 49.265625 0.734375 44.1875 -0.34375 
Q 39.109375 -1.421875 33.890625 -1.421875 
Q 20.796875 -1.421875 13.15625 6.1875 
Q 5.515625 13.8125 5.515625 26.8125 
Q 5.515625 40.234375 12.765625 48.109375 
Q 20.015625 56 32.328125 56 
Q 43.359375 56 49.78125 48.890625 
Q 56.203125 41.796875 56.203125 29.59375 
M 47.21875 32.234375 
Q 47.125 39.59375 43.09375 43.984375 
Q 39.0625 48.390625 32.421875 48.390625 
Q 24.90625 48.390625 20.390625 44.140625 
Q 15.875 39.890625 15.1875 32.171875 
z
" id="BitstreamVeraSans-Roman-65"/>
      <path d="M 18.3125 70.21875 
L 18.3125 54.6875 
L 36.8125 54.6875 
L 36.8125 47.703125 
L 18.3125 47.703125 
L 18.3125 18.015625 
Q 18.3125 11.328125 20.140625 9.421875 
Q 21.96875 7.515625 27.59375 7.515625 
L 36.8125 7.515625 
L 36.8125 0 
L 27.59375 0 
Q 17.1875 0 13.234375 3.875 
Q 9.28125 7.765625 9.28125 18.015625 
L 9.28125 47.703125 
L 2.6875 47.703125 
L 2.6875 54.6875 
L 9.28125 54.6875 
L 9.28125 70.21875 
z
" id="BitstreamVeraSans-Roman-74"/>
      <path d="M 8.5 21.578125 
L 8.5 54.6875 
L 17.484375 54.6875 
L 17.484375 21.921875 
Q 17.484375 14.15625 20.5 10.265625 
Q 23.53125 6.390625 29.59375 6.390625 
Q 36.859375 6.390625 41.078125 11.03125 
Q 45.3125 15.671875 45.3125 23.6875 
L 45.3125 54.6875 
L 54.296875 54.6875 
L 54.296875 0 
L 45.3125 0 
L 45.3125 8.40625 
Q 42.046875 3.421875 37.71875 1 
Q 33.40625 -1.421875 27.6875 -1.421875 
Q 18.265625 -1.421875 13.375 4.4375 
Q 8.5 10.296875 8.5 21.578125 
" id="BitstreamVeraSans-Roman-75"/>
      <path d="M 34.28125 27.484375 
Q 23.390625 27.484375 19.1875 25 
Q 14.984375 22.515625 14.984375 16.5 
Q 14.984375 11.71875 18.140625 8.90625 
Q 21.296875 6.109375 26.703125 6.109375 
Q 34.1875 6.109375 38.703125 11.40625 
Q 43.21875 16.703125 43.21875 25.484375 
L 43.21875 27.484375 
z
M 52.203125 31.203125 
L 52.203125 0 
L 43.21875 0 
L 43.21875 8.296875 
Q 40.140625 3.328125 35.546875 0.953125 
Q 30.953125 -1.421875 24.3125 -1.421875 
Q 15.921875 -1.421875 10.953125 3.296875 
Q 6 8.015625 6 15.921875 
Q 6 25.140625 12.171875 29.828125 
Q 18.359375 34.515625 30.609375 34.515625 
L 43.21875 34.515625 
L 43.21875 35.40625 
Q 43.21875 41.609375 39.140625 45 
Q 35.0625 48.390625 27.6875 48.390625 
Q 23 48.390625 18.546875 47.265625 
Q 14.109375 46.140625 10.015625 43.890625 
L 10.015625 52.203125 
Q 14.9375 54.109375 19.578125 55.046875 
Q 24.21875 56 28.609375 56 
Q 40.484375 56 46.34375 49.84375 
Q 52.203125 43.703125 52.203125 31.203125 
" id="BitstreamVeraSans-Roman-61"/>
     </defs>
     <g style="fill:#ffffff;" transform="translate(177.500625 245.938625)rotate(-90.0)scale(0.12 -0.12)">
      <use xlink:href="#BitstreamVeraSans-Roman-52"/>
      <use x="69.419921875" xlink:href="#BitstreamVeraSans-Roman-65"/>
      <use x="130.943359375" xlink:href="#BitstreamVeraSans-Roman-6c"/>
      <use x="158.7265625" xlink:href="#BitstreamVeraSans-Roman-61"/>
      <use x="220.005859375" xlink:href="#BitstreamVeraSans-Roman-74"/>
      <use x="259.21484375" xlink:href="#BitstreamVeraSans-Roman-69"/>
      <use x="286.998046875" xlink:href="#BitstreamVeraSans-Roman-76"/>
      <use x="346.177734375" xlink:href="#BitstreamVeraSans-Roman-65"/>
      <use x="407.701171875" xlink:href="#BitstreamVeraSans-Roman-20"/>
      <use x="439.48828125" xlink:href="#BitstreamVeraSans-Roman-72"/>
      <use x="480.6015625" xlink:href="#BitstreamVeraSans-Roman-75"/>
      <use x="543.98046875" xlink:href="#BitstreamVeraSans-Roman-6e"/>
      <use x="607.359375" xlink:href="#BitstreamVeraSans-Roman-74"/>
      <use x="646.568359375" xlink:href="#BitstreamVeraSans-Roman-69"/>
      <use x="674.3515625" xlink:href="#BitstreamVeraSans-Roman-6d"/>
      <use x="771.763671875" xlink:href="#BitstreamVeraSans-Roman-65"/>
     </g>
    </g>
   </g>
   <g id="text_13">
    <!-- Relative runtime of main loop subroutines -->
    <defs>
     <path d="M 18.109375 8.203125 
L 18.109375 -20.796875 
L 9.078125 -20.796875 
L 9.078125 54.6875 
L 18.109375 54.6875 
L 18.109375 46.390625 
Q 20.953125 51.265625 25.265625 53.625 
Q 29.59375 56 35.59375 56 
Q 45.5625 56 51.78125 48.09375 
Q 58.015625 40.1875 58.015625 27.296875 
Q 58.015625 14.40625 51.78125 6.484375 
Q 45.5625 -1.421875 35.59375 -1.421875 
Q 29.59375 -1.421875 25.265625 0.953125 
Q 20.953125 3.328125 18.109375 8.203125 
M 48.6875 27.296875 
Q 48.6875 37.203125 44.609375 42.84375 
Q 40.53125 48.484375 33.40625 48.484375 
Q 26.265625 48.484375 22.1875 42.84375 
Q 18.109375 37.203125 18.109375 27.296875 
Q 18.109375 17.390625 22.1875 11.75 
Q 26.265625 6.109375 33.40625 6.109375 
Q 40.53125 6.109375 44.609375 11.75 
Q 48.6875 17.390625 48.6875 27.296875 
" id="BitstreamVeraSans-Roman-70"/>
     <path d="M 48.6875 27.296875 
Q 48.6875 37.203125 44.609375 42.84375 
Q 40.53125 48.484375 33.40625 48.484375 
Q 26.265625 48.484375 22.1875 42.84375 
Q 18.109375 37.203125 18.109375 27.296875 
Q 18.109375 17.390625 22.1875 11.75 
Q 26.265625 6.109375 33.40625 6.109375 
Q 40.53125 6.109375 44.609375 11.75 
Q 48.6875 17.390625 48.6875 27.296875 
M 18.109375 46.390625 
Q 20.953125 51.265625 25.265625 53.625 
Q 29.59375 56 35.59375 56 
Q 45.5625 56 51.78125 48.09375 
Q 58.015625 40.1875 58.015625 27.296875 
Q 58.015625 14.40625 51.78125 6.484375 
Q 45.5625 -1.421875 35.59375 -1.421875 
Q 29.59375 -1.421875 25.265625 0.953125 
Q 20.953125 3.328125 18.109375 8.203125 
L 18.109375 0 
L 9.078125 0 
L 9.078125 75.984375 
L 18.109375 75.984375 
z
" id="BitstreamVeraSans-Roman-62"/>
    </defs>
    <g style="fill:#ffffff;" transform="translate(223.642125 18.14175)scale(0.144 -0.144)">
     <use xlink:href="#BitstreamVeraSans-Roman-52"/>
     <use x="69.419921875" xlink:href="#BitstreamVeraSans-Roman-65"/>
     <use x="130.943359375" xlink:href="#BitstreamVeraSans-Roman-6c"/>
     <use x="158.7265625" xlink:href="#BitstreamVeraSans-Roman-61"/>
     <use x="220.005859375" xlink:href="#BitstreamVeraSans-Roman-74"/>
     <use x="259.21484375" xlink:href="#BitstreamVeraSans-Roman-69"/>
     <use x="286.998046875" xlink:href="#BitstreamVeraSans-Roman-76"/>
     <use x="346.177734375" xlink:href="#BitstreamVeraSans-Roman-65"/>
     <use x="407.701171875" xlink:href="#BitstreamVeraSans-Roman-20"/>
     <use x="439.48828125" xlink:href="#BitstreamVeraSans-Roman-72"/>
     <use x="480.6015625" xlink:href="#BitstreamVeraSans-Roman-75"/>
     <use x="543.98046875" xlink:href="#BitstreamVeraSans-Roman-6e"/>
     <use x="607.359375" xlink:href="#BitstreamVeraSans-Roman-74"/>
     <use x="646.568359375" xlink:href="#BitstreamVeraSans-Roman-69"/>
     <use x="674.3515625" xlink:href="#BitstreamVeraSans-Roman-6d"/>
     <use x="771.763671875" xlink:href="#BitstreamVeraSans-Roman-65"/>
     <use x="833.287109375" xlink:href="#BitstreamVeraSans-Roman-20"/>
     <use x="865.07421875" xlink:href="#BitstreamVeraSans-Roman-6f"/>
     <use x="926.255859375" xlink:href="#BitstreamVeraSans-Roman-66"/>
     <use x="961.4609375" xlink:href="#BitstreamVeraSans-Roman-20"/>
     <use x="993.248046875" xlink:href="#BitstreamVeraSans-Roman-6d"/>
     <use x="1090.66015625" xlink:href="#BitstreamVeraSans-Roman-61"/>
     <use x="1151.93945312" xlink:href="#BitstreamVeraSans-Roman-69"/>
     <use x="1179.72265625" xlink:href="#BitstreamVeraSans-Roman-6e"/>
     <use x="1243.1015625" xlink:href="#BitstreamVeraSans-Roman-20"/>
     <use x="1274.88867188" xlink:href="#BitstreamVeraSans-Roman-6c"/>
     <use x="1302.671875" xlink:href="#BitstreamVeraSans-Roman-6f"/>
     <use x="1363.85351562" xlink:href="#BitstreamVeraSans-Roman-6f"/>
     <use x="1425.03515625" xlink:href="#BitstreamVeraSans-Roman-70"/>
     <use x="1488.51171875" xlink:href="#BitstreamVeraSans-Roman-20"/>
     <use x="1520.29882812" xlink:href="#BitstreamVeraSans-Roman-73"/>
     <use x="1572.3984375" xlink:href="#BitstreamVeraSans-Roman-75"/>
     <use x="1635.77734375" xlink:href="#BitstreamVeraSans-Roman-62"/>
     <use x="1699.25390625" xlink:href="#BitstreamVeraSans-Roman-72"/>
     <use x="1740.3359375" xlink:href="#BitstreamVeraSans-Roman-6f"/>
     <use x="1801.51757812" xlink:href="#BitstreamVeraSans-Roman-75"/>
     <use x="1864.89648438" xlink:href="#BitstreamVeraSans-Roman-74"/>
     <use x="1904.10546875" xlink:href="#BitstreamVeraSans-Roman-69"/>
     <use x="1931.88867188" xlink:href="#BitstreamVeraSans-Roman-6e"/>
     <use x="1995.26757812" xlink:href="#BitstreamVeraSans-Roman-65"/>
     <use x="2056.79101562" xlink:href="#BitstreamVeraSans-Roman-73"/>
    </g>
   </g>
   <g id="legend_1">
    <g id="patch_51">
     <path d="M 7.2 265.06175 
L 146.025 265.06175 
L 146.025 114.545187 
L 7.2 114.545187 
z
" style="fill:#ffffff;stroke:#000000;stroke-linejoin:miter;"/>
    </g>
    <g id="patch_52">
     <path d="M 10.8 124.983781 
L 28.8 124.983781 
L 28.8 118.683781 
L 10.8 118.683781 
z
" style="fill:#dd88b4;stroke:#000000;stroke-linejoin:miter;"/>
    </g>
    <g id="text_14">
     <!-- update_halos_from_ocn -->
     <defs>
      <path d="M 45.40625 46.390625 
L 45.40625 75.984375 
L 54.390625 75.984375 
L 54.390625 0 
L 45.40625 0 
L 45.40625 8.203125 
Q 42.578125 3.328125 38.25 0.953125 
Q 33.9375 -1.421875 27.875 -1.421875 
Q 17.96875 -1.421875 11.734375 6.484375 
Q 5.515625 14.40625 5.515625 27.296875 
Q 5.515625 40.1875 11.734375 48.09375 
Q 17.96875 56 27.875 56 
Q 33.9375 56 38.25 53.625 
Q 42.578125 51.265625 45.40625 46.390625 
M 14.796875 27.296875 
Q 14.796875 17.390625 18.875 11.75 
Q 22.953125 6.109375 30.078125 6.109375 
Q 37.203125 6.109375 41.296875 11.75 
Q 45.40625 17.390625 45.40625 27.296875 
Q 45.40625 37.203125 41.296875 42.84375 
Q 37.203125 48.484375 30.078125 48.484375 
Q 22.953125 48.484375 18.875 42.84375 
Q 14.796875 37.203125 14.796875 27.296875 
" id="BitstreamVeraSans-Roman-64"/>
      <path d="M 48.78125 52.59375 
L 48.78125 44.1875 
Q 44.96875 46.296875 41.140625 47.34375 
Q 37.3125 48.390625 33.40625 48.390625 
Q 24.65625 48.390625 19.8125 42.84375 
Q 14.984375 37.3125 14.984375 27.296875 
Q 14.984375 17.28125 19.8125 11.734375 
Q 24.65625 6.203125 33.40625 6.203125 
Q 37.3125 6.203125 41.140625 7.25 
Q 44.96875 8.296875 48.78125 10.40625 
L 48.78125 2.09375 
Q 45.015625 0.34375 40.984375 -0.53125 
Q 36.96875 -1.421875 32.421875 -1.421875 
Q 20.0625 -1.421875 12.78125 6.34375 
Q 5.515625 14.109375 5.515625 27.296875 
Q 5.515625 40.671875 12.859375 48.328125 
Q 20.21875 56 33.015625 56 
Q 37.15625 56 41.109375 55.140625 
Q 45.0625 54.296875 48.78125 52.59375 
" id="BitstreamVeraSans-Roman-63"/>
      <path d="M 54.890625 33.015625 
L 54.890625 0 
L 45.90625 0 
L 45.90625 32.71875 
Q 45.90625 40.484375 42.875 44.328125 
Q 39.84375 48.1875 33.796875 48.1875 
Q 26.515625 48.1875 22.3125 43.546875 
Q 18.109375 38.921875 18.109375 30.90625 
L 18.109375 0 
L 9.078125 0 
L 9.078125 75.984375 
L 18.109375 75.984375 
L 18.109375 46.1875 
Q 21.34375 51.125 25.703125 53.5625 
Q 30.078125 56 35.796875 56 
Q 45.21875 56 50.046875 50.171875 
Q 54.890625 44.34375 54.890625 33.015625 
" id="BitstreamVeraSans-Roman-68"/>
      <path d="M 50.984375 -16.609375 
L 50.984375 -23.578125 
L -0.984375 -23.578125 
L -0.984375 -16.609375 
z
" id="BitstreamVeraSans-Roman-5f"/>
     </defs>
     <g transform="translate(36.0 124.98378125)scale(0.09 -0.09)">
      <use xlink:href="#BitstreamVeraSans-Roman-75"/>
      <use x="63.37890625" xlink:href="#BitstreamVeraSans-Roman-70"/>
      <use x="126.85546875" xlink:href="#BitstreamVeraSans-Roman-64"/>
      <use x="190.33203125" xlink:href="#BitstreamVeraSans-Roman-61"/>
      <use x="251.611328125" xlink:href="#BitstreamVeraSans-Roman-74"/>
      <use x="290.8203125" xlink:href="#BitstreamVeraSans-Roman-65"/>
      <use x="352.34375" xlink:href="#BitstreamVeraSans-Roman-5f"/>
      <use x="402.34375" xlink:href="#BitstreamVeraSans-Roman-68"/>
      <use x="465.72265625" xlink:href="#BitstreamVeraSans-Roman-61"/>
      <use x="527.001953125" xlink:href="#BitstreamVeraSans-Roman-6c"/>
      <use x="554.78515625" xlink:href="#BitstreamVeraSans-Roman-6f"/>
      <use x="615.966796875" xlink:href="#BitstreamVeraSans-Roman-73"/>
      <use x="668.06640625" xlink:href="#BitstreamVeraSans-Roman-5f"/>
      <use x="718.06640625" xlink:href="#BitstreamVeraSans-Roman-66"/>
      <use x="753.271484375" xlink:href="#BitstreamVeraSans-Roman-72"/>
      <use x="794.353515625" xlink:href="#BitstreamVeraSans-Roman-6f"/>
      <use x="855.53515625" xlink:href="#BitstreamVeraSans-Roman-6d"/>
      <use x="952.947265625" xlink:href="#BitstreamVeraSans-Roman-5f"/>
      <use x="1002.94726562" xlink:href="#BitstreamVeraSans-Roman-6f"/>
      <use x="1064.12890625" xlink:href="#BitstreamVeraSans-Roman-63"/>
      <use x="1119.109375" xlink:href="#BitstreamVeraSans-Roman-6e"/>
     </g>
    </g>
    <g id="patch_53">
     <path d="M 10.8 138.444406 
L 28.8 138.444406 
L 28.8 132.144406 
L 10.8 132.144406 
z
" style="fill:#d36e7c;stroke:#000000;stroke-linejoin:miter;"/>
    </g>
    <g id="text_15">
     <!-- from_ocn -->
     <g transform="translate(36.0 138.44440625)scale(0.09 -0.09)">
      <use xlink:href="#BitstreamVeraSans-Roman-66"/>
      <use x="35.205078125" xlink:href="#BitstreamVeraSans-Roman-72"/>
      <use x="76.287109375" xlink:href="#BitstreamVeraSans-Roman-6f"/>
      <use x="137.46875" xlink:href="#BitstreamVeraSans-Roman-6d"/>
      <use x="234.880859375" xlink:href="#BitstreamVeraSans-Roman-5f"/>
      <use x="284.880859375" xlink:href="#BitstreamVeraSans-Roman-6f"/>
      <use x="346.0625" xlink:href="#BitstreamVeraSans-Roman-63"/>
      <use x="401.04296875" xlink:href="#BitstreamVeraSans-Roman-6e"/>
     </g>
    </g>
    <g id="patch_54">
     <path d="M 10.8 151.905031 
L 28.8 151.905031 
L 28.8 145.605031 
L 10.8 145.605031 
z
" style="fill:#b5722a;stroke:#000000;stroke-linejoin:miter;"/>
    </g>
    <g id="text_16">
     <!-- init_mass_diags -->
     <defs>
      <path d="M 45.40625 27.984375 
Q 45.40625 37.75 41.375 43.109375 
Q 37.359375 48.484375 30.078125 48.484375 
Q 22.859375 48.484375 18.828125 43.109375 
Q 14.796875 37.75 14.796875 27.984375 
Q 14.796875 18.265625 18.828125 12.890625 
Q 22.859375 7.515625 30.078125 7.515625 
Q 37.359375 7.515625 41.375 12.890625 
Q 45.40625 18.265625 45.40625 27.984375 
M 54.390625 6.78125 
Q 54.390625 -7.171875 48.1875 -13.984375 
Q 42 -20.796875 29.203125 -20.796875 
Q 24.46875 -20.796875 20.265625 -20.09375 
Q 16.0625 -19.390625 12.109375 -17.921875 
L 12.109375 -9.1875 
Q 16.0625 -11.328125 19.921875 -12.34375 
Q 23.78125 -13.375 27.78125 -13.375 
Q 36.625 -13.375 41.015625 -8.765625 
Q 45.40625 -4.15625 45.40625 5.171875 
L 45.40625 9.625 
Q 42.625 4.78125 38.28125 2.390625 
Q 33.9375 0 27.875 0 
Q 17.828125 0 11.671875 7.65625 
Q 5.515625 15.328125 5.515625 27.984375 
Q 5.515625 40.671875 11.671875 48.328125 
Q 17.828125 56 27.875 56 
Q 33.9375 56 38.28125 53.609375 
Q 42.625 51.21875 45.40625 46.390625 
L 45.40625 54.6875 
L 54.390625 54.6875 
z
" id="BitstreamVeraSans-Roman-67"/>
     </defs>
     <g transform="translate(36.0 151.90503125)scale(0.09 -0.09)">
      <use xlink:href="#BitstreamVeraSans-Roman-69"/>
      <use x="27.783203125" xlink:href="#BitstreamVeraSans-Roman-6e"/>
      <use x="91.162109375" xlink:href="#BitstreamVeraSans-Roman-69"/>
      <use x="118.9453125" xlink:href="#BitstreamVeraSans-Roman-74"/>
      <use x="158.154296875" xlink:href="#BitstreamVeraSans-Roman-5f"/>
      <use x="208.154296875" xlink:href="#BitstreamVeraSans-Roman-6d"/>
      <use x="305.56640625" xlink:href="#BitstreamVeraSans-Roman-61"/>
      <use x="366.845703125" xlink:href="#BitstreamVeraSans-Roman-73"/>
      <use x="418.9453125" xlink:href="#BitstreamVeraSans-Roman-73"/>
      <use x="471.044921875" xlink:href="#BitstreamVeraSans-Roman-5f"/>
      <use x="521.044921875" xlink:href="#BitstreamVeraSans-Roman-64"/>
      <use x="584.521484375" xlink:href="#BitstreamVeraSans-Roman-69"/>
      <use x="612.3046875" xlink:href="#BitstreamVeraSans-Roman-61"/>
      <use x="673.583984375" xlink:href="#BitstreamVeraSans-Roman-67"/>
      <use x="737.060546875" xlink:href="#BitstreamVeraSans-Roman-73"/>
     </g>
    </g>
    <g id="patch_55">
     <path d="M 10.8 165.365656 
L 28.8 165.365656 
L 28.8 159.065656 
L 10.8 159.065656 
z
" style="fill:#f8f132;stroke:#000000;stroke-linejoin:miter;"/>
    </g>
    <g id="text_17">
     <!-- step_radiation -->
     <g transform="translate(36.0 165.36565625)scale(0.09 -0.09)">
      <use xlink:href="#BitstreamVeraSans-Roman-73"/>
      <use x="52.099609375" xlink:href="#BitstreamVeraSans-Roman-74"/>
      <use x="91.30859375" xlink:href="#BitstreamVeraSans-Roman-65"/>
      <use x="152.83203125" xlink:href="#BitstreamVeraSans-Roman-70"/>
      <use x="216.30859375" xlink:href="#BitstreamVeraSans-Roman-5f"/>
      <use x="266.30859375" xlink:href="#BitstreamVeraSans-Roman-72"/>
      <use x="307.421875" xlink:href="#BitstreamVeraSans-Roman-61"/>
      <use x="368.701171875" xlink:href="#BitstreamVeraSans-Roman-64"/>
      <use x="432.177734375" xlink:href="#BitstreamVeraSans-Roman-69"/>
      <use x="459.9609375" xlink:href="#BitstreamVeraSans-Roman-61"/>
      <use x="521.240234375" xlink:href="#BitstreamVeraSans-Roman-74"/>
      <use x="560.44921875" xlink:href="#BitstreamVeraSans-Roman-69"/>
      <use x="588.232421875" xlink:href="#BitstreamVeraSans-Roman-6f"/>
      <use x="649.4140625" xlink:href="#BitstreamVeraSans-Roman-6e"/>
     </g>
    </g>
    <g id="patch_56">
     <path d="M 10.8 178.826281 
L 28.8 178.826281 
L 28.8 172.526281 
L 10.8 172.526281 
z
" style="fill:#ffad12;stroke:#000000;stroke-linejoin:miter;"/>
    </g>
    <g id="text_18">
     <!-- step_therm2 -->
     <g transform="translate(36.0 178.82628125)scale(0.09 -0.09)">
      <use xlink:href="#BitstreamVeraSans-Roman-73"/>
      <use x="52.099609375" xlink:href="#BitstreamVeraSans-Roman-74"/>
      <use x="91.30859375" xlink:href="#BitstreamVeraSans-Roman-65"/>
      <use x="152.83203125" xlink:href="#BitstreamVeraSans-Roman-70"/>
      <use x="216.30859375" xlink:href="#BitstreamVeraSans-Roman-5f"/>
      <use x="266.30859375" xlink:href="#BitstreamVeraSans-Roman-74"/>
      <use x="305.517578125" xlink:href="#BitstreamVeraSans-Roman-68"/>
      <use x="368.896484375" xlink:href="#BitstreamVeraSans-Roman-65"/>
      <use x="430.419921875" xlink:href="#BitstreamVeraSans-Roman-72"/>
      <use x="471.517578125" xlink:href="#BitstreamVeraSans-Roman-6d"/>
      <use x="568.9296875" xlink:href="#BitstreamVeraSans-Roman-32"/>
     </g>
    </g>
    <g id="patch_57">
     <path d="M 10.8 192.286906 
L 28.8 192.286906 
L 28.8 185.986906 
L 10.8 185.986906 
z
" style="fill:#da6d3b;stroke:#000000;stroke-linejoin:miter;"/>
    </g>
    <g id="text_19">
     <!-- get_i2o_fluxes -->
     <defs>
      <path d="M 54.890625 54.6875 
L 35.109375 28.078125 
L 55.90625 0 
L 45.3125 0 
L 29.390625 21.484375 
L 13.484375 0 
L 2.875 0 
L 24.125 28.609375 
L 4.6875 54.6875 
L 15.28125 54.6875 
L 29.78125 35.203125 
L 44.28125 54.6875 
z
" id="BitstreamVeraSans-Roman-78"/>
     </defs>
     <g transform="translate(36.0 192.28690625)scale(0.09 -0.09)">
      <use xlink:href="#BitstreamVeraSans-Roman-67"/>
      <use x="63.4765625" xlink:href="#BitstreamVeraSans-Roman-65"/>
      <use x="125.0" xlink:href="#BitstreamVeraSans-Roman-74"/>
      <use x="164.208984375" xlink:href="#BitstreamVeraSans-Roman-5f"/>
      <use x="214.208984375" xlink:href="#BitstreamVeraSans-Roman-69"/>
      <use x="241.9921875" xlink:href="#BitstreamVeraSans-Roman-32"/>
      <use x="305.615234375" xlink:href="#BitstreamVeraSans-Roman-6f"/>
      <use x="366.796875" xlink:href="#BitstreamVeraSans-Roman-5f"/>
      <use x="416.796875" xlink:href="#BitstreamVeraSans-Roman-66"/>
      <use x="452.001953125" xlink:href="#BitstreamVeraSans-Roman-6c"/>
      <use x="479.78515625" xlink:href="#BitstreamVeraSans-Roman-75"/>
      <use x="543.1640625" xlink:href="#BitstreamVeraSans-Roman-78"/>
      <use x="602.296875" xlink:href="#BitstreamVeraSans-Roman-65"/>
      <use x="663.8203125" xlink:href="#BitstreamVeraSans-Roman-73"/>
     </g>
    </g>
    <g id="patch_58">
     <path d="M 10.8 205.747531 
L 28.8 205.747531 
L 28.8 199.447531 
L 10.8 199.447531 
z
" style="fill:#92569c;stroke:#000000;stroke-linejoin:miter;"/>
    </g>
    <g id="text_20">
     <!-- ice_haloupdate2dr8 -->
     <g transform="translate(36.0 205.74753125)scale(0.09 -0.09)">
      <use xlink:href="#BitstreamVeraSans-Roman-69"/>
      <use x="27.783203125" xlink:href="#BitstreamVeraSans-Roman-63"/>
      <use x="82.763671875" xlink:href="#BitstreamVeraSans-Roman-65"/>
      <use x="144.287109375" xlink:href="#BitstreamVeraSans-Roman-5f"/>
      <use x="194.287109375" xlink:href="#BitstreamVeraSans-Roman-68"/>
      <use x="257.666015625" xlink:href="#BitstreamVeraSans-Roman-61"/>
      <use x="318.9453125" xlink:href="#BitstreamVeraSans-Roman-6c"/>
      <use x="346.728515625" xlink:href="#BitstreamVeraSans-Roman-6f"/>
      <use x="407.91015625" xlink:href="#BitstreamVeraSans-Roman-75"/>
      <use x="471.2890625" xlink:href="#BitstreamVeraSans-Roman-70"/>
      <use x="534.765625" xlink:href="#BitstreamVeraSans-Roman-64"/>
      <use x="598.2421875" xlink:href="#BitstreamVeraSans-Roman-61"/>
      <use x="659.521484375" xlink:href="#BitstreamVeraSans-Roman-74"/>
      <use x="698.73046875" xlink:href="#BitstreamVeraSans-Roman-65"/>
      <use x="760.25390625" xlink:href="#BitstreamVeraSans-Roman-32"/>
      <use x="823.876953125" xlink:href="#BitstreamVeraSans-Roman-64"/>
      <use x="887.353515625" xlink:href="#BitstreamVeraSans-Roman-72"/>
      <use x="928.466796875" xlink:href="#BitstreamVeraSans-Roman-38"/>
     </g>
    </g>
    <g id="patch_59">
     <path d="M 10.8 219.208156 
L 28.8 219.208156 
L 28.8 212.908156 
L 10.8 212.908156 
z
" style="fill:#599f59;stroke:#000000;stroke-linejoin:miter;"/>
    </g>
    <g id="text_21">
     <!-- dumpfile -->
     <g transform="translate(36.0 219.20815625)scale(0.09 -0.09)">
      <use xlink:href="#BitstreamVeraSans-Roman-64"/>
      <use x="63.4765625" xlink:href="#BitstreamVeraSans-Roman-75"/>
      <use x="126.85546875" xlink:href="#BitstreamVeraSans-Roman-6d"/>
      <use x="224.267578125" xlink:href="#BitstreamVeraSans-Roman-70"/>
      <use x="287.744140625" xlink:href="#BitstreamVeraSans-Roman-66"/>
      <use x="322.94921875" xlink:href="#BitstreamVeraSans-Roman-69"/>
      <use x="350.732421875" xlink:href="#BitstreamVeraSans-Roman-6c"/>
      <use x="378.515625" xlink:href="#BitstreamVeraSans-Roman-65"/>
     </g>
    </g>
    <g id="patch_60">
     <path d="M 10.8 232.418469 
L 28.8 232.418469 
L 28.8 226.118469 
L 10.8 226.118469 
z
" style="fill:#419487;stroke:#000000;stroke-linejoin:miter;"/>
    </g>
    <g id="text_22">
     <!-- step_therm1 -->
     <g transform="translate(36.0 232.41846875)scale(0.09 -0.09)">
      <use xlink:href="#BitstreamVeraSans-Roman-73"/>
      <use x="52.099609375" xlink:href="#BitstreamVeraSans-Roman-74"/>
      <use x="91.30859375" xlink:href="#BitstreamVeraSans-Roman-65"/>
      <use x="152.83203125" xlink:href="#BitstreamVeraSans-Roman-70"/>
      <use x="216.30859375" xlink:href="#BitstreamVeraSans-Roman-5f"/>
      <use x="266.30859375" xlink:href="#BitstreamVeraSans-Roman-74"/>
      <use x="305.517578125" xlink:href="#BitstreamVeraSans-Roman-68"/>
      <use x="368.896484375" xlink:href="#BitstreamVeraSans-Roman-65"/>
      <use x="430.419921875" xlink:href="#BitstreamVeraSans-Roman-72"/>
      <use x="471.517578125" xlink:href="#BitstreamVeraSans-Roman-6d"/>
      <use x="568.9296875" xlink:href="#BitstreamVeraSans-Roman-31"/>
     </g>
    </g>
    <g id="patch_61">
     <path d="M 10.8 245.879094 
L 28.8 245.879094 
L 28.8 239.579094 
L 10.8 239.579094 
z
" style="fill:#67628d;stroke:#000000;stroke-linejoin:miter;"/>
    </g>
    <g id="text_23">
     <!-- post_thermo -->
     <g transform="translate(36.0 245.87909375)scale(0.09 -0.09)">
      <use xlink:href="#BitstreamVeraSans-Roman-70"/>
      <use x="63.4765625" xlink:href="#BitstreamVeraSans-Roman-6f"/>
      <use x="124.658203125" xlink:href="#BitstreamVeraSans-Roman-73"/>
      <use x="176.7578125" xlink:href="#BitstreamVeraSans-Roman-74"/>
      <use x="215.966796875" xlink:href="#BitstreamVeraSans-Roman-5f"/>
      <use x="265.966796875" xlink:href="#BitstreamVeraSans-Roman-74"/>
      <use x="305.17578125" xlink:href="#BitstreamVeraSans-Roman-68"/>
      <use x="368.5546875" xlink:href="#BitstreamVeraSans-Roman-65"/>
      <use x="430.078125" xlink:href="#BitstreamVeraSans-Roman-72"/>
      <use x="471.17578125" xlink:href="#BitstreamVeraSans-Roman-6d"/>
      <use x="568.587890625" xlink:href="#BitstreamVeraSans-Roman-6f"/>
     </g>
    </g>
    <g id="patch_62">
     <path d="M 10.8 259.339719 
L 28.8 259.339719 
L 28.8 253.039719 
L 10.8 253.039719 
z
" style="fill:#e41a1c;stroke:#000000;stroke-linejoin:miter;"/>
    </g>
    <g id="text_24">
     <!-- step_dynamics -->
     <defs>
      <path d="M 32.171875 -5.078125 
Q 28.375 -14.84375 24.75 -17.8125 
Q 21.140625 -20.796875 15.09375 -20.796875 
L 7.90625 -20.796875 
L 7.90625 -13.28125 
L 13.1875 -13.28125 
Q 16.890625 -13.28125 18.9375 -11.515625 
Q 21 -9.765625 23.484375 -3.21875 
L 25.09375 0.875 
L 2.984375 54.6875 
L 12.5 54.6875 
L 29.59375 11.921875 
L 46.6875 54.6875 
L 56.203125 54.6875 
z
" id="BitstreamVeraSans-Roman-79"/>
     </defs>
     <g transform="translate(36.0 259.33971875)scale(0.09 -0.09)">
      <use xlink:href="#BitstreamVeraSans-Roman-73"/>
      <use x="52.099609375" xlink:href="#BitstreamVeraSans-Roman-74"/>
      <use x="91.30859375" xlink:href="#BitstreamVeraSans-Roman-65"/>
      <use x="152.83203125" xlink:href="#BitstreamVeraSans-Roman-70"/>
      <use x="216.30859375" xlink:href="#BitstreamVeraSans-Roman-5f"/>
      <use x="266.30859375" xlink:href="#BitstreamVeraSans-Roman-64"/>
      <use x="329.78515625" xlink:href="#BitstreamVeraSans-Roman-79"/>
      <use x="388.96484375" xlink:href="#BitstreamVeraSans-Roman-6e"/>
      <use x="452.34375" xlink:href="#BitstreamVeraSans-Roman-61"/>
      <use x="513.623046875" xlink:href="#BitstreamVeraSans-Roman-6d"/>
      <use x="611.03515625" xlink:href="#BitstreamVeraSans-Roman-69"/>
      <use x="638.818359375" xlink:href="#BitstreamVeraSans-Roman-63"/>
      <use x="693.798828125" xlink:href="#BitstreamVeraSans-Roman-73"/>
     </g>
    </g>
   </g>
  </g>
 </g>
 <defs>
  <clipPath id="pa2f366df7a">
   <rect height="345.6" width="334.8" x="208.08" y="23.14175"/>
  </clipPath>
 </defs>
</svg>
