<?xml version="1.0" encoding="utf-8" standalone="no"?>
<!DOCTYPE svg PUBLIC "-//W3C//DTD SVG 1.1//EN"
  "http://www.w3.org/Graphics/SVG/1.1/DTD/svg11.dtd">
<!-- Created with matplotlib (http://matplotlib.org/) -->
<svg height="408pt" version="1.1" viewBox="0 0 566 408" width="566pt" xmlns="http://www.w3.org/2000/svg" xmlns:xlink="http://www.w3.org/1999/xlink">
 <defs>
  <style type="text/css">
*{stroke-linecap:butt;stroke-linejoin:round;stroke-miterlimit:100000;}
  </style>
 </defs>
 <g id="figure_1">
  <g id="patch_1">
   <path d="M 0 408.16925 
L 566.82 408.16925 
L 566.82 0 
L 0 0 
L 0 408.16925 
z
" style="fill:none;"/>
  </g>
  <g id="axes_1">
   <g id="patch_2">
    <path d="M 224.82 368.74175 
L 559.62 368.74175 
L 559.62 23.14175 
L 224.82 23.14175 
z
" style="fill:#ffffff;"/>
   </g>
   <g id="patch_3">
    <path clip-path="url(#p4ef0b11088)" d="M 251.427018 368.74175 
L 296.30861 368.74175 
L 296.30861 324.343422 
L 251.427018 324.343422 
z
" style="fill:#e41a1c;stroke:#000000;stroke-linejoin:miter;"/>
   </g>
   <g id="patch_4">
    <path clip-path="url(#p4ef0b11088)" d="M 333.584489 368.74175 
L 378.451559 368.74175 
L 378.451559 301.263746 
L 333.584489 301.263746 
z
" style="fill:#e41a1c;stroke:#000000;stroke-linejoin:miter;"/>
   </g>
   <g id="patch_5">
    <path clip-path="url(#p4ef0b11088)" d="M 413.423489 368.74175 
L 458.2977 368.74175 
L 458.2977 322.81372 
L 413.423489 322.81372 
z
" style="fill:#e41a1c;stroke:#000000;stroke-linejoin:miter;"/>
   </g>
   <g id="patch_6">
    <path clip-path="url(#p4ef0b11088)" d="M 492.892966 368.74175 
L 537.770696 368.74175 
L 537.770696 337.527129 
L 492.892966 337.527129 
z
" style="fill:#e41a1c;stroke:#000000;stroke-linejoin:miter;"/>
   </g>
   <g id="patch_7">
    <path clip-path="url(#p4ef0b11088)" d="M 251.427018 324.343422 
L 296.30861 324.343422 
L 296.30861 294.081679 
L 251.427018 294.081679 
z
" style="fill:#9d435c;stroke:#000000;stroke-linejoin:miter;"/>
   </g>
   <g id="patch_8">
    <path clip-path="url(#p4ef0b11088)" d="M 333.584489 301.263746 
L 378.451559 301.263746 
L 378.451559 257.488026 
L 333.584489 257.488026 
z
" style="fill:#9d435c;stroke:#000000;stroke-linejoin:miter;"/>
   </g>
   <g id="patch_9">
    <path clip-path="url(#p4ef0b11088)" d="M 413.423489 322.81372 
L 458.2977 322.81372 
L 458.2977 291.541249 
L 413.423489 291.541249 
z
" style="fill:#9d435c;stroke:#000000;stroke-linejoin:miter;"/>
   </g>
   <g id="patch_10">
    <path clip-path="url(#p4ef0b11088)" d="M 492.892966 337.527129 
L 537.770696 337.527129 
L 537.770696 315.286169 
L 492.892966 315.286169 
z
" style="fill:#9d435c;stroke:#000000;stroke-linejoin:miter;"/>
   </g>
   <g id="patch_11">
    <path clip-path="url(#p4ef0b11088)" d="M 251.427018 294.081679 
L 296.30861 294.081679 
L 296.30861 265.85702 
L 251.427018 265.85702 
z
" style="fill:#576c9b;stroke:#000000;stroke-linejoin:miter;"/>
   </g>
   <g id="patch_12">
    <path clip-path="url(#p4ef0b11088)" d="M 333.584489 257.488026 
L 378.451559 257.488026 
L 378.451559 214.98686 
L 333.584489 214.98686 
z
" style="fill:#576c9b;stroke:#000000;stroke-linejoin:miter;"/>
   </g>
   <g id="patch_13">
    <path clip-path="url(#p4ef0b11088)" d="M 413.423489 291.541249 
L 458.2977 291.541249 
L 458.2977 263.748135 
L 413.423489 263.748135 
z
" style="fill:#576c9b;stroke:#000000;stroke-linejoin:miter;"/>
   </g>
   <g id="patch_14">
    <path clip-path="url(#p4ef0b11088)" d="M 492.892966 315.286169 
L 537.770696 315.286169 
L 537.770696 297.18269 
L 492.892966 297.18269 
z
" style="fill:#576c9b;stroke:#000000;stroke-linejoin:miter;"/>
   </g>
   <g id="patch_15">
    <path clip-path="url(#p4ef0b11088)" d="M 251.427018 265.85702 
L 296.30861 265.85702 
L 296.30861 239.08432 
L 251.427018 239.08432 
z
" style="fill:#3d8a9c;stroke:#000000;stroke-linejoin:miter;"/>
   </g>
   <g id="patch_16">
    <path clip-path="url(#p4ef0b11088)" d="M 333.584489 214.98686 
L 378.451559 214.98686 
L 378.451559 173.093494 
L 333.584489 173.093494 
z
" style="fill:#3d8a9c;stroke:#000000;stroke-linejoin:miter;"/>
   </g>
   <g id="patch_17">
    <path clip-path="url(#p4ef0b11088)" d="M 413.423489 263.748135 
L 458.2977 263.748135 
L 458.2977 231.487415 
L 413.423489 231.487415 
z
" style="fill:#3d8a9c;stroke:#000000;stroke-linejoin:miter;"/>
   </g>
   <g id="patch_18">
    <path clip-path="url(#p4ef0b11088)" d="M 492.892966 297.18269 
L 537.770696 297.18269 
L 537.770696 274.772146 
L 492.892966 274.772146 
z
" style="fill:#3d8a9c;stroke:#000000;stroke-linejoin:miter;"/>
   </g>
   <g id="patch_19">
    <path clip-path="url(#p4ef0b11088)" d="M 251.427018 239.08432 
L 296.30861 239.08432 
L 296.30861 199.827682 
L 251.427018 199.827682 
z
" style="fill:#469e6f;stroke:#000000;stroke-linejoin:miter;"/>
   </g>
   <g id="patch_20">
    <path clip-path="url(#p4ef0b11088)" d="M 333.584489 173.093494 
L 378.451559 173.093494 
L 378.451559 143.719779 
L 333.584489 143.719779 
z
" style="fill:#469e6f;stroke:#000000;stroke-linejoin:miter;"/>
   </g>
   <g id="patch_21">
    <path clip-path="url(#p4ef0b11088)" d="M 413.423489 231.487415 
L 458.2977 231.487415 
L 458.2977 202.564456 
L 413.423489 202.564456 
z
" style="fill:#469e6f;stroke:#000000;stroke-linejoin:miter;"/>
   </g>
   <g id="patch_22">
    <path clip-path="url(#p4ef0b11088)" d="M 492.892966 274.772146 
L 537.770696 274.772146 
L 537.770696 240.306838 
L 492.892966 240.306838 
z
" style="fill:#469e6f;stroke:#000000;stroke-linejoin:miter;"/>
   </g>
   <g id="patch_23">
    <path clip-path="url(#p4ef0b11088)" d="M 251.427018 199.827682 
L 296.30861 199.827682 
L 296.30861 182.710901 
L 251.427018 182.710901 
z
" style="fill:#55a553;stroke:#000000;stroke-linejoin:miter;"/>
   </g>
   <g id="patch_24">
    <path clip-path="url(#p4ef0b11088)" d="M 333.584489 143.719779 
L 378.451559 143.719779 
L 378.451559 123.077436 
L 333.584489 123.077436 
z
" style="fill:#55a553;stroke:#000000;stroke-linejoin:miter;"/>
   </g>
   <g id="patch_25">
    <path clip-path="url(#p4ef0b11088)" d="M 413.423489 202.564456 
L 458.2977 202.564456 
L 458.2977 187.254286 
L 413.423489 187.254286 
z
" style="fill:#55a553;stroke:#000000;stroke-linejoin:miter;"/>
   </g>
   <g id="patch_26">
    <path clip-path="url(#p4ef0b11088)" d="M 492.892966 240.306838 
L 537.770696 240.306838 
L 537.770696 227.455264 
L 492.892966 227.455264 
z
" style="fill:#55a553;stroke:#000000;stroke-linejoin:miter;"/>
   </g>
   <g id="patch_27">
    <path clip-path="url(#p4ef0b11088)" d="M 251.427018 182.710901 
L 296.30861 182.710901 
L 296.30861 160.008322 
L 251.427018 160.008322 
z
" style="fill:#737e77;stroke:#000000;stroke-linejoin:miter;"/>
   </g>
   <g id="patch_28">
    <path clip-path="url(#p4ef0b11088)" d="M 333.584489 123.077436 
L 378.451559 123.077436 
L 378.451559 110.047776 
L 333.584489 110.047776 
z
" style="fill:#737e77;stroke:#000000;stroke-linejoin:miter;"/>
   </g>
   <g id="patch_29">
    <path clip-path="url(#p4ef0b11088)" d="M 413.423489 187.254286 
L 458.2977 187.254286 
L 458.2977 174.556659 
L 413.423489 174.556659 
z
" style="fill:#737e77;stroke:#000000;stroke-linejoin:miter;"/>
   </g>
   <g id="patch_30">
    <path clip-path="url(#p4ef0b11088)" d="M 492.892966 227.455264 
L 537.770696 227.455264 
L 537.770696 214.408538 
L 492.892966 214.408538 
z
" style="fill:#737e77;stroke:#000000;stroke-linejoin:miter;"/>
   </g>
   <g id="patch_31">
    <path clip-path="url(#p4ef0b11088)" d="M 251.427018 160.008322 
L 296.30861 160.008322 
L 296.30861 154.001899 
L 251.427018 154.001899 
z
" style="fill:#94539e;stroke:#000000;stroke-linejoin:miter;"/>
   </g>
   <g id="patch_32">
    <path clip-path="url(#p4ef0b11088)" d="M 333.584489 110.047776 
L 378.451559 110.047776 
L 378.451559 100.007822 
L 333.584489 100.007822 
z
" style="fill:#94539e;stroke:#000000;stroke-linejoin:miter;"/>
   </g>
   <g id="patch_33">
    <path clip-path="url(#p4ef0b11088)" d="M 413.423489 174.556659 
L 458.2977 174.556659 
L 458.2977 168.244861 
L 413.423489 168.244861 
z
" style="fill:#94539e;stroke:#000000;stroke-linejoin:miter;"/>
   </g>
   <g id="patch_34">
    <path clip-path="url(#p4ef0b11088)" d="M 492.892966 214.408538 
L 537.770696 214.408538 
L 537.770696 210.989678 
L 492.892966 210.989678 
z
" style="fill:#94539e;stroke:#000000;stroke-linejoin:miter;"/>
   </g>
   <g id="patch_35">
    <path clip-path="url(#p4ef0b11088)" d="M 251.427018 154.001899 
L 296.30861 154.001899 
L 296.30861 141.789581 
L 251.427018 141.789581 
z
" style="fill:#bd5f69;stroke:#000000;stroke-linejoin:miter;"/>
   </g>
   <g id="patch_36">
    <path clip-path="url(#p4ef0b11088)" d="M 333.584489 100.007822 
L 378.451559 100.007822 
L 378.451559 92.215174 
L 333.584489 92.215174 
z
" style="fill:#bd5f69;stroke:#000000;stroke-linejoin:miter;"/>
   </g>
   <g id="patch_37">
    <path clip-path="url(#p4ef0b11088)" d="M 413.423489 168.244861 
L 458.2977 168.244861 
L 458.2977 83.329909 
L 413.423489 83.329909 
z
" style="fill:#bd5f69;stroke:#000000;stroke-linejoin:miter;"/>
   </g>
   <g id="patch_38">
    <path clip-path="url(#p4ef0b11088)" d="M 492.892966 210.989678 
L 537.770696 210.989678 
L 537.770696 81.721965 
L 492.892966 81.721965 
z
" style="fill:#bd5f69;stroke:#000000;stroke-linejoin:miter;"/>
   </g>
   <g id="patch_39">
    <path clip-path="url(#p4ef0b11088)" d="M 251.427018 141.789581 
L 296.30861 141.789581 
L 296.30861 80.710192 
L 251.427018 80.710192 
z
" style="fill:#ea7521;stroke:#000000;stroke-linejoin:miter;"/>
   </g>
   <g id="patch_40">
    <path clip-path="url(#p4ef0b11088)" d="M 333.584489 92.215174 
L 378.451559 92.215174 
L 378.451559 84.650865 
L 333.584489 84.650865 
z
" style="fill:#ea7521;stroke:#000000;stroke-linejoin:miter;"/>
   </g>
   <g id="patch_41">
    <path clip-path="url(#p4ef0b11088)" d="M 413.423489 83.329909 
L 458.2977 83.329909 
L 458.2977 69.254901 
L 413.423489 69.254901 
z
" style="fill:#ea7521;stroke:#000000;stroke-linejoin:miter;"/>
   </g>
   <g id="patch_42">
    <path clip-path="url(#p4ef0b11088)" d="M 492.892966 81.721965 
L 537.770696 81.721965 
L 537.770696 61.519511 
L 492.892966 61.519511 
z
" style="fill:#ea7521;stroke:#000000;stroke-linejoin:miter;"/>
   </g>
   <g id="patch_43">
    <path clip-path="url(#p4ef0b11088)" d="M 251.427018 80.710192 
L 296.30861 80.710192 
L 296.30861 76.354187 
L 251.427018 76.354187 
z
" style="fill:#ff990a;stroke:#000000;stroke-linejoin:miter;"/>
   </g>
   <g id="patch_44">
    <path clip-path="url(#p4ef0b11088)" d="M 333.584489 84.650865 
L 378.451559 84.650865 
L 378.451559 77.358615 
L 333.584489 77.358615 
z
" style="fill:#ff990a;stroke:#000000;stroke-linejoin:miter;"/>
   </g>
   <g id="patch_45">
    <path clip-path="url(#p4ef0b11088)" d="M 413.423489 69.254901 
L 458.2977 69.254901 
L 458.2977 64.414293 
L 413.423489 64.414293 
z
" style="fill:#ff990a;stroke:#000000;stroke-linejoin:miter;"/>
   </g>
   <g id="patch_46">
    <path clip-path="url(#p4ef0b11088)" d="M 492.892966 61.519511 
L 537.770696 61.519511 
L 537.770696 58.302545 
L 492.892966 58.302545 
z
" style="fill:#ff990a;stroke:#000000;stroke-linejoin:miter;"/>
   </g>
   <g id="patch_47">
    <path clip-path="url(#p4ef0b11088)" d="M 251.427018 76.354187 
L 296.30861 76.354187 
L 296.30861 71.292453 
L 251.427018 71.292453 
z
" style="fill:#ffd121;stroke:#000000;stroke-linejoin:miter;"/>
   </g>
   <g id="patch_48">
    <path clip-path="url(#p4ef0b11088)" d="M 333.584489 77.358615 
L 378.451559 77.358615 
L 378.451559 70.154972 
L 333.584489 70.154972 
z
" style="fill:#ffd121;stroke:#000000;stroke-linejoin:miter;"/>
   </g>
   <g id="patch_49">
    <path clip-path="url(#p4ef0b11088)" d="M 413.423489 64.414293 
L 458.2977 64.414293 
L 458.2977 60.098016 
L 413.423489 60.098016 
z
" style="fill:#ffd121;stroke:#000000;stroke-linejoin:miter;"/>
   </g>
   <g id="patch_50">
    <path clip-path="url(#p4ef0b11088)" d="M 492.892966 58.302545 
L 537.770696 58.302545 
L 537.770696 55.344583 
L 492.892966 55.344583 
z
" style="fill:#ffd121;stroke:#000000;stroke-linejoin:miter;"/>
   </g>
   <g id="patch_51">
    <path clip-path="url(#p4ef0b11088)" d="M 251.427018 71.292453 
L 296.30861 71.292453 
L 296.30861 66.204532 
L 251.427018 66.204532 
z
" style="fill:#faf632;stroke:#000000;stroke-linejoin:miter;"/>
   </g>
   <g id="patch_52">
    <path clip-path="url(#p4ef0b11088)" d="M 333.584489 70.154972 
L 378.451559 70.154972 
L 378.451559 63.005861 
L 333.584489 63.005861 
z
" style="fill:#faf632;stroke:#000000;stroke-linejoin:miter;"/>
   </g>
   <g id="patch_53">
    <path clip-path="url(#p4ef0b11088)" d="M 413.423489 60.098016 
L 458.2977 60.098016 
L 458.2977 55.875091 
L 413.423489 55.875091 
z
" style="fill:#faf632;stroke:#000000;stroke-linejoin:miter;"/>
   </g>
   <g id="patch_54">
    <path clip-path="url(#p4ef0b11088)" d="M 492.892966 55.344583 
L 537.770696 55.344583 
L 537.770696 52.764822 
L 492.892966 52.764822 
z
" style="fill:#faf632;stroke:#000000;stroke-linejoin:miter;"/>
   </g>
   <g id="patch_55">
    <path clip-path="url(#p4ef0b11088)" d="M 251.427018 66.204532 
L 296.30861 66.204532 
L 296.30861 44.175982 
L 251.427018 44.175982 
z
" style="fill:#d3ac2e;stroke:#000000;stroke-linejoin:miter;"/>
   </g>
   <g id="patch_56">
    <path clip-path="url(#p4ef0b11088)" d="M 333.584489 63.005861 
L 378.451559 63.005861 
L 378.451559 55.864303 
L 333.584489 55.864303 
z
" style="fill:#d3ac2e;stroke:#000000;stroke-linejoin:miter;"/>
   </g>
   <g id="patch_57">
    <path clip-path="url(#p4ef0b11088)" d="M 413.423489 55.875091 
L 458.2977 55.875091 
L 458.2977 46.999122 
L 413.423489 46.999122 
z
" style="fill:#d3ac2e;stroke:#000000;stroke-linejoin:miter;"/>
   </g>
   <g id="patch_58">
    <path clip-path="url(#p4ef0b11088)" d="M 492.892966 52.764822 
L 537.770696 52.764822 
L 537.770696 41.55118 
L 492.892966 41.55118 
z
" style="fill:#d3ac2e;stroke:#000000;stroke-linejoin:miter;"/>
   </g>
   <g id="patch_59">
    <path clip-path="url(#p4ef0b11088)" d="M 251.427018 44.175982 
L 296.30861 44.175982 
L 296.30861 39.534047 
L 251.427018 39.534047 
z
" style="fill:#af6729;stroke:#000000;stroke-linejoin:miter;"/>
   </g>
   <g id="patch_60">
    <path clip-path="url(#p4ef0b11088)" d="M 333.584489 55.864303 
L 378.451559 55.864303 
L 378.451559 49.387537 
L 333.584489 49.387537 
z
" style="fill:#af6729;stroke:#000000;stroke-linejoin:miter;"/>
   </g>
   <g id="patch_61">
    <path clip-path="url(#p4ef0b11088)" d="M 413.423489 46.999122 
L 458.2977 46.999122 
L 458.2977 41.579174 
L 413.423489 41.579174 
z
" style="fill:#af6729;stroke:#000000;stroke-linejoin:miter;"/>
   </g>
   <g id="patch_62">
    <path clip-path="url(#p4ef0b11088)" d="M 492.892966 41.55118 
L 537.770696 41.55118 
L 537.770696 37.225889 
L 492.892966 37.225889 
z
" style="fill:#af6729;stroke:#000000;stroke-linejoin:miter;"/>
   </g>
   <g id="patch_63">
    <path clip-path="url(#p4ef0b11088)" d="M 251.427018 39.534047 
L 296.30861 39.534047 
L 296.30861 35.838682 
L 251.427018 35.838682 
z
" style="fill:#c1655b;stroke:#000000;stroke-linejoin:miter;"/>
   </g>
   <g id="patch_64">
    <path clip-path="url(#p4ef0b11088)" d="M 333.584489 49.387537 
L 378.451559 49.387537 
L 378.451559 43.696297 
L 333.584489 43.696297 
z
" style="fill:#c1655b;stroke:#000000;stroke-linejoin:miter;"/>
   </g>
   <g id="patch_65">
    <path clip-path="url(#p4ef0b11088)" d="M 413.423489 41.579174 
L 458.2977 41.579174 
L 458.2977 37.614561 
L 413.423489 37.614561 
z
" style="fill:#c1655b;stroke:#000000;stroke-linejoin:miter;"/>
   </g>
   <g id="patch_66">
    <path clip-path="url(#p4ef0b11088)" d="M 492.892966 37.225889 
L 537.770696 37.225889 
L 537.770696 34.413831 
L 492.892966 34.413831 
z
" style="fill:#c1655b;stroke:#000000;stroke-linejoin:miter;"/>
   </g>
   <g id="patch_67">
    <path clip-path="url(#p4ef0b11088)" d="M 251.427018 35.838682 
L 296.30861 35.838682 
L 296.30861 32.762324 
L 251.427018 32.762324 
z
" style="fill:#e27699;stroke:#000000;stroke-linejoin:miter;"/>
   </g>
   <g id="patch_68">
    <path clip-path="url(#p4ef0b11088)" d="M 333.584489 43.696297 
L 378.451559 43.696297 
L 378.451559 38.963784 
L 333.584489 38.963784 
z
" style="fill:#e27699;stroke:#000000;stroke-linejoin:miter;"/>
   </g>
   <g id="patch_69">
    <path clip-path="url(#p4ef0b11088)" d="M 413.423489 37.614561 
L 458.2977 37.614561 
L 458.2977 34.458367 
L 413.423489 34.458367 
z
" style="fill:#e27699;stroke:#000000;stroke-linejoin:miter;"/>
   </g>
   <g id="patch_70">
    <path clip-path="url(#p4ef0b11088)" d="M 492.892966 34.413831 
L 537.770696 34.413831 
L 537.770696 32.41361 
L 492.892966 32.41361 
z
" style="fill:#e27699;stroke:#000000;stroke-linejoin:miter;"/>
   </g>
   <g id="patch_71">
    <path clip-path="url(#p4ef0b11088)" d="M 251.427018 32.762324 
L 296.30861 32.762324 
L 296.30861 30.878248 
L 251.427018 30.878248 
z
" style="fill:#e685b8;stroke:#000000;stroke-linejoin:miter;"/>
   </g>
   <g id="patch_72">
    <path clip-path="url(#p4ef0b11088)" d="M 333.584489 38.963784 
L 378.451559 38.963784 
L 378.451559 35.496265 
L 333.584489 35.496265 
z
" style="fill:#e685b8;stroke:#000000;stroke-linejoin:miter;"/>
   </g>
   <g id="patch_73">
    <path clip-path="url(#p4ef0b11088)" d="M 413.423489 34.458367 
L 458.2977 34.458367 
L 458.2977 32.828281 
L 413.423489 32.828281 
z
" style="fill:#e685b8;stroke:#000000;stroke-linejoin:miter;"/>
   </g>
   <g id="patch_74">
    <path clip-path="url(#p4ef0b11088)" d="M 492.892966 32.41361 
L 537.770696 32.41361 
L 537.770696 31.664843 
L 492.892966 31.664843 
z
" style="fill:#e685b8;stroke:#000000;stroke-linejoin:miter;"/>
   </g>
   <g id="patch_75">
    <path clip-path="url(#p4ef0b11088)" d="M 251.427018 30.878248 
L 296.30861 30.878248 
L 296.30861 28.920863 
L 251.427018 28.920863 
z
" style="fill:#bf8fa8;stroke:#000000;stroke-linejoin:miter;"/>
   </g>
   <g id="patch_76">
    <path clip-path="url(#p4ef0b11088)" d="M 333.584489 35.496265 
L 378.451559 35.496265 
L 378.451559 32.254749 
L 333.584489 32.254749 
z
" style="fill:#bf8fa8;stroke:#000000;stroke-linejoin:miter;"/>
   </g>
   <g id="patch_77">
    <path clip-path="url(#p4ef0b11088)" d="M 413.423489 32.828281 
L 458.2977 32.828281 
L 458.2977 30.512274 
L 413.423489 30.512274 
z
" style="fill:#bf8fa8;stroke:#000000;stroke-linejoin:miter;"/>
   </g>
   <g id="patch_78">
    <path clip-path="url(#p4ef0b11088)" d="M 492.892966 31.664843 
L 537.770696 31.664843 
L 537.770696 29.993449 
L 492.892966 29.993449 
z
" style="fill:#bf8fa8;stroke:#000000;stroke-linejoin:miter;"/>
   </g>
   <g id="patch_79">
    <path d="M 224.82 23.14175 
L 559.62 23.14175 
" style="fill:none;stroke:#000000;stroke-linecap:square;stroke-linejoin:miter;"/>
   </g>
   <g id="patch_80">
    <path d="M 559.62 368.74175 
L 559.62 23.14175 
" style="fill:none;stroke:#000000;stroke-linecap:square;stroke-linejoin:miter;"/>
   </g>
   <g id="patch_81">
    <path d="M 224.82 368.74175 
L 559.62 368.74175 
" style="fill:none;stroke:#000000;stroke-linecap:square;stroke-linejoin:miter;"/>
   </g>
   <g id="patch_82">
    <path d="M 224.82 368.74175 
L 224.82 23.14175 
" style="fill:none;stroke:#000000;stroke-linecap:square;stroke-linejoin:miter;"/>
   </g>
   <g id="matplotlib.axis_1">
    <g id="xtick_1">
     <g id="line2d_1">
      <defs>
       <path d="M 0 0 
L 0 -4 
" id="m873efe93b1" style="stroke:#000000;stroke-width:0.5;"/>
      </defs>
      <g>
       <use style="stroke:#000000;stroke-width:0.5;" x="275.967176014" xlink:href="#m873efe93b1" y="368.74175"/>
      </g>
     </g>
     <g id="line2d_2">
      <defs>
       <path d="M 0 0 
L 0 4 
" id="m516e8e310b" style="stroke:#000000;stroke-width:0.5;"/>
      </defs>
      <g>
       <use style="stroke:#000000;stroke-width:0.5;" x="275.967176014" xlink:href="#m516e8e310b" y="23.14175"/>
      </g>
     </g>
     <g id="text_1">
      <!-- 2188 -->
      <defs>
       <path d="M 19.1875 8.296875 
L 53.609375 8.296875 
L 53.609375 0 
L 7.328125 0 
L 7.328125 8.296875 
Q 12.9375 14.109375 22.625 23.890625 
Q 32.328125 33.6875 34.8125 36.53125 
Q 39.546875 41.84375 41.421875 45.53125 
Q 43.3125 49.21875 43.3125 52.78125 
Q 43.3125 58.59375 39.234375 62.25 
Q 35.15625 65.921875 28.609375 65.921875 
Q 23.96875 65.921875 18.8125 64.3125 
Q 13.671875 62.703125 7.8125 59.421875 
L 7.8125 69.390625 
Q 13.765625 71.78125 18.9375 73 
Q 24.125 74.21875 28.421875 74.21875 
Q 39.75 74.21875 46.484375 68.546875 
Q 53.21875 62.890625 53.21875 53.421875 
Q 53.21875 48.921875 51.53125 44.890625 
Q 49.859375 40.875 45.40625 35.40625 
Q 44.1875 33.984375 37.640625 27.21875 
Q 31.109375 20.453125 19.1875 8.296875 
" id="BitstreamVeraSans-Roman-32"/>
       <path d="M 31.78125 34.625 
Q 24.75 34.625 20.71875 30.859375 
Q 16.703125 27.09375 16.703125 20.515625 
Q 16.703125 13.921875 20.71875 10.15625 
Q 24.75 6.390625 31.78125 6.390625 
Q 38.8125 6.390625 42.859375 10.171875 
Q 46.921875 13.96875 46.921875 20.515625 
Q 46.921875 27.09375 42.890625 30.859375 
Q 38.875 34.625 31.78125 34.625 
M 21.921875 38.8125 
Q 15.578125 40.375 12.03125 44.71875 
Q 8.5 49.078125 8.5 55.328125 
Q 8.5 64.0625 14.71875 69.140625 
Q 20.953125 74.21875 31.78125 74.21875 
Q 42.671875 74.21875 48.875 69.140625 
Q 55.078125 64.0625 55.078125 55.328125 
Q 55.078125 49.078125 51.53125 44.71875 
Q 48 40.375 41.703125 38.8125 
Q 48.828125 37.15625 52.796875 32.3125 
Q 56.78125 27.484375 56.78125 20.515625 
Q 56.78125 9.90625 50.3125 4.234375 
Q 43.84375 -1.421875 31.78125 -1.421875 
Q 19.734375 -1.421875 13.25 4.234375 
Q 6.78125 9.90625 6.78125 20.515625 
Q 6.78125 27.484375 10.78125 32.3125 
Q 14.796875 37.15625 21.921875 38.8125 
M 18.3125 54.390625 
Q 18.3125 48.734375 21.84375 45.5625 
Q 25.390625 42.390625 31.78125 42.390625 
Q 38.140625 42.390625 41.71875 45.5625 
Q 45.3125 48.734375 45.3125 54.390625 
Q 45.3125 60.0625 41.71875 63.234375 
Q 38.140625 66.40625 31.78125 66.40625 
Q 25.390625 66.40625 21.84375 63.234375 
Q 18.3125 60.0625 18.3125 54.390625 
" id="BitstreamVeraSans-Roman-38"/>
       <path d="M 12.40625 8.296875 
L 28.515625 8.296875 
L 28.515625 63.921875 
L 10.984375 60.40625 
L 10.984375 69.390625 
L 28.421875 72.90625 
L 38.28125 72.90625 
L 38.28125 8.296875 
L 54.390625 8.296875 
L 54.390625 0 
L 12.40625 0 
z
" id="BitstreamVeraSans-Roman-31"/>
      </defs>
      <g style="fill:#ffffff;" transform="translate(260.697176014 381.859875)scale(0.12 -0.12)">
       <use xlink:href="#BitstreamVeraSans-Roman-32"/>
       <use x="63.623046875" xlink:href="#BitstreamVeraSans-Roman-31"/>
       <use x="127.24609375" xlink:href="#BitstreamVeraSans-Roman-38"/>
       <use x="190.869140625" xlink:href="#BitstreamVeraSans-Roman-38"/>
      </g>
     </g>
    </g>
    <g id="xtick_2">
     <g id="line2d_3">
      <g>
       <use style="stroke:#000000;stroke-width:0.5;" x="358.116035349" xlink:href="#m873efe93b1" y="368.74175"/>
      </g>
     </g>
     <g id="line2d_4">
      <g>
       <use style="stroke:#000000;stroke-width:0.5;" x="358.116035349" xlink:href="#m516e8e310b" y="23.14175"/>
      </g>
     </g>
     <g id="text_2">
      <!-- 4358 -->
      <defs>
       <path d="M 40.578125 39.3125 
Q 47.65625 37.796875 51.625 33 
Q 55.609375 28.21875 55.609375 21.1875 
Q 55.609375 10.40625 48.1875 4.484375 
Q 40.765625 -1.421875 27.09375 -1.421875 
Q 22.515625 -1.421875 17.65625 -0.515625 
Q 12.796875 0.390625 7.625 2.203125 
L 7.625 11.71875 
Q 11.71875 9.328125 16.59375 8.109375 
Q 21.484375 6.890625 26.8125 6.890625 
Q 36.078125 6.890625 40.9375 10.546875 
Q 45.796875 14.203125 45.796875 21.1875 
Q 45.796875 27.640625 41.28125 31.265625 
Q 36.765625 34.90625 28.71875 34.90625 
L 20.21875 34.90625 
L 20.21875 43.015625 
L 29.109375 43.015625 
Q 36.375 43.015625 40.234375 45.921875 
Q 44.09375 48.828125 44.09375 54.296875 
Q 44.09375 59.90625 40.109375 62.90625 
Q 36.140625 65.921875 28.71875 65.921875 
Q 24.65625 65.921875 20.015625 65.03125 
Q 15.375 64.15625 9.8125 62.3125 
L 9.8125 71.09375 
Q 15.4375 72.65625 20.34375 73.4375 
Q 25.25 74.21875 29.59375 74.21875 
Q 40.828125 74.21875 47.359375 69.109375 
Q 53.90625 64.015625 53.90625 55.328125 
Q 53.90625 49.265625 50.4375 45.09375 
Q 46.96875 40.921875 40.578125 39.3125 
" id="BitstreamVeraSans-Roman-33"/>
       <path d="M 37.796875 64.3125 
L 12.890625 25.390625 
L 37.796875 25.390625 
z
M 35.203125 72.90625 
L 47.609375 72.90625 
L 47.609375 25.390625 
L 58.015625 25.390625 
L 58.015625 17.1875 
L 47.609375 17.1875 
L 47.609375 0 
L 37.796875 0 
L 37.796875 17.1875 
L 4.890625 17.1875 
L 4.890625 26.703125 
z
" id="BitstreamVeraSans-Roman-34"/>
       <path d="M 10.796875 72.90625 
L 49.515625 72.90625 
L 49.515625 64.59375 
L 19.828125 64.59375 
L 19.828125 46.734375 
Q 21.96875 47.46875 24.109375 47.828125 
Q 26.265625 48.1875 28.421875 48.1875 
Q 40.625 48.1875 47.75 41.5 
Q 54.890625 34.8125 54.890625 23.390625 
Q 54.890625 11.625 47.5625 5.09375 
Q 40.234375 -1.421875 26.90625 -1.421875 
Q 22.3125 -1.421875 17.546875 -0.640625 
Q 12.796875 0.140625 7.71875 1.703125 
L 7.71875 11.625 
Q 12.109375 9.234375 16.796875 8.0625 
Q 21.484375 6.890625 26.703125 6.890625 
Q 35.15625 6.890625 40.078125 11.328125 
Q 45.015625 15.765625 45.015625 23.390625 
Q 45.015625 31 40.078125 35.4375 
Q 35.15625 39.890625 26.703125 39.890625 
Q 22.75 39.890625 18.8125 39.015625 
Q 14.890625 38.140625 10.796875 36.28125 
z
" id="BitstreamVeraSans-Roman-35"/>
      </defs>
      <g style="fill:#ffffff;" transform="translate(342.846035349 381.859875)scale(0.12 -0.12)">
       <use xlink:href="#BitstreamVeraSans-Roman-34"/>
       <use x="63.623046875" xlink:href="#BitstreamVeraSans-Roman-33"/>
       <use x="127.24609375" xlink:href="#BitstreamVeraSans-Roman-35"/>
       <use x="190.869140625" xlink:href="#BitstreamVeraSans-Roman-38"/>
      </g>
     </g>
    </g>
    <g id="xtick_3">
     <g id="line2d_5">
      <g>
       <use style="stroke:#000000;stroke-width:0.5;" x="437.959270426" xlink:href="#m873efe93b1" y="368.74175"/>
      </g>
     </g>
     <g id="line2d_6">
      <g>
       <use style="stroke:#000000;stroke-width:0.5;" x="437.959270426" xlink:href="#m516e8e310b" y="23.14175"/>
      </g>
     </g>
     <g id="text_3">
      <!-- 8513 -->
      <g style="fill:#ffffff;" transform="translate(422.689270426 381.859875)scale(0.12 -0.12)">
       <use xlink:href="#BitstreamVeraSans-Roman-38"/>
       <use x="63.623046875" xlink:href="#BitstreamVeraSans-Roman-35"/>
       <use x="127.24609375" xlink:href="#BitstreamVeraSans-Roman-31"/>
       <use x="190.869140625" xlink:href="#BitstreamVeraSans-Roman-33"/>
      </g>
     </g>
    </g>
    <g id="xtick_4">
     <g id="line2d_7">
      <g>
       <use style="stroke:#000000;stroke-width:0.5;" x="517.430834111" xlink:href="#m873efe93b1" y="368.74175"/>
      </g>
     </g>
     <g id="line2d_8">
      <g>
       <use style="stroke:#000000;stroke-width:0.5;" x="517.430834111" xlink:href="#m516e8e310b" y="23.14175"/>
      </g>
     </g>
     <g id="text_4">
      <!-- 16578 -->
      <defs>
       <path d="M 33.015625 40.375 
Q 26.375 40.375 22.484375 35.828125 
Q 18.609375 31.296875 18.609375 23.390625 
Q 18.609375 15.53125 22.484375 10.953125 
Q 26.375 6.390625 33.015625 6.390625 
Q 39.65625 6.390625 43.53125 10.953125 
Q 47.40625 15.53125 47.40625 23.390625 
Q 47.40625 31.296875 43.53125 35.828125 
Q 39.65625 40.375 33.015625 40.375 
M 52.59375 71.296875 
L 52.59375 62.3125 
Q 48.875 64.0625 45.09375 64.984375 
Q 41.3125 65.921875 37.59375 65.921875 
Q 27.828125 65.921875 22.671875 59.328125 
Q 17.53125 52.734375 16.796875 39.40625 
Q 19.671875 43.65625 24.015625 45.921875 
Q 28.375 48.1875 33.59375 48.1875 
Q 44.578125 48.1875 50.953125 41.515625 
Q 57.328125 34.859375 57.328125 23.390625 
Q 57.328125 12.15625 50.6875 5.359375 
Q 44.046875 -1.421875 33.015625 -1.421875 
Q 20.359375 -1.421875 13.671875 8.265625 
Q 6.984375 17.96875 6.984375 36.375 
Q 6.984375 53.65625 15.1875 63.9375 
Q 23.390625 74.21875 37.203125 74.21875 
Q 40.921875 74.21875 44.703125 73.484375 
Q 48.484375 72.75 52.59375 71.296875 
" id="BitstreamVeraSans-Roman-36"/>
       <path d="M 8.203125 72.90625 
L 55.078125 72.90625 
L 55.078125 68.703125 
L 28.609375 0 
L 18.3125 0 
L 43.21875 64.59375 
L 8.203125 64.59375 
z
" id="BitstreamVeraSans-Roman-37"/>
      </defs>
      <g style="fill:#ffffff;" transform="translate(498.343334111 381.859875)scale(0.12 -0.12)">
       <use xlink:href="#BitstreamVeraSans-Roman-31"/>
       <use x="63.623046875" xlink:href="#BitstreamVeraSans-Roman-36"/>
       <use x="127.24609375" xlink:href="#BitstreamVeraSans-Roman-35"/>
       <use x="190.869140625" xlink:href="#BitstreamVeraSans-Roman-37"/>
       <use x="254.4921875" xlink:href="#BitstreamVeraSans-Roman-38"/>
      </g>
     </g>
    </g>
    <g id="xtick_5">
     <g id="line2d_9">
      <defs>
       <path d="M 0 0 
L 0 -2 
" id="me7093dc27a" style="stroke:#000000;stroke-width:0.5;"/>
      </defs>
      <g>
       <use style="stroke:#000000;stroke-width:0.5;" x="240.714661591" xlink:href="#me7093dc27a" y="368.74175"/>
      </g>
     </g>
     <g id="line2d_10">
      <defs>
       <path d="M 0 0 
L 0 2 
" id="m738ce1c9f5" style="stroke:#000000;stroke-width:0.5;"/>
      </defs>
      <g>
       <use style="stroke:#000000;stroke-width:0.5;" x="240.714661591" xlink:href="#m738ce1c9f5" y="23.14175"/>
      </g>
     </g>
    </g>
    <g id="xtick_6">
     <g id="line2d_11">
      <g>
       <use style="stroke:#000000;stroke-width:0.5;" x="289.061195895" xlink:href="#me7093dc27a" y="368.74175"/>
      </g>
     </g>
     <g id="line2d_12">
      <g>
       <use style="stroke:#000000;stroke-width:0.5;" x="289.061195895" xlink:href="#m738ce1c9f5" y="23.14175"/>
      </g>
     </g>
    </g>
    <g id="xtick_7">
     <g id="line2d_13">
      <g>
       <use style="stroke:#000000;stroke-width:0.5;" x="323.363607881" xlink:href="#me7093dc27a" y="368.74175"/>
      </g>
     </g>
     <g id="line2d_14">
      <g>
       <use style="stroke:#000000;stroke-width:0.5;" x="323.363607881" xlink:href="#m738ce1c9f5" y="23.14175"/>
      </g>
     </g>
    </g>
    <g id="xtick_8">
     <g id="line2d_15">
      <g>
       <use style="stroke:#000000;stroke-width:0.5;" x="349.970625705" xlink:href="#me7093dc27a" y="368.74175"/>
      </g>
     </g>
     <g id="line2d_16">
      <g>
       <use style="stroke:#000000;stroke-width:0.5;" x="349.970625705" xlink:href="#m738ce1c9f5" y="23.14175"/>
      </g>
     </g>
    </g>
    <g id="xtick_9">
     <g id="line2d_17">
      <g>
       <use style="stroke:#000000;stroke-width:0.5;" x="371.710142185" xlink:href="#me7093dc27a" y="368.74175"/>
      </g>
     </g>
     <g id="line2d_18">
      <g>
       <use style="stroke:#000000;stroke-width:0.5;" x="371.710142185" xlink:href="#m738ce1c9f5" y="23.14175"/>
      </g>
     </g>
    </g>
    <g id="xtick_10">
     <g id="line2d_19">
      <g>
       <use style="stroke:#000000;stroke-width:0.5;" x="390.090641472" xlink:href="#me7093dc27a" y="368.74175"/>
      </g>
     </g>
     <g id="line2d_20">
      <g>
       <use style="stroke:#000000;stroke-width:0.5;" x="390.090641472" xlink:href="#m738ce1c9f5" y="23.14175"/>
      </g>
     </g>
    </g>
    <g id="xtick_11">
     <g id="line2d_21">
      <g>
       <use style="stroke:#000000;stroke-width:0.5;" x="406.012554171" xlink:href="#me7093dc27a" y="368.74175"/>
      </g>
     </g>
     <g id="line2d_22">
      <g>
       <use style="stroke:#000000;stroke-width:0.5;" x="406.012554171" xlink:href="#m738ce1c9f5" y="23.14175"/>
      </g>
     </g>
    </g>
    <g id="xtick_12">
     <g id="line2d_23">
      <g>
       <use style="stroke:#000000;stroke-width:0.5;" x="420.056676489" xlink:href="#me7093dc27a" y="368.74175"/>
      </g>
     </g>
     <g id="line2d_24">
      <g>
       <use style="stroke:#000000;stroke-width:0.5;" x="420.056676489" xlink:href="#m738ce1c9f5" y="23.14175"/>
      </g>
     </g>
    </g>
    <g id="xtick_13">
     <g id="line2d_25">
      <g>
       <use style="stroke:#000000;stroke-width:0.5;" x="515.268518285" xlink:href="#me7093dc27a" y="368.74175"/>
      </g>
     </g>
     <g id="line2d_26">
      <g>
       <use style="stroke:#000000;stroke-width:0.5;" x="515.268518285" xlink:href="#m738ce1c9f5" y="23.14175"/>
      </g>
     </g>
    </g>
    <g id="text_5">
     <!-- # of CPUs -->
     <defs>
      <path id="BitstreamVeraSans-Roman-20"/>
      <path d="M 51.125 44 
L 36.921875 44 
L 32.8125 27.6875 
L 47.125 27.6875 
z
M 43.796875 71.78125 
L 38.71875 51.515625 
L 52.984375 51.515625 
L 58.109375 71.78125 
L 65.921875 71.78125 
L 60.890625 51.515625 
L 76.125 51.515625 
L 76.125 44 
L 58.984375 44 
L 54.984375 27.6875 
L 70.515625 27.6875 
L 70.515625 20.21875 
L 53.078125 20.21875 
L 48 0 
L 40.1875 0 
L 45.21875 20.21875 
L 30.90625 20.21875 
L 25.875 0 
L 18.015625 0 
L 23.09375 20.21875 
L 7.71875 20.21875 
L 7.71875 27.6875 
L 24.90625 27.6875 
L 29 44 
L 13.28125 44 
L 13.28125 51.515625 
L 30.90625 51.515625 
L 35.890625 71.78125 
z
" id="BitstreamVeraSans-Roman-23"/>
      <path d="M 30.609375 48.390625 
Q 23.390625 48.390625 19.1875 42.75 
Q 14.984375 37.109375 14.984375 27.296875 
Q 14.984375 17.484375 19.15625 11.84375 
Q 23.34375 6.203125 30.609375 6.203125 
Q 37.796875 6.203125 41.984375 11.859375 
Q 46.1875 17.53125 46.1875 27.296875 
Q 46.1875 37.015625 41.984375 42.703125 
Q 37.796875 48.390625 30.609375 48.390625 
M 30.609375 56 
Q 42.328125 56 49.015625 48.375 
Q 55.71875 40.765625 55.71875 27.296875 
Q 55.71875 13.875 49.015625 6.21875 
Q 42.328125 -1.421875 30.609375 -1.421875 
Q 18.84375 -1.421875 12.171875 6.21875 
Q 5.515625 13.875 5.515625 27.296875 
Q 5.515625 40.765625 12.171875 48.375 
Q 18.84375 56 30.609375 56 
" id="BitstreamVeraSans-Roman-6f"/>
      <path d="M 19.671875 64.796875 
L 19.671875 37.40625 
L 32.078125 37.40625 
Q 38.96875 37.40625 42.71875 40.96875 
Q 46.484375 44.53125 46.484375 51.125 
Q 46.484375 57.671875 42.71875 61.234375 
Q 38.96875 64.796875 32.078125 64.796875 
z
M 9.8125 72.90625 
L 32.078125 72.90625 
Q 44.34375 72.90625 50.609375 67.359375 
Q 56.890625 61.8125 56.890625 51.125 
Q 56.890625 40.328125 50.609375 34.8125 
Q 44.34375 29.296875 32.078125 29.296875 
L 19.671875 29.296875 
L 19.671875 0 
L 9.8125 0 
z
" id="BitstreamVeraSans-Roman-50"/>
      <path d="M 64.40625 67.28125 
L 64.40625 56.890625 
Q 59.421875 61.53125 53.78125 63.8125 
Q 48.140625 66.109375 41.796875 66.109375 
Q 29.296875 66.109375 22.65625 58.46875 
Q 16.015625 50.828125 16.015625 36.375 
Q 16.015625 21.96875 22.65625 14.328125 
Q 29.296875 6.6875 41.796875 6.6875 
Q 48.140625 6.6875 53.78125 8.984375 
Q 59.421875 11.28125 64.40625 15.921875 
L 64.40625 5.609375 
Q 59.234375 2.09375 53.4375 0.328125 
Q 47.65625 -1.421875 41.21875 -1.421875 
Q 24.65625 -1.421875 15.125 8.703125 
Q 5.609375 18.84375 5.609375 36.375 
Q 5.609375 53.953125 15.125 64.078125 
Q 24.65625 74.21875 41.21875 74.21875 
Q 47.75 74.21875 53.53125 72.484375 
Q 59.328125 70.75 64.40625 67.28125 
" id="BitstreamVeraSans-Roman-43"/>
      <path d="M 8.6875 72.90625 
L 18.609375 72.90625 
L 18.609375 28.609375 
Q 18.609375 16.890625 22.84375 11.734375 
Q 27.09375 6.59375 36.625 6.59375 
Q 46.09375 6.59375 50.34375 11.734375 
Q 54.59375 16.890625 54.59375 28.609375 
L 54.59375 72.90625 
L 64.5 72.90625 
L 64.5 27.390625 
Q 64.5 13.140625 57.4375 5.859375 
Q 50.390625 -1.421875 36.625 -1.421875 
Q 22.796875 -1.421875 15.734375 5.859375 
Q 8.6875 13.140625 8.6875 27.390625 
z
" id="BitstreamVeraSans-Roman-55"/>
      <path d="M 37.109375 75.984375 
L 37.109375 68.5 
L 28.515625 68.5 
Q 23.6875 68.5 21.796875 66.546875 
Q 19.921875 64.59375 19.921875 59.515625 
L 19.921875 54.6875 
L 34.71875 54.6875 
L 34.71875 47.703125 
L 19.921875 47.703125 
L 19.921875 0 
L 10.890625 0 
L 10.890625 47.703125 
L 2.296875 47.703125 
L 2.296875 54.6875 
L 10.890625 54.6875 
L 10.890625 58.5 
Q 10.890625 67.625 15.140625 71.796875 
Q 19.390625 75.984375 28.609375 75.984375 
z
" id="BitstreamVeraSans-Roman-66"/>
      <path d="M 44.28125 53.078125 
L 44.28125 44.578125 
Q 40.484375 46.53125 36.375 47.5 
Q 32.28125 48.484375 27.875 48.484375 
Q 21.1875 48.484375 17.84375 46.4375 
Q 14.5 44.390625 14.5 40.28125 
Q 14.5 37.15625 16.890625 35.375 
Q 19.28125 33.59375 26.515625 31.984375 
L 29.59375 31.296875 
Q 39.15625 29.25 43.1875 25.515625 
Q 47.21875 21.78125 47.21875 15.09375 
Q 47.21875 7.46875 41.1875 3.015625 
Q 35.15625 -1.421875 24.609375 -1.421875 
Q 20.21875 -1.421875 15.453125 -0.5625 
Q 10.6875 0.296875 5.421875 2 
L 5.421875 11.28125 
Q 10.40625 8.6875 15.234375 7.390625 
Q 20.0625 6.109375 24.8125 6.109375 
Q 31.15625 6.109375 34.5625 8.28125 
Q 37.984375 10.453125 37.984375 14.40625 
Q 37.984375 18.0625 35.515625 20.015625 
Q 33.0625 21.96875 24.703125 23.78125 
L 21.578125 24.515625 
Q 13.234375 26.265625 9.515625 29.90625 
Q 5.8125 33.546875 5.8125 39.890625 
Q 5.8125 47.609375 11.28125 51.796875 
Q 16.75 56 26.8125 56 
Q 31.78125 56 36.171875 55.265625 
Q 40.578125 54.546875 44.28125 53.078125 
" id="BitstreamVeraSans-Roman-73"/>
     </defs>
     <g style="fill:#ffffff;" transform="translate(362.270625 398.473625)scale(0.12 -0.12)">
      <use xlink:href="#BitstreamVeraSans-Roman-23"/>
      <use x="83.7890625" xlink:href="#BitstreamVeraSans-Roman-20"/>
      <use x="115.576171875" xlink:href="#BitstreamVeraSans-Roman-6f"/>
      <use x="176.7578125" xlink:href="#BitstreamVeraSans-Roman-66"/>
      <use x="211.962890625" xlink:href="#BitstreamVeraSans-Roman-20"/>
      <use x="243.75" xlink:href="#BitstreamVeraSans-Roman-43"/>
      <use x="313.57421875" xlink:href="#BitstreamVeraSans-Roman-50"/>
      <use x="373.876953125" xlink:href="#BitstreamVeraSans-Roman-55"/>
      <use x="447.0703125" xlink:href="#BitstreamVeraSans-Roman-73"/>
     </g>
    </g>
   </g>
   <g id="matplotlib.axis_2">
    <g id="ytick_1">
     <g id="line2d_27">
      <defs>
       <path d="M 0 0 
L 4 0 
" id="mfa67818fc4" style="stroke:#000000;stroke-width:0.5;"/>
      </defs>
      <g>
       <use style="stroke:#000000;stroke-width:0.5;" x="224.82" xlink:href="#mfa67818fc4" y="368.74175"/>
      </g>
     </g>
     <g id="line2d_28">
      <defs>
       <path d="M 0 0 
L -4 0 
" id="m1bdcc0aede" style="stroke:#000000;stroke-width:0.5;"/>
      </defs>
      <g>
       <use style="stroke:#000000;stroke-width:0.5;" x="559.62" xlink:href="#m1bdcc0aede" y="368.74175"/>
      </g>
     </g>
     <g id="text_6">
      <!-- 0.0 -->
      <defs>
       <path d="M 31.78125 66.40625 
Q 24.171875 66.40625 20.328125 58.90625 
Q 16.5 51.421875 16.5 36.375 
Q 16.5 21.390625 20.328125 13.890625 
Q 24.171875 6.390625 31.78125 6.390625 
Q 39.453125 6.390625 43.28125 13.890625 
Q 47.125 21.390625 47.125 36.375 
Q 47.125 51.421875 43.28125 58.90625 
Q 39.453125 66.40625 31.78125 66.40625 
M 31.78125 74.21875 
Q 44.046875 74.21875 50.515625 64.515625 
Q 56.984375 54.828125 56.984375 36.375 
Q 56.984375 17.96875 50.515625 8.265625 
Q 44.046875 -1.421875 31.78125 -1.421875 
Q 19.53125 -1.421875 13.0625 8.265625 
Q 6.59375 17.96875 6.59375 36.375 
Q 6.59375 54.828125 13.0625 64.515625 
Q 19.53125 74.21875 31.78125 74.21875 
" id="BitstreamVeraSans-Roman-30"/>
       <path d="M 10.6875 12.40625 
L 21 12.40625 
L 21 0 
L 10.6875 0 
z
" id="BitstreamVeraSans-Roman-2e"/>
      </defs>
      <g style="fill:#ffffff;" transform="translate(201.73625 372.053)scale(0.12 -0.12)">
       <use xlink:href="#BitstreamVeraSans-Roman-30"/>
       <use x="63.623046875" xlink:href="#BitstreamVeraSans-Roman-2e"/>
       <use x="95.41015625" xlink:href="#BitstreamVeraSans-Roman-30"/>
      </g>
     </g>
    </g>
    <g id="ytick_2">
     <g id="line2d_29">
      <g>
       <use style="stroke:#000000;stroke-width:0.5;" x="224.82" xlink:href="#mfa67818fc4" y="299.62175"/>
      </g>
     </g>
     <g id="line2d_30">
      <g>
       <use style="stroke:#000000;stroke-width:0.5;" x="559.62" xlink:href="#m1bdcc0aede" y="299.62175"/>
      </g>
     </g>
     <g id="text_7">
      <!-- 0.2 -->
      <g style="fill:#ffffff;" transform="translate(201.73625 302.933)scale(0.12 -0.12)">
       <use xlink:href="#BitstreamVeraSans-Roman-30"/>
       <use x="63.623046875" xlink:href="#BitstreamVeraSans-Roman-2e"/>
       <use x="95.41015625" xlink:href="#BitstreamVeraSans-Roman-32"/>
      </g>
     </g>
    </g>
    <g id="ytick_3">
     <g id="line2d_31">
      <g>
       <use style="stroke:#000000;stroke-width:0.5;" x="224.82" xlink:href="#mfa67818fc4" y="230.50175"/>
      </g>
     </g>
     <g id="line2d_32">
      <g>
       <use style="stroke:#000000;stroke-width:0.5;" x="559.62" xlink:href="#m1bdcc0aede" y="230.50175"/>
      </g>
     </g>
     <g id="text_8">
      <!-- 0.4 -->
      <g style="fill:#ffffff;" transform="translate(201.73625 233.813)scale(0.12 -0.12)">
       <use xlink:href="#BitstreamVeraSans-Roman-30"/>
       <use x="63.623046875" xlink:href="#BitstreamVeraSans-Roman-2e"/>
       <use x="95.41015625" xlink:href="#BitstreamVeraSans-Roman-34"/>
      </g>
     </g>
    </g>
    <g id="ytick_4">
     <g id="line2d_33">
      <g>
       <use style="stroke:#000000;stroke-width:0.5;" x="224.82" xlink:href="#mfa67818fc4" y="161.38175"/>
      </g>
     </g>
     <g id="line2d_34">
      <g>
       <use style="stroke:#000000;stroke-width:0.5;" x="559.62" xlink:href="#m1bdcc0aede" y="161.38175"/>
      </g>
     </g>
     <g id="text_9">
      <!-- 0.6 -->
      <g style="fill:#ffffff;" transform="translate(201.73625 164.693)scale(0.12 -0.12)">
       <use xlink:href="#BitstreamVeraSans-Roman-30"/>
       <use x="63.623046875" xlink:href="#BitstreamVeraSans-Roman-2e"/>
       <use x="95.41015625" xlink:href="#BitstreamVeraSans-Roman-36"/>
      </g>
     </g>
    </g>
    <g id="ytick_5">
     <g id="line2d_35">
      <g>
       <use style="stroke:#000000;stroke-width:0.5;" x="224.82" xlink:href="#mfa67818fc4" y="92.26175"/>
      </g>
     </g>
     <g id="line2d_36">
      <g>
       <use style="stroke:#000000;stroke-width:0.5;" x="559.62" xlink:href="#m1bdcc0aede" y="92.26175"/>
      </g>
     </g>
     <g id="text_10">
      <!-- 0.8 -->
      <g style="fill:#ffffff;" transform="translate(201.73625 95.573)scale(0.12 -0.12)">
       <use xlink:href="#BitstreamVeraSans-Roman-30"/>
       <use x="63.623046875" xlink:href="#BitstreamVeraSans-Roman-2e"/>
       <use x="95.41015625" xlink:href="#BitstreamVeraSans-Roman-38"/>
      </g>
     </g>
    </g>
    <g id="ytick_6">
     <g id="line2d_37">
      <g>
       <use style="stroke:#000000;stroke-width:0.5;" x="224.82" xlink:href="#mfa67818fc4" y="23.14175"/>
      </g>
     </g>
     <g id="line2d_38">
      <g>
       <use style="stroke:#000000;stroke-width:0.5;" x="559.62" xlink:href="#m1bdcc0aede" y="23.14175"/>
      </g>
     </g>
     <g id="text_11">
      <!-- 1.0 -->
      <g style="fill:#ffffff;" transform="translate(201.73625 26.453)scale(0.12 -0.12)">
       <use xlink:href="#BitstreamVeraSans-Roman-31"/>
       <use x="63.623046875" xlink:href="#BitstreamVeraSans-Roman-2e"/>
       <use x="95.41015625" xlink:href="#BitstreamVeraSans-Roman-30"/>
      </g>
     </g>
    </g>
    <g id="text_12">
     <!-- Relative runtime -->
     <defs>
      <path d="M 54.890625 33.015625 
L 54.890625 0 
L 45.90625 0 
L 45.90625 32.71875 
Q 45.90625 40.484375 42.875 44.328125 
Q 39.84375 48.1875 33.796875 48.1875 
Q 26.515625 48.1875 22.3125 43.546875 
Q 18.109375 38.921875 18.109375 30.90625 
L 18.109375 0 
L 9.078125 0 
L 9.078125 54.6875 
L 18.109375 54.6875 
L 18.109375 46.1875 
Q 21.34375 51.125 25.703125 53.5625 
Q 30.078125 56 35.796875 56 
Q 45.21875 56 50.046875 50.171875 
Q 54.890625 44.34375 54.890625 33.015625 
" id="BitstreamVeraSans-Roman-6e"/>
      <path d="M 41.109375 46.296875 
Q 39.59375 47.171875 37.8125 47.578125 
Q 36.03125 48 33.890625 48 
Q 26.265625 48 22.1875 43.046875 
Q 18.109375 38.09375 18.109375 28.8125 
L 18.109375 0 
L 9.078125 0 
L 9.078125 54.6875 
L 18.109375 54.6875 
L 18.109375 46.1875 
Q 20.953125 51.171875 25.484375 53.578125 
Q 30.03125 56 36.53125 56 
Q 37.453125 56 38.578125 55.875 
Q 39.703125 55.765625 41.0625 55.515625 
z
" id="BitstreamVeraSans-Roman-72"/>
      <path d="M 9.421875 75.984375 
L 18.40625 75.984375 
L 18.40625 0 
L 9.421875 0 
z
" id="BitstreamVeraSans-Roman-6c"/>
      <path d="M 2.984375 54.6875 
L 12.5 54.6875 
L 29.59375 8.796875 
L 46.6875 54.6875 
L 56.203125 54.6875 
L 35.6875 0 
L 23.484375 0 
z
" id="BitstreamVeraSans-Roman-76"/>
      <path d="M 44.390625 34.1875 
Q 47.5625 33.109375 50.5625 29.59375 
Q 53.5625 26.078125 56.59375 19.921875 
L 66.609375 0 
L 56 0 
L 46.6875 18.703125 
Q 43.0625 26.03125 39.671875 28.421875 
Q 36.28125 30.8125 30.421875 30.8125 
L 19.671875 30.8125 
L 19.671875 0 
L 9.8125 0 
L 9.8125 72.90625 
L 32.078125 72.90625 
Q 44.578125 72.90625 50.734375 67.671875 
Q 56.890625 62.453125 56.890625 51.90625 
Q 56.890625 45.015625 53.6875 40.46875 
Q 50.484375 35.9375 44.390625 34.1875 
M 19.671875 64.796875 
L 19.671875 38.921875 
L 32.078125 38.921875 
Q 39.203125 38.921875 42.84375 42.21875 
Q 46.484375 45.515625 46.484375 51.90625 
Q 46.484375 58.296875 42.84375 61.546875 
Q 39.203125 64.796875 32.078125 64.796875 
z
" id="BitstreamVeraSans-Roman-52"/>
      <path d="M 9.421875 54.6875 
L 18.40625 54.6875 
L 18.40625 0 
L 9.421875 0 
z
M 9.421875 75.984375 
L 18.40625 75.984375 
L 18.40625 64.59375 
L 9.421875 64.59375 
z
" id="BitstreamVeraSans-Roman-69"/>
      <path d="M 52 44.1875 
Q 55.375 50.25 60.0625 53.125 
Q 64.75 56 71.09375 56 
Q 79.640625 56 84.28125 50.015625 
Q 88.921875 44.046875 88.921875 33.015625 
L 88.921875 0 
L 79.890625 0 
L 79.890625 32.71875 
Q 79.890625 40.578125 77.09375 44.375 
Q 74.3125 48.1875 68.609375 48.1875 
Q 61.625 48.1875 57.5625 43.546875 
Q 53.515625 38.921875 53.515625 30.90625 
L 53.515625 0 
L 44.484375 0 
L 44.484375 32.71875 
Q 44.484375 40.625 41.703125 44.40625 
Q 38.921875 48.1875 33.109375 48.1875 
Q 26.21875 48.1875 22.15625 43.53125 
Q 18.109375 38.875 18.109375 30.90625 
L 18.109375 0 
L 9.078125 0 
L 9.078125 54.6875 
L 18.109375 54.6875 
L 18.109375 46.1875 
Q 21.1875 51.21875 25.484375 53.609375 
Q 29.78125 56 35.6875 56 
Q 41.65625 56 45.828125 52.96875 
Q 50 49.953125 52 44.1875 
" id="BitstreamVeraSans-Roman-6d"/>
      <path d="M 56.203125 29.59375 
L 56.203125 25.203125 
L 14.890625 25.203125 
Q 15.484375 15.921875 20.484375 11.0625 
Q 25.484375 6.203125 34.421875 6.203125 
Q 39.59375 6.203125 44.453125 7.46875 
Q 49.3125 8.734375 54.109375 11.28125 
L 54.109375 2.78125 
Q 49.265625 0.734375 44.1875 -0.34375 
Q 39.109375 -1.421875 33.890625 -1.421875 
Q 20.796875 -1.421875 13.15625 6.1875 
Q 5.515625 13.8125 5.515625 26.8125 
Q 5.515625 40.234375 12.765625 48.109375 
Q 20.015625 56 32.328125 56 
Q 43.359375 56 49.78125 48.890625 
Q 56.203125 41.796875 56.203125 29.59375 
M 47.21875 32.234375 
Q 47.125 39.59375 43.09375 43.984375 
Q 39.0625 48.390625 32.421875 48.390625 
Q 24.90625 48.390625 20.390625 44.140625 
Q 15.875 39.890625 15.1875 32.171875 
z
" id="BitstreamVeraSans-Roman-65"/>
      <path d="M 18.3125 70.21875 
L 18.3125 54.6875 
L 36.8125 54.6875 
L 36.8125 47.703125 
L 18.3125 47.703125 
L 18.3125 18.015625 
Q 18.3125 11.328125 20.140625 9.421875 
Q 21.96875 7.515625 27.59375 7.515625 
L 36.8125 7.515625 
L 36.8125 0 
L 27.59375 0 
Q 17.1875 0 13.234375 3.875 
Q 9.28125 7.765625 9.28125 18.015625 
L 9.28125 47.703125 
L 2.6875 47.703125 
L 2.6875 54.6875 
L 9.28125 54.6875 
L 9.28125 70.21875 
z
" id="BitstreamVeraSans-Roman-74"/>
      <path d="M 8.5 21.578125 
L 8.5 54.6875 
L 17.484375 54.6875 
L 17.484375 21.921875 
Q 17.484375 14.15625 20.5 10.265625 
Q 23.53125 6.390625 29.59375 6.390625 
Q 36.859375 6.390625 41.078125 11.03125 
Q 45.3125 15.671875 45.3125 23.6875 
L 45.3125 54.6875 
L 54.296875 54.6875 
L 54.296875 0 
L 45.3125 0 
L 45.3125 8.40625 
Q 42.046875 3.421875 37.71875 1 
Q 33.40625 -1.421875 27.6875 -1.421875 
Q 18.265625 -1.421875 13.375 4.4375 
Q 8.5 10.296875 8.5 21.578125 
" id="BitstreamVeraSans-Roman-75"/>
      <path d="M 34.28125 27.484375 
Q 23.390625 27.484375 19.1875 25 
Q 14.984375 22.515625 14.984375 16.5 
Q 14.984375 11.71875 18.140625 8.90625 
Q 21.296875 6.109375 26.703125 6.109375 
Q 34.1875 6.109375 38.703125 11.40625 
Q 43.21875 16.703125 43.21875 25.484375 
L 43.21875 27.484375 
z
M 52.203125 31.203125 
L 52.203125 0 
L 43.21875 0 
L 43.21875 8.296875 
Q 40.140625 3.328125 35.546875 0.953125 
Q 30.953125 -1.421875 24.3125 -1.421875 
Q 15.921875 -1.421875 10.953125 3.296875 
Q 6 8.015625 6 15.921875 
Q 6 25.140625 12.171875 29.828125 
Q 18.359375 34.515625 30.609375 34.515625 
L 43.21875 34.515625 
L 43.21875 35.40625 
Q 43.21875 41.609375 39.140625 45 
Q 35.0625 48.390625 27.6875 48.390625 
Q 23 48.390625 18.546875 47.265625 
Q 14.109375 46.140625 10.015625 43.890625 
L 10.015625 52.203125 
Q 14.9375 54.109375 19.578125 55.046875 
Q 24.21875 56 28.609375 56 
Q 40.484375 56 46.34375 49.84375 
Q 52.203125 43.703125 52.203125 31.203125 
" id="BitstreamVeraSans-Roman-61"/>
     </defs>
     <g style="fill:#ffffff;" transform="translate(194.240625 245.938625)rotate(-90.0)scale(0.12 -0.12)">
      <use xlink:href="#BitstreamVeraSans-Roman-52"/>
      <use x="69.419921875" xlink:href="#BitstreamVeraSans-Roman-65"/>
      <use x="130.943359375" xlink:href="#BitstreamVeraSans-Roman-6c"/>
      <use x="158.7265625" xlink:href="#BitstreamVeraSans-Roman-61"/>
      <use x="220.005859375" xlink:href="#BitstreamVeraSans-Roman-74"/>
      <use x="259.21484375" xlink:href="#BitstreamVeraSans-Roman-69"/>
      <use x="286.998046875" xlink:href="#BitstreamVeraSans-Roman-76"/>
      <use x="346.177734375" xlink:href="#BitstreamVeraSans-Roman-65"/>
      <use x="407.701171875" xlink:href="#BitstreamVeraSans-Roman-20"/>
      <use x="439.48828125" xlink:href="#BitstreamVeraSans-Roman-72"/>
      <use x="480.6015625" xlink:href="#BitstreamVeraSans-Roman-75"/>
      <use x="543.98046875" xlink:href="#BitstreamVeraSans-Roman-6e"/>
      <use x="607.359375" xlink:href="#BitstreamVeraSans-Roman-74"/>
      <use x="646.568359375" xlink:href="#BitstreamVeraSans-Roman-69"/>
      <use x="674.3515625" xlink:href="#BitstreamVeraSans-Roman-6d"/>
      <use x="771.763671875" xlink:href="#BitstreamVeraSans-Roman-65"/>
     </g>
    </g>
   </g>
   <g id="text_13">
    <!-- Relative runtime of main loop subroutines -->
    <defs>
     <path d="M 18.109375 8.203125 
L 18.109375 -20.796875 
L 9.078125 -20.796875 
L 9.078125 54.6875 
L 18.109375 54.6875 
L 18.109375 46.390625 
Q 20.953125 51.265625 25.265625 53.625 
Q 29.59375 56 35.59375 56 
Q 45.5625 56 51.78125 48.09375 
Q 58.015625 40.1875 58.015625 27.296875 
Q 58.015625 14.40625 51.78125 6.484375 
Q 45.5625 -1.421875 35.59375 -1.421875 
Q 29.59375 -1.421875 25.265625 0.953125 
Q 20.953125 3.328125 18.109375 8.203125 
M 48.6875 27.296875 
Q 48.6875 37.203125 44.609375 42.84375 
Q 40.53125 48.484375 33.40625 48.484375 
Q 26.265625 48.484375 22.1875 42.84375 
Q 18.109375 37.203125 18.109375 27.296875 
Q 18.109375 17.390625 22.1875 11.75 
Q 26.265625 6.109375 33.40625 6.109375 
Q 40.53125 6.109375 44.609375 11.75 
Q 48.6875 17.390625 48.6875 27.296875 
" id="BitstreamVeraSans-Roman-70"/>
     <path d="M 48.6875 27.296875 
Q 48.6875 37.203125 44.609375 42.84375 
Q 40.53125 48.484375 33.40625 48.484375 
Q 26.265625 48.484375 22.1875 42.84375 
Q 18.109375 37.203125 18.109375 27.296875 
Q 18.109375 17.390625 22.1875 11.75 
Q 26.265625 6.109375 33.40625 6.109375 
Q 40.53125 6.109375 44.609375 11.75 
Q 48.6875 17.390625 48.6875 27.296875 
M 18.109375 46.390625 
Q 20.953125 51.265625 25.265625 53.625 
Q 29.59375 56 35.59375 56 
Q 45.5625 56 51.78125 48.09375 
Q 58.015625 40.1875 58.015625 27.296875 
Q 58.015625 14.40625 51.78125 6.484375 
Q 45.5625 -1.421875 35.59375 -1.421875 
Q 29.59375 -1.421875 25.265625 0.953125 
Q 20.953125 3.328125 18.109375 8.203125 
L 18.109375 0 
L 9.078125 0 
L 9.078125 75.984375 
L 18.109375 75.984375 
z
" id="BitstreamVeraSans-Roman-62"/>
    </defs>
    <g style="fill:#ffffff;" transform="translate(240.382125 18.14175)scale(0.144 -0.144)">
     <use xlink:href="#BitstreamVeraSans-Roman-52"/>
     <use x="69.419921875" xlink:href="#BitstreamVeraSans-Roman-65"/>
     <use x="130.943359375" xlink:href="#BitstreamVeraSans-Roman-6c"/>
     <use x="158.7265625" xlink:href="#BitstreamVeraSans-Roman-61"/>
     <use x="220.005859375" xlink:href="#BitstreamVeraSans-Roman-74"/>
     <use x="259.21484375" xlink:href="#BitstreamVeraSans-Roman-69"/>
     <use x="286.998046875" xlink:href="#BitstreamVeraSans-Roman-76"/>
     <use x="346.177734375" xlink:href="#BitstreamVeraSans-Roman-65"/>
     <use x="407.701171875" xlink:href="#BitstreamVeraSans-Roman-20"/>
     <use x="439.48828125" xlink:href="#BitstreamVeraSans-Roman-72"/>
     <use x="480.6015625" xlink:href="#BitstreamVeraSans-Roman-75"/>
     <use x="543.98046875" xlink:href="#BitstreamVeraSans-Roman-6e"/>
     <use x="607.359375" xlink:href="#BitstreamVeraSans-Roman-74"/>
     <use x="646.568359375" xlink:href="#BitstreamVeraSans-Roman-69"/>
     <use x="674.3515625" xlink:href="#BitstreamVeraSans-Roman-6d"/>
     <use x="771.763671875" xlink:href="#BitstreamVeraSans-Roman-65"/>
     <use x="833.287109375" xlink:href="#BitstreamVeraSans-Roman-20"/>
     <use x="865.07421875" xlink:href="#BitstreamVeraSans-Roman-6f"/>
     <use x="926.255859375" xlink:href="#BitstreamVeraSans-Roman-66"/>
     <use x="961.4609375" xlink:href="#BitstreamVeraSans-Roman-20"/>
     <use x="993.248046875" xlink:href="#BitstreamVeraSans-Roman-6d"/>
     <use x="1090.66015625" xlink:href="#BitstreamVeraSans-Roman-61"/>
     <use x="1151.93945312" xlink:href="#BitstreamVeraSans-Roman-69"/>
     <use x="1179.72265625" xlink:href="#BitstreamVeraSans-Roman-6e"/>
     <use x="1243.1015625" xlink:href="#BitstreamVeraSans-Roman-20"/>
     <use x="1274.88867188" xlink:href="#BitstreamVeraSans-Roman-6c"/>
     <use x="1302.671875" xlink:href="#BitstreamVeraSans-Roman-6f"/>
     <use x="1363.85351562" xlink:href="#BitstreamVeraSans-Roman-6f"/>
     <use x="1425.03515625" xlink:href="#BitstreamVeraSans-Roman-70"/>
     <use x="1488.51171875" xlink:href="#BitstreamVeraSans-Roman-20"/>
     <use x="1520.29882812" xlink:href="#BitstreamVeraSans-Roman-73"/>
     <use x="1572.3984375" xlink:href="#BitstreamVeraSans-Roman-75"/>
     <use x="1635.77734375" xlink:href="#BitstreamVeraSans-Roman-62"/>
     <use x="1699.25390625" xlink:href="#BitstreamVeraSans-Roman-72"/>
     <use x="1740.3359375" xlink:href="#BitstreamVeraSans-Roman-6f"/>
     <use x="1801.51757812" xlink:href="#BitstreamVeraSans-Roman-75"/>
     <use x="1864.89648438" xlink:href="#BitstreamVeraSans-Roman-74"/>
     <use x="1904.10546875" xlink:href="#BitstreamVeraSans-Roman-69"/>
     <use x="1931.88867188" xlink:href="#BitstreamVeraSans-Roman-6e"/>
     <use x="1995.26757812" xlink:href="#BitstreamVeraSans-Roman-65"/>
     <use x="2056.79101562" xlink:href="#BitstreamVeraSans-Roman-73"/>
    </g>
   </g>
   <g id="legend_1">
    <g id="patch_83">
     <path d="M 7.2 334.18175 
L 170.541563 334.18175 
L 170.541563 75.729875 
L 7.2 75.729875 
z
" style="fill:#ffffff;stroke:#000000;stroke-linejoin:miter;"/>
    </g>
    <g id="patch_84">
     <path d="M 10.8 86.168469 
L 28.8 86.168469 
L 28.8 79.868469 
L 10.8 79.868469 
z
" style="fill:#bf8fa8;stroke:#000000;stroke-linejoin:miter;"/>
    </g>
    <g id="text_14">
     <!-- compute_tmask_limit -->
     <defs>
      <path d="M 50.984375 -16.609375 
L 50.984375 -23.578125 
L -0.984375 -23.578125 
L -0.984375 -16.609375 
z
" id="BitstreamVeraSans-Roman-5f"/>
      <path d="M 48.78125 52.59375 
L 48.78125 44.1875 
Q 44.96875 46.296875 41.140625 47.34375 
Q 37.3125 48.390625 33.40625 48.390625 
Q 24.65625 48.390625 19.8125 42.84375 
Q 14.984375 37.3125 14.984375 27.296875 
Q 14.984375 17.28125 19.8125 11.734375 
Q 24.65625 6.203125 33.40625 6.203125 
Q 37.3125 6.203125 41.140625 7.25 
Q 44.96875 8.296875 48.78125 10.40625 
L 48.78125 2.09375 
Q 45.015625 0.34375 40.984375 -0.53125 
Q 36.96875 -1.421875 32.421875 -1.421875 
Q 20.0625 -1.421875 12.78125 6.34375 
Q 5.515625 14.109375 5.515625 27.296875 
Q 5.515625 40.671875 12.859375 48.328125 
Q 20.21875 56 33.015625 56 
Q 37.15625 56 41.109375 55.140625 
Q 45.0625 54.296875 48.78125 52.59375 
" id="BitstreamVeraSans-Roman-63"/>
      <path d="M 9.078125 75.984375 
L 18.109375 75.984375 
L 18.109375 31.109375 
L 44.921875 54.6875 
L 56.390625 54.6875 
L 27.390625 29.109375 
L 57.625 0 
L 45.90625 0 
L 18.109375 26.703125 
L 18.109375 0 
L 9.078125 0 
z
" id="BitstreamVeraSans-Roman-6b"/>
     </defs>
     <g transform="translate(36.0 86.16846875)scale(0.09 -0.09)">
      <use xlink:href="#BitstreamVeraSans-Roman-63"/>
      <use x="54.98046875" xlink:href="#BitstreamVeraSans-Roman-6f"/>
      <use x="116.162109375" xlink:href="#BitstreamVeraSans-Roman-6d"/>
      <use x="213.57421875" xlink:href="#BitstreamVeraSans-Roman-70"/>
      <use x="277.05078125" xlink:href="#BitstreamVeraSans-Roman-75"/>
      <use x="340.4296875" xlink:href="#BitstreamVeraSans-Roman-74"/>
      <use x="379.638671875" xlink:href="#BitstreamVeraSans-Roman-65"/>
      <use x="441.162109375" xlink:href="#BitstreamVeraSans-Roman-5f"/>
      <use x="491.162109375" xlink:href="#BitstreamVeraSans-Roman-74"/>
      <use x="530.37109375" xlink:href="#BitstreamVeraSans-Roman-6d"/>
      <use x="627.783203125" xlink:href="#BitstreamVeraSans-Roman-61"/>
      <use x="689.0625" xlink:href="#BitstreamVeraSans-Roman-73"/>
      <use x="741.162109375" xlink:href="#BitstreamVeraSans-Roman-6b"/>
      <use x="799.072265625" xlink:href="#BitstreamVeraSans-Roman-5f"/>
      <use x="849.072265625" xlink:href="#BitstreamVeraSans-Roman-6c"/>
      <use x="876.85546875" xlink:href="#BitstreamVeraSans-Roman-69"/>
      <use x="904.638671875" xlink:href="#BitstreamVeraSans-Roman-6d"/>
      <use x="1002.05078125" xlink:href="#BitstreamVeraSans-Roman-69"/>
      <use x="1029.83398438" xlink:href="#BitstreamVeraSans-Roman-74"/>
     </g>
    </g>
    <g id="patch_85">
     <path d="M 10.8 99.629094 
L 28.8 99.629094 
L 28.8 93.329094 
L 10.8 93.329094 
z
" style="fill:#e685b8;stroke:#000000;stroke-linejoin:miter;"/>
    </g>
    <g id="text_15">
     <!-- ocean_explicit_accel_b -->
     <defs>
      <path d="M 54.890625 54.6875 
L 35.109375 28.078125 
L 55.90625 0 
L 45.3125 0 
L 29.390625 21.484375 
L 13.484375 0 
L 2.875 0 
L 24.125 28.609375 
L 4.6875 54.6875 
L 15.28125 54.6875 
L 29.78125 35.203125 
L 44.28125 54.6875 
z
" id="BitstreamVeraSans-Roman-78"/>
     </defs>
     <g transform="translate(36.0 99.62909375)scale(0.09 -0.09)">
      <use xlink:href="#BitstreamVeraSans-Roman-6f"/>
      <use x="61.181640625" xlink:href="#BitstreamVeraSans-Roman-63"/>
      <use x="116.162109375" xlink:href="#BitstreamVeraSans-Roman-65"/>
      <use x="177.685546875" xlink:href="#BitstreamVeraSans-Roman-61"/>
      <use x="238.96484375" xlink:href="#BitstreamVeraSans-Roman-6e"/>
      <use x="302.34375" xlink:href="#BitstreamVeraSans-Roman-5f"/>
      <use x="352.34375" xlink:href="#BitstreamVeraSans-Roman-65"/>
      <use x="413.8515625" xlink:href="#BitstreamVeraSans-Roman-78"/>
      <use x="473.03125" xlink:href="#BitstreamVeraSans-Roman-70"/>
      <use x="536.5078125" xlink:href="#BitstreamVeraSans-Roman-6c"/>
      <use x="564.291015625" xlink:href="#BitstreamVeraSans-Roman-69"/>
      <use x="592.07421875" xlink:href="#BitstreamVeraSans-Roman-63"/>
      <use x="647.0546875" xlink:href="#BitstreamVeraSans-Roman-69"/>
      <use x="674.837890625" xlink:href="#BitstreamVeraSans-Roman-74"/>
      <use x="714.046875" xlink:href="#BitstreamVeraSans-Roman-5f"/>
      <use x="764.046875" xlink:href="#BitstreamVeraSans-Roman-61"/>
      <use x="825.326171875" xlink:href="#BitstreamVeraSans-Roman-63"/>
      <use x="880.306640625" xlink:href="#BitstreamVeraSans-Roman-63"/>
      <use x="935.287109375" xlink:href="#BitstreamVeraSans-Roman-65"/>
      <use x="996.810546875" xlink:href="#BitstreamVeraSans-Roman-6c"/>
      <use x="1024.59375" xlink:href="#BitstreamVeraSans-Roman-5f"/>
      <use x="1074.59375" xlink:href="#BitstreamVeraSans-Roman-62"/>
     </g>
    </g>
    <g id="patch_86">
     <path d="M 10.8 113.089719 
L 28.8 113.089719 
L 28.8 106.789719 
L 10.8 106.789719 
z
" style="fill:#e27699;stroke:#000000;stroke-linejoin:miter;"/>
    </g>
    <g id="text_16">
     <!-- update_tcell_thickness -->
     <defs>
      <path d="M 45.40625 46.390625 
L 45.40625 75.984375 
L 54.390625 75.984375 
L 54.390625 0 
L 45.40625 0 
L 45.40625 8.203125 
Q 42.578125 3.328125 38.25 0.953125 
Q 33.9375 -1.421875 27.875 -1.421875 
Q 17.96875 -1.421875 11.734375 6.484375 
Q 5.515625 14.40625 5.515625 27.296875 
Q 5.515625 40.1875 11.734375 48.09375 
Q 17.96875 56 27.875 56 
Q 33.9375 56 38.25 53.625 
Q 42.578125 51.265625 45.40625 46.390625 
M 14.796875 27.296875 
Q 14.796875 17.390625 18.875 11.75 
Q 22.953125 6.109375 30.078125 6.109375 
Q 37.203125 6.109375 41.296875 11.75 
Q 45.40625 17.390625 45.40625 27.296875 
Q 45.40625 37.203125 41.296875 42.84375 
Q 37.203125 48.484375 30.078125 48.484375 
Q 22.953125 48.484375 18.875 42.84375 
Q 14.796875 37.203125 14.796875 27.296875 
" id="BitstreamVeraSans-Roman-64"/>
      <path d="M 54.890625 33.015625 
L 54.890625 0 
L 45.90625 0 
L 45.90625 32.71875 
Q 45.90625 40.484375 42.875 44.328125 
Q 39.84375 48.1875 33.796875 48.1875 
Q 26.515625 48.1875 22.3125 43.546875 
Q 18.109375 38.921875 18.109375 30.90625 
L 18.109375 0 
L 9.078125 0 
L 9.078125 75.984375 
L 18.109375 75.984375 
L 18.109375 46.1875 
Q 21.34375 51.125 25.703125 53.5625 
Q 30.078125 56 35.796875 56 
Q 45.21875 56 50.046875 50.171875 
Q 54.890625 44.34375 54.890625 33.015625 
" id="BitstreamVeraSans-Roman-68"/>
     </defs>
     <g transform="translate(36.0 113.08971875)scale(0.09 -0.09)">
      <use xlink:href="#BitstreamVeraSans-Roman-75"/>
      <use x="63.37890625" xlink:href="#BitstreamVeraSans-Roman-70"/>
      <use x="126.85546875" xlink:href="#BitstreamVeraSans-Roman-64"/>
      <use x="190.33203125" xlink:href="#BitstreamVeraSans-Roman-61"/>
      <use x="251.611328125" xlink:href="#BitstreamVeraSans-Roman-74"/>
      <use x="290.8203125" xlink:href="#BitstreamVeraSans-Roman-65"/>
      <use x="352.34375" xlink:href="#BitstreamVeraSans-Roman-5f"/>
      <use x="402.34375" xlink:href="#BitstreamVeraSans-Roman-74"/>
      <use x="441.552734375" xlink:href="#BitstreamVeraSans-Roman-63"/>
      <use x="496.533203125" xlink:href="#BitstreamVeraSans-Roman-65"/>
      <use x="558.056640625" xlink:href="#BitstreamVeraSans-Roman-6c"/>
      <use x="585.83984375" xlink:href="#BitstreamVeraSans-Roman-6c"/>
      <use x="613.623046875" xlink:href="#BitstreamVeraSans-Roman-5f"/>
      <use x="663.623046875" xlink:href="#BitstreamVeraSans-Roman-74"/>
      <use x="702.83203125" xlink:href="#BitstreamVeraSans-Roman-68"/>
      <use x="766.2109375" xlink:href="#BitstreamVeraSans-Roman-69"/>
      <use x="793.994140625" xlink:href="#BitstreamVeraSans-Roman-63"/>
      <use x="848.974609375" xlink:href="#BitstreamVeraSans-Roman-6b"/>
      <use x="906.884765625" xlink:href="#BitstreamVeraSans-Roman-6e"/>
      <use x="970.263671875" xlink:href="#BitstreamVeraSans-Roman-65"/>
      <use x="1031.78710938" xlink:href="#BitstreamVeraSans-Roman-73"/>
      <use x="1083.88671875" xlink:href="#BitstreamVeraSans-Roman-73"/>
     </g>
    </g>
    <g id="patch_87">
     <path d="M 10.8 126.550344 
L 28.8 126.550344 
L 28.8 120.250344 
L 10.8 120.250344 
z
" style="fill:#c1655b;stroke:#000000;stroke-linejoin:miter;"/>
    </g>
    <g id="text_17">
     <!-- ocean_advection_velocity -->
     <defs>
      <path d="M 32.171875 -5.078125 
Q 28.375 -14.84375 24.75 -17.8125 
Q 21.140625 -20.796875 15.09375 -20.796875 
L 7.90625 -20.796875 
L 7.90625 -13.28125 
L 13.1875 -13.28125 
Q 16.890625 -13.28125 18.9375 -11.515625 
Q 21 -9.765625 23.484375 -3.21875 
L 25.09375 0.875 
L 2.984375 54.6875 
L 12.5 54.6875 
L 29.59375 11.921875 
L 46.6875 54.6875 
L 56.203125 54.6875 
z
" id="BitstreamVeraSans-Roman-79"/>
     </defs>
     <g transform="translate(36.0 126.55034375)scale(0.09 -0.09)">
      <use xlink:href="#BitstreamVeraSans-Roman-6f"/>
      <use x="61.181640625" xlink:href="#BitstreamVeraSans-Roman-63"/>
      <use x="116.162109375" xlink:href="#BitstreamVeraSans-Roman-65"/>
      <use x="177.685546875" xlink:href="#BitstreamVeraSans-Roman-61"/>
      <use x="238.96484375" xlink:href="#BitstreamVeraSans-Roman-6e"/>
      <use x="302.34375" xlink:href="#BitstreamVeraSans-Roman-5f"/>
      <use x="352.34375" xlink:href="#BitstreamVeraSans-Roman-61"/>
      <use x="413.623046875" xlink:href="#BitstreamVeraSans-Roman-64"/>
      <use x="477.099609375" xlink:href="#BitstreamVeraSans-Roman-76"/>
      <use x="536.279296875" xlink:href="#BitstreamVeraSans-Roman-65"/>
      <use x="597.802734375" xlink:href="#BitstreamVeraSans-Roman-63"/>
      <use x="652.783203125" xlink:href="#BitstreamVeraSans-Roman-74"/>
      <use x="691.9921875" xlink:href="#BitstreamVeraSans-Roman-69"/>
      <use x="719.775390625" xlink:href="#BitstreamVeraSans-Roman-6f"/>
      <use x="780.95703125" xlink:href="#BitstreamVeraSans-Roman-6e"/>
      <use x="844.3359375" xlink:href="#BitstreamVeraSans-Roman-5f"/>
      <use x="894.3359375" xlink:href="#BitstreamVeraSans-Roman-76"/>
      <use x="953.515625" xlink:href="#BitstreamVeraSans-Roman-65"/>
      <use x="1015.0390625" xlink:href="#BitstreamVeraSans-Roman-6c"/>
      <use x="1042.82226562" xlink:href="#BitstreamVeraSans-Roman-6f"/>
      <use x="1104.00390625" xlink:href="#BitstreamVeraSans-Roman-63"/>
      <use x="1158.984375" xlink:href="#BitstreamVeraSans-Roman-69"/>
      <use x="1186.76757812" xlink:href="#BitstreamVeraSans-Roman-74"/>
      <use x="1225.9765625" xlink:href="#BitstreamVeraSans-Roman-79"/>
     </g>
    </g>
    <g id="patch_88">
     <path d="M 10.8 140.010969 
L 28.8 140.010969 
L 28.8 133.710969 
L 10.8 133.710969 
z
" style="fill:#af6729;stroke:#000000;stroke-linejoin:miter;"/>
    </g>
    <g id="text_18">
     <!-- update_ucell_thickness -->
     <g transform="translate(36.0 140.01096875)scale(0.09 -0.09)">
      <use xlink:href="#BitstreamVeraSans-Roman-75"/>
      <use x="63.37890625" xlink:href="#BitstreamVeraSans-Roman-70"/>
      <use x="126.85546875" xlink:href="#BitstreamVeraSans-Roman-64"/>
      <use x="190.33203125" xlink:href="#BitstreamVeraSans-Roman-61"/>
      <use x="251.611328125" xlink:href="#BitstreamVeraSans-Roman-74"/>
      <use x="290.8203125" xlink:href="#BitstreamVeraSans-Roman-65"/>
      <use x="352.34375" xlink:href="#BitstreamVeraSans-Roman-5f"/>
      <use x="402.34375" xlink:href="#BitstreamVeraSans-Roman-75"/>
      <use x="465.72265625" xlink:href="#BitstreamVeraSans-Roman-63"/>
      <use x="520.703125" xlink:href="#BitstreamVeraSans-Roman-65"/>
      <use x="582.2265625" xlink:href="#BitstreamVeraSans-Roman-6c"/>
      <use x="610.009765625" xlink:href="#BitstreamVeraSans-Roman-6c"/>
      <use x="637.79296875" xlink:href="#BitstreamVeraSans-Roman-5f"/>
      <use x="687.79296875" xlink:href="#BitstreamVeraSans-Roman-74"/>
      <use x="727.001953125" xlink:href="#BitstreamVeraSans-Roman-68"/>
      <use x="790.380859375" xlink:href="#BitstreamVeraSans-Roman-69"/>
      <use x="818.1640625" xlink:href="#BitstreamVeraSans-Roman-63"/>
      <use x="873.14453125" xlink:href="#BitstreamVeraSans-Roman-6b"/>
      <use x="931.0546875" xlink:href="#BitstreamVeraSans-Roman-6e"/>
      <use x="994.43359375" xlink:href="#BitstreamVeraSans-Roman-65"/>
      <use x="1055.95703125" xlink:href="#BitstreamVeraSans-Roman-73"/>
      <use x="1108.05664062" xlink:href="#BitstreamVeraSans-Roman-73"/>
     </g>
    </g>
    <g id="patch_89">
     <path d="M 10.8 153.471594 
L 28.8 153.471594 
L 28.8 147.171594 
L 10.8 147.171594 
z
" style="fill:#d3ac2e;stroke:#000000;stroke-linejoin:miter;"/>
    </g>
    <g id="text_19">
     <!-- ocean_eta_smooth -->
     <g transform="translate(36.0 153.47159375)scale(0.09 -0.09)">
      <use xlink:href="#BitstreamVeraSans-Roman-6f"/>
      <use x="61.181640625" xlink:href="#BitstreamVeraSans-Roman-63"/>
      <use x="116.162109375" xlink:href="#BitstreamVeraSans-Roman-65"/>
      <use x="177.685546875" xlink:href="#BitstreamVeraSans-Roman-61"/>
      <use x="238.96484375" xlink:href="#BitstreamVeraSans-Roman-6e"/>
      <use x="302.34375" xlink:href="#BitstreamVeraSans-Roman-5f"/>
      <use x="352.34375" xlink:href="#BitstreamVeraSans-Roman-65"/>
      <use x="413.8671875" xlink:href="#BitstreamVeraSans-Roman-74"/>
      <use x="453.076171875" xlink:href="#BitstreamVeraSans-Roman-61"/>
      <use x="514.35546875" xlink:href="#BitstreamVeraSans-Roman-5f"/>
      <use x="564.35546875" xlink:href="#BitstreamVeraSans-Roman-73"/>
      <use x="616.455078125" xlink:href="#BitstreamVeraSans-Roman-6d"/>
      <use x="713.8671875" xlink:href="#BitstreamVeraSans-Roman-6f"/>
      <use x="775.048828125" xlink:href="#BitstreamVeraSans-Roman-6f"/>
      <use x="836.23046875" xlink:href="#BitstreamVeraSans-Roman-74"/>
      <use x="875.439453125" xlink:href="#BitstreamVeraSans-Roman-68"/>
     </g>
    </g>
    <g id="patch_90">
     <path d="M 10.8 166.932219 
L 28.8 166.932219 
L 28.8 160.632219 
L 10.8 160.632219 
z
" style="fill:#faf632;stroke:#000000;stroke-linejoin:miter;"/>
    </g>
    <g id="text_20">
     <!-- update_ocean_velocity_bgrid -->
     <defs>
      <path d="M 45.40625 27.984375 
Q 45.40625 37.75 41.375 43.109375 
Q 37.359375 48.484375 30.078125 48.484375 
Q 22.859375 48.484375 18.828125 43.109375 
Q 14.796875 37.75 14.796875 27.984375 
Q 14.796875 18.265625 18.828125 12.890625 
Q 22.859375 7.515625 30.078125 7.515625 
Q 37.359375 7.515625 41.375 12.890625 
Q 45.40625 18.265625 45.40625 27.984375 
M 54.390625 6.78125 
Q 54.390625 -7.171875 48.1875 -13.984375 
Q 42 -20.796875 29.203125 -20.796875 
Q 24.46875 -20.796875 20.265625 -20.09375 
Q 16.0625 -19.390625 12.109375 -17.921875 
L 12.109375 -9.1875 
Q 16.0625 -11.328125 19.921875 -12.34375 
Q 23.78125 -13.375 27.78125 -13.375 
Q 36.625 -13.375 41.015625 -8.765625 
Q 45.40625 -4.15625 45.40625 5.171875 
L 45.40625 9.625 
Q 42.625 4.78125 38.28125 2.390625 
Q 33.9375 0 27.875 0 
Q 17.828125 0 11.671875 7.65625 
Q 5.515625 15.328125 5.515625 27.984375 
Q 5.515625 40.671875 11.671875 48.328125 
Q 17.828125 56 27.875 56 
Q 33.9375 56 38.28125 53.609375 
Q 42.625 51.21875 45.40625 46.390625 
L 45.40625 54.6875 
L 54.390625 54.6875 
z
" id="BitstreamVeraSans-Roman-67"/>
     </defs>
     <g transform="translate(36.0 166.93221875)scale(0.09 -0.09)">
      <use xlink:href="#BitstreamVeraSans-Roman-75"/>
      <use x="63.37890625" xlink:href="#BitstreamVeraSans-Roman-70"/>
      <use x="126.85546875" xlink:href="#BitstreamVeraSans-Roman-64"/>
      <use x="190.33203125" xlink:href="#BitstreamVeraSans-Roman-61"/>
      <use x="251.611328125" xlink:href="#BitstreamVeraSans-Roman-74"/>
      <use x="290.8203125" xlink:href="#BitstreamVeraSans-Roman-65"/>
      <use x="352.34375" xlink:href="#BitstreamVeraSans-Roman-5f"/>
      <use x="402.34375" xlink:href="#BitstreamVeraSans-Roman-6f"/>
      <use x="463.525390625" xlink:href="#BitstreamVeraSans-Roman-63"/>
      <use x="518.505859375" xlink:href="#BitstreamVeraSans-Roman-65"/>
      <use x="580.029296875" xlink:href="#BitstreamVeraSans-Roman-61"/>
      <use x="641.30859375" xlink:href="#BitstreamVeraSans-Roman-6e"/>
      <use x="704.6875" xlink:href="#BitstreamVeraSans-Roman-5f"/>
      <use x="754.6875" xlink:href="#BitstreamVeraSans-Roman-76"/>
      <use x="813.8671875" xlink:href="#BitstreamVeraSans-Roman-65"/>
      <use x="875.390625" xlink:href="#BitstreamVeraSans-Roman-6c"/>
      <use x="903.173828125" xlink:href="#BitstreamVeraSans-Roman-6f"/>
      <use x="964.35546875" xlink:href="#BitstreamVeraSans-Roman-63"/>
      <use x="1019.3359375" xlink:href="#BitstreamVeraSans-Roman-69"/>
      <use x="1047.11914062" xlink:href="#BitstreamVeraSans-Roman-74"/>
      <use x="1086.328125" xlink:href="#BitstreamVeraSans-Roman-79"/>
      <use x="1145.5078125" xlink:href="#BitstreamVeraSans-Roman-5f"/>
      <use x="1195.5078125" xlink:href="#BitstreamVeraSans-Roman-62"/>
      <use x="1258.984375" xlink:href="#BitstreamVeraSans-Roman-67"/>
      <use x="1322.4609375" xlink:href="#BitstreamVeraSans-Roman-72"/>
      <use x="1363.57421875" xlink:href="#BitstreamVeraSans-Roman-69"/>
      <use x="1391.35742188" xlink:href="#BitstreamVeraSans-Roman-64"/>
     </g>
    </g>
    <g id="patch_91">
     <path d="M 10.8 180.392844 
L 28.8 180.392844 
L 28.8 174.092844 
L 10.8 174.092844 
z
" style="fill:#ffd121;stroke:#000000;stroke-linejoin:miter;"/>
    </g>
    <g id="text_21">
     <!-- ocean_density_diag -->
     <g transform="translate(36.0 180.39284375)scale(0.09 -0.09)">
      <use xlink:href="#BitstreamVeraSans-Roman-6f"/>
      <use x="61.181640625" xlink:href="#BitstreamVeraSans-Roman-63"/>
      <use x="116.162109375" xlink:href="#BitstreamVeraSans-Roman-65"/>
      <use x="177.685546875" xlink:href="#BitstreamVeraSans-Roman-61"/>
      <use x="238.96484375" xlink:href="#BitstreamVeraSans-Roman-6e"/>
      <use x="302.34375" xlink:href="#BitstreamVeraSans-Roman-5f"/>
      <use x="352.34375" xlink:href="#BitstreamVeraSans-Roman-64"/>
      <use x="415.8203125" xlink:href="#BitstreamVeraSans-Roman-65"/>
      <use x="477.34375" xlink:href="#BitstreamVeraSans-Roman-6e"/>
      <use x="540.72265625" xlink:href="#BitstreamVeraSans-Roman-73"/>
      <use x="592.822265625" xlink:href="#BitstreamVeraSans-Roman-69"/>
      <use x="620.60546875" xlink:href="#BitstreamVeraSans-Roman-74"/>
      <use x="659.814453125" xlink:href="#BitstreamVeraSans-Roman-79"/>
      <use x="718.994140625" xlink:href="#BitstreamVeraSans-Roman-5f"/>
      <use x="768.994140625" xlink:href="#BitstreamVeraSans-Roman-64"/>
      <use x="832.470703125" xlink:href="#BitstreamVeraSans-Roman-69"/>
      <use x="860.25390625" xlink:href="#BitstreamVeraSans-Roman-61"/>
      <use x="921.533203125" xlink:href="#BitstreamVeraSans-Roman-67"/>
     </g>
    </g>
    <g id="patch_92">
     <path d="M 10.8 193.853469 
L 28.8 193.853469 
L 28.8 187.553469 
L 10.8 187.553469 
z
" style="fill:#ff990a;stroke:#000000;stroke-linejoin:miter;"/>
    </g>
    <g id="text_22">
     <!-- sw_source -->
     <defs>
      <path d="M 4.203125 54.6875 
L 13.1875 54.6875 
L 24.421875 12.015625 
L 35.59375 54.6875 
L 46.1875 54.6875 
L 57.421875 12.015625 
L 68.609375 54.6875 
L 77.59375 54.6875 
L 63.28125 0 
L 52.6875 0 
L 40.921875 44.828125 
L 29.109375 0 
L 18.5 0 
z
" id="BitstreamVeraSans-Roman-77"/>
     </defs>
     <g transform="translate(36.0 193.85346875)scale(0.09 -0.09)">
      <use xlink:href="#BitstreamVeraSans-Roman-73"/>
      <use x="52.099609375" xlink:href="#BitstreamVeraSans-Roman-77"/>
      <use x="133.88671875" xlink:href="#BitstreamVeraSans-Roman-5f"/>
      <use x="183.88671875" xlink:href="#BitstreamVeraSans-Roman-73"/>
      <use x="235.986328125" xlink:href="#BitstreamVeraSans-Roman-6f"/>
      <use x="297.16796875" xlink:href="#BitstreamVeraSans-Roman-75"/>
      <use x="360.546875" xlink:href="#BitstreamVeraSans-Roman-72"/>
      <use x="401.62890625" xlink:href="#BitstreamVeraSans-Roman-63"/>
      <use x="456.609375" xlink:href="#BitstreamVeraSans-Roman-65"/>
     </g>
    </g>
    <g id="patch_93">
     <path d="M 10.8 207.314094 
L 28.8 207.314094 
L 28.8 201.014094 
L 10.8 201.014094 
z
" style="fill:#ea7521;stroke:#000000;stroke-linejoin:miter;"/>
    </g>
    <g id="text_23">
     <!-- eta_and_pbot_diagnose -->
     <g transform="translate(36.0 207.31409375)scale(0.09 -0.09)">
      <use xlink:href="#BitstreamVeraSans-Roman-65"/>
      <use x="61.5234375" xlink:href="#BitstreamVeraSans-Roman-74"/>
      <use x="100.732421875" xlink:href="#BitstreamVeraSans-Roman-61"/>
      <use x="162.01171875" xlink:href="#BitstreamVeraSans-Roman-5f"/>
      <use x="212.01171875" xlink:href="#BitstreamVeraSans-Roman-61"/>
      <use x="273.291015625" xlink:href="#BitstreamVeraSans-Roman-6e"/>
      <use x="336.669921875" xlink:href="#BitstreamVeraSans-Roman-64"/>
      <use x="400.146484375" xlink:href="#BitstreamVeraSans-Roman-5f"/>
      <use x="450.146484375" xlink:href="#BitstreamVeraSans-Roman-70"/>
      <use x="513.623046875" xlink:href="#BitstreamVeraSans-Roman-62"/>
      <use x="577.099609375" xlink:href="#BitstreamVeraSans-Roman-6f"/>
      <use x="638.28125" xlink:href="#BitstreamVeraSans-Roman-74"/>
      <use x="677.490234375" xlink:href="#BitstreamVeraSans-Roman-5f"/>
      <use x="727.490234375" xlink:href="#BitstreamVeraSans-Roman-64"/>
      <use x="790.966796875" xlink:href="#BitstreamVeraSans-Roman-69"/>
      <use x="818.75" xlink:href="#BitstreamVeraSans-Roman-61"/>
      <use x="880.029296875" xlink:href="#BitstreamVeraSans-Roman-67"/>
      <use x="943.505859375" xlink:href="#BitstreamVeraSans-Roman-6e"/>
      <use x="1006.88476562" xlink:href="#BitstreamVeraSans-Roman-6f"/>
      <use x="1068.06640625" xlink:href="#BitstreamVeraSans-Roman-73"/>
      <use x="1120.16601562" xlink:href="#BitstreamVeraSans-Roman-65"/>
     </g>
    </g>
    <g id="patch_94">
     <path d="M 10.8 220.774719 
L 28.8 220.774719 
L 28.8 214.474719 
L 10.8 214.474719 
z
" style="fill:#bd5f69;stroke:#000000;stroke-linejoin:miter;"/>
    </g>
    <g id="text_24">
     <!-- get_ocean_sbc -->
     <g transform="translate(36.0 220.77471875)scale(0.09 -0.09)">
      <use xlink:href="#BitstreamVeraSans-Roman-67"/>
      <use x="63.4765625" xlink:href="#BitstreamVeraSans-Roman-65"/>
      <use x="125.0" xlink:href="#BitstreamVeraSans-Roman-74"/>
      <use x="164.208984375" xlink:href="#BitstreamVeraSans-Roman-5f"/>
      <use x="214.208984375" xlink:href="#BitstreamVeraSans-Roman-6f"/>
      <use x="275.390625" xlink:href="#BitstreamVeraSans-Roman-63"/>
      <use x="330.37109375" xlink:href="#BitstreamVeraSans-Roman-65"/>
      <use x="391.89453125" xlink:href="#BitstreamVeraSans-Roman-61"/>
      <use x="453.173828125" xlink:href="#BitstreamVeraSans-Roman-6e"/>
      <use x="516.552734375" xlink:href="#BitstreamVeraSans-Roman-5f"/>
      <use x="566.552734375" xlink:href="#BitstreamVeraSans-Roman-73"/>
      <use x="618.65234375" xlink:href="#BitstreamVeraSans-Roman-62"/>
      <use x="682.12890625" xlink:href="#BitstreamVeraSans-Roman-63"/>
     </g>
    </g>
    <g id="patch_95">
     <path d="M 10.8 234.235344 
L 28.8 234.235344 
L 28.8 227.935344 
L 10.8 227.935344 
z
" style="fill:#94539e;stroke:#000000;stroke-linejoin:miter;"/>
    </g>
    <g id="text_25">
     <!-- ocean_implicit_accel -->
     <g transform="translate(36.0 234.23534375)scale(0.09 -0.09)">
      <use xlink:href="#BitstreamVeraSans-Roman-6f"/>
      <use x="61.181640625" xlink:href="#BitstreamVeraSans-Roman-63"/>
      <use x="116.162109375" xlink:href="#BitstreamVeraSans-Roman-65"/>
      <use x="177.685546875" xlink:href="#BitstreamVeraSans-Roman-61"/>
      <use x="238.96484375" xlink:href="#BitstreamVeraSans-Roman-6e"/>
      <use x="302.34375" xlink:href="#BitstreamVeraSans-Roman-5f"/>
      <use x="352.34375" xlink:href="#BitstreamVeraSans-Roman-69"/>
      <use x="380.126953125" xlink:href="#BitstreamVeraSans-Roman-6d"/>
      <use x="477.5390625" xlink:href="#BitstreamVeraSans-Roman-70"/>
      <use x="541.015625" xlink:href="#BitstreamVeraSans-Roman-6c"/>
      <use x="568.798828125" xlink:href="#BitstreamVeraSans-Roman-69"/>
      <use x="596.58203125" xlink:href="#BitstreamVeraSans-Roman-63"/>
      <use x="651.5625" xlink:href="#BitstreamVeraSans-Roman-69"/>
      <use x="679.345703125" xlink:href="#BitstreamVeraSans-Roman-74"/>
      <use x="718.5546875" xlink:href="#BitstreamVeraSans-Roman-5f"/>
      <use x="768.5546875" xlink:href="#BitstreamVeraSans-Roman-61"/>
      <use x="829.833984375" xlink:href="#BitstreamVeraSans-Roman-63"/>
      <use x="884.814453125" xlink:href="#BitstreamVeraSans-Roman-63"/>
      <use x="939.794921875" xlink:href="#BitstreamVeraSans-Roman-65"/>
      <use x="1001.31835938" xlink:href="#BitstreamVeraSans-Roman-6c"/>
     </g>
    </g>
    <g id="patch_96">
     <path d="M 10.8 247.695969 
L 28.8 247.695969 
L 28.8 241.395969 
L 10.8 241.395969 
z
" style="fill:#737e77;stroke:#000000;stroke-linejoin:miter;"/>
    </g>
    <g id="text_26">
     <!-- update_ocean_barotropic -->
     <g transform="translate(36.0 247.69596875)scale(0.09 -0.09)">
      <use xlink:href="#BitstreamVeraSans-Roman-75"/>
      <use x="63.37890625" xlink:href="#BitstreamVeraSans-Roman-70"/>
      <use x="126.85546875" xlink:href="#BitstreamVeraSans-Roman-64"/>
      <use x="190.33203125" xlink:href="#BitstreamVeraSans-Roman-61"/>
      <use x="251.611328125" xlink:href="#BitstreamVeraSans-Roman-74"/>
      <use x="290.8203125" xlink:href="#BitstreamVeraSans-Roman-65"/>
      <use x="352.34375" xlink:href="#BitstreamVeraSans-Roman-5f"/>
      <use x="402.34375" xlink:href="#BitstreamVeraSans-Roman-6f"/>
      <use x="463.525390625" xlink:href="#BitstreamVeraSans-Roman-63"/>
      <use x="518.505859375" xlink:href="#BitstreamVeraSans-Roman-65"/>
      <use x="580.029296875" xlink:href="#BitstreamVeraSans-Roman-61"/>
      <use x="641.30859375" xlink:href="#BitstreamVeraSans-Roman-6e"/>
      <use x="704.6875" xlink:href="#BitstreamVeraSans-Roman-5f"/>
      <use x="754.6875" xlink:href="#BitstreamVeraSans-Roman-62"/>
      <use x="818.1640625" xlink:href="#BitstreamVeraSans-Roman-61"/>
      <use x="879.443359375" xlink:href="#BitstreamVeraSans-Roman-72"/>
      <use x="920.525390625" xlink:href="#BitstreamVeraSans-Roman-6f"/>
      <use x="981.70703125" xlink:href="#BitstreamVeraSans-Roman-74"/>
      <use x="1020.91601562" xlink:href="#BitstreamVeraSans-Roman-72"/>
      <use x="1061.99804688" xlink:href="#BitstreamVeraSans-Roman-6f"/>
      <use x="1123.1796875" xlink:href="#BitstreamVeraSans-Roman-70"/>
      <use x="1186.65625" xlink:href="#BitstreamVeraSans-Roman-69"/>
      <use x="1214.43945312" xlink:href="#BitstreamVeraSans-Roman-63"/>
     </g>
    </g>
    <g id="patch_97">
     <path d="M 10.8 261.156594 
L 28.8 261.156594 
L 28.8 254.856594 
L 10.8 254.856594 
z
" style="fill:#55a553;stroke:#000000;stroke-linejoin:miter;"/>
    </g>
    <g id="text_27">
     <!-- update_ocean_density -->
     <g transform="translate(36.0 261.15659375)scale(0.09 -0.09)">
      <use xlink:href="#BitstreamVeraSans-Roman-75"/>
      <use x="63.37890625" xlink:href="#BitstreamVeraSans-Roman-70"/>
      <use x="126.85546875" xlink:href="#BitstreamVeraSans-Roman-64"/>
      <use x="190.33203125" xlink:href="#BitstreamVeraSans-Roman-61"/>
      <use x="251.611328125" xlink:href="#BitstreamVeraSans-Roman-74"/>
      <use x="290.8203125" xlink:href="#BitstreamVeraSans-Roman-65"/>
      <use x="352.34375" xlink:href="#BitstreamVeraSans-Roman-5f"/>
      <use x="402.34375" xlink:href="#BitstreamVeraSans-Roman-6f"/>
      <use x="463.525390625" xlink:href="#BitstreamVeraSans-Roman-63"/>
      <use x="518.505859375" xlink:href="#BitstreamVeraSans-Roman-65"/>
      <use x="580.029296875" xlink:href="#BitstreamVeraSans-Roman-61"/>
      <use x="641.30859375" xlink:href="#BitstreamVeraSans-Roman-6e"/>
      <use x="704.6875" xlink:href="#BitstreamVeraSans-Roman-5f"/>
      <use x="754.6875" xlink:href="#BitstreamVeraSans-Roman-64"/>
      <use x="818.1640625" xlink:href="#BitstreamVeraSans-Roman-65"/>
      <use x="879.6875" xlink:href="#BitstreamVeraSans-Roman-6e"/>
      <use x="943.06640625" xlink:href="#BitstreamVeraSans-Roman-73"/>
      <use x="995.166015625" xlink:href="#BitstreamVeraSans-Roman-69"/>
      <use x="1022.94921875" xlink:href="#BitstreamVeraSans-Roman-74"/>
      <use x="1062.15820312" xlink:href="#BitstreamVeraSans-Roman-79"/>
     </g>
    </g>
    <g id="patch_98">
     <path d="M 10.8 274.617219 
L 28.8 274.617219 
L 28.8 268.317219 
L 10.8 268.317219 
z
" style="fill:#469e6f;stroke:#000000;stroke-linejoin:miter;"/>
    </g>
    <g id="text_28">
     <!-- ocean_diagnostics -->
     <g transform="translate(36.0 274.61721875)scale(0.09 -0.09)">
      <use xlink:href="#BitstreamVeraSans-Roman-6f"/>
      <use x="61.181640625" xlink:href="#BitstreamVeraSans-Roman-63"/>
      <use x="116.162109375" xlink:href="#BitstreamVeraSans-Roman-65"/>
      <use x="177.685546875" xlink:href="#BitstreamVeraSans-Roman-61"/>
      <use x="238.96484375" xlink:href="#BitstreamVeraSans-Roman-6e"/>
      <use x="302.34375" xlink:href="#BitstreamVeraSans-Roman-5f"/>
      <use x="352.34375" xlink:href="#BitstreamVeraSans-Roman-64"/>
      <use x="415.8203125" xlink:href="#BitstreamVeraSans-Roman-69"/>
      <use x="443.603515625" xlink:href="#BitstreamVeraSans-Roman-61"/>
      <use x="504.8828125" xlink:href="#BitstreamVeraSans-Roman-67"/>
      <use x="568.359375" xlink:href="#BitstreamVeraSans-Roman-6e"/>
      <use x="631.73828125" xlink:href="#BitstreamVeraSans-Roman-6f"/>
      <use x="692.919921875" xlink:href="#BitstreamVeraSans-Roman-73"/>
      <use x="745.01953125" xlink:href="#BitstreamVeraSans-Roman-74"/>
      <use x="784.228515625" xlink:href="#BitstreamVeraSans-Roman-69"/>
      <use x="812.01171875" xlink:href="#BitstreamVeraSans-Roman-63"/>
      <use x="866.9921875" xlink:href="#BitstreamVeraSans-Roman-73"/>
     </g>
    </g>
    <g id="patch_99">
     <path d="M 10.8 288.077844 
L 28.8 288.077844 
L 28.8 281.777844 
L 10.8 281.777844 
z
" style="fill:#3d8a9c;stroke:#000000;stroke-linejoin:miter;"/>
    </g>
    <g id="text_29">
     <!-- ocean_explicit_accel_a -->
     <g transform="translate(36.0 288.07784375)scale(0.09 -0.09)">
      <use xlink:href="#BitstreamVeraSans-Roman-6f"/>
      <use x="61.181640625" xlink:href="#BitstreamVeraSans-Roman-63"/>
      <use x="116.162109375" xlink:href="#BitstreamVeraSans-Roman-65"/>
      <use x="177.685546875" xlink:href="#BitstreamVeraSans-Roman-61"/>
      <use x="238.96484375" xlink:href="#BitstreamVeraSans-Roman-6e"/>
      <use x="302.34375" xlink:href="#BitstreamVeraSans-Roman-5f"/>
      <use x="352.34375" xlink:href="#BitstreamVeraSans-Roman-65"/>
      <use x="413.8515625" xlink:href="#BitstreamVeraSans-Roman-78"/>
      <use x="473.03125" xlink:href="#BitstreamVeraSans-Roman-70"/>
      <use x="536.5078125" xlink:href="#BitstreamVeraSans-Roman-6c"/>
      <use x="564.291015625" xlink:href="#BitstreamVeraSans-Roman-69"/>
      <use x="592.07421875" xlink:href="#BitstreamVeraSans-Roman-63"/>
      <use x="647.0546875" xlink:href="#BitstreamVeraSans-Roman-69"/>
      <use x="674.837890625" xlink:href="#BitstreamVeraSans-Roman-74"/>
      <use x="714.046875" xlink:href="#BitstreamVeraSans-Roman-5f"/>
      <use x="764.046875" xlink:href="#BitstreamVeraSans-Roman-61"/>
      <use x="825.326171875" xlink:href="#BitstreamVeraSans-Roman-63"/>
      <use x="880.306640625" xlink:href="#BitstreamVeraSans-Roman-63"/>
      <use x="935.287109375" xlink:href="#BitstreamVeraSans-Roman-65"/>
      <use x="996.810546875" xlink:href="#BitstreamVeraSans-Roman-6c"/>
      <use x="1024.59375" xlink:href="#BitstreamVeraSans-Roman-5f"/>
      <use x="1074.59375" xlink:href="#BitstreamVeraSans-Roman-61"/>
     </g>
    </g>
    <g id="patch_100">
     <path d="M 10.8 301.538469 
L 28.8 301.538469 
L 28.8 295.238469 
L 10.8 295.238469 
z
" style="fill:#576c9b;stroke:#000000;stroke-linejoin:miter;"/>
    </g>
    <g id="text_30">
     <!-- vert_mix_coeff -->
     <g transform="translate(36.0 301.53846875)scale(0.09 -0.09)">
      <use xlink:href="#BitstreamVeraSans-Roman-76"/>
      <use x="59.1796875" xlink:href="#BitstreamVeraSans-Roman-65"/>
      <use x="120.703125" xlink:href="#BitstreamVeraSans-Roman-72"/>
      <use x="161.81640625" xlink:href="#BitstreamVeraSans-Roman-74"/>
      <use x="201.025390625" xlink:href="#BitstreamVeraSans-Roman-5f"/>
      <use x="251.025390625" xlink:href="#BitstreamVeraSans-Roman-6d"/>
      <use x="348.4375" xlink:href="#BitstreamVeraSans-Roman-69"/>
      <use x="376.220703125" xlink:href="#BitstreamVeraSans-Roman-78"/>
      <use x="435.400390625" xlink:href="#BitstreamVeraSans-Roman-5f"/>
      <use x="485.400390625" xlink:href="#BitstreamVeraSans-Roman-63"/>
      <use x="540.380859375" xlink:href="#BitstreamVeraSans-Roman-6f"/>
      <use x="601.5625" xlink:href="#BitstreamVeraSans-Roman-65"/>
      <use x="663.0859375" xlink:href="#BitstreamVeraSans-Roman-66"/>
      <use x="698.291015625" xlink:href="#BitstreamVeraSans-Roman-66"/>
     </g>
    </g>
    <g id="patch_101">
     <path d="M 10.8 314.999094 
L 28.8 314.999094 
L 28.8 308.699094 
L 10.8 308.699094 
z
" style="fill:#9d435c;stroke:#000000;stroke-linejoin:miter;"/>
    </g>
    <g id="text_31">
     <!-- submeso_restrat -->
     <g transform="translate(36.0 314.99909375)scale(0.09 -0.09)">
      <use xlink:href="#BitstreamVeraSans-Roman-73"/>
      <use x="52.099609375" xlink:href="#BitstreamVeraSans-Roman-75"/>
      <use x="115.478515625" xlink:href="#BitstreamVeraSans-Roman-62"/>
      <use x="178.955078125" xlink:href="#BitstreamVeraSans-Roman-6d"/>
      <use x="276.3671875" xlink:href="#BitstreamVeraSans-Roman-65"/>
      <use x="337.890625" xlink:href="#BitstreamVeraSans-Roman-73"/>
      <use x="389.990234375" xlink:href="#BitstreamVeraSans-Roman-6f"/>
      <use x="451.171875" xlink:href="#BitstreamVeraSans-Roman-5f"/>
      <use x="501.171875" xlink:href="#BitstreamVeraSans-Roman-72"/>
      <use x="542.25390625" xlink:href="#BitstreamVeraSans-Roman-65"/>
      <use x="603.77734375" xlink:href="#BitstreamVeraSans-Roman-73"/>
      <use x="655.876953125" xlink:href="#BitstreamVeraSans-Roman-74"/>
      <use x="695.0859375" xlink:href="#BitstreamVeraSans-Roman-72"/>
      <use x="736.19921875" xlink:href="#BitstreamVeraSans-Roman-61"/>
      <use x="797.478515625" xlink:href="#BitstreamVeraSans-Roman-74"/>
     </g>
    </g>
    <g id="patch_102">
     <path d="M 10.8 328.459719 
L 28.8 328.459719 
L 28.8 322.159719 
L 10.8 322.159719 
z
" style="fill:#e41a1c;stroke:#000000;stroke-linejoin:miter;"/>
    </g>
    <g id="text_32">
     <!-- update_ocean_tracer -->
     <g transform="translate(36.0 328.45971875)scale(0.09 -0.09)">
      <use xlink:href="#BitstreamVeraSans-Roman-75"/>
      <use x="63.37890625" xlink:href="#BitstreamVeraSans-Roman-70"/>
      <use x="126.85546875" xlink:href="#BitstreamVeraSans-Roman-64"/>
      <use x="190.33203125" xlink:href="#BitstreamVeraSans-Roman-61"/>
      <use x="251.611328125" xlink:href="#BitstreamVeraSans-Roman-74"/>
      <use x="290.8203125" xlink:href="#BitstreamVeraSans-Roman-65"/>
      <use x="352.34375" xlink:href="#BitstreamVeraSans-Roman-5f"/>
      <use x="402.34375" xlink:href="#BitstreamVeraSans-Roman-6f"/>
      <use x="463.525390625" xlink:href="#BitstreamVeraSans-Roman-63"/>
      <use x="518.505859375" xlink:href="#BitstreamVeraSans-Roman-65"/>
      <use x="580.029296875" xlink:href="#BitstreamVeraSans-Roman-61"/>
      <use x="641.30859375" xlink:href="#BitstreamVeraSans-Roman-6e"/>
      <use x="704.6875" xlink:href="#BitstreamVeraSans-Roman-5f"/>
      <use x="754.6875" xlink:href="#BitstreamVeraSans-Roman-74"/>
      <use x="793.896484375" xlink:href="#BitstreamVeraSans-Roman-72"/>
      <use x="835.009765625" xlink:href="#BitstreamVeraSans-Roman-61"/>
      <use x="896.2890625" xlink:href="#BitstreamVeraSans-Roman-63"/>
      <use x="951.26953125" xlink:href="#BitstreamVeraSans-Roman-65"/>
      <use x="1012.79296875" xlink:href="#BitstreamVeraSans-Roman-72"/>
     </g>
    </g>
   </g>
  </g>
 </g>
 <defs>
  <clipPath id="p4ef0b11088">
   <rect height="345.6" width="334.8" x="224.82" y="23.14175"/>
  </clipPath>
 </defs>
</svg>
