<?xml version="1.0" encoding="utf-8" standalone="no"?>
<!DOCTYPE svg PUBLIC "-//W3C//DTD SVG 1.1//EN"
  "http://www.w3.org/Graphics/SVG/1.1/DTD/svg11.dtd">
<!-- Created with matplotlib (http://matplotlib.org/) -->
<svg height="434pt" version="1.1" viewBox="0 0 600 434" width="600pt" xmlns="http://www.w3.org/2000/svg" xmlns:xlink="http://www.w3.org/1999/xlink">
 <defs>
  <style type="text/css">
*{stroke-linecap:butt;stroke-linejoin:round;stroke-miterlimit:100000;}
  </style>
 </defs>
 <g id="figure_1">
  <g id="patch_1">
   <path d="M 0 434.7575 
L 600.3 434.7575 
L 600.3 0 
L 0 0 
L 0 434.7575 
z
" style="fill:none;"/>
  </g>
  <g id="axes_1">
   <g id="patch_2">
    <path d="M 554.04 225.9575 
C 554.04 190.511877 542.719967 156.035937 521.841599 127.895052 
C 500.963231 99.754168 471.668864 79.488035 438.51748 70.250603 
L 397.8 225.9575 
L 554.04 225.9575 
z
" style="fill:#e41a1c;stroke:#000000;stroke-linejoin:miter;"/>
   </g>
   <g id="patch_3">
    <path d="M 438.51748 70.250603 
C 413.966624 63.409655 388.16502 62.858215 363.360898 68.644331 
C 338.556776 74.430448 315.492124 86.381036 296.176688 103.454777 
L 397.8 225.9575 
L 438.51748 70.250603 
z
" style="fill:#a34057;stroke:#000000;stroke-linejoin:miter;"/>
   </g>
   <g id="patch_4">
    <path d="M 296.176688 103.454777 
C 279.188237 118.471596 265.519937 137.080375 256.098426 158.019535 
C 246.676915 178.958695 241.720026 201.744108 241.563811 224.83104 
L 397.8 225.9575 
L 296.176688 103.454777 
z
" style="fill:#626591;stroke:#000000;stroke-linejoin:miter;"/>
   </g>
   <g id="patch_5">
    <path d="M 241.563811 224.83104 
C 241.427731 244.942164 244.937074 264.903267 251.91044 283.682546 
C 258.883805 302.461826 269.198935 319.73004 282.322633 334.594584 
L 397.8 225.9575 
L 241.563811 224.83104 
z
" style="fill:#3a84aa;stroke:#000000;stroke-linejoin:miter;"/>
   </g>
   <g id="patch_6">
    <path d="M 282.322633 334.594584 
C 288.88327 342.025483 296.102691 348.80687 303.886569 354.850142 
C 311.670448 360.893415 319.984735 366.172138 328.720801 370.617343 
L 397.8 225.9575 
L 282.322633 334.594584 
z
" style="fill:#429780;stroke:#000000;stroke-linejoin:miter;"/>
   </g>
   <g id="patch_7">
    <path d="M 328.720801 370.617343 
C 333.437978 373.017602 338.269552 375.170473 343.197068 377.067732 
C 348.124584 378.964991 353.14176 380.604221 358.229432 381.979158 
L 397.8 225.9575 
L 328.720801 370.617343 
z
" style="fill:#4aa957;stroke:#000000;stroke-linejoin:miter;"/>
   </g>
   <g id="patch_8">
    <path d="M 358.229432 381.979158 
C 362.722454 383.193393 367.265694 384.200219 371.845612 384.996637 
C 376.42553 385.793055 381.037574 386.378273 385.668001 386.750547 
L 397.8 225.9575 
L 358.229432 381.979158 
z
" style="fill:#639364;stroke:#000000;stroke-linejoin:miter;"/>
   </g>
   <g id="patch_9">
    <path d="M 385.668001 386.750547 
C 390.71196 387.156068 395.772024 387.308453 400.830307 387.207162 
C 405.888589 387.105872 410.939122 386.751027 415.96405 386.14388 
L 397.8 225.9575 
L 385.668001 386.750547 
z
" style="fill:#7f6e85;stroke:#000000;stroke-linejoin:miter;"/>
   </g>
   <g id="patch_10">
    <path d="M 415.96405 386.14388 
C 423.797344 385.197407 431.549982 383.640038 439.155458 381.485133 
C 446.760935 379.330227 454.19744 376.583964 461.401183 373.269902 
L 397.8 225.9575 
L 415.96405 386.14388 
z
" style="fill:#9c509c;stroke:#000000;stroke-linejoin:miter;"/>
   </g>
   <g id="patch_11">
    <path d="M 461.401183 373.269902 
C 464.582263 371.806455 467.715052 370.233622 470.794298 368.554042 
C 473.873544 366.874461 476.897526 365.089071 479.861174 363.200863 
L 397.8 225.9575 
L 461.401183 373.269902 
z
" style="fill:#c3635f;stroke:#000000;stroke-linejoin:miter;"/>
   </g>
   <g id="patch_12">
    <path d="M 479.861174 363.200863 
C 481.01323 362.466863 482.155994 361.717437 483.289178 360.952775 
C 484.422362 360.188112 485.54587 359.408279 486.659418 358.613471 
L 397.8 225.9575 
L 479.861174 363.200863 
z
" style="fill:#ea7521;stroke:#000000;stroke-linejoin:miter;"/>
   </g>
   <g id="patch_13">
    <path d="M 486.659418 358.613471 
C 488.6567 357.187888 490.621516 355.714433 492.552263 354.19431 
C 494.483011 352.674186 496.379165 351.107807 498.23918 349.496447 
L 397.8 225.9575 
L 486.659418 358.613471 
z
" style="fill:#ff990a;stroke:#000000;stroke-linejoin:miter;"/>
   </g>
   <g id="patch_14">
    <path d="M 498.23918 349.496447 
C 499.64967 348.274519 501.039122 347.026946 502.406887 345.754314 
C 503.774651 344.481682 505.120513 343.18419 506.443842 341.862445 
L 397.8 225.9575 
L 498.23918 349.496447 
z
" style="fill:#ffc91e;stroke:#000000;stroke-linejoin:miter;"/>
   </g>
   <g id="patch_15">
    <path d="M 506.443842 341.862445 
C 507.68973 340.618049 508.915467 339.352333 510.120545 338.065825 
C 511.325622 336.779316 512.509872 335.472192 513.672803 334.144996 
L 397.8 225.9575 
L 506.443842 341.862445 
z
" style="fill:#fff931;stroke:#000000;stroke-linejoin:miter;"/>
   </g>
   <g id="patch_16">
    <path d="M 513.672803 334.144996 
C 518.81507 328.276381 523.531958 322.025055 527.785237 315.441688 
C 532.038515 308.85832 535.81666 301.960747 539.089049 294.804875 
L 397.8 225.9575 
L 513.672803 334.144996 
z
" style="fill:#e1c72f;stroke:#000000;stroke-linejoin:miter;"/>
   </g>
   <g id="patch_17">
    <path d="M 539.089049 294.804875 
C 539.981318 292.85371 540.835567 290.884259 541.65128 288.897711 
C 542.466992 286.911164 543.244003 284.907918 543.981844 282.889186 
L 397.8 225.9575 
L 539.089049 294.804875 
z
" style="fill:#c0872b;stroke:#000000;stroke-linejoin:miter;"/>
   </g>
   <g id="patch_18">
    <path d="M 543.981844 282.889186 
C 544.397206 281.752757 544.800117 280.611522 545.190501 279.465697 
C 545.580886 278.319872 545.958718 277.169532 546.323926 276.014896 
L 397.8 225.9575 
L 543.981844 282.889186 
z
" style="fill:#b05b3a;stroke:#000000;stroke-linejoin:miter;"/>
   </g>
   <g id="patch_19">
    <path d="M 546.323926 276.014896 
C 546.770573 274.602784 547.198299 273.18437 547.606981 271.760059 
C 548.015664 270.335748 548.405263 268.905677 548.775669 267.470255 
L 397.8 225.9575 
L 546.323926 276.014896 
z
" style="fill:#ce6b73;stroke:#000000;stroke-linejoin:miter;"/>
   </g>
   <g id="patch_20">
    <path d="M 548.775669 267.470255 
C 549.010927 266.558567 549.23843 265.644766 549.458153 264.728957 
C 549.677876 263.813147 549.889809 262.895365 550.093929 261.975717 
L 397.8 225.9575 
L 548.775669 267.470255 
z
" style="fill:#ed7bab;stroke:#000000;stroke-linejoin:miter;"/>
   </g>
   <g id="patch_21">
    <path d="M 550.093929 261.975717 
C 550.275449 261.157887 550.450785 260.338607 550.619919 259.517952 
C 550.789054 258.697297 550.951982 257.875292 551.108688 257.052013 
L 397.8 225.9575 
L 550.093929 261.975717 
z
" style="fill:#e087b6;stroke:#000000;stroke-linejoin:miter;"/>
   </g>
   <g id="patch_22">
    <path d="M 551.108688 257.052013 
C 552.082914 251.933791 552.816027 246.769793 553.305442 241.578232 
C 553.794857 236.386671 554.039998 231.173656 554.04 225.957571 
L 397.8 225.9575 
L 551.108688 257.052013 
z
" style="fill:#bc90a7;stroke:#000000;stroke-linejoin:miter;"/>
   </g>
   <g id="matplotlib.axis_1"/>
   <g id="matplotlib.axis_2"/>
   <g id="text_1">
    <!-- Ocean subroutine runtimes at 10,000 CPUs -->
    <defs>
     <path d="M 41.109375 46.296875 
Q 39.59375 47.171875 37.8125 47.578125 
Q 36.03125 48 33.890625 48 
Q 26.265625 48 22.1875 43.046875 
Q 18.109375 38.09375 18.109375 28.8125 
L 18.109375 0 
L 9.078125 0 
L 9.078125 54.6875 
L 18.109375 54.6875 
L 18.109375 46.1875 
Q 20.953125 51.171875 25.484375 53.578125 
Q 30.03125 56 36.53125 56 
Q 37.453125 56 38.578125 55.875 
Q 39.703125 55.765625 41.0625 55.515625 
z
" id="BitstreamVeraSans-Roman-72"/>
     <path d="M 48.6875 27.296875 
Q 48.6875 37.203125 44.609375 42.84375 
Q 40.53125 48.484375 33.40625 48.484375 
Q 26.265625 48.484375 22.1875 42.84375 
Q 18.109375 37.203125 18.109375 27.296875 
Q 18.109375 17.390625 22.1875 11.75 
Q 26.265625 6.109375 33.40625 6.109375 
Q 40.53125 6.109375 44.609375 11.75 
Q 48.6875 17.390625 48.6875 27.296875 
M 18.109375 46.390625 
Q 20.953125 51.265625 25.265625 53.625 
Q 29.59375 56 35.59375 56 
Q 45.5625 56 51.78125 48.09375 
Q 58.015625 40.1875 58.015625 27.296875 
Q 58.015625 14.40625 51.78125 6.484375 
Q 45.5625 -1.421875 35.59375 -1.421875 
Q 29.59375 -1.421875 25.265625 0.953125 
Q 20.953125 3.328125 18.109375 8.203125 
L 18.109375 0 
L 9.078125 0 
L 9.078125 75.984375 
L 18.109375 75.984375 
z
" id="BitstreamVeraSans-Roman-62"/>
     <path d="M 8.5 21.578125 
L 8.5 54.6875 
L 17.484375 54.6875 
L 17.484375 21.921875 
Q 17.484375 14.15625 20.5 10.265625 
Q 23.53125 6.390625 29.59375 6.390625 
Q 36.859375 6.390625 41.078125 11.03125 
Q 45.3125 15.671875 45.3125 23.6875 
L 45.3125 54.6875 
L 54.296875 54.6875 
L 54.296875 0 
L 45.3125 0 
L 45.3125 8.40625 
Q 42.046875 3.421875 37.71875 1 
Q 33.40625 -1.421875 27.6875 -1.421875 
Q 18.265625 -1.421875 13.375 4.4375 
Q 8.5 10.296875 8.5 21.578125 
" id="BitstreamVeraSans-Roman-75"/>
     <path d="M 48.78125 52.59375 
L 48.78125 44.1875 
Q 44.96875 46.296875 41.140625 47.34375 
Q 37.3125 48.390625 33.40625 48.390625 
Q 24.65625 48.390625 19.8125 42.84375 
Q 14.984375 37.3125 14.984375 27.296875 
Q 14.984375 17.28125 19.8125 11.734375 
Q 24.65625 6.203125 33.40625 6.203125 
Q 37.3125 6.203125 41.140625 7.25 
Q 44.96875 8.296875 48.78125 10.40625 
L 48.78125 2.09375 
Q 45.015625 0.34375 40.984375 -0.53125 
Q 36.96875 -1.421875 32.421875 -1.421875 
Q 20.0625 -1.421875 12.78125 6.34375 
Q 5.515625 14.109375 5.515625 27.296875 
Q 5.515625 40.671875 12.859375 48.328125 
Q 20.21875 56 33.015625 56 
Q 37.15625 56 41.109375 55.140625 
Q 45.0625 54.296875 48.78125 52.59375 
" id="BitstreamVeraSans-Roman-63"/>
     <path d="M 8.6875 72.90625 
L 18.609375 72.90625 
L 18.609375 28.609375 
Q 18.609375 16.890625 22.84375 11.734375 
Q 27.09375 6.59375 36.625 6.59375 
Q 46.09375 6.59375 50.34375 11.734375 
Q 54.59375 16.890625 54.59375 28.609375 
L 54.59375 72.90625 
L 64.5 72.90625 
L 64.5 27.390625 
Q 64.5 13.140625 57.4375 5.859375 
Q 50.390625 -1.421875 36.625 -1.421875 
Q 22.796875 -1.421875 15.734375 5.859375 
Q 8.6875 13.140625 8.6875 27.390625 
z
" id="BitstreamVeraSans-Roman-55"/>
     <path d="M 31.78125 66.40625 
Q 24.171875 66.40625 20.328125 58.90625 
Q 16.5 51.421875 16.5 36.375 
Q 16.5 21.390625 20.328125 13.890625 
Q 24.171875 6.390625 31.78125 6.390625 
Q 39.453125 6.390625 43.28125 13.890625 
Q 47.125 21.390625 47.125 36.375 
Q 47.125 51.421875 43.28125 58.90625 
Q 39.453125 66.40625 31.78125 66.40625 
M 31.78125 74.21875 
Q 44.046875 74.21875 50.515625 64.515625 
Q 56.984375 54.828125 56.984375 36.375 
Q 56.984375 17.96875 50.515625 8.265625 
Q 44.046875 -1.421875 31.78125 -1.421875 
Q 19.53125 -1.421875 13.0625 8.265625 
Q 6.59375 17.96875 6.59375 36.375 
Q 6.59375 54.828125 13.0625 64.515625 
Q 19.53125 74.21875 31.78125 74.21875 
" id="BitstreamVeraSans-Roman-30"/>
     <path d="M 9.421875 54.6875 
L 18.40625 54.6875 
L 18.40625 0 
L 9.421875 0 
z
M 9.421875 75.984375 
L 18.40625 75.984375 
L 18.40625 64.59375 
L 9.421875 64.59375 
z
" id="BitstreamVeraSans-Roman-69"/>
     <path d="M 54.890625 33.015625 
L 54.890625 0 
L 45.90625 0 
L 45.90625 32.71875 
Q 45.90625 40.484375 42.875 44.328125 
Q 39.84375 48.1875 33.796875 48.1875 
Q 26.515625 48.1875 22.3125 43.546875 
Q 18.109375 38.921875 18.109375 30.90625 
L 18.109375 0 
L 9.078125 0 
L 9.078125 54.6875 
L 18.109375 54.6875 
L 18.109375 46.1875 
Q 21.34375 51.125 25.703125 53.5625 
Q 30.078125 56 35.796875 56 
Q 45.21875 56 50.046875 50.171875 
Q 54.890625 44.34375 54.890625 33.015625 
" id="BitstreamVeraSans-Roman-6e"/>
     <path d="M 19.671875 64.796875 
L 19.671875 37.40625 
L 32.078125 37.40625 
Q 38.96875 37.40625 42.71875 40.96875 
Q 46.484375 44.53125 46.484375 51.125 
Q 46.484375 57.671875 42.71875 61.234375 
Q 38.96875 64.796875 32.078125 64.796875 
z
M 9.8125 72.90625 
L 32.078125 72.90625 
Q 44.34375 72.90625 50.609375 67.359375 
Q 56.890625 61.8125 56.890625 51.125 
Q 56.890625 40.328125 50.609375 34.8125 
Q 44.34375 29.296875 32.078125 29.296875 
L 19.671875 29.296875 
L 19.671875 0 
L 9.8125 0 
z
" id="BitstreamVeraSans-Roman-50"/>
     <path d="M 39.40625 66.21875 
Q 28.65625 66.21875 22.328125 58.203125 
Q 16.015625 50.203125 16.015625 36.375 
Q 16.015625 22.609375 22.328125 14.59375 
Q 28.65625 6.59375 39.40625 6.59375 
Q 50.140625 6.59375 56.421875 14.59375 
Q 62.703125 22.609375 62.703125 36.375 
Q 62.703125 50.203125 56.421875 58.203125 
Q 50.140625 66.21875 39.40625 66.21875 
M 39.40625 74.21875 
Q 54.734375 74.21875 63.90625 63.9375 
Q 73.09375 53.65625 73.09375 36.375 
Q 73.09375 19.140625 63.90625 8.859375 
Q 54.734375 -1.421875 39.40625 -1.421875 
Q 24.03125 -1.421875 14.8125 8.828125 
Q 5.609375 19.09375 5.609375 36.375 
Q 5.609375 53.65625 14.8125 63.9375 
Q 24.03125 74.21875 39.40625 74.21875 
" id="BitstreamVeraSans-Roman-4f"/>
     <path d="M 11.71875 12.40625 
L 22.015625 12.40625 
L 22.015625 4 
L 14.015625 -11.625 
L 7.71875 -11.625 
L 11.71875 4 
z
" id="BitstreamVeraSans-Roman-2c"/>
     <path d="M 56.203125 29.59375 
L 56.203125 25.203125 
L 14.890625 25.203125 
Q 15.484375 15.921875 20.484375 11.0625 
Q 25.484375 6.203125 34.421875 6.203125 
Q 39.59375 6.203125 44.453125 7.46875 
Q 49.3125 8.734375 54.109375 11.28125 
L 54.109375 2.78125 
Q 49.265625 0.734375 44.1875 -0.34375 
Q 39.109375 -1.421875 33.890625 -1.421875 
Q 20.796875 -1.421875 13.15625 6.1875 
Q 5.515625 13.8125 5.515625 26.8125 
Q 5.515625 40.234375 12.765625 48.109375 
Q 20.015625 56 32.328125 56 
Q 43.359375 56 49.78125 48.890625 
Q 56.203125 41.796875 56.203125 29.59375 
M 47.21875 32.234375 
Q 47.125 39.59375 43.09375 43.984375 
Q 39.0625 48.390625 32.421875 48.390625 
Q 24.90625 48.390625 20.390625 44.140625 
Q 15.875 39.890625 15.1875 32.171875 
z
" id="BitstreamVeraSans-Roman-65"/>
     <path id="BitstreamVeraSans-Roman-20"/>
     <path d="M 12.40625 8.296875 
L 28.515625 8.296875 
L 28.515625 63.921875 
L 10.984375 60.40625 
L 10.984375 69.390625 
L 28.421875 72.90625 
L 38.28125 72.90625 
L 38.28125 8.296875 
L 54.390625 8.296875 
L 54.390625 0 
L 12.40625 0 
z
" id="BitstreamVeraSans-Roman-31"/>
     <path d="M 44.28125 53.078125 
L 44.28125 44.578125 
Q 40.484375 46.53125 36.375 47.5 
Q 32.28125 48.484375 27.875 48.484375 
Q 21.1875 48.484375 17.84375 46.4375 
Q 14.5 44.390625 14.5 40.28125 
Q 14.5 37.15625 16.890625 35.375 
Q 19.28125 33.59375 26.515625 31.984375 
L 29.59375 31.296875 
Q 39.15625 29.25 43.1875 25.515625 
Q 47.21875 21.78125 47.21875 15.09375 
Q 47.21875 7.46875 41.1875 3.015625 
Q 35.15625 -1.421875 24.609375 -1.421875 
Q 20.21875 -1.421875 15.453125 -0.5625 
Q 10.6875 0.296875 5.421875 2 
L 5.421875 11.28125 
Q 10.40625 8.6875 15.234375 7.390625 
Q 20.0625 6.109375 24.8125 6.109375 
Q 31.15625 6.109375 34.5625 8.28125 
Q 37.984375 10.453125 37.984375 14.40625 
Q 37.984375 18.0625 35.515625 20.015625 
Q 33.0625 21.96875 24.703125 23.78125 
L 21.578125 24.515625 
Q 13.234375 26.265625 9.515625 29.90625 
Q 5.8125 33.546875 5.8125 39.890625 
Q 5.8125 47.609375 11.28125 51.796875 
Q 16.75 56 26.8125 56 
Q 31.78125 56 36.171875 55.265625 
Q 40.578125 54.546875 44.28125 53.078125 
" id="BitstreamVeraSans-Roman-73"/>
     <path d="M 30.609375 48.390625 
Q 23.390625 48.390625 19.1875 42.75 
Q 14.984375 37.109375 14.984375 27.296875 
Q 14.984375 17.484375 19.15625 11.84375 
Q 23.34375 6.203125 30.609375 6.203125 
Q 37.796875 6.203125 41.984375 11.859375 
Q 46.1875 17.53125 46.1875 27.296875 
Q 46.1875 37.015625 41.984375 42.703125 
Q 37.796875 48.390625 30.609375 48.390625 
M 30.609375 56 
Q 42.328125 56 49.015625 48.375 
Q 55.71875 40.765625 55.71875 27.296875 
Q 55.71875 13.875 49.015625 6.21875 
Q 42.328125 -1.421875 30.609375 -1.421875 
Q 18.84375 -1.421875 12.171875 6.21875 
Q 5.515625 13.875 5.515625 27.296875 
Q 5.515625 40.765625 12.171875 48.375 
Q 18.84375 56 30.609375 56 
" id="BitstreamVeraSans-Roman-6f"/>
     <path d="M 18.3125 70.21875 
L 18.3125 54.6875 
L 36.8125 54.6875 
L 36.8125 47.703125 
L 18.3125 47.703125 
L 18.3125 18.015625 
Q 18.3125 11.328125 20.140625 9.421875 
Q 21.96875 7.515625 27.59375 7.515625 
L 36.8125 7.515625 
L 36.8125 0 
L 27.59375 0 
Q 17.1875 0 13.234375 3.875 
Q 9.28125 7.765625 9.28125 18.015625 
L 9.28125 47.703125 
L 2.6875 47.703125 
L 2.6875 54.6875 
L 9.28125 54.6875 
L 9.28125 70.21875 
z
" id="BitstreamVeraSans-Roman-74"/>
     <path d="M 34.28125 27.484375 
Q 23.390625 27.484375 19.1875 25 
Q 14.984375 22.515625 14.984375 16.5 
Q 14.984375 11.71875 18.140625 8.90625 
Q 21.296875 6.109375 26.703125 6.109375 
Q 34.1875 6.109375 38.703125 11.40625 
Q 43.21875 16.703125 43.21875 25.484375 
L 43.21875 27.484375 
z
M 52.203125 31.203125 
L 52.203125 0 
L 43.21875 0 
L 43.21875 8.296875 
Q 40.140625 3.328125 35.546875 0.953125 
Q 30.953125 -1.421875 24.3125 -1.421875 
Q 15.921875 -1.421875 10.953125 3.296875 
Q 6 8.015625 6 15.921875 
Q 6 25.140625 12.171875 29.828125 
Q 18.359375 34.515625 30.609375 34.515625 
L 43.21875 34.515625 
L 43.21875 35.40625 
Q 43.21875 41.609375 39.140625 45 
Q 35.0625 48.390625 27.6875 48.390625 
Q 23 48.390625 18.546875 47.265625 
Q 14.109375 46.140625 10.015625 43.890625 
L 10.015625 52.203125 
Q 14.9375 54.109375 19.578125 55.046875 
Q 24.21875 56 28.609375 56 
Q 40.484375 56 46.34375 49.84375 
Q 52.203125 43.703125 52.203125 31.203125 
" id="BitstreamVeraSans-Roman-61"/>
     <path d="M 52 44.1875 
Q 55.375 50.25 60.0625 53.125 
Q 64.75 56 71.09375 56 
Q 79.640625 56 84.28125 50.015625 
Q 88.921875 44.046875 88.921875 33.015625 
L 88.921875 0 
L 79.890625 0 
L 79.890625 32.71875 
Q 79.890625 40.578125 77.09375 44.375 
Q 74.3125 48.1875 68.609375 48.1875 
Q 61.625 48.1875 57.5625 43.546875 
Q 53.515625 38.921875 53.515625 30.90625 
L 53.515625 0 
L 44.484375 0 
L 44.484375 32.71875 
Q 44.484375 40.625 41.703125 44.40625 
Q 38.921875 48.1875 33.109375 48.1875 
Q 26.21875 48.1875 22.15625 43.53125 
Q 18.109375 38.875 18.109375 30.90625 
L 18.109375 0 
L 9.078125 0 
L 9.078125 54.6875 
L 18.109375 54.6875 
L 18.109375 46.1875 
Q 21.1875 51.21875 25.484375 53.609375 
Q 29.78125 56 35.6875 56 
Q 41.65625 56 45.828125 52.96875 
Q 50 49.953125 52 44.1875 
" id="BitstreamVeraSans-Roman-6d"/>
     <path d="M 64.40625 67.28125 
L 64.40625 56.890625 
Q 59.421875 61.53125 53.78125 63.8125 
Q 48.140625 66.109375 41.796875 66.109375 
Q 29.296875 66.109375 22.65625 58.46875 
Q 16.015625 50.828125 16.015625 36.375 
Q 16.015625 21.96875 22.65625 14.328125 
Q 29.296875 6.6875 41.796875 6.6875 
Q 48.140625 6.6875 53.78125 8.984375 
Q 59.421875 11.28125 64.40625 15.921875 
L 64.40625 5.609375 
Q 59.234375 2.09375 53.4375 0.328125 
Q 47.65625 -1.421875 41.21875 -1.421875 
Q 24.65625 -1.421875 15.125 8.703125 
Q 5.609375 18.84375 5.609375 36.375 
Q 5.609375 53.953125 15.125 64.078125 
Q 24.65625 74.21875 41.21875 74.21875 
Q 47.75 74.21875 53.53125 72.484375 
Q 59.328125 70.75 64.40625 67.28125 
" id="BitstreamVeraSans-Roman-43"/>
    </defs>
    <g style="fill:#ffffff;" transform="translate(224.44375 19.3575)scale(0.16 -0.16)">
     <use xlink:href="#BitstreamVeraSans-Roman-4f"/>
     <use x="78.7109375" xlink:href="#BitstreamVeraSans-Roman-63"/>
     <use x="133.69140625" xlink:href="#BitstreamVeraSans-Roman-65"/>
     <use x="195.21484375" xlink:href="#BitstreamVeraSans-Roman-61"/>
     <use x="256.494140625" xlink:href="#BitstreamVeraSans-Roman-6e"/>
     <use x="319.873046875" xlink:href="#BitstreamVeraSans-Roman-20"/>
     <use x="351.66015625" xlink:href="#BitstreamVeraSans-Roman-73"/>
     <use x="403.759765625" xlink:href="#BitstreamVeraSans-Roman-75"/>
     <use x="467.138671875" xlink:href="#BitstreamVeraSans-Roman-62"/>
     <use x="530.615234375" xlink:href="#BitstreamVeraSans-Roman-72"/>
     <use x="571.697265625" xlink:href="#BitstreamVeraSans-Roman-6f"/>
     <use x="632.87890625" xlink:href="#BitstreamVeraSans-Roman-75"/>
     <use x="696.2578125" xlink:href="#BitstreamVeraSans-Roman-74"/>
     <use x="735.466796875" xlink:href="#BitstreamVeraSans-Roman-69"/>
     <use x="763.25" xlink:href="#BitstreamVeraSans-Roman-6e"/>
     <use x="826.62890625" xlink:href="#BitstreamVeraSans-Roman-65"/>
     <use x="888.15234375" xlink:href="#BitstreamVeraSans-Roman-20"/>
     <use x="919.939453125" xlink:href="#BitstreamVeraSans-Roman-72"/>
     <use x="961.052734375" xlink:href="#BitstreamVeraSans-Roman-75"/>
     <use x="1024.431640625" xlink:href="#BitstreamVeraSans-Roman-6e"/>
     <use x="1087.810546875" xlink:href="#BitstreamVeraSans-Roman-74"/>
     <use x="1127.01953125" xlink:href="#BitstreamVeraSans-Roman-69"/>
     <use x="1154.802734375" xlink:href="#BitstreamVeraSans-Roman-6d"/>
     <use x="1252.21484375" xlink:href="#BitstreamVeraSans-Roman-65"/>
     <use x="1313.73828125" xlink:href="#BitstreamVeraSans-Roman-73"/>
     <use x="1365.837890625" xlink:href="#BitstreamVeraSans-Roman-20"/>
     <use x="1397.625" xlink:href="#BitstreamVeraSans-Roman-61"/>
     <use x="1458.904296875" xlink:href="#BitstreamVeraSans-Roman-74"/>
     <use x="1498.11328125" xlink:href="#BitstreamVeraSans-Roman-20"/>
     <use x="1529.900390625" xlink:href="#BitstreamVeraSans-Roman-31"/>
     <use x="1593.5234375" xlink:href="#BitstreamVeraSans-Roman-30"/>
     <use x="1657.146484375" xlink:href="#BitstreamVeraSans-Roman-2c"/>
     <use x="1688.93359375" xlink:href="#BitstreamVeraSans-Roman-30"/>
     <use x="1752.556640625" xlink:href="#BitstreamVeraSans-Roman-30"/>
     <use x="1816.1796875" xlink:href="#BitstreamVeraSans-Roman-30"/>
     <use x="1879.802734375" xlink:href="#BitstreamVeraSans-Roman-20"/>
     <use x="1911.58984375" xlink:href="#BitstreamVeraSans-Roman-43"/>
     <use x="1981.4140625" xlink:href="#BitstreamVeraSans-Roman-50"/>
     <use x="2041.716796875" xlink:href="#BitstreamVeraSans-Roman-55"/>
     <use x="2114.91015625" xlink:href="#BitstreamVeraSans-Roman-73"/>
    </g>
   </g>
   <g id="legend_1">
    <g id="patch_23">
     <path d="M 7.2 387.2375 
L 188.690625 387.2375 
L 188.690625 70.434375 
L 7.2 70.434375 
z
" style="fill:#ffffff;stroke:#000000;stroke-linejoin:miter;"/>
    </g>
    <g id="patch_24">
     <path d="M 11.2 82.032812 
L 31.2 82.032812 
L 31.2 75.032812 
L 11.2 75.032812 
z
" style="fill:#e41a1c;stroke:#000000;stroke-linejoin:miter;"/>
    </g>
    <g id="text_2">
     <!-- update_ocean_tracer -->
     <defs>
      <path d="M 50.984375 -16.609375 
L 50.984375 -23.578125 
L -0.984375 -23.578125 
L -0.984375 -16.609375 
z
" id="BitstreamVeraSans-Roman-5f"/>
      <path d="M 18.109375 8.203125 
L 18.109375 -20.796875 
L 9.078125 -20.796875 
L 9.078125 54.6875 
L 18.109375 54.6875 
L 18.109375 46.390625 
Q 20.953125 51.265625 25.265625 53.625 
Q 29.59375 56 35.59375 56 
Q 45.5625 56 51.78125 48.09375 
Q 58.015625 40.1875 58.015625 27.296875 
Q 58.015625 14.40625 51.78125 6.484375 
Q 45.5625 -1.421875 35.59375 -1.421875 
Q 29.59375 -1.421875 25.265625 0.953125 
Q 20.953125 3.328125 18.109375 8.203125 
M 48.6875 27.296875 
Q 48.6875 37.203125 44.609375 42.84375 
Q 40.53125 48.484375 33.40625 48.484375 
Q 26.265625 48.484375 22.1875 42.84375 
Q 18.109375 37.203125 18.109375 27.296875 
Q 18.109375 17.390625 22.1875 11.75 
Q 26.265625 6.109375 33.40625 6.109375 
Q 40.53125 6.109375 44.609375 11.75 
Q 48.6875 17.390625 48.6875 27.296875 
" id="BitstreamVeraSans-Roman-70"/>
      <path d="M 45.40625 46.390625 
L 45.40625 75.984375 
L 54.390625 75.984375 
L 54.390625 0 
L 45.40625 0 
L 45.40625 8.203125 
Q 42.578125 3.328125 38.25 0.953125 
Q 33.9375 -1.421875 27.875 -1.421875 
Q 17.96875 -1.421875 11.734375 6.484375 
Q 5.515625 14.40625 5.515625 27.296875 
Q 5.515625 40.1875 11.734375 48.09375 
Q 17.96875 56 27.875 56 
Q 33.9375 56 38.25 53.625 
Q 42.578125 51.265625 45.40625 46.390625 
M 14.796875 27.296875 
Q 14.796875 17.390625 18.875 11.75 
Q 22.953125 6.109375 30.078125 6.109375 
Q 37.203125 6.109375 41.296875 11.75 
Q 45.40625 17.390625 45.40625 27.296875 
Q 45.40625 37.203125 41.296875 42.84375 
Q 37.203125 48.484375 30.078125 48.484375 
Q 22.953125 48.484375 18.875 42.84375 
Q 14.796875 37.203125 14.796875 27.296875 
" id="BitstreamVeraSans-Roman-64"/>
     </defs>
     <g transform="translate(39.2 82.0328125)scale(0.1 -0.1)">
      <use xlink:href="#BitstreamVeraSans-Roman-75"/>
      <use x="63.37890625" xlink:href="#BitstreamVeraSans-Roman-70"/>
      <use x="126.85546875" xlink:href="#BitstreamVeraSans-Roman-64"/>
      <use x="190.33203125" xlink:href="#BitstreamVeraSans-Roman-61"/>
      <use x="251.611328125" xlink:href="#BitstreamVeraSans-Roman-74"/>
      <use x="290.8203125" xlink:href="#BitstreamVeraSans-Roman-65"/>
      <use x="352.34375" xlink:href="#BitstreamVeraSans-Roman-5f"/>
      <use x="402.34375" xlink:href="#BitstreamVeraSans-Roman-6f"/>
      <use x="463.525390625" xlink:href="#BitstreamVeraSans-Roman-63"/>
      <use x="518.505859375" xlink:href="#BitstreamVeraSans-Roman-65"/>
      <use x="580.029296875" xlink:href="#BitstreamVeraSans-Roman-61"/>
      <use x="641.30859375" xlink:href="#BitstreamVeraSans-Roman-6e"/>
      <use x="704.6875" xlink:href="#BitstreamVeraSans-Roman-5f"/>
      <use x="754.6875" xlink:href="#BitstreamVeraSans-Roman-74"/>
      <use x="793.896484375" xlink:href="#BitstreamVeraSans-Roman-72"/>
      <use x="835.009765625" xlink:href="#BitstreamVeraSans-Roman-61"/>
      <use x="896.2890625" xlink:href="#BitstreamVeraSans-Roman-63"/>
      <use x="951.26953125" xlink:href="#BitstreamVeraSans-Roman-65"/>
      <use x="1012.79296875" xlink:href="#BitstreamVeraSans-Roman-72"/>
     </g>
    </g>
    <g id="patch_25">
     <path d="M 11.2 96.989062 
L 31.2 96.989062 
L 31.2 89.989062 
L 11.2 89.989062 
z
" style="fill:#a34057;stroke:#000000;stroke-linejoin:miter;"/>
    </g>
    <g id="text_3">
     <!-- ocean_explicit_accel_a -->
     <defs>
      <path d="M 9.421875 75.984375 
L 18.40625 75.984375 
L 18.40625 0 
L 9.421875 0 
z
" id="BitstreamVeraSans-Roman-6c"/>
      <path d="M 54.890625 54.6875 
L 35.109375 28.078125 
L 55.90625 0 
L 45.3125 0 
L 29.390625 21.484375 
L 13.484375 0 
L 2.875 0 
L 24.125 28.609375 
L 4.6875 54.6875 
L 15.28125 54.6875 
L 29.78125 35.203125 
L 44.28125 54.6875 
z
" id="BitstreamVeraSans-Roman-78"/>
     </defs>
     <g transform="translate(39.2 96.9890625)scale(0.1 -0.1)">
      <use xlink:href="#BitstreamVeraSans-Roman-6f"/>
      <use x="61.181640625" xlink:href="#BitstreamVeraSans-Roman-63"/>
      <use x="116.162109375" xlink:href="#BitstreamVeraSans-Roman-65"/>
      <use x="177.685546875" xlink:href="#BitstreamVeraSans-Roman-61"/>
      <use x="238.96484375" xlink:href="#BitstreamVeraSans-Roman-6e"/>
      <use x="302.34375" xlink:href="#BitstreamVeraSans-Roman-5f"/>
      <use x="352.34375" xlink:href="#BitstreamVeraSans-Roman-65"/>
      <use x="413.8515625" xlink:href="#BitstreamVeraSans-Roman-78"/>
      <use x="473.03125" xlink:href="#BitstreamVeraSans-Roman-70"/>
      <use x="536.5078125" xlink:href="#BitstreamVeraSans-Roman-6c"/>
      <use x="564.291015625" xlink:href="#BitstreamVeraSans-Roman-69"/>
      <use x="592.07421875" xlink:href="#BitstreamVeraSans-Roman-63"/>
      <use x="647.0546875" xlink:href="#BitstreamVeraSans-Roman-69"/>
      <use x="674.837890625" xlink:href="#BitstreamVeraSans-Roman-74"/>
      <use x="714.046875" xlink:href="#BitstreamVeraSans-Roman-5f"/>
      <use x="764.046875" xlink:href="#BitstreamVeraSans-Roman-61"/>
      <use x="825.326171875" xlink:href="#BitstreamVeraSans-Roman-63"/>
      <use x="880.306640625" xlink:href="#BitstreamVeraSans-Roman-63"/>
      <use x="935.287109375" xlink:href="#BitstreamVeraSans-Roman-65"/>
      <use x="996.810546875" xlink:href="#BitstreamVeraSans-Roman-6c"/>
      <use x="1024.59375" xlink:href="#BitstreamVeraSans-Roman-5f"/>
      <use x="1074.59375" xlink:href="#BitstreamVeraSans-Roman-61"/>
     </g>
    </g>
    <g id="patch_26">
     <path d="M 11.2 111.945312 
L 31.2 111.945312 
L 31.2 104.945312 
L 11.2 104.945312 
z
" style="fill:#626591;stroke:#000000;stroke-linejoin:miter;"/>
    </g>
    <g id="text_4">
     <!-- vert_mix_coeff -->
     <defs>
      <path d="M 37.109375 75.984375 
L 37.109375 68.5 
L 28.515625 68.5 
Q 23.6875 68.5 21.796875 66.546875 
Q 19.921875 64.59375 19.921875 59.515625 
L 19.921875 54.6875 
L 34.71875 54.6875 
L 34.71875 47.703125 
L 19.921875 47.703125 
L 19.921875 0 
L 10.890625 0 
L 10.890625 47.703125 
L 2.296875 47.703125 
L 2.296875 54.6875 
L 10.890625 54.6875 
L 10.890625 58.5 
Q 10.890625 67.625 15.140625 71.796875 
Q 19.390625 75.984375 28.609375 75.984375 
z
" id="BitstreamVeraSans-Roman-66"/>
      <path d="M 2.984375 54.6875 
L 12.5 54.6875 
L 29.59375 8.796875 
L 46.6875 54.6875 
L 56.203125 54.6875 
L 35.6875 0 
L 23.484375 0 
z
" id="BitstreamVeraSans-Roman-76"/>
     </defs>
     <g transform="translate(39.2 111.9453125)scale(0.1 -0.1)">
      <use xlink:href="#BitstreamVeraSans-Roman-76"/>
      <use x="59.1796875" xlink:href="#BitstreamVeraSans-Roman-65"/>
      <use x="120.703125" xlink:href="#BitstreamVeraSans-Roman-72"/>
      <use x="161.81640625" xlink:href="#BitstreamVeraSans-Roman-74"/>
      <use x="201.025390625" xlink:href="#BitstreamVeraSans-Roman-5f"/>
      <use x="251.025390625" xlink:href="#BitstreamVeraSans-Roman-6d"/>
      <use x="348.4375" xlink:href="#BitstreamVeraSans-Roman-69"/>
      <use x="376.220703125" xlink:href="#BitstreamVeraSans-Roman-78"/>
      <use x="435.400390625" xlink:href="#BitstreamVeraSans-Roman-5f"/>
      <use x="485.400390625" xlink:href="#BitstreamVeraSans-Roman-63"/>
      <use x="540.380859375" xlink:href="#BitstreamVeraSans-Roman-6f"/>
      <use x="601.5625" xlink:href="#BitstreamVeraSans-Roman-65"/>
      <use x="663.0859375" xlink:href="#BitstreamVeraSans-Roman-66"/>
      <use x="698.291015625" xlink:href="#BitstreamVeraSans-Roman-66"/>
     </g>
    </g>
    <g id="patch_27">
     <path d="M 11.2 126.901562 
L 31.2 126.901562 
L 31.2 119.901562 
L 11.2 119.901562 
z
" style="fill:#3a84aa;stroke:#000000;stroke-linejoin:miter;"/>
    </g>
    <g id="text_5">
     <!-- submeso_restrat -->
     <g transform="translate(39.2 126.9015625)scale(0.1 -0.1)">
      <use xlink:href="#BitstreamVeraSans-Roman-73"/>
      <use x="52.099609375" xlink:href="#BitstreamVeraSans-Roman-75"/>
      <use x="115.478515625" xlink:href="#BitstreamVeraSans-Roman-62"/>
      <use x="178.955078125" xlink:href="#BitstreamVeraSans-Roman-6d"/>
      <use x="276.3671875" xlink:href="#BitstreamVeraSans-Roman-65"/>
      <use x="337.890625" xlink:href="#BitstreamVeraSans-Roman-73"/>
      <use x="389.990234375" xlink:href="#BitstreamVeraSans-Roman-6f"/>
      <use x="451.171875" xlink:href="#BitstreamVeraSans-Roman-5f"/>
      <use x="501.171875" xlink:href="#BitstreamVeraSans-Roman-72"/>
      <use x="542.25390625" xlink:href="#BitstreamVeraSans-Roman-65"/>
      <use x="603.77734375" xlink:href="#BitstreamVeraSans-Roman-73"/>
      <use x="655.876953125" xlink:href="#BitstreamVeraSans-Roman-74"/>
      <use x="695.0859375" xlink:href="#BitstreamVeraSans-Roman-72"/>
      <use x="736.19921875" xlink:href="#BitstreamVeraSans-Roman-61"/>
      <use x="797.478515625" xlink:href="#BitstreamVeraSans-Roman-74"/>
     </g>
    </g>
    <g id="patch_28">
     <path d="M 11.2 141.857812 
L 31.2 141.857812 
L 31.2 134.857812 
L 11.2 134.857812 
z
" style="fill:#429780;stroke:#000000;stroke-linejoin:miter;"/>
    </g>
    <g id="text_6">
     <!-- update_ocean_barotropic -->
     <g transform="translate(39.2 141.8578125)scale(0.1 -0.1)">
      <use xlink:href="#BitstreamVeraSans-Roman-75"/>
      <use x="63.37890625" xlink:href="#BitstreamVeraSans-Roman-70"/>
      <use x="126.85546875" xlink:href="#BitstreamVeraSans-Roman-64"/>
      <use x="190.33203125" xlink:href="#BitstreamVeraSans-Roman-61"/>
      <use x="251.611328125" xlink:href="#BitstreamVeraSans-Roman-74"/>
      <use x="290.8203125" xlink:href="#BitstreamVeraSans-Roman-65"/>
      <use x="352.34375" xlink:href="#BitstreamVeraSans-Roman-5f"/>
      <use x="402.34375" xlink:href="#BitstreamVeraSans-Roman-6f"/>
      <use x="463.525390625" xlink:href="#BitstreamVeraSans-Roman-63"/>
      <use x="518.505859375" xlink:href="#BitstreamVeraSans-Roman-65"/>
      <use x="580.029296875" xlink:href="#BitstreamVeraSans-Roman-61"/>
      <use x="641.30859375" xlink:href="#BitstreamVeraSans-Roman-6e"/>
      <use x="704.6875" xlink:href="#BitstreamVeraSans-Roman-5f"/>
      <use x="754.6875" xlink:href="#BitstreamVeraSans-Roman-62"/>
      <use x="818.1640625" xlink:href="#BitstreamVeraSans-Roman-61"/>
      <use x="879.443359375" xlink:href="#BitstreamVeraSans-Roman-72"/>
      <use x="920.525390625" xlink:href="#BitstreamVeraSans-Roman-6f"/>
      <use x="981.70703125" xlink:href="#BitstreamVeraSans-Roman-74"/>
      <use x="1020.916015625" xlink:href="#BitstreamVeraSans-Roman-72"/>
      <use x="1061.998046875" xlink:href="#BitstreamVeraSans-Roman-6f"/>
      <use x="1123.1796875" xlink:href="#BitstreamVeraSans-Roman-70"/>
      <use x="1186.65625" xlink:href="#BitstreamVeraSans-Roman-69"/>
      <use x="1214.439453125" xlink:href="#BitstreamVeraSans-Roman-63"/>
     </g>
    </g>
    <g id="patch_29">
     <path d="M 11.2 156.814062 
L 31.2 156.814062 
L 31.2 149.814062 
L 11.2 149.814062 
z
" style="fill:#4aa957;stroke:#000000;stroke-linejoin:miter;"/>
    </g>
    <g id="text_7">
     <!-- update_ocean_density -->
     <defs>
      <path d="M 32.171875 -5.078125 
Q 28.375 -14.84375 24.75 -17.8125 
Q 21.140625 -20.796875 15.09375 -20.796875 
L 7.90625 -20.796875 
L 7.90625 -13.28125 
L 13.1875 -13.28125 
Q 16.890625 -13.28125 18.9375 -11.515625 
Q 21 -9.765625 23.484375 -3.21875 
L 25.09375 0.875 
L 2.984375 54.6875 
L 12.5 54.6875 
L 29.59375 11.921875 
L 46.6875 54.6875 
L 56.203125 54.6875 
z
" id="BitstreamVeraSans-Roman-79"/>
     </defs>
     <g transform="translate(39.2 156.8140625)scale(0.1 -0.1)">
      <use xlink:href="#BitstreamVeraSans-Roman-75"/>
      <use x="63.37890625" xlink:href="#BitstreamVeraSans-Roman-70"/>
      <use x="126.85546875" xlink:href="#BitstreamVeraSans-Roman-64"/>
      <use x="190.33203125" xlink:href="#BitstreamVeraSans-Roman-61"/>
      <use x="251.611328125" xlink:href="#BitstreamVeraSans-Roman-74"/>
      <use x="290.8203125" xlink:href="#BitstreamVeraSans-Roman-65"/>
      <use x="352.34375" xlink:href="#BitstreamVeraSans-Roman-5f"/>
      <use x="402.34375" xlink:href="#BitstreamVeraSans-Roman-6f"/>
      <use x="463.525390625" xlink:href="#BitstreamVeraSans-Roman-63"/>
      <use x="518.505859375" xlink:href="#BitstreamVeraSans-Roman-65"/>
      <use x="580.029296875" xlink:href="#BitstreamVeraSans-Roman-61"/>
      <use x="641.30859375" xlink:href="#BitstreamVeraSans-Roman-6e"/>
      <use x="704.6875" xlink:href="#BitstreamVeraSans-Roman-5f"/>
      <use x="754.6875" xlink:href="#BitstreamVeraSans-Roman-64"/>
      <use x="818.1640625" xlink:href="#BitstreamVeraSans-Roman-65"/>
      <use x="879.6875" xlink:href="#BitstreamVeraSans-Roman-6e"/>
      <use x="943.06640625" xlink:href="#BitstreamVeraSans-Roman-73"/>
      <use x="995.166015625" xlink:href="#BitstreamVeraSans-Roman-69"/>
      <use x="1022.94921875" xlink:href="#BitstreamVeraSans-Roman-74"/>
      <use x="1062.158203125" xlink:href="#BitstreamVeraSans-Roman-79"/>
     </g>
    </g>
    <g id="patch_30">
     <path d="M 11.2 171.770312 
L 31.2 171.770312 
L 31.2 164.770312 
L 11.2 164.770312 
z
" style="fill:#639364;stroke:#000000;stroke-linejoin:miter;"/>
    </g>
    <g id="text_8">
     <!-- ocean_implicit_accel -->
     <g transform="translate(39.2 171.7703125)scale(0.1 -0.1)">
      <use xlink:href="#BitstreamVeraSans-Roman-6f"/>
      <use x="61.181640625" xlink:href="#BitstreamVeraSans-Roman-63"/>
      <use x="116.162109375" xlink:href="#BitstreamVeraSans-Roman-65"/>
      <use x="177.685546875" xlink:href="#BitstreamVeraSans-Roman-61"/>
      <use x="238.96484375" xlink:href="#BitstreamVeraSans-Roman-6e"/>
      <use x="302.34375" xlink:href="#BitstreamVeraSans-Roman-5f"/>
      <use x="352.34375" xlink:href="#BitstreamVeraSans-Roman-69"/>
      <use x="380.126953125" xlink:href="#BitstreamVeraSans-Roman-6d"/>
      <use x="477.5390625" xlink:href="#BitstreamVeraSans-Roman-70"/>
      <use x="541.015625" xlink:href="#BitstreamVeraSans-Roman-6c"/>
      <use x="568.798828125" xlink:href="#BitstreamVeraSans-Roman-69"/>
      <use x="596.58203125" xlink:href="#BitstreamVeraSans-Roman-63"/>
      <use x="651.5625" xlink:href="#BitstreamVeraSans-Roman-69"/>
      <use x="679.345703125" xlink:href="#BitstreamVeraSans-Roman-74"/>
      <use x="718.5546875" xlink:href="#BitstreamVeraSans-Roman-5f"/>
      <use x="768.5546875" xlink:href="#BitstreamVeraSans-Roman-61"/>
      <use x="829.833984375" xlink:href="#BitstreamVeraSans-Roman-63"/>
      <use x="884.814453125" xlink:href="#BitstreamVeraSans-Roman-63"/>
      <use x="939.794921875" xlink:href="#BitstreamVeraSans-Roman-65"/>
      <use x="1001.318359375" xlink:href="#BitstreamVeraSans-Roman-6c"/>
     </g>
    </g>
    <g id="patch_31">
     <path d="M 11.2 186.726562 
L 31.2 186.726562 
L 31.2 179.726562 
L 11.2 179.726562 
z
" style="fill:#7f6e85;stroke:#000000;stroke-linejoin:miter;"/>
    </g>
    <g id="text_9">
     <!-- update_ucell_thickness -->
     <defs>
      <path d="M 54.890625 33.015625 
L 54.890625 0 
L 45.90625 0 
L 45.90625 32.71875 
Q 45.90625 40.484375 42.875 44.328125 
Q 39.84375 48.1875 33.796875 48.1875 
Q 26.515625 48.1875 22.3125 43.546875 
Q 18.109375 38.921875 18.109375 30.90625 
L 18.109375 0 
L 9.078125 0 
L 9.078125 75.984375 
L 18.109375 75.984375 
L 18.109375 46.1875 
Q 21.34375 51.125 25.703125 53.5625 
Q 30.078125 56 35.796875 56 
Q 45.21875 56 50.046875 50.171875 
Q 54.890625 44.34375 54.890625 33.015625 
" id="BitstreamVeraSans-Roman-68"/>
      <path d="M 9.078125 75.984375 
L 18.109375 75.984375 
L 18.109375 31.109375 
L 44.921875 54.6875 
L 56.390625 54.6875 
L 27.390625 29.109375 
L 57.625 0 
L 45.90625 0 
L 18.109375 26.703125 
L 18.109375 0 
L 9.078125 0 
z
" id="BitstreamVeraSans-Roman-6b"/>
     </defs>
     <g transform="translate(39.2 186.7265625)scale(0.1 -0.1)">
      <use xlink:href="#BitstreamVeraSans-Roman-75"/>
      <use x="63.37890625" xlink:href="#BitstreamVeraSans-Roman-70"/>
      <use x="126.85546875" xlink:href="#BitstreamVeraSans-Roman-64"/>
      <use x="190.33203125" xlink:href="#BitstreamVeraSans-Roman-61"/>
      <use x="251.611328125" xlink:href="#BitstreamVeraSans-Roman-74"/>
      <use x="290.8203125" xlink:href="#BitstreamVeraSans-Roman-65"/>
      <use x="352.34375" xlink:href="#BitstreamVeraSans-Roman-5f"/>
      <use x="402.34375" xlink:href="#BitstreamVeraSans-Roman-75"/>
      <use x="465.72265625" xlink:href="#BitstreamVeraSans-Roman-63"/>
      <use x="520.703125" xlink:href="#BitstreamVeraSans-Roman-65"/>
      <use x="582.2265625" xlink:href="#BitstreamVeraSans-Roman-6c"/>
      <use x="610.009765625" xlink:href="#BitstreamVeraSans-Roman-6c"/>
      <use x="637.79296875" xlink:href="#BitstreamVeraSans-Roman-5f"/>
      <use x="687.79296875" xlink:href="#BitstreamVeraSans-Roman-74"/>
      <use x="727.001953125" xlink:href="#BitstreamVeraSans-Roman-68"/>
      <use x="790.380859375" xlink:href="#BitstreamVeraSans-Roman-69"/>
      <use x="818.1640625" xlink:href="#BitstreamVeraSans-Roman-63"/>
      <use x="873.14453125" xlink:href="#BitstreamVeraSans-Roman-6b"/>
      <use x="931.0546875" xlink:href="#BitstreamVeraSans-Roman-6e"/>
      <use x="994.43359375" xlink:href="#BitstreamVeraSans-Roman-65"/>
      <use x="1055.95703125" xlink:href="#BitstreamVeraSans-Roman-73"/>
      <use x="1108.056640625" xlink:href="#BitstreamVeraSans-Roman-73"/>
     </g>
    </g>
    <g id="patch_32">
     <path d="M 11.2 201.682812 
L 31.2 201.682812 
L 31.2 194.682812 
L 11.2 194.682812 
z
" style="fill:#9c509c;stroke:#000000;stroke-linejoin:miter;"/>
    </g>
    <g id="text_10">
     <!-- ocean_eta_smooth -->
     <g transform="translate(39.2 201.6828125)scale(0.1 -0.1)">
      <use xlink:href="#BitstreamVeraSans-Roman-6f"/>
      <use x="61.181640625" xlink:href="#BitstreamVeraSans-Roman-63"/>
      <use x="116.162109375" xlink:href="#BitstreamVeraSans-Roman-65"/>
      <use x="177.685546875" xlink:href="#BitstreamVeraSans-Roman-61"/>
      <use x="238.96484375" xlink:href="#BitstreamVeraSans-Roman-6e"/>
      <use x="302.34375" xlink:href="#BitstreamVeraSans-Roman-5f"/>
      <use x="352.34375" xlink:href="#BitstreamVeraSans-Roman-65"/>
      <use x="413.8671875" xlink:href="#BitstreamVeraSans-Roman-74"/>
      <use x="453.076171875" xlink:href="#BitstreamVeraSans-Roman-61"/>
      <use x="514.35546875" xlink:href="#BitstreamVeraSans-Roman-5f"/>
      <use x="564.35546875" xlink:href="#BitstreamVeraSans-Roman-73"/>
      <use x="616.455078125" xlink:href="#BitstreamVeraSans-Roman-6d"/>
      <use x="713.8671875" xlink:href="#BitstreamVeraSans-Roman-6f"/>
      <use x="775.048828125" xlink:href="#BitstreamVeraSans-Roman-6f"/>
      <use x="836.23046875" xlink:href="#BitstreamVeraSans-Roman-74"/>
      <use x="875.439453125" xlink:href="#BitstreamVeraSans-Roman-68"/>
     </g>
    </g>
    <g id="patch_33">
     <path d="M 11.2 216.639062 
L 31.2 216.639062 
L 31.2 209.639062 
L 11.2 209.639062 
z
" style="fill:#c3635f;stroke:#000000;stroke-linejoin:miter;"/>
    </g>
    <g id="text_11">
     <!-- sw_source -->
     <defs>
      <path d="M 4.203125 54.6875 
L 13.1875 54.6875 
L 24.421875 12.015625 
L 35.59375 54.6875 
L 46.1875 54.6875 
L 57.421875 12.015625 
L 68.609375 54.6875 
L 77.59375 54.6875 
L 63.28125 0 
L 52.6875 0 
L 40.921875 44.828125 
L 29.109375 0 
L 18.5 0 
z
" id="BitstreamVeraSans-Roman-77"/>
     </defs>
     <g transform="translate(39.2 216.6390625)scale(0.1 -0.1)">
      <use xlink:href="#BitstreamVeraSans-Roman-73"/>
      <use x="52.099609375" xlink:href="#BitstreamVeraSans-Roman-77"/>
      <use x="133.88671875" xlink:href="#BitstreamVeraSans-Roman-5f"/>
      <use x="183.88671875" xlink:href="#BitstreamVeraSans-Roman-73"/>
      <use x="235.986328125" xlink:href="#BitstreamVeraSans-Roman-6f"/>
      <use x="297.16796875" xlink:href="#BitstreamVeraSans-Roman-75"/>
      <use x="360.546875" xlink:href="#BitstreamVeraSans-Roman-72"/>
      <use x="401.62890625" xlink:href="#BitstreamVeraSans-Roman-63"/>
      <use x="456.609375" xlink:href="#BitstreamVeraSans-Roman-65"/>
     </g>
    </g>
    <g id="patch_34">
     <path d="M 11.2 231.595312 
L 31.2 231.595312 
L 31.2 224.595312 
L 11.2 224.595312 
z
" style="fill:#ea7521;stroke:#000000;stroke-linejoin:miter;"/>
    </g>
    <g id="text_12">
     <!-- update_ocean_velocity_bgrid -->
     <defs>
      <path d="M 45.40625 27.984375 
Q 45.40625 37.75 41.375 43.109375 
Q 37.359375 48.484375 30.078125 48.484375 
Q 22.859375 48.484375 18.828125 43.109375 
Q 14.796875 37.75 14.796875 27.984375 
Q 14.796875 18.265625 18.828125 12.890625 
Q 22.859375 7.515625 30.078125 7.515625 
Q 37.359375 7.515625 41.375 12.890625 
Q 45.40625 18.265625 45.40625 27.984375 
M 54.390625 6.78125 
Q 54.390625 -7.171875 48.1875 -13.984375 
Q 42 -20.796875 29.203125 -20.796875 
Q 24.46875 -20.796875 20.265625 -20.09375 
Q 16.0625 -19.390625 12.109375 -17.921875 
L 12.109375 -9.1875 
Q 16.0625 -11.328125 19.921875 -12.34375 
Q 23.78125 -13.375 27.78125 -13.375 
Q 36.625 -13.375 41.015625 -8.765625 
Q 45.40625 -4.15625 45.40625 5.171875 
L 45.40625 9.625 
Q 42.625 4.78125 38.28125 2.390625 
Q 33.9375 0 27.875 0 
Q 17.828125 0 11.671875 7.65625 
Q 5.515625 15.328125 5.515625 27.984375 
Q 5.515625 40.671875 11.671875 48.328125 
Q 17.828125 56 27.875 56 
Q 33.9375 56 38.28125 53.609375 
Q 42.625 51.21875 45.40625 46.390625 
L 45.40625 54.6875 
L 54.390625 54.6875 
z
" id="BitstreamVeraSans-Roman-67"/>
     </defs>
     <g transform="translate(39.2 231.5953125)scale(0.1 -0.1)">
      <use xlink:href="#BitstreamVeraSans-Roman-75"/>
      <use x="63.37890625" xlink:href="#BitstreamVeraSans-Roman-70"/>
      <use x="126.85546875" xlink:href="#BitstreamVeraSans-Roman-64"/>
      <use x="190.33203125" xlink:href="#BitstreamVeraSans-Roman-61"/>
      <use x="251.611328125" xlink:href="#BitstreamVeraSans-Roman-74"/>
      <use x="290.8203125" xlink:href="#BitstreamVeraSans-Roman-65"/>
      <use x="352.34375" xlink:href="#BitstreamVeraSans-Roman-5f"/>
      <use x="402.34375" xlink:href="#BitstreamVeraSans-Roman-6f"/>
      <use x="463.525390625" xlink:href="#BitstreamVeraSans-Roman-63"/>
      <use x="518.505859375" xlink:href="#BitstreamVeraSans-Roman-65"/>
      <use x="580.029296875" xlink:href="#BitstreamVeraSans-Roman-61"/>
      <use x="641.30859375" xlink:href="#BitstreamVeraSans-Roman-6e"/>
      <use x="704.6875" xlink:href="#BitstreamVeraSans-Roman-5f"/>
      <use x="754.6875" xlink:href="#BitstreamVeraSans-Roman-76"/>
      <use x="813.8671875" xlink:href="#BitstreamVeraSans-Roman-65"/>
      <use x="875.390625" xlink:href="#BitstreamVeraSans-Roman-6c"/>
      <use x="903.173828125" xlink:href="#BitstreamVeraSans-Roman-6f"/>
      <use x="964.35546875" xlink:href="#BitstreamVeraSans-Roman-63"/>
      <use x="1019.3359375" xlink:href="#BitstreamVeraSans-Roman-69"/>
      <use x="1047.119140625" xlink:href="#BitstreamVeraSans-Roman-74"/>
      <use x="1086.328125" xlink:href="#BitstreamVeraSans-Roman-79"/>
      <use x="1145.5078125" xlink:href="#BitstreamVeraSans-Roman-5f"/>
      <use x="1195.5078125" xlink:href="#BitstreamVeraSans-Roman-62"/>
      <use x="1258.984375" xlink:href="#BitstreamVeraSans-Roman-67"/>
      <use x="1322.4609375" xlink:href="#BitstreamVeraSans-Roman-72"/>
      <use x="1363.57421875" xlink:href="#BitstreamVeraSans-Roman-69"/>
      <use x="1391.357421875" xlink:href="#BitstreamVeraSans-Roman-64"/>
     </g>
    </g>
    <g id="patch_35">
     <path d="M 11.2 246.551562 
L 31.2 246.551562 
L 31.2 239.551562 
L 11.2 239.551562 
z
" style="fill:#ff990a;stroke:#000000;stroke-linejoin:miter;"/>
    </g>
    <g id="text_13">
     <!-- ocean_advection_velocity -->
     <g transform="translate(39.2 246.5515625)scale(0.1 -0.1)">
      <use xlink:href="#BitstreamVeraSans-Roman-6f"/>
      <use x="61.181640625" xlink:href="#BitstreamVeraSans-Roman-63"/>
      <use x="116.162109375" xlink:href="#BitstreamVeraSans-Roman-65"/>
      <use x="177.685546875" xlink:href="#BitstreamVeraSans-Roman-61"/>
      <use x="238.96484375" xlink:href="#BitstreamVeraSans-Roman-6e"/>
      <use x="302.34375" xlink:href="#BitstreamVeraSans-Roman-5f"/>
      <use x="352.34375" xlink:href="#BitstreamVeraSans-Roman-61"/>
      <use x="413.623046875" xlink:href="#BitstreamVeraSans-Roman-64"/>
      <use x="477.099609375" xlink:href="#BitstreamVeraSans-Roman-76"/>
      <use x="536.279296875" xlink:href="#BitstreamVeraSans-Roman-65"/>
      <use x="597.802734375" xlink:href="#BitstreamVeraSans-Roman-63"/>
      <use x="652.783203125" xlink:href="#BitstreamVeraSans-Roman-74"/>
      <use x="691.9921875" xlink:href="#BitstreamVeraSans-Roman-69"/>
      <use x="719.775390625" xlink:href="#BitstreamVeraSans-Roman-6f"/>
      <use x="780.95703125" xlink:href="#BitstreamVeraSans-Roman-6e"/>
      <use x="844.3359375" xlink:href="#BitstreamVeraSans-Roman-5f"/>
      <use x="894.3359375" xlink:href="#BitstreamVeraSans-Roman-76"/>
      <use x="953.515625" xlink:href="#BitstreamVeraSans-Roman-65"/>
      <use x="1015.0390625" xlink:href="#BitstreamVeraSans-Roman-6c"/>
      <use x="1042.822265625" xlink:href="#BitstreamVeraSans-Roman-6f"/>
      <use x="1104.00390625" xlink:href="#BitstreamVeraSans-Roman-63"/>
      <use x="1158.984375" xlink:href="#BitstreamVeraSans-Roman-69"/>
      <use x="1186.767578125" xlink:href="#BitstreamVeraSans-Roman-74"/>
      <use x="1225.9765625" xlink:href="#BitstreamVeraSans-Roman-79"/>
     </g>
    </g>
    <g id="patch_36">
     <path d="M 11.2 261.507812 
L 31.2 261.507812 
L 31.2 254.507812 
L 11.2 254.507812 
z
" style="fill:#ffc91e;stroke:#000000;stroke-linejoin:miter;"/>
    </g>
    <g id="text_14">
     <!-- update_tcell_thickness -->
     <g transform="translate(39.2 261.5078125)scale(0.1 -0.1)">
      <use xlink:href="#BitstreamVeraSans-Roman-75"/>
      <use x="63.37890625" xlink:href="#BitstreamVeraSans-Roman-70"/>
      <use x="126.85546875" xlink:href="#BitstreamVeraSans-Roman-64"/>
      <use x="190.33203125" xlink:href="#BitstreamVeraSans-Roman-61"/>
      <use x="251.611328125" xlink:href="#BitstreamVeraSans-Roman-74"/>
      <use x="290.8203125" xlink:href="#BitstreamVeraSans-Roman-65"/>
      <use x="352.34375" xlink:href="#BitstreamVeraSans-Roman-5f"/>
      <use x="402.34375" xlink:href="#BitstreamVeraSans-Roman-74"/>
      <use x="441.552734375" xlink:href="#BitstreamVeraSans-Roman-63"/>
      <use x="496.533203125" xlink:href="#BitstreamVeraSans-Roman-65"/>
      <use x="558.056640625" xlink:href="#BitstreamVeraSans-Roman-6c"/>
      <use x="585.83984375" xlink:href="#BitstreamVeraSans-Roman-6c"/>
      <use x="613.623046875" xlink:href="#BitstreamVeraSans-Roman-5f"/>
      <use x="663.623046875" xlink:href="#BitstreamVeraSans-Roman-74"/>
      <use x="702.83203125" xlink:href="#BitstreamVeraSans-Roman-68"/>
      <use x="766.2109375" xlink:href="#BitstreamVeraSans-Roman-69"/>
      <use x="793.994140625" xlink:href="#BitstreamVeraSans-Roman-63"/>
      <use x="848.974609375" xlink:href="#BitstreamVeraSans-Roman-6b"/>
      <use x="906.884765625" xlink:href="#BitstreamVeraSans-Roman-6e"/>
      <use x="970.263671875" xlink:href="#BitstreamVeraSans-Roman-65"/>
      <use x="1031.787109375" xlink:href="#BitstreamVeraSans-Roman-73"/>
      <use x="1083.88671875" xlink:href="#BitstreamVeraSans-Roman-73"/>
     </g>
    </g>
    <g id="patch_37">
     <path d="M 11.2 276.464062 
L 31.2 276.464062 
L 31.2 269.464062 
L 11.2 269.464062 
z
" style="fill:#fff931;stroke:#000000;stroke-linejoin:miter;"/>
    </g>
    <g id="text_15">
     <!-- ocean_density_diag -->
     <g transform="translate(39.2 276.4640625)scale(0.1 -0.1)">
      <use xlink:href="#BitstreamVeraSans-Roman-6f"/>
      <use x="61.181640625" xlink:href="#BitstreamVeraSans-Roman-63"/>
      <use x="116.162109375" xlink:href="#BitstreamVeraSans-Roman-65"/>
      <use x="177.685546875" xlink:href="#BitstreamVeraSans-Roman-61"/>
      <use x="238.96484375" xlink:href="#BitstreamVeraSans-Roman-6e"/>
      <use x="302.34375" xlink:href="#BitstreamVeraSans-Roman-5f"/>
      <use x="352.34375" xlink:href="#BitstreamVeraSans-Roman-64"/>
      <use x="415.8203125" xlink:href="#BitstreamVeraSans-Roman-65"/>
      <use x="477.34375" xlink:href="#BitstreamVeraSans-Roman-6e"/>
      <use x="540.72265625" xlink:href="#BitstreamVeraSans-Roman-73"/>
      <use x="592.822265625" xlink:href="#BitstreamVeraSans-Roman-69"/>
      <use x="620.60546875" xlink:href="#BitstreamVeraSans-Roman-74"/>
      <use x="659.814453125" xlink:href="#BitstreamVeraSans-Roman-79"/>
      <use x="718.994140625" xlink:href="#BitstreamVeraSans-Roman-5f"/>
      <use x="768.994140625" xlink:href="#BitstreamVeraSans-Roman-64"/>
      <use x="832.470703125" xlink:href="#BitstreamVeraSans-Roman-69"/>
      <use x="860.25390625" xlink:href="#BitstreamVeraSans-Roman-61"/>
      <use x="921.533203125" xlink:href="#BitstreamVeraSans-Roman-67"/>
     </g>
    </g>
    <g id="patch_38">
     <path d="M 11.2 291.420312 
L 31.2 291.420312 
L 31.2 284.420312 
L 11.2 284.420312 
z
" style="fill:#e1c72f;stroke:#000000;stroke-linejoin:miter;"/>
    </g>
    <g id="text_16">
     <!-- get_ocean_sbc -->
     <g transform="translate(39.2 291.4203125)scale(0.1 -0.1)">
      <use xlink:href="#BitstreamVeraSans-Roman-67"/>
      <use x="63.4765625" xlink:href="#BitstreamVeraSans-Roman-65"/>
      <use x="125.0" xlink:href="#BitstreamVeraSans-Roman-74"/>
      <use x="164.208984375" xlink:href="#BitstreamVeraSans-Roman-5f"/>
      <use x="214.208984375" xlink:href="#BitstreamVeraSans-Roman-6f"/>
      <use x="275.390625" xlink:href="#BitstreamVeraSans-Roman-63"/>
      <use x="330.37109375" xlink:href="#BitstreamVeraSans-Roman-65"/>
      <use x="391.89453125" xlink:href="#BitstreamVeraSans-Roman-61"/>
      <use x="453.173828125" xlink:href="#BitstreamVeraSans-Roman-6e"/>
      <use x="516.552734375" xlink:href="#BitstreamVeraSans-Roman-5f"/>
      <use x="566.552734375" xlink:href="#BitstreamVeraSans-Roman-73"/>
      <use x="618.65234375" xlink:href="#BitstreamVeraSans-Roman-62"/>
      <use x="682.12890625" xlink:href="#BitstreamVeraSans-Roman-63"/>
     </g>
    </g>
    <g id="patch_39">
     <path d="M 11.2 306.376562 
L 31.2 306.376562 
L 31.2 299.376562 
L 11.2 299.376562 
z
" style="fill:#c0872b;stroke:#000000;stroke-linejoin:miter;"/>
    </g>
    <g id="text_17">
     <!-- ocean_diagnostics -->
     <g transform="translate(39.2 306.3765625)scale(0.1 -0.1)">
      <use xlink:href="#BitstreamVeraSans-Roman-6f"/>
      <use x="61.181640625" xlink:href="#BitstreamVeraSans-Roman-63"/>
      <use x="116.162109375" xlink:href="#BitstreamVeraSans-Roman-65"/>
      <use x="177.685546875" xlink:href="#BitstreamVeraSans-Roman-61"/>
      <use x="238.96484375" xlink:href="#BitstreamVeraSans-Roman-6e"/>
      <use x="302.34375" xlink:href="#BitstreamVeraSans-Roman-5f"/>
      <use x="352.34375" xlink:href="#BitstreamVeraSans-Roman-64"/>
      <use x="415.8203125" xlink:href="#BitstreamVeraSans-Roman-69"/>
      <use x="443.603515625" xlink:href="#BitstreamVeraSans-Roman-61"/>
      <use x="504.8828125" xlink:href="#BitstreamVeraSans-Roman-67"/>
      <use x="568.359375" xlink:href="#BitstreamVeraSans-Roman-6e"/>
      <use x="631.73828125" xlink:href="#BitstreamVeraSans-Roman-6f"/>
      <use x="692.919921875" xlink:href="#BitstreamVeraSans-Roman-73"/>
      <use x="745.01953125" xlink:href="#BitstreamVeraSans-Roman-74"/>
      <use x="784.228515625" xlink:href="#BitstreamVeraSans-Roman-69"/>
      <use x="812.01171875" xlink:href="#BitstreamVeraSans-Roman-63"/>
      <use x="866.9921875" xlink:href="#BitstreamVeraSans-Roman-73"/>
     </g>
    </g>
    <g id="patch_40">
     <path d="M 11.2 321.332812 
L 31.2 321.332812 
L 31.2 314.332812 
L 11.2 314.332812 
z
" style="fill:#b05b3a;stroke:#000000;stroke-linejoin:miter;"/>
    </g>
    <g id="text_18">
     <!-- ocean_explicit_accel_b -->
     <g transform="translate(39.2 321.3328125)scale(0.1 -0.1)">
      <use xlink:href="#BitstreamVeraSans-Roman-6f"/>
      <use x="61.181640625" xlink:href="#BitstreamVeraSans-Roman-63"/>
      <use x="116.162109375" xlink:href="#BitstreamVeraSans-Roman-65"/>
      <use x="177.685546875" xlink:href="#BitstreamVeraSans-Roman-61"/>
      <use x="238.96484375" xlink:href="#BitstreamVeraSans-Roman-6e"/>
      <use x="302.34375" xlink:href="#BitstreamVeraSans-Roman-5f"/>
      <use x="352.34375" xlink:href="#BitstreamVeraSans-Roman-65"/>
      <use x="413.8515625" xlink:href="#BitstreamVeraSans-Roman-78"/>
      <use x="473.03125" xlink:href="#BitstreamVeraSans-Roman-70"/>
      <use x="536.5078125" xlink:href="#BitstreamVeraSans-Roman-6c"/>
      <use x="564.291015625" xlink:href="#BitstreamVeraSans-Roman-69"/>
      <use x="592.07421875" xlink:href="#BitstreamVeraSans-Roman-63"/>
      <use x="647.0546875" xlink:href="#BitstreamVeraSans-Roman-69"/>
      <use x="674.837890625" xlink:href="#BitstreamVeraSans-Roman-74"/>
      <use x="714.046875" xlink:href="#BitstreamVeraSans-Roman-5f"/>
      <use x="764.046875" xlink:href="#BitstreamVeraSans-Roman-61"/>
      <use x="825.326171875" xlink:href="#BitstreamVeraSans-Roman-63"/>
      <use x="880.306640625" xlink:href="#BitstreamVeraSans-Roman-63"/>
      <use x="935.287109375" xlink:href="#BitstreamVeraSans-Roman-65"/>
      <use x="996.810546875" xlink:href="#BitstreamVeraSans-Roman-6c"/>
      <use x="1024.59375" xlink:href="#BitstreamVeraSans-Roman-5f"/>
      <use x="1074.59375" xlink:href="#BitstreamVeraSans-Roman-62"/>
     </g>
    </g>
    <g id="patch_41">
     <path d="M 11.2 336.289062 
L 31.2 336.289062 
L 31.2 329.289062 
L 11.2 329.289062 
z
" style="fill:#ce6b73;stroke:#000000;stroke-linejoin:miter;"/>
    </g>
    <g id="text_19">
     <!-- compute_tmask_limit -->
     <g transform="translate(39.2 336.2890625)scale(0.1 -0.1)">
      <use xlink:href="#BitstreamVeraSans-Roman-63"/>
      <use x="54.98046875" xlink:href="#BitstreamVeraSans-Roman-6f"/>
      <use x="116.162109375" xlink:href="#BitstreamVeraSans-Roman-6d"/>
      <use x="213.57421875" xlink:href="#BitstreamVeraSans-Roman-70"/>
      <use x="277.05078125" xlink:href="#BitstreamVeraSans-Roman-75"/>
      <use x="340.4296875" xlink:href="#BitstreamVeraSans-Roman-74"/>
      <use x="379.638671875" xlink:href="#BitstreamVeraSans-Roman-65"/>
      <use x="441.162109375" xlink:href="#BitstreamVeraSans-Roman-5f"/>
      <use x="491.162109375" xlink:href="#BitstreamVeraSans-Roman-74"/>
      <use x="530.37109375" xlink:href="#BitstreamVeraSans-Roman-6d"/>
      <use x="627.783203125" xlink:href="#BitstreamVeraSans-Roman-61"/>
      <use x="689.0625" xlink:href="#BitstreamVeraSans-Roman-73"/>
      <use x="741.162109375" xlink:href="#BitstreamVeraSans-Roman-6b"/>
      <use x="799.072265625" xlink:href="#BitstreamVeraSans-Roman-5f"/>
      <use x="849.072265625" xlink:href="#BitstreamVeraSans-Roman-6c"/>
      <use x="876.85546875" xlink:href="#BitstreamVeraSans-Roman-69"/>
      <use x="904.638671875" xlink:href="#BitstreamVeraSans-Roman-6d"/>
      <use x="1002.05078125" xlink:href="#BitstreamVeraSans-Roman-69"/>
      <use x="1029.833984375" xlink:href="#BitstreamVeraSans-Roman-74"/>
     </g>
    </g>
    <g id="patch_42">
     <path d="M 11.2 351.245312 
L 31.2 351.245312 
L 31.2 344.245312 
L 11.2 344.245312 
z
" style="fill:#ed7bab;stroke:#000000;stroke-linejoin:miter;"/>
    </g>
    <g id="text_20">
     <!-- eta_and_pbot_diagnose -->
     <g transform="translate(39.2 351.2453125)scale(0.1 -0.1)">
      <use xlink:href="#BitstreamVeraSans-Roman-65"/>
      <use x="61.5234375" xlink:href="#BitstreamVeraSans-Roman-74"/>
      <use x="100.732421875" xlink:href="#BitstreamVeraSans-Roman-61"/>
      <use x="162.01171875" xlink:href="#BitstreamVeraSans-Roman-5f"/>
      <use x="212.01171875" xlink:href="#BitstreamVeraSans-Roman-61"/>
      <use x="273.291015625" xlink:href="#BitstreamVeraSans-Roman-6e"/>
      <use x="336.669921875" xlink:href="#BitstreamVeraSans-Roman-64"/>
      <use x="400.146484375" xlink:href="#BitstreamVeraSans-Roman-5f"/>
      <use x="450.146484375" xlink:href="#BitstreamVeraSans-Roman-70"/>
      <use x="513.623046875" xlink:href="#BitstreamVeraSans-Roman-62"/>
      <use x="577.099609375" xlink:href="#BitstreamVeraSans-Roman-6f"/>
      <use x="638.28125" xlink:href="#BitstreamVeraSans-Roman-74"/>
      <use x="677.490234375" xlink:href="#BitstreamVeraSans-Roman-5f"/>
      <use x="727.490234375" xlink:href="#BitstreamVeraSans-Roman-64"/>
      <use x="790.966796875" xlink:href="#BitstreamVeraSans-Roman-69"/>
      <use x="818.75" xlink:href="#BitstreamVeraSans-Roman-61"/>
      <use x="880.029296875" xlink:href="#BitstreamVeraSans-Roman-67"/>
      <use x="943.505859375" xlink:href="#BitstreamVeraSans-Roman-6e"/>
      <use x="1006.884765625" xlink:href="#BitstreamVeraSans-Roman-6f"/>
      <use x="1068.06640625" xlink:href="#BitstreamVeraSans-Roman-73"/>
      <use x="1120.166015625" xlink:href="#BitstreamVeraSans-Roman-65"/>
     </g>
    </g>
    <g id="patch_43">
     <path d="M 11.2 366.201562 
L 31.2 366.201562 
L 31.2 359.201562 
L 11.2 359.201562 
z
" style="fill:#e087b6;stroke:#000000;stroke-linejoin:miter;"/>
    </g>
    <g id="text_21">
     <!-- ocean_barotropic_forcing -->
     <g transform="translate(39.2 366.2015625)scale(0.1 -0.1)">
      <use xlink:href="#BitstreamVeraSans-Roman-6f"/>
      <use x="61.181640625" xlink:href="#BitstreamVeraSans-Roman-63"/>
      <use x="116.162109375" xlink:href="#BitstreamVeraSans-Roman-65"/>
      <use x="177.685546875" xlink:href="#BitstreamVeraSans-Roman-61"/>
      <use x="238.96484375" xlink:href="#BitstreamVeraSans-Roman-6e"/>
      <use x="302.34375" xlink:href="#BitstreamVeraSans-Roman-5f"/>
      <use x="352.34375" xlink:href="#BitstreamVeraSans-Roman-62"/>
      <use x="415.8203125" xlink:href="#BitstreamVeraSans-Roman-61"/>
      <use x="477.099609375" xlink:href="#BitstreamVeraSans-Roman-72"/>
      <use x="518.181640625" xlink:href="#BitstreamVeraSans-Roman-6f"/>
      <use x="579.36328125" xlink:href="#BitstreamVeraSans-Roman-74"/>
      <use x="618.572265625" xlink:href="#BitstreamVeraSans-Roman-72"/>
      <use x="659.654296875" xlink:href="#BitstreamVeraSans-Roman-6f"/>
      <use x="720.8359375" xlink:href="#BitstreamVeraSans-Roman-70"/>
      <use x="784.3125" xlink:href="#BitstreamVeraSans-Roman-69"/>
      <use x="812.095703125" xlink:href="#BitstreamVeraSans-Roman-63"/>
      <use x="867.076171875" xlink:href="#BitstreamVeraSans-Roman-5f"/>
      <use x="917.076171875" xlink:href="#BitstreamVeraSans-Roman-66"/>
      <use x="952.28125" xlink:href="#BitstreamVeraSans-Roman-6f"/>
      <use x="1013.462890625" xlink:href="#BitstreamVeraSans-Roman-72"/>
      <use x="1054.544921875" xlink:href="#BitstreamVeraSans-Roman-63"/>
      <use x="1109.525390625" xlink:href="#BitstreamVeraSans-Roman-69"/>
      <use x="1137.30859375" xlink:href="#BitstreamVeraSans-Roman-6e"/>
      <use x="1200.6875" xlink:href="#BitstreamVeraSans-Roman-67"/>
     </g>
    </g>
    <g id="patch_44">
     <path d="M 11.2 381.157812 
L 31.2 381.157812 
L 31.2 374.157812 
L 11.2 374.157812 
z
" style="fill:#bc90a7;stroke:#000000;stroke-linejoin:miter;"/>
    </g>
    <g id="text_22">
     <!-- other -->
     <g transform="translate(39.2 381.1578125)scale(0.1 -0.1)">
      <use xlink:href="#BitstreamVeraSans-Roman-6f"/>
      <use x="61.181640625" xlink:href="#BitstreamVeraSans-Roman-74"/>
      <use x="100.390625" xlink:href="#BitstreamVeraSans-Roman-68"/>
      <use x="163.76953125" xlink:href="#BitstreamVeraSans-Roman-65"/>
      <use x="225.29296875" xlink:href="#BitstreamVeraSans-Roman-72"/>
     </g>
    </g>
   </g>
  </g>
 </g>
</svg>
