<?xml version="1.0" encoding="utf-8" standalone="no"?>
<!DOCTYPE svg PUBLIC "-//W3C//DTD SVG 1.1//EN"
  "http://www.w3.org/Graphics/SVG/1.1/DTD/svg11.dtd">
<!-- Created with matplotlib (http://matplotlib.org/) -->
<svg height="434pt" version="1.1" viewBox="0 0 600 434" width="600pt" xmlns="http://www.w3.org/2000/svg" xmlns:xlink="http://www.w3.org/1999/xlink">
 <defs>
  <style type="text/css">
*{stroke-linecap:butt;stroke-linejoin:round;stroke-miterlimit:100000;}
  </style>
 </defs>
 <g id="figure_1">
  <g id="patch_1">
   <path d="M 0 434.7575 
L 600.3 434.7575 
L 600.3 0 
L 0 0 
L 0 434.7575 
z
" style="fill:none;"/>
  </g>
  <g id="axes_1">
   <g id="patch_2">
    <path d="M 554.04 225.9575 
C 554.04 185.133507 539.024029 145.794338 512.046787 115.942763 
C 485.069545 86.091189 448.09343 67.898693 408.640496 65.066176 
L 397.8 225.9575 
L 554.04 225.9575 
z
" style="fill:#e41a1c;stroke:#000000;stroke-linejoin:miter;"/>
   </g>
   <g id="patch_3">
    <path d="M 408.640496 65.066176 
C 383.477688 63.259617 358.261335 67.769681 335.154104 78.209565 
C 312.046873 88.649449 291.728798 104.711913 275.942448 125.019368 
L 397.8 225.9575 
L 408.640496 65.066176 
z
" style="fill:#a34057;stroke:#000000;stroke-linejoin:miter;"/>
   </g>
   <g id="patch_4">
    <path d="M 275.942448 125.019368 
C 259.396767 146.303621 248.351975 171.578629 243.846085 198.468994 
C 239.340196 225.359358 241.518932 252.995431 250.177531 278.779913 
L 397.8 225.9575 
L 275.942448 125.019368 
z
" style="fill:#626591;stroke:#000000;stroke-linejoin:miter;"/>
   </g>
   <g id="patch_5">
    <path d="M 250.177531 278.779913 
C 257.037125 299.207131 267.806268 318.003556 281.843191 334.049047 
C 295.880114 350.094538 312.900329 363.063898 331.889542 372.184239 
L 397.8 225.9575 
L 250.177531 278.779913 
z
" style="fill:#3a84aa;stroke:#000000;stroke-linejoin:miter;"/>
   </g>
   <g id="patch_6">
    <path d="M 331.889542 372.184239 
C 339.155403 375.673964 346.670609 378.58147 354.368603 380.881008 
C 362.066598 383.180547 369.924589 384.865308 377.872984 385.920373 
L 397.8 225.9575 
L 331.889542 372.184239 
z
" style="fill:#429780;stroke:#000000;stroke-linejoin:miter;"/>
   </g>
   <g id="patch_7">
    <path d="M 377.872984 385.920373 
C 384.320124 386.776162 390.812722 387.215798 397.312915 387.236716 
C 403.813108 387.257635 410.308236 386.859795 416.760419 386.045518 
L 397.8 225.9575 
L 377.872984 385.920373 
z
" style="fill:#4aa957;stroke:#000000;stroke-linejoin:miter;"/>
   </g>
   <g id="patch_8">
    <path d="M 416.760419 386.045518 
C 422.461976 385.325971 428.120758 384.28241 433.710985 382.91959 
C 439.301212 381.55677 444.814382 379.876763 450.22538 377.887222 
L 397.8 225.9575 
L 416.760419 386.045518 
z
" style="fill:#639364;stroke:#000000;stroke-linejoin:miter;"/>
   </g>
   <g id="patch_9">
    <path d="M 450.22538 377.887222 
C 454.067615 376.474492 457.854785 374.906995 461.578187 373.188336 
C 465.301589 371.469676 468.958367 369.601172 472.540116 367.587116 
L 397.8 225.9575 
L 450.22538 377.887222 
z
" style="fill:#7f6e85;stroke:#000000;stroke-linejoin:miter;"/>
   </g>
   <g id="patch_10">
    <path d="M 472.540116 367.587116 
C 473.460876 367.069363 474.376564 366.542055 475.28704 366.005273 
C 476.197517 365.468491 477.102735 364.922261 478.002559 364.366667 
L 397.8 225.9575 
L 472.540116 367.587116 
z
" style="fill:#9c509c;stroke:#000000;stroke-linejoin:miter;"/>
   </g>
   <g id="patch_11">
    <path d="M 478.002559 364.366667 
C 481.943755 361.933187 485.779095 359.321515 489.497406 356.539261 
C 493.215716 353.757007 496.813383 350.806875 500.279924 347.697462 
L 397.8 225.9575 
L 478.002559 364.366667 
z
" style="fill:#c3635f;stroke:#000000;stroke-linejoin:miter;"/>
   </g>
   <g id="patch_12">
    <path d="M 500.279924 347.697462 
C 502.551438 345.659961 504.765453 343.555143 506.919197 341.385641 
C 509.07294 339.216139 511.165514 336.982858 513.1943 334.688595 
L 397.8 225.9575 
L 500.279924 347.697462 
z
" style="fill:#ea7521;stroke:#000000;stroke-linejoin:miter;"/>
   </g>
   <g id="patch_13">
    <path d="M 513.1943 334.688595 
C 514.909393 332.749072 516.57834 330.766599 518.199648 328.742948 
C 519.820955 326.719296 521.394141 324.655071 522.917796 322.552118 
L 397.8 225.9575 
L 513.1943 334.688595 
z
" style="fill:#ff990a;stroke:#000000;stroke-linejoin:miter;"/>
   </g>
   <g id="patch_14">
    <path d="M 522.917796 322.552118 
C 524.171409 320.82188 525.391211 319.065813 526.576466 317.284979 
C 527.761721 315.504146 528.912188 313.698906 530.027172 311.870353 
L 397.8 225.9575 
L 522.917796 322.552118 
z
" style="fill:#ffc91e;stroke:#000000;stroke-linejoin:miter;"/>
   </g>
   <g id="patch_15">
    <path d="M 530.027172 311.870353 
C 531.128512 310.064175 532.195012 308.235609 533.226043 306.385736 
C 534.257075 304.535862 535.252433 302.665046 536.211531 300.774392 
L 397.8 225.9575 
L 530.027172 311.870353 
z
" style="fill:#fff931;stroke:#000000;stroke-linejoin:miter;"/>
   </g>
   <g id="patch_16">
    <path d="M 536.211531 300.774392 
C 536.517127 300.171976 536.819028 299.567571 537.117218 298.961214 
C 537.415407 298.354857 537.709878 297.746558 538.000614 297.136356 
L 397.8 225.9575 
L 536.211531 300.774392 
z
" style="fill:#e1c72f;stroke:#000000;stroke-linejoin:miter;"/>
   </g>
   <g id="patch_17">
    <path d="M 538.000614 297.136356 
C 538.781117 295.498219 539.53462 293.846521 540.260797 292.181975 
C 540.986974 290.517429 541.685719 288.840276 542.356732 287.151241 
L 397.8 225.9575 
L 538.000614 297.136356 
z
" style="fill:#c0872b;stroke:#000000;stroke-linejoin:miter;"/>
   </g>
   <g id="patch_18">
    <path d="M 542.356732 287.151241 
C 543.124393 285.218928 543.855622 283.271405 544.550003 281.309775 
C 545.244384 279.348144 545.901788 277.372775 546.521842 275.384787 
L 397.8 225.9575 
L 542.356732 287.151241 
z
" style="fill:#b05b3a;stroke:#000000;stroke-linejoin:miter;"/>
   </g>
   <g id="patch_19">
    <path d="M 546.521842 275.384787 
C 547.247428 273.058443 547.921696 270.715375 548.544121 268.357398 
C 549.166547 265.999421 549.73697 263.627145 550.254948 261.242407 
L 397.8 225.9575 
L 546.521842 275.384787 
z
" style="fill:#ce6b73;stroke:#000000;stroke-linejoin:miter;"/>
   </g>
   <g id="patch_20">
    <path d="M 550.254948 261.242407 
C 550.392646 260.608453 550.526632 259.973646 550.656899 259.338021 
C 550.787165 258.702396 550.91371 258.065964 551.036525 257.428761 
L 397.8 225.9575 
L 550.254948 261.242407 
z
" style="fill:#ed7bab;stroke:#000000;stroke-linejoin:miter;"/>
   </g>
   <g id="patch_21">
    <path d="M 551.036525 257.428761 
C 551.145413 256.863819 551.251368 256.298278 551.354386 255.732164 
C 551.457403 255.16605 551.557482 254.599371 551.654618 254.03215 
L 397.8 225.9575 
L 551.036525 257.428761 
z
" style="fill:#e087b6;stroke:#000000;stroke-linejoin:miter;"/>
   </g>
   <g id="patch_22">
    <path d="M 551.654618 254.03215 
C 552.447846 249.400126 553.044383 244.734496 553.442518 240.048645 
C 553.840652 235.362794 554.040004 230.661205 554.04 225.957365 
L 397.8 225.9575 
L 551.654618 254.03215 
z
" style="fill:#bc90a7;stroke:#000000;stroke-linejoin:miter;"/>
   </g>
   <g id="matplotlib.axis_1"/>
   <g id="matplotlib.axis_2"/>
   <g id="text_1">
    <!-- Ocean subroutine runtimes at 960 CPUs -->
    <defs>
     <path d="M 8.5 21.578125 
L 8.5 54.6875 
L 17.484375 54.6875 
L 17.484375 21.921875 
Q 17.484375 14.15625 20.5 10.265625 
Q 23.53125 6.390625 29.59375 6.390625 
Q 36.859375 6.390625 41.078125 11.03125 
Q 45.3125 15.671875 45.3125 23.6875 
L 45.3125 54.6875 
L 54.296875 54.6875 
L 54.296875 0 
L 45.3125 0 
L 45.3125 8.40625 
Q 42.046875 3.421875 37.71875 1 
Q 33.40625 -1.421875 27.6875 -1.421875 
Q 18.265625 -1.421875 13.375 4.4375 
Q 8.5 10.296875 8.5 21.578125 
" id="BitstreamVeraSans-Roman-75"/>
     <path id="BitstreamVeraSans-Roman-20"/>
     <path d="M 33.015625 40.375 
Q 26.375 40.375 22.484375 35.828125 
Q 18.609375 31.296875 18.609375 23.390625 
Q 18.609375 15.53125 22.484375 10.953125 
Q 26.375 6.390625 33.015625 6.390625 
Q 39.65625 6.390625 43.53125 10.953125 
Q 47.40625 15.53125 47.40625 23.390625 
Q 47.40625 31.296875 43.53125 35.828125 
Q 39.65625 40.375 33.015625 40.375 
M 52.59375 71.296875 
L 52.59375 62.3125 
Q 48.875 64.0625 45.09375 64.984375 
Q 41.3125 65.921875 37.59375 65.921875 
Q 27.828125 65.921875 22.671875 59.328125 
Q 17.53125 52.734375 16.796875 39.40625 
Q 19.671875 43.65625 24.015625 45.921875 
Q 28.375 48.1875 33.59375 48.1875 
Q 44.578125 48.1875 50.953125 41.515625 
Q 57.328125 34.859375 57.328125 23.390625 
Q 57.328125 12.15625 50.6875 5.359375 
Q 44.046875 -1.421875 33.015625 -1.421875 
Q 20.359375 -1.421875 13.671875 8.265625 
Q 6.984375 17.96875 6.984375 36.375 
Q 6.984375 53.65625 15.1875 63.9375 
Q 23.390625 74.21875 37.203125 74.21875 
Q 40.921875 74.21875 44.703125 73.484375 
Q 48.484375 72.75 52.59375 71.296875 
" id="BitstreamVeraSans-Roman-36"/>
     <path d="M 54.890625 33.015625 
L 54.890625 0 
L 45.90625 0 
L 45.90625 32.71875 
Q 45.90625 40.484375 42.875 44.328125 
Q 39.84375 48.1875 33.796875 48.1875 
Q 26.515625 48.1875 22.3125 43.546875 
Q 18.109375 38.921875 18.109375 30.90625 
L 18.109375 0 
L 9.078125 0 
L 9.078125 54.6875 
L 18.109375 54.6875 
L 18.109375 46.1875 
Q 21.34375 51.125 25.703125 53.5625 
Q 30.078125 56 35.796875 56 
Q 45.21875 56 50.046875 50.171875 
Q 54.890625 44.34375 54.890625 33.015625 
" id="BitstreamVeraSans-Roman-6e"/>
     <path d="M 34.28125 27.484375 
Q 23.390625 27.484375 19.1875 25 
Q 14.984375 22.515625 14.984375 16.5 
Q 14.984375 11.71875 18.140625 8.90625 
Q 21.296875 6.109375 26.703125 6.109375 
Q 34.1875 6.109375 38.703125 11.40625 
Q 43.21875 16.703125 43.21875 25.484375 
L 43.21875 27.484375 
z
M 52.203125 31.203125 
L 52.203125 0 
L 43.21875 0 
L 43.21875 8.296875 
Q 40.140625 3.328125 35.546875 0.953125 
Q 30.953125 -1.421875 24.3125 -1.421875 
Q 15.921875 -1.421875 10.953125 3.296875 
Q 6 8.015625 6 15.921875 
Q 6 25.140625 12.171875 29.828125 
Q 18.359375 34.515625 30.609375 34.515625 
L 43.21875 34.515625 
L 43.21875 35.40625 
Q 43.21875 41.609375 39.140625 45 
Q 35.0625 48.390625 27.6875 48.390625 
Q 23 48.390625 18.546875 47.265625 
Q 14.109375 46.140625 10.015625 43.890625 
L 10.015625 52.203125 
Q 14.9375 54.109375 19.578125 55.046875 
Q 24.21875 56 28.609375 56 
Q 40.484375 56 46.34375 49.84375 
Q 52.203125 43.703125 52.203125 31.203125 
" id="BitstreamVeraSans-Roman-61"/>
     <path d="M 41.109375 46.296875 
Q 39.59375 47.171875 37.8125 47.578125 
Q 36.03125 48 33.890625 48 
Q 26.265625 48 22.1875 43.046875 
Q 18.109375 38.09375 18.109375 28.8125 
L 18.109375 0 
L 9.078125 0 
L 9.078125 54.6875 
L 18.109375 54.6875 
L 18.109375 46.1875 
Q 20.953125 51.171875 25.484375 53.578125 
Q 30.03125 56 36.53125 56 
Q 37.453125 56 38.578125 55.875 
Q 39.703125 55.765625 41.0625 55.515625 
z
" id="BitstreamVeraSans-Roman-72"/>
     <path d="M 19.671875 64.796875 
L 19.671875 37.40625 
L 32.078125 37.40625 
Q 38.96875 37.40625 42.71875 40.96875 
Q 46.484375 44.53125 46.484375 51.125 
Q 46.484375 57.671875 42.71875 61.234375 
Q 38.96875 64.796875 32.078125 64.796875 
z
M 9.8125 72.90625 
L 32.078125 72.90625 
Q 44.34375 72.90625 50.609375 67.359375 
Q 56.890625 61.8125 56.890625 51.125 
Q 56.890625 40.328125 50.609375 34.8125 
Q 44.34375 29.296875 32.078125 29.296875 
L 19.671875 29.296875 
L 19.671875 0 
L 9.8125 0 
z
" id="BitstreamVeraSans-Roman-50"/>
     <path d="M 44.28125 53.078125 
L 44.28125 44.578125 
Q 40.484375 46.53125 36.375 47.5 
Q 32.28125 48.484375 27.875 48.484375 
Q 21.1875 48.484375 17.84375 46.4375 
Q 14.5 44.390625 14.5 40.28125 
Q 14.5 37.15625 16.890625 35.375 
Q 19.28125 33.59375 26.515625 31.984375 
L 29.59375 31.296875 
Q 39.15625 29.25 43.1875 25.515625 
Q 47.21875 21.78125 47.21875 15.09375 
Q 47.21875 7.46875 41.1875 3.015625 
Q 35.15625 -1.421875 24.609375 -1.421875 
Q 20.21875 -1.421875 15.453125 -0.5625 
Q 10.6875 0.296875 5.421875 2 
L 5.421875 11.28125 
Q 10.40625 8.6875 15.234375 7.390625 
Q 20.0625 6.109375 24.8125 6.109375 
Q 31.15625 6.109375 34.5625 8.28125 
Q 37.984375 10.453125 37.984375 14.40625 
Q 37.984375 18.0625 35.515625 20.015625 
Q 33.0625 21.96875 24.703125 23.78125 
L 21.578125 24.515625 
Q 13.234375 26.265625 9.515625 29.90625 
Q 5.8125 33.546875 5.8125 39.890625 
Q 5.8125 47.609375 11.28125 51.796875 
Q 16.75 56 26.8125 56 
Q 31.78125 56 36.171875 55.265625 
Q 40.578125 54.546875 44.28125 53.078125 
" id="BitstreamVeraSans-Roman-73"/>
     <path d="M 8.6875 72.90625 
L 18.609375 72.90625 
L 18.609375 28.609375 
Q 18.609375 16.890625 22.84375 11.734375 
Q 27.09375 6.59375 36.625 6.59375 
Q 46.09375 6.59375 50.34375 11.734375 
Q 54.59375 16.890625 54.59375 28.609375 
L 54.59375 72.90625 
L 64.5 72.90625 
L 64.5 27.390625 
Q 64.5 13.140625 57.4375 5.859375 
Q 50.390625 -1.421875 36.625 -1.421875 
Q 22.796875 -1.421875 15.734375 5.859375 
Q 8.6875 13.140625 8.6875 27.390625 
z
" id="BitstreamVeraSans-Roman-55"/>
     <path d="M 48.6875 27.296875 
Q 48.6875 37.203125 44.609375 42.84375 
Q 40.53125 48.484375 33.40625 48.484375 
Q 26.265625 48.484375 22.1875 42.84375 
Q 18.109375 37.203125 18.109375 27.296875 
Q 18.109375 17.390625 22.1875 11.75 
Q 26.265625 6.109375 33.40625 6.109375 
Q 40.53125 6.109375 44.609375 11.75 
Q 48.6875 17.390625 48.6875 27.296875 
M 18.109375 46.390625 
Q 20.953125 51.265625 25.265625 53.625 
Q 29.59375 56 35.59375 56 
Q 45.5625 56 51.78125 48.09375 
Q 58.015625 40.1875 58.015625 27.296875 
Q 58.015625 14.40625 51.78125 6.484375 
Q 45.5625 -1.421875 35.59375 -1.421875 
Q 29.59375 -1.421875 25.265625 0.953125 
Q 20.953125 3.328125 18.109375 8.203125 
L 18.109375 0 
L 9.078125 0 
L 9.078125 75.984375 
L 18.109375 75.984375 
z
" id="BitstreamVeraSans-Roman-62"/>
     <path d="M 52 44.1875 
Q 55.375 50.25 60.0625 53.125 
Q 64.75 56 71.09375 56 
Q 79.640625 56 84.28125 50.015625 
Q 88.921875 44.046875 88.921875 33.015625 
L 88.921875 0 
L 79.890625 0 
L 79.890625 32.71875 
Q 79.890625 40.578125 77.09375 44.375 
Q 74.3125 48.1875 68.609375 48.1875 
Q 61.625 48.1875 57.5625 43.546875 
Q 53.515625 38.921875 53.515625 30.90625 
L 53.515625 0 
L 44.484375 0 
L 44.484375 32.71875 
Q 44.484375 40.625 41.703125 44.40625 
Q 38.921875 48.1875 33.109375 48.1875 
Q 26.21875 48.1875 22.15625 43.53125 
Q 18.109375 38.875 18.109375 30.90625 
L 18.109375 0 
L 9.078125 0 
L 9.078125 54.6875 
L 18.109375 54.6875 
L 18.109375 46.1875 
Q 21.1875 51.21875 25.484375 53.609375 
Q 29.78125 56 35.6875 56 
Q 41.65625 56 45.828125 52.96875 
Q 50 49.953125 52 44.1875 
" id="BitstreamVeraSans-Roman-6d"/>
     <path d="M 10.984375 1.515625 
L 10.984375 10.5 
Q 14.703125 8.734375 18.5 7.8125 
Q 22.3125 6.890625 25.984375 6.890625 
Q 35.75 6.890625 40.890625 13.453125 
Q 46.046875 20.015625 46.78125 33.40625 
Q 43.953125 29.203125 39.59375 26.953125 
Q 35.25 24.703125 29.984375 24.703125 
Q 19.046875 24.703125 12.671875 31.3125 
Q 6.296875 37.9375 6.296875 49.421875 
Q 6.296875 60.640625 12.9375 67.421875 
Q 19.578125 74.21875 30.609375 74.21875 
Q 43.265625 74.21875 49.921875 64.515625 
Q 56.59375 54.828125 56.59375 36.375 
Q 56.59375 19.140625 48.40625 8.859375 
Q 40.234375 -1.421875 26.421875 -1.421875 
Q 22.703125 -1.421875 18.890625 -0.6875 
Q 15.09375 0.046875 10.984375 1.515625 
M 30.609375 32.421875 
Q 37.25 32.421875 41.125 36.953125 
Q 45.015625 41.5 45.015625 49.421875 
Q 45.015625 57.28125 41.125 61.84375 
Q 37.25 66.40625 30.609375 66.40625 
Q 23.96875 66.40625 20.09375 61.84375 
Q 16.21875 57.28125 16.21875 49.421875 
Q 16.21875 41.5 20.09375 36.953125 
Q 23.96875 32.421875 30.609375 32.421875 
" id="BitstreamVeraSans-Roman-39"/>
     <path d="M 64.40625 67.28125 
L 64.40625 56.890625 
Q 59.421875 61.53125 53.78125 63.8125 
Q 48.140625 66.109375 41.796875 66.109375 
Q 29.296875 66.109375 22.65625 58.46875 
Q 16.015625 50.828125 16.015625 36.375 
Q 16.015625 21.96875 22.65625 14.328125 
Q 29.296875 6.6875 41.796875 6.6875 
Q 48.140625 6.6875 53.78125 8.984375 
Q 59.421875 11.28125 64.40625 15.921875 
L 64.40625 5.609375 
Q 59.234375 2.09375 53.4375 0.328125 
Q 47.65625 -1.421875 41.21875 -1.421875 
Q 24.65625 -1.421875 15.125 8.703125 
Q 5.609375 18.84375 5.609375 36.375 
Q 5.609375 53.953125 15.125 64.078125 
Q 24.65625 74.21875 41.21875 74.21875 
Q 47.75 74.21875 53.53125 72.484375 
Q 59.328125 70.75 64.40625 67.28125 
" id="BitstreamVeraSans-Roman-43"/>
     <path d="M 39.40625 66.21875 
Q 28.65625 66.21875 22.328125 58.203125 
Q 16.015625 50.203125 16.015625 36.375 
Q 16.015625 22.609375 22.328125 14.59375 
Q 28.65625 6.59375 39.40625 6.59375 
Q 50.140625 6.59375 56.421875 14.59375 
Q 62.703125 22.609375 62.703125 36.375 
Q 62.703125 50.203125 56.421875 58.203125 
Q 50.140625 66.21875 39.40625 66.21875 
M 39.40625 74.21875 
Q 54.734375 74.21875 63.90625 63.9375 
Q 73.09375 53.65625 73.09375 36.375 
Q 73.09375 19.140625 63.90625 8.859375 
Q 54.734375 -1.421875 39.40625 -1.421875 
Q 24.03125 -1.421875 14.8125 8.828125 
Q 5.609375 19.09375 5.609375 36.375 
Q 5.609375 53.65625 14.8125 63.9375 
Q 24.03125 74.21875 39.40625 74.21875 
" id="BitstreamVeraSans-Roman-4f"/>
     <path d="M 31.78125 66.40625 
Q 24.171875 66.40625 20.328125 58.90625 
Q 16.5 51.421875 16.5 36.375 
Q 16.5 21.390625 20.328125 13.890625 
Q 24.171875 6.390625 31.78125 6.390625 
Q 39.453125 6.390625 43.28125 13.890625 
Q 47.125 21.390625 47.125 36.375 
Q 47.125 51.421875 43.28125 58.90625 
Q 39.453125 66.40625 31.78125 66.40625 
M 31.78125 74.21875 
Q 44.046875 74.21875 50.515625 64.515625 
Q 56.984375 54.828125 56.984375 36.375 
Q 56.984375 17.96875 50.515625 8.265625 
Q 44.046875 -1.421875 31.78125 -1.421875 
Q 19.53125 -1.421875 13.0625 8.265625 
Q 6.59375 17.96875 6.59375 36.375 
Q 6.59375 54.828125 13.0625 64.515625 
Q 19.53125 74.21875 31.78125 74.21875 
" id="BitstreamVeraSans-Roman-30"/>
     <path d="M 56.203125 29.59375 
L 56.203125 25.203125 
L 14.890625 25.203125 
Q 15.484375 15.921875 20.484375 11.0625 
Q 25.484375 6.203125 34.421875 6.203125 
Q 39.59375 6.203125 44.453125 7.46875 
Q 49.3125 8.734375 54.109375 11.28125 
L 54.109375 2.78125 
Q 49.265625 0.734375 44.1875 -0.34375 
Q 39.109375 -1.421875 33.890625 -1.421875 
Q 20.796875 -1.421875 13.15625 6.1875 
Q 5.515625 13.8125 5.515625 26.8125 
Q 5.515625 40.234375 12.765625 48.109375 
Q 20.015625 56 32.328125 56 
Q 43.359375 56 49.78125 48.890625 
Q 56.203125 41.796875 56.203125 29.59375 
M 47.21875 32.234375 
Q 47.125 39.59375 43.09375 43.984375 
Q 39.0625 48.390625 32.421875 48.390625 
Q 24.90625 48.390625 20.390625 44.140625 
Q 15.875 39.890625 15.1875 32.171875 
z
" id="BitstreamVeraSans-Roman-65"/>
     <path d="M 48.78125 52.59375 
L 48.78125 44.1875 
Q 44.96875 46.296875 41.140625 47.34375 
Q 37.3125 48.390625 33.40625 48.390625 
Q 24.65625 48.390625 19.8125 42.84375 
Q 14.984375 37.3125 14.984375 27.296875 
Q 14.984375 17.28125 19.8125 11.734375 
Q 24.65625 6.203125 33.40625 6.203125 
Q 37.3125 6.203125 41.140625 7.25 
Q 44.96875 8.296875 48.78125 10.40625 
L 48.78125 2.09375 
Q 45.015625 0.34375 40.984375 -0.53125 
Q 36.96875 -1.421875 32.421875 -1.421875 
Q 20.0625 -1.421875 12.78125 6.34375 
Q 5.515625 14.109375 5.515625 27.296875 
Q 5.515625 40.671875 12.859375 48.328125 
Q 20.21875 56 33.015625 56 
Q 37.15625 56 41.109375 55.140625 
Q 45.0625 54.296875 48.78125 52.59375 
" id="BitstreamVeraSans-Roman-63"/>
     <path d="M 9.421875 54.6875 
L 18.40625 54.6875 
L 18.40625 0 
L 9.421875 0 
z
M 9.421875 75.984375 
L 18.40625 75.984375 
L 18.40625 64.59375 
L 9.421875 64.59375 
z
" id="BitstreamVeraSans-Roman-69"/>
     <path d="M 30.609375 48.390625 
Q 23.390625 48.390625 19.1875 42.75 
Q 14.984375 37.109375 14.984375 27.296875 
Q 14.984375 17.484375 19.15625 11.84375 
Q 23.34375 6.203125 30.609375 6.203125 
Q 37.796875 6.203125 41.984375 11.859375 
Q 46.1875 17.53125 46.1875 27.296875 
Q 46.1875 37.015625 41.984375 42.703125 
Q 37.796875 48.390625 30.609375 48.390625 
M 30.609375 56 
Q 42.328125 56 49.015625 48.375 
Q 55.71875 40.765625 55.71875 27.296875 
Q 55.71875 13.875 49.015625 6.21875 
Q 42.328125 -1.421875 30.609375 -1.421875 
Q 18.84375 -1.421875 12.171875 6.21875 
Q 5.515625 13.875 5.515625 27.296875 
Q 5.515625 40.765625 12.171875 48.375 
Q 18.84375 56 30.609375 56 
" id="BitstreamVeraSans-Roman-6f"/>
     <path d="M 18.3125 70.21875 
L 18.3125 54.6875 
L 36.8125 54.6875 
L 36.8125 47.703125 
L 18.3125 47.703125 
L 18.3125 18.015625 
Q 18.3125 11.328125 20.140625 9.421875 
Q 21.96875 7.515625 27.59375 7.515625 
L 36.8125 7.515625 
L 36.8125 0 
L 27.59375 0 
Q 17.1875 0 13.234375 3.875 
Q 9.28125 7.765625 9.28125 18.015625 
L 9.28125 47.703125 
L 2.6875 47.703125 
L 2.6875 54.6875 
L 9.28125 54.6875 
L 9.28125 70.21875 
z
" id="BitstreamVeraSans-Roman-74"/>
    </defs>
    <g transform="translate(237.16625 19.3575)scale(0.16 -0.16)">
     <use xlink:href="#BitstreamVeraSans-Roman-4f"/>
     <use x="78.7109375" xlink:href="#BitstreamVeraSans-Roman-63"/>
     <use x="133.69140625" xlink:href="#BitstreamVeraSans-Roman-65"/>
     <use x="195.21484375" xlink:href="#BitstreamVeraSans-Roman-61"/>
     <use x="256.494140625" xlink:href="#BitstreamVeraSans-Roman-6e"/>
     <use x="319.873046875" xlink:href="#BitstreamVeraSans-Roman-20"/>
     <use x="351.66015625" xlink:href="#BitstreamVeraSans-Roman-73"/>
     <use x="403.759765625" xlink:href="#BitstreamVeraSans-Roman-75"/>
     <use x="467.138671875" xlink:href="#BitstreamVeraSans-Roman-62"/>
     <use x="530.615234375" xlink:href="#BitstreamVeraSans-Roman-72"/>
     <use x="571.697265625" xlink:href="#BitstreamVeraSans-Roman-6f"/>
     <use x="632.87890625" xlink:href="#BitstreamVeraSans-Roman-75"/>
     <use x="696.2578125" xlink:href="#BitstreamVeraSans-Roman-74"/>
     <use x="735.466796875" xlink:href="#BitstreamVeraSans-Roman-69"/>
     <use x="763.25" xlink:href="#BitstreamVeraSans-Roman-6e"/>
     <use x="826.62890625" xlink:href="#BitstreamVeraSans-Roman-65"/>
     <use x="888.15234375" xlink:href="#BitstreamVeraSans-Roman-20"/>
     <use x="919.939453125" xlink:href="#BitstreamVeraSans-Roman-72"/>
     <use x="961.052734375" xlink:href="#BitstreamVeraSans-Roman-75"/>
     <use x="1024.431640625" xlink:href="#BitstreamVeraSans-Roman-6e"/>
     <use x="1087.810546875" xlink:href="#BitstreamVeraSans-Roman-74"/>
     <use x="1127.01953125" xlink:href="#BitstreamVeraSans-Roman-69"/>
     <use x="1154.802734375" xlink:href="#BitstreamVeraSans-Roman-6d"/>
     <use x="1252.21484375" xlink:href="#BitstreamVeraSans-Roman-65"/>
     <use x="1313.73828125" xlink:href="#BitstreamVeraSans-Roman-73"/>
     <use x="1365.837890625" xlink:href="#BitstreamVeraSans-Roman-20"/>
     <use x="1397.625" xlink:href="#BitstreamVeraSans-Roman-61"/>
     <use x="1458.904296875" xlink:href="#BitstreamVeraSans-Roman-74"/>
     <use x="1498.11328125" xlink:href="#BitstreamVeraSans-Roman-20"/>
     <use x="1529.900390625" xlink:href="#BitstreamVeraSans-Roman-39"/>
     <use x="1593.5234375" xlink:href="#BitstreamVeraSans-Roman-36"/>
     <use x="1657.146484375" xlink:href="#BitstreamVeraSans-Roman-30"/>
     <use x="1720.76953125" xlink:href="#BitstreamVeraSans-Roman-20"/>
     <use x="1752.556640625" xlink:href="#BitstreamVeraSans-Roman-43"/>
     <use x="1822.380859375" xlink:href="#BitstreamVeraSans-Roman-50"/>
     <use x="1882.68359375" xlink:href="#BitstreamVeraSans-Roman-55"/>
     <use x="1955.876953125" xlink:href="#BitstreamVeraSans-Roman-73"/>
    </g>
   </g>
   <g id="legend_1">
    <g id="patch_23">
     <path d="M 7.2 387.2375 
L 188.690625 387.2375 
L 188.690625 70.434375 
L 7.2 70.434375 
z
" style="fill:#ffffff;stroke:#000000;stroke-linejoin:miter;"/>
    </g>
    <g id="patch_24">
     <path d="M 11.2 82.032812 
L 31.2 82.032812 
L 31.2 75.032812 
L 11.2 75.032812 
z
" style="fill:#e41a1c;stroke:#000000;stroke-linejoin:miter;"/>
    </g>
    <g id="text_2">
     <!-- update_ocean_tracer -->
     <defs>
      <path d="M 45.40625 46.390625 
L 45.40625 75.984375 
L 54.390625 75.984375 
L 54.390625 0 
L 45.40625 0 
L 45.40625 8.203125 
Q 42.578125 3.328125 38.25 0.953125 
Q 33.9375 -1.421875 27.875 -1.421875 
Q 17.96875 -1.421875 11.734375 6.484375 
Q 5.515625 14.40625 5.515625 27.296875 
Q 5.515625 40.1875 11.734375 48.09375 
Q 17.96875 56 27.875 56 
Q 33.9375 56 38.25 53.625 
Q 42.578125 51.265625 45.40625 46.390625 
M 14.796875 27.296875 
Q 14.796875 17.390625 18.875 11.75 
Q 22.953125 6.109375 30.078125 6.109375 
Q 37.203125 6.109375 41.296875 11.75 
Q 45.40625 17.390625 45.40625 27.296875 
Q 45.40625 37.203125 41.296875 42.84375 
Q 37.203125 48.484375 30.078125 48.484375 
Q 22.953125 48.484375 18.875 42.84375 
Q 14.796875 37.203125 14.796875 27.296875 
" id="BitstreamVeraSans-Roman-64"/>
      <path d="M 18.109375 8.203125 
L 18.109375 -20.796875 
L 9.078125 -20.796875 
L 9.078125 54.6875 
L 18.109375 54.6875 
L 18.109375 46.390625 
Q 20.953125 51.265625 25.265625 53.625 
Q 29.59375 56 35.59375 56 
Q 45.5625 56 51.78125 48.09375 
Q 58.015625 40.1875 58.015625 27.296875 
Q 58.015625 14.40625 51.78125 6.484375 
Q 45.5625 -1.421875 35.59375 -1.421875 
Q 29.59375 -1.421875 25.265625 0.953125 
Q 20.953125 3.328125 18.109375 8.203125 
M 48.6875 27.296875 
Q 48.6875 37.203125 44.609375 42.84375 
Q 40.53125 48.484375 33.40625 48.484375 
Q 26.265625 48.484375 22.1875 42.84375 
Q 18.109375 37.203125 18.109375 27.296875 
Q 18.109375 17.390625 22.1875 11.75 
Q 26.265625 6.109375 33.40625 6.109375 
Q 40.53125 6.109375 44.609375 11.75 
Q 48.6875 17.390625 48.6875 27.296875 
" id="BitstreamVeraSans-Roman-70"/>
      <path d="M 50.984375 -16.609375 
L 50.984375 -23.578125 
L -0.984375 -23.578125 
L -0.984375 -16.609375 
z
" id="BitstreamVeraSans-Roman-5f"/>
     </defs>
     <g transform="translate(39.2 82.0328125)scale(0.1 -0.1)">
      <use xlink:href="#BitstreamVeraSans-Roman-75"/>
      <use x="63.37890625" xlink:href="#BitstreamVeraSans-Roman-70"/>
      <use x="126.85546875" xlink:href="#BitstreamVeraSans-Roman-64"/>
      <use x="190.33203125" xlink:href="#BitstreamVeraSans-Roman-61"/>
      <use x="251.611328125" xlink:href="#BitstreamVeraSans-Roman-74"/>
      <use x="290.8203125" xlink:href="#BitstreamVeraSans-Roman-65"/>
      <use x="352.34375" xlink:href="#BitstreamVeraSans-Roman-5f"/>
      <use x="402.34375" xlink:href="#BitstreamVeraSans-Roman-6f"/>
      <use x="463.525390625" xlink:href="#BitstreamVeraSans-Roman-63"/>
      <use x="518.505859375" xlink:href="#BitstreamVeraSans-Roman-65"/>
      <use x="580.029296875" xlink:href="#BitstreamVeraSans-Roman-61"/>
      <use x="641.30859375" xlink:href="#BitstreamVeraSans-Roman-6e"/>
      <use x="704.6875" xlink:href="#BitstreamVeraSans-Roman-5f"/>
      <use x="754.6875" xlink:href="#BitstreamVeraSans-Roman-74"/>
      <use x="793.896484375" xlink:href="#BitstreamVeraSans-Roman-72"/>
      <use x="835.009765625" xlink:href="#BitstreamVeraSans-Roman-61"/>
      <use x="896.2890625" xlink:href="#BitstreamVeraSans-Roman-63"/>
      <use x="951.26953125" xlink:href="#BitstreamVeraSans-Roman-65"/>
      <use x="1012.79296875" xlink:href="#BitstreamVeraSans-Roman-72"/>
     </g>
    </g>
    <g id="patch_25">
     <path d="M 11.2 96.989062 
L 31.2 96.989062 
L 31.2 89.989062 
L 11.2 89.989062 
z
" style="fill:#a34057;stroke:#000000;stroke-linejoin:miter;"/>
    </g>
    <g id="text_3">
     <!-- ocean_explicit_accel_a -->
     <defs>
      <path d="M 54.890625 54.6875 
L 35.109375 28.078125 
L 55.90625 0 
L 45.3125 0 
L 29.390625 21.484375 
L 13.484375 0 
L 2.875 0 
L 24.125 28.609375 
L 4.6875 54.6875 
L 15.28125 54.6875 
L 29.78125 35.203125 
L 44.28125 54.6875 
z
" id="BitstreamVeraSans-Roman-78"/>
      <path d="M 9.421875 75.984375 
L 18.40625 75.984375 
L 18.40625 0 
L 9.421875 0 
z
" id="BitstreamVeraSans-Roman-6c"/>
     </defs>
     <g transform="translate(39.2 96.9890625)scale(0.1 -0.1)">
      <use xlink:href="#BitstreamVeraSans-Roman-6f"/>
      <use x="61.181640625" xlink:href="#BitstreamVeraSans-Roman-63"/>
      <use x="116.162109375" xlink:href="#BitstreamVeraSans-Roman-65"/>
      <use x="177.685546875" xlink:href="#BitstreamVeraSans-Roman-61"/>
      <use x="238.96484375" xlink:href="#BitstreamVeraSans-Roman-6e"/>
      <use x="302.34375" xlink:href="#BitstreamVeraSans-Roman-5f"/>
      <use x="352.34375" xlink:href="#BitstreamVeraSans-Roman-65"/>
      <use x="413.8515625" xlink:href="#BitstreamVeraSans-Roman-78"/>
      <use x="473.03125" xlink:href="#BitstreamVeraSans-Roman-70"/>
      <use x="536.5078125" xlink:href="#BitstreamVeraSans-Roman-6c"/>
      <use x="564.291015625" xlink:href="#BitstreamVeraSans-Roman-69"/>
      <use x="592.07421875" xlink:href="#BitstreamVeraSans-Roman-63"/>
      <use x="647.0546875" xlink:href="#BitstreamVeraSans-Roman-69"/>
      <use x="674.837890625" xlink:href="#BitstreamVeraSans-Roman-74"/>
      <use x="714.046875" xlink:href="#BitstreamVeraSans-Roman-5f"/>
      <use x="764.046875" xlink:href="#BitstreamVeraSans-Roman-61"/>
      <use x="825.326171875" xlink:href="#BitstreamVeraSans-Roman-63"/>
      <use x="880.306640625" xlink:href="#BitstreamVeraSans-Roman-63"/>
      <use x="935.287109375" xlink:href="#BitstreamVeraSans-Roman-65"/>
      <use x="996.810546875" xlink:href="#BitstreamVeraSans-Roman-6c"/>
      <use x="1024.59375" xlink:href="#BitstreamVeraSans-Roman-5f"/>
      <use x="1074.59375" xlink:href="#BitstreamVeraSans-Roman-61"/>
     </g>
    </g>
    <g id="patch_26">
     <path d="M 11.2 111.945312 
L 31.2 111.945312 
L 31.2 104.945312 
L 11.2 104.945312 
z
" style="fill:#626591;stroke:#000000;stroke-linejoin:miter;"/>
    </g>
    <g id="text_4">
     <!-- vert_mix_coeff -->
     <defs>
      <path d="M 2.984375 54.6875 
L 12.5 54.6875 
L 29.59375 8.796875 
L 46.6875 54.6875 
L 56.203125 54.6875 
L 35.6875 0 
L 23.484375 0 
z
" id="BitstreamVeraSans-Roman-76"/>
      <path d="M 37.109375 75.984375 
L 37.109375 68.5 
L 28.515625 68.5 
Q 23.6875 68.5 21.796875 66.546875 
Q 19.921875 64.59375 19.921875 59.515625 
L 19.921875 54.6875 
L 34.71875 54.6875 
L 34.71875 47.703125 
L 19.921875 47.703125 
L 19.921875 0 
L 10.890625 0 
L 10.890625 47.703125 
L 2.296875 47.703125 
L 2.296875 54.6875 
L 10.890625 54.6875 
L 10.890625 58.5 
Q 10.890625 67.625 15.140625 71.796875 
Q 19.390625 75.984375 28.609375 75.984375 
z
" id="BitstreamVeraSans-Roman-66"/>
     </defs>
     <g transform="translate(39.2 111.9453125)scale(0.1 -0.1)">
      <use xlink:href="#BitstreamVeraSans-Roman-76"/>
      <use x="59.1796875" xlink:href="#BitstreamVeraSans-Roman-65"/>
      <use x="120.703125" xlink:href="#BitstreamVeraSans-Roman-72"/>
      <use x="161.81640625" xlink:href="#BitstreamVeraSans-Roman-74"/>
      <use x="201.025390625" xlink:href="#BitstreamVeraSans-Roman-5f"/>
      <use x="251.025390625" xlink:href="#BitstreamVeraSans-Roman-6d"/>
      <use x="348.4375" xlink:href="#BitstreamVeraSans-Roman-69"/>
      <use x="376.220703125" xlink:href="#BitstreamVeraSans-Roman-78"/>
      <use x="435.400390625" xlink:href="#BitstreamVeraSans-Roman-5f"/>
      <use x="485.400390625" xlink:href="#BitstreamVeraSans-Roman-63"/>
      <use x="540.380859375" xlink:href="#BitstreamVeraSans-Roman-6f"/>
      <use x="601.5625" xlink:href="#BitstreamVeraSans-Roman-65"/>
      <use x="663.0859375" xlink:href="#BitstreamVeraSans-Roman-66"/>
      <use x="698.291015625" xlink:href="#BitstreamVeraSans-Roman-66"/>
     </g>
    </g>
    <g id="patch_27">
     <path d="M 11.2 126.901562 
L 31.2 126.901562 
L 31.2 119.901562 
L 11.2 119.901562 
z
" style="fill:#3a84aa;stroke:#000000;stroke-linejoin:miter;"/>
    </g>
    <g id="text_5">
     <!-- submeso_restrat -->
     <g transform="translate(39.2 126.9015625)scale(0.1 -0.1)">
      <use xlink:href="#BitstreamVeraSans-Roman-73"/>
      <use x="52.099609375" xlink:href="#BitstreamVeraSans-Roman-75"/>
      <use x="115.478515625" xlink:href="#BitstreamVeraSans-Roman-62"/>
      <use x="178.955078125" xlink:href="#BitstreamVeraSans-Roman-6d"/>
      <use x="276.3671875" xlink:href="#BitstreamVeraSans-Roman-65"/>
      <use x="337.890625" xlink:href="#BitstreamVeraSans-Roman-73"/>
      <use x="389.990234375" xlink:href="#BitstreamVeraSans-Roman-6f"/>
      <use x="451.171875" xlink:href="#BitstreamVeraSans-Roman-5f"/>
      <use x="501.171875" xlink:href="#BitstreamVeraSans-Roman-72"/>
      <use x="542.25390625" xlink:href="#BitstreamVeraSans-Roman-65"/>
      <use x="603.77734375" xlink:href="#BitstreamVeraSans-Roman-73"/>
      <use x="655.876953125" xlink:href="#BitstreamVeraSans-Roman-74"/>
      <use x="695.0859375" xlink:href="#BitstreamVeraSans-Roman-72"/>
      <use x="736.19921875" xlink:href="#BitstreamVeraSans-Roman-61"/>
      <use x="797.478515625" xlink:href="#BitstreamVeraSans-Roman-74"/>
     </g>
    </g>
    <g id="patch_28">
     <path d="M 11.2 141.857812 
L 31.2 141.857812 
L 31.2 134.857812 
L 11.2 134.857812 
z
" style="fill:#429780;stroke:#000000;stroke-linejoin:miter;"/>
    </g>
    <g id="text_6">
     <!-- update_ocean_barotropic -->
     <g transform="translate(39.2 141.8578125)scale(0.1 -0.1)">
      <use xlink:href="#BitstreamVeraSans-Roman-75"/>
      <use x="63.37890625" xlink:href="#BitstreamVeraSans-Roman-70"/>
      <use x="126.85546875" xlink:href="#BitstreamVeraSans-Roman-64"/>
      <use x="190.33203125" xlink:href="#BitstreamVeraSans-Roman-61"/>
      <use x="251.611328125" xlink:href="#BitstreamVeraSans-Roman-74"/>
      <use x="290.8203125" xlink:href="#BitstreamVeraSans-Roman-65"/>
      <use x="352.34375" xlink:href="#BitstreamVeraSans-Roman-5f"/>
      <use x="402.34375" xlink:href="#BitstreamVeraSans-Roman-6f"/>
      <use x="463.525390625" xlink:href="#BitstreamVeraSans-Roman-63"/>
      <use x="518.505859375" xlink:href="#BitstreamVeraSans-Roman-65"/>
      <use x="580.029296875" xlink:href="#BitstreamVeraSans-Roman-61"/>
      <use x="641.30859375" xlink:href="#BitstreamVeraSans-Roman-6e"/>
      <use x="704.6875" xlink:href="#BitstreamVeraSans-Roman-5f"/>
      <use x="754.6875" xlink:href="#BitstreamVeraSans-Roman-62"/>
      <use x="818.1640625" xlink:href="#BitstreamVeraSans-Roman-61"/>
      <use x="879.443359375" xlink:href="#BitstreamVeraSans-Roman-72"/>
      <use x="920.525390625" xlink:href="#BitstreamVeraSans-Roman-6f"/>
      <use x="981.70703125" xlink:href="#BitstreamVeraSans-Roman-74"/>
      <use x="1020.916015625" xlink:href="#BitstreamVeraSans-Roman-72"/>
      <use x="1061.998046875" xlink:href="#BitstreamVeraSans-Roman-6f"/>
      <use x="1123.1796875" xlink:href="#BitstreamVeraSans-Roman-70"/>
      <use x="1186.65625" xlink:href="#BitstreamVeraSans-Roman-69"/>
      <use x="1214.439453125" xlink:href="#BitstreamVeraSans-Roman-63"/>
     </g>
    </g>
    <g id="patch_29">
     <path d="M 11.2 156.814062 
L 31.2 156.814062 
L 31.2 149.814062 
L 11.2 149.814062 
z
" style="fill:#4aa957;stroke:#000000;stroke-linejoin:miter;"/>
    </g>
    <g id="text_7">
     <!-- update_ocean_density -->
     <defs>
      <path d="M 32.171875 -5.078125 
Q 28.375 -14.84375 24.75 -17.8125 
Q 21.140625 -20.796875 15.09375 -20.796875 
L 7.90625 -20.796875 
L 7.90625 -13.28125 
L 13.1875 -13.28125 
Q 16.890625 -13.28125 18.9375 -11.515625 
Q 21 -9.765625 23.484375 -3.21875 
L 25.09375 0.875 
L 2.984375 54.6875 
L 12.5 54.6875 
L 29.59375 11.921875 
L 46.6875 54.6875 
L 56.203125 54.6875 
z
" id="BitstreamVeraSans-Roman-79"/>
     </defs>
     <g transform="translate(39.2 156.8140625)scale(0.1 -0.1)">
      <use xlink:href="#BitstreamVeraSans-Roman-75"/>
      <use x="63.37890625" xlink:href="#BitstreamVeraSans-Roman-70"/>
      <use x="126.85546875" xlink:href="#BitstreamVeraSans-Roman-64"/>
      <use x="190.33203125" xlink:href="#BitstreamVeraSans-Roman-61"/>
      <use x="251.611328125" xlink:href="#BitstreamVeraSans-Roman-74"/>
      <use x="290.8203125" xlink:href="#BitstreamVeraSans-Roman-65"/>
      <use x="352.34375" xlink:href="#BitstreamVeraSans-Roman-5f"/>
      <use x="402.34375" xlink:href="#BitstreamVeraSans-Roman-6f"/>
      <use x="463.525390625" xlink:href="#BitstreamVeraSans-Roman-63"/>
      <use x="518.505859375" xlink:href="#BitstreamVeraSans-Roman-65"/>
      <use x="580.029296875" xlink:href="#BitstreamVeraSans-Roman-61"/>
      <use x="641.30859375" xlink:href="#BitstreamVeraSans-Roman-6e"/>
      <use x="704.6875" xlink:href="#BitstreamVeraSans-Roman-5f"/>
      <use x="754.6875" xlink:href="#BitstreamVeraSans-Roman-64"/>
      <use x="818.1640625" xlink:href="#BitstreamVeraSans-Roman-65"/>
      <use x="879.6875" xlink:href="#BitstreamVeraSans-Roman-6e"/>
      <use x="943.06640625" xlink:href="#BitstreamVeraSans-Roman-73"/>
      <use x="995.166015625" xlink:href="#BitstreamVeraSans-Roman-69"/>
      <use x="1022.94921875" xlink:href="#BitstreamVeraSans-Roman-74"/>
      <use x="1062.158203125" xlink:href="#BitstreamVeraSans-Roman-79"/>
     </g>
    </g>
    <g id="patch_30">
     <path d="M 11.2 171.770312 
L 31.2 171.770312 
L 31.2 164.770312 
L 11.2 164.770312 
z
" style="fill:#639364;stroke:#000000;stroke-linejoin:miter;"/>
    </g>
    <g id="text_8">
     <!-- ocean_implicit_accel -->
     <g transform="translate(39.2 171.7703125)scale(0.1 -0.1)">
      <use xlink:href="#BitstreamVeraSans-Roman-6f"/>
      <use x="61.181640625" xlink:href="#BitstreamVeraSans-Roman-63"/>
      <use x="116.162109375" xlink:href="#BitstreamVeraSans-Roman-65"/>
      <use x="177.685546875" xlink:href="#BitstreamVeraSans-Roman-61"/>
      <use x="238.96484375" xlink:href="#BitstreamVeraSans-Roman-6e"/>
      <use x="302.34375" xlink:href="#BitstreamVeraSans-Roman-5f"/>
      <use x="352.34375" xlink:href="#BitstreamVeraSans-Roman-69"/>
      <use x="380.126953125" xlink:href="#BitstreamVeraSans-Roman-6d"/>
      <use x="477.5390625" xlink:href="#BitstreamVeraSans-Roman-70"/>
      <use x="541.015625" xlink:href="#BitstreamVeraSans-Roman-6c"/>
      <use x="568.798828125" xlink:href="#BitstreamVeraSans-Roman-69"/>
      <use x="596.58203125" xlink:href="#BitstreamVeraSans-Roman-63"/>
      <use x="651.5625" xlink:href="#BitstreamVeraSans-Roman-69"/>
      <use x="679.345703125" xlink:href="#BitstreamVeraSans-Roman-74"/>
      <use x="718.5546875" xlink:href="#BitstreamVeraSans-Roman-5f"/>
      <use x="768.5546875" xlink:href="#BitstreamVeraSans-Roman-61"/>
      <use x="829.833984375" xlink:href="#BitstreamVeraSans-Roman-63"/>
      <use x="884.814453125" xlink:href="#BitstreamVeraSans-Roman-63"/>
      <use x="939.794921875" xlink:href="#BitstreamVeraSans-Roman-65"/>
      <use x="1001.318359375" xlink:href="#BitstreamVeraSans-Roman-6c"/>
     </g>
    </g>
    <g id="patch_31">
     <path d="M 11.2 186.726562 
L 31.2 186.726562 
L 31.2 179.726562 
L 11.2 179.726562 
z
" style="fill:#7f6e85;stroke:#000000;stroke-linejoin:miter;"/>
    </g>
    <g id="text_9">
     <!-- update_ucell_thickness -->
     <defs>
      <path d="M 9.078125 75.984375 
L 18.109375 75.984375 
L 18.109375 31.109375 
L 44.921875 54.6875 
L 56.390625 54.6875 
L 27.390625 29.109375 
L 57.625 0 
L 45.90625 0 
L 18.109375 26.703125 
L 18.109375 0 
L 9.078125 0 
z
" id="BitstreamVeraSans-Roman-6b"/>
      <path d="M 54.890625 33.015625 
L 54.890625 0 
L 45.90625 0 
L 45.90625 32.71875 
Q 45.90625 40.484375 42.875 44.328125 
Q 39.84375 48.1875 33.796875 48.1875 
Q 26.515625 48.1875 22.3125 43.546875 
Q 18.109375 38.921875 18.109375 30.90625 
L 18.109375 0 
L 9.078125 0 
L 9.078125 75.984375 
L 18.109375 75.984375 
L 18.109375 46.1875 
Q 21.34375 51.125 25.703125 53.5625 
Q 30.078125 56 35.796875 56 
Q 45.21875 56 50.046875 50.171875 
Q 54.890625 44.34375 54.890625 33.015625 
" id="BitstreamVeraSans-Roman-68"/>
     </defs>
     <g transform="translate(39.2 186.7265625)scale(0.1 -0.1)">
      <use xlink:href="#BitstreamVeraSans-Roman-75"/>
      <use x="63.37890625" xlink:href="#BitstreamVeraSans-Roman-70"/>
      <use x="126.85546875" xlink:href="#BitstreamVeraSans-Roman-64"/>
      <use x="190.33203125" xlink:href="#BitstreamVeraSans-Roman-61"/>
      <use x="251.611328125" xlink:href="#BitstreamVeraSans-Roman-74"/>
      <use x="290.8203125" xlink:href="#BitstreamVeraSans-Roman-65"/>
      <use x="352.34375" xlink:href="#BitstreamVeraSans-Roman-5f"/>
      <use x="402.34375" xlink:href="#BitstreamVeraSans-Roman-75"/>
      <use x="465.72265625" xlink:href="#BitstreamVeraSans-Roman-63"/>
      <use x="520.703125" xlink:href="#BitstreamVeraSans-Roman-65"/>
      <use x="582.2265625" xlink:href="#BitstreamVeraSans-Roman-6c"/>
      <use x="610.009765625" xlink:href="#BitstreamVeraSans-Roman-6c"/>
      <use x="637.79296875" xlink:href="#BitstreamVeraSans-Roman-5f"/>
      <use x="687.79296875" xlink:href="#BitstreamVeraSans-Roman-74"/>
      <use x="727.001953125" xlink:href="#BitstreamVeraSans-Roman-68"/>
      <use x="790.380859375" xlink:href="#BitstreamVeraSans-Roman-69"/>
      <use x="818.1640625" xlink:href="#BitstreamVeraSans-Roman-63"/>
      <use x="873.14453125" xlink:href="#BitstreamVeraSans-Roman-6b"/>
      <use x="931.0546875" xlink:href="#BitstreamVeraSans-Roman-6e"/>
      <use x="994.43359375" xlink:href="#BitstreamVeraSans-Roman-65"/>
      <use x="1055.95703125" xlink:href="#BitstreamVeraSans-Roman-73"/>
      <use x="1108.056640625" xlink:href="#BitstreamVeraSans-Roman-73"/>
     </g>
    </g>
    <g id="patch_32">
     <path d="M 11.2 201.682812 
L 31.2 201.682812 
L 31.2 194.682812 
L 11.2 194.682812 
z
" style="fill:#9c509c;stroke:#000000;stroke-linejoin:miter;"/>
    </g>
    <g id="text_10">
     <!-- ocean_eta_smooth -->
     <g transform="translate(39.2 201.6828125)scale(0.1 -0.1)">
      <use xlink:href="#BitstreamVeraSans-Roman-6f"/>
      <use x="61.181640625" xlink:href="#BitstreamVeraSans-Roman-63"/>
      <use x="116.162109375" xlink:href="#BitstreamVeraSans-Roman-65"/>
      <use x="177.685546875" xlink:href="#BitstreamVeraSans-Roman-61"/>
      <use x="238.96484375" xlink:href="#BitstreamVeraSans-Roman-6e"/>
      <use x="302.34375" xlink:href="#BitstreamVeraSans-Roman-5f"/>
      <use x="352.34375" xlink:href="#BitstreamVeraSans-Roman-65"/>
      <use x="413.8671875" xlink:href="#BitstreamVeraSans-Roman-74"/>
      <use x="453.076171875" xlink:href="#BitstreamVeraSans-Roman-61"/>
      <use x="514.35546875" xlink:href="#BitstreamVeraSans-Roman-5f"/>
      <use x="564.35546875" xlink:href="#BitstreamVeraSans-Roman-73"/>
      <use x="616.455078125" xlink:href="#BitstreamVeraSans-Roman-6d"/>
      <use x="713.8671875" xlink:href="#BitstreamVeraSans-Roman-6f"/>
      <use x="775.048828125" xlink:href="#BitstreamVeraSans-Roman-6f"/>
      <use x="836.23046875" xlink:href="#BitstreamVeraSans-Roman-74"/>
      <use x="875.439453125" xlink:href="#BitstreamVeraSans-Roman-68"/>
     </g>
    </g>
    <g id="patch_33">
     <path d="M 11.2 216.639062 
L 31.2 216.639062 
L 31.2 209.639062 
L 11.2 209.639062 
z
" style="fill:#c3635f;stroke:#000000;stroke-linejoin:miter;"/>
    </g>
    <g id="text_11">
     <!-- sw_source -->
     <defs>
      <path d="M 4.203125 54.6875 
L 13.1875 54.6875 
L 24.421875 12.015625 
L 35.59375 54.6875 
L 46.1875 54.6875 
L 57.421875 12.015625 
L 68.609375 54.6875 
L 77.59375 54.6875 
L 63.28125 0 
L 52.6875 0 
L 40.921875 44.828125 
L 29.109375 0 
L 18.5 0 
z
" id="BitstreamVeraSans-Roman-77"/>
     </defs>
     <g transform="translate(39.2 216.6390625)scale(0.1 -0.1)">
      <use xlink:href="#BitstreamVeraSans-Roman-73"/>
      <use x="52.099609375" xlink:href="#BitstreamVeraSans-Roman-77"/>
      <use x="133.88671875" xlink:href="#BitstreamVeraSans-Roman-5f"/>
      <use x="183.88671875" xlink:href="#BitstreamVeraSans-Roman-73"/>
      <use x="235.986328125" xlink:href="#BitstreamVeraSans-Roman-6f"/>
      <use x="297.16796875" xlink:href="#BitstreamVeraSans-Roman-75"/>
      <use x="360.546875" xlink:href="#BitstreamVeraSans-Roman-72"/>
      <use x="401.62890625" xlink:href="#BitstreamVeraSans-Roman-63"/>
      <use x="456.609375" xlink:href="#BitstreamVeraSans-Roman-65"/>
     </g>
    </g>
    <g id="patch_34">
     <path d="M 11.2 231.595312 
L 31.2 231.595312 
L 31.2 224.595312 
L 11.2 224.595312 
z
" style="fill:#ea7521;stroke:#000000;stroke-linejoin:miter;"/>
    </g>
    <g id="text_12">
     <!-- update_ocean_velocity_bgrid -->
     <defs>
      <path d="M 45.40625 27.984375 
Q 45.40625 37.75 41.375 43.109375 
Q 37.359375 48.484375 30.078125 48.484375 
Q 22.859375 48.484375 18.828125 43.109375 
Q 14.796875 37.75 14.796875 27.984375 
Q 14.796875 18.265625 18.828125 12.890625 
Q 22.859375 7.515625 30.078125 7.515625 
Q 37.359375 7.515625 41.375 12.890625 
Q 45.40625 18.265625 45.40625 27.984375 
M 54.390625 6.78125 
Q 54.390625 -7.171875 48.1875 -13.984375 
Q 42 -20.796875 29.203125 -20.796875 
Q 24.46875 -20.796875 20.265625 -20.09375 
Q 16.0625 -19.390625 12.109375 -17.921875 
L 12.109375 -9.1875 
Q 16.0625 -11.328125 19.921875 -12.34375 
Q 23.78125 -13.375 27.78125 -13.375 
Q 36.625 -13.375 41.015625 -8.765625 
Q 45.40625 -4.15625 45.40625 5.171875 
L 45.40625 9.625 
Q 42.625 4.78125 38.28125 2.390625 
Q 33.9375 0 27.875 0 
Q 17.828125 0 11.671875 7.65625 
Q 5.515625 15.328125 5.515625 27.984375 
Q 5.515625 40.671875 11.671875 48.328125 
Q 17.828125 56 27.875 56 
Q 33.9375 56 38.28125 53.609375 
Q 42.625 51.21875 45.40625 46.390625 
L 45.40625 54.6875 
L 54.390625 54.6875 
z
" id="BitstreamVeraSans-Roman-67"/>
     </defs>
     <g transform="translate(39.2 231.5953125)scale(0.1 -0.1)">
      <use xlink:href="#BitstreamVeraSans-Roman-75"/>
      <use x="63.37890625" xlink:href="#BitstreamVeraSans-Roman-70"/>
      <use x="126.85546875" xlink:href="#BitstreamVeraSans-Roman-64"/>
      <use x="190.33203125" xlink:href="#BitstreamVeraSans-Roman-61"/>
      <use x="251.611328125" xlink:href="#BitstreamVeraSans-Roman-74"/>
      <use x="290.8203125" xlink:href="#BitstreamVeraSans-Roman-65"/>
      <use x="352.34375" xlink:href="#BitstreamVeraSans-Roman-5f"/>
      <use x="402.34375" xlink:href="#BitstreamVeraSans-Roman-6f"/>
      <use x="463.525390625" xlink:href="#BitstreamVeraSans-Roman-63"/>
      <use x="518.505859375" xlink:href="#BitstreamVeraSans-Roman-65"/>
      <use x="580.029296875" xlink:href="#BitstreamVeraSans-Roman-61"/>
      <use x="641.30859375" xlink:href="#BitstreamVeraSans-Roman-6e"/>
      <use x="704.6875" xlink:href="#BitstreamVeraSans-Roman-5f"/>
      <use x="754.6875" xlink:href="#BitstreamVeraSans-Roman-76"/>
      <use x="813.8671875" xlink:href="#BitstreamVeraSans-Roman-65"/>
      <use x="875.390625" xlink:href="#BitstreamVeraSans-Roman-6c"/>
      <use x="903.173828125" xlink:href="#BitstreamVeraSans-Roman-6f"/>
      <use x="964.35546875" xlink:href="#BitstreamVeraSans-Roman-63"/>
      <use x="1019.3359375" xlink:href="#BitstreamVeraSans-Roman-69"/>
      <use x="1047.119140625" xlink:href="#BitstreamVeraSans-Roman-74"/>
      <use x="1086.328125" xlink:href="#BitstreamVeraSans-Roman-79"/>
      <use x="1145.5078125" xlink:href="#BitstreamVeraSans-Roman-5f"/>
      <use x="1195.5078125" xlink:href="#BitstreamVeraSans-Roman-62"/>
      <use x="1258.984375" xlink:href="#BitstreamVeraSans-Roman-67"/>
      <use x="1322.4609375" xlink:href="#BitstreamVeraSans-Roman-72"/>
      <use x="1363.57421875" xlink:href="#BitstreamVeraSans-Roman-69"/>
      <use x="1391.357421875" xlink:href="#BitstreamVeraSans-Roman-64"/>
     </g>
    </g>
    <g id="patch_35">
     <path d="M 11.2 246.551562 
L 31.2 246.551562 
L 31.2 239.551562 
L 11.2 239.551562 
z
" style="fill:#ff990a;stroke:#000000;stroke-linejoin:miter;"/>
    </g>
    <g id="text_13">
     <!-- ocean_advection_velocity -->
     <g transform="translate(39.2 246.5515625)scale(0.1 -0.1)">
      <use xlink:href="#BitstreamVeraSans-Roman-6f"/>
      <use x="61.181640625" xlink:href="#BitstreamVeraSans-Roman-63"/>
      <use x="116.162109375" xlink:href="#BitstreamVeraSans-Roman-65"/>
      <use x="177.685546875" xlink:href="#BitstreamVeraSans-Roman-61"/>
      <use x="238.96484375" xlink:href="#BitstreamVeraSans-Roman-6e"/>
      <use x="302.34375" xlink:href="#BitstreamVeraSans-Roman-5f"/>
      <use x="352.34375" xlink:href="#BitstreamVeraSans-Roman-61"/>
      <use x="413.623046875" xlink:href="#BitstreamVeraSans-Roman-64"/>
      <use x="477.099609375" xlink:href="#BitstreamVeraSans-Roman-76"/>
      <use x="536.279296875" xlink:href="#BitstreamVeraSans-Roman-65"/>
      <use x="597.802734375" xlink:href="#BitstreamVeraSans-Roman-63"/>
      <use x="652.783203125" xlink:href="#BitstreamVeraSans-Roman-74"/>
      <use x="691.9921875" xlink:href="#BitstreamVeraSans-Roman-69"/>
      <use x="719.775390625" xlink:href="#BitstreamVeraSans-Roman-6f"/>
      <use x="780.95703125" xlink:href="#BitstreamVeraSans-Roman-6e"/>
      <use x="844.3359375" xlink:href="#BitstreamVeraSans-Roman-5f"/>
      <use x="894.3359375" xlink:href="#BitstreamVeraSans-Roman-76"/>
      <use x="953.515625" xlink:href="#BitstreamVeraSans-Roman-65"/>
      <use x="1015.0390625" xlink:href="#BitstreamVeraSans-Roman-6c"/>
      <use x="1042.822265625" xlink:href="#BitstreamVeraSans-Roman-6f"/>
      <use x="1104.00390625" xlink:href="#BitstreamVeraSans-Roman-63"/>
      <use x="1158.984375" xlink:href="#BitstreamVeraSans-Roman-69"/>
      <use x="1186.767578125" xlink:href="#BitstreamVeraSans-Roman-74"/>
      <use x="1225.9765625" xlink:href="#BitstreamVeraSans-Roman-79"/>
     </g>
    </g>
    <g id="patch_36">
     <path d="M 11.2 261.507812 
L 31.2 261.507812 
L 31.2 254.507812 
L 11.2 254.507812 
z
" style="fill:#ffc91e;stroke:#000000;stroke-linejoin:miter;"/>
    </g>
    <g id="text_14">
     <!-- update_tcell_thickness -->
     <g transform="translate(39.2 261.5078125)scale(0.1 -0.1)">
      <use xlink:href="#BitstreamVeraSans-Roman-75"/>
      <use x="63.37890625" xlink:href="#BitstreamVeraSans-Roman-70"/>
      <use x="126.85546875" xlink:href="#BitstreamVeraSans-Roman-64"/>
      <use x="190.33203125" xlink:href="#BitstreamVeraSans-Roman-61"/>
      <use x="251.611328125" xlink:href="#BitstreamVeraSans-Roman-74"/>
      <use x="290.8203125" xlink:href="#BitstreamVeraSans-Roman-65"/>
      <use x="352.34375" xlink:href="#BitstreamVeraSans-Roman-5f"/>
      <use x="402.34375" xlink:href="#BitstreamVeraSans-Roman-74"/>
      <use x="441.552734375" xlink:href="#BitstreamVeraSans-Roman-63"/>
      <use x="496.533203125" xlink:href="#BitstreamVeraSans-Roman-65"/>
      <use x="558.056640625" xlink:href="#BitstreamVeraSans-Roman-6c"/>
      <use x="585.83984375" xlink:href="#BitstreamVeraSans-Roman-6c"/>
      <use x="613.623046875" xlink:href="#BitstreamVeraSans-Roman-5f"/>
      <use x="663.623046875" xlink:href="#BitstreamVeraSans-Roman-74"/>
      <use x="702.83203125" xlink:href="#BitstreamVeraSans-Roman-68"/>
      <use x="766.2109375" xlink:href="#BitstreamVeraSans-Roman-69"/>
      <use x="793.994140625" xlink:href="#BitstreamVeraSans-Roman-63"/>
      <use x="848.974609375" xlink:href="#BitstreamVeraSans-Roman-6b"/>
      <use x="906.884765625" xlink:href="#BitstreamVeraSans-Roman-6e"/>
      <use x="970.263671875" xlink:href="#BitstreamVeraSans-Roman-65"/>
      <use x="1031.787109375" xlink:href="#BitstreamVeraSans-Roman-73"/>
      <use x="1083.88671875" xlink:href="#BitstreamVeraSans-Roman-73"/>
     </g>
    </g>
    <g id="patch_37">
     <path d="M 11.2 276.464062 
L 31.2 276.464062 
L 31.2 269.464062 
L 11.2 269.464062 
z
" style="fill:#fff931;stroke:#000000;stroke-linejoin:miter;"/>
    </g>
    <g id="text_15">
     <!-- ocean_density_diag -->
     <g transform="translate(39.2 276.4640625)scale(0.1 -0.1)">
      <use xlink:href="#BitstreamVeraSans-Roman-6f"/>
      <use x="61.181640625" xlink:href="#BitstreamVeraSans-Roman-63"/>
      <use x="116.162109375" xlink:href="#BitstreamVeraSans-Roman-65"/>
      <use x="177.685546875" xlink:href="#BitstreamVeraSans-Roman-61"/>
      <use x="238.96484375" xlink:href="#BitstreamVeraSans-Roman-6e"/>
      <use x="302.34375" xlink:href="#BitstreamVeraSans-Roman-5f"/>
      <use x="352.34375" xlink:href="#BitstreamVeraSans-Roman-64"/>
      <use x="415.8203125" xlink:href="#BitstreamVeraSans-Roman-65"/>
      <use x="477.34375" xlink:href="#BitstreamVeraSans-Roman-6e"/>
      <use x="540.72265625" xlink:href="#BitstreamVeraSans-Roman-73"/>
      <use x="592.822265625" xlink:href="#BitstreamVeraSans-Roman-69"/>
      <use x="620.60546875" xlink:href="#BitstreamVeraSans-Roman-74"/>
      <use x="659.814453125" xlink:href="#BitstreamVeraSans-Roman-79"/>
      <use x="718.994140625" xlink:href="#BitstreamVeraSans-Roman-5f"/>
      <use x="768.994140625" xlink:href="#BitstreamVeraSans-Roman-64"/>
      <use x="832.470703125" xlink:href="#BitstreamVeraSans-Roman-69"/>
      <use x="860.25390625" xlink:href="#BitstreamVeraSans-Roman-61"/>
      <use x="921.533203125" xlink:href="#BitstreamVeraSans-Roman-67"/>
     </g>
    </g>
    <g id="patch_38">
     <path d="M 11.2 291.420312 
L 31.2 291.420312 
L 31.2 284.420312 
L 11.2 284.420312 
z
" style="fill:#e1c72f;stroke:#000000;stroke-linejoin:miter;"/>
    </g>
    <g id="text_16">
     <!-- get_ocean_sbc -->
     <g transform="translate(39.2 291.4203125)scale(0.1 -0.1)">
      <use xlink:href="#BitstreamVeraSans-Roman-67"/>
      <use x="63.4765625" xlink:href="#BitstreamVeraSans-Roman-65"/>
      <use x="125.0" xlink:href="#BitstreamVeraSans-Roman-74"/>
      <use x="164.208984375" xlink:href="#BitstreamVeraSans-Roman-5f"/>
      <use x="214.208984375" xlink:href="#BitstreamVeraSans-Roman-6f"/>
      <use x="275.390625" xlink:href="#BitstreamVeraSans-Roman-63"/>
      <use x="330.37109375" xlink:href="#BitstreamVeraSans-Roman-65"/>
      <use x="391.89453125" xlink:href="#BitstreamVeraSans-Roman-61"/>
      <use x="453.173828125" xlink:href="#BitstreamVeraSans-Roman-6e"/>
      <use x="516.552734375" xlink:href="#BitstreamVeraSans-Roman-5f"/>
      <use x="566.552734375" xlink:href="#BitstreamVeraSans-Roman-73"/>
      <use x="618.65234375" xlink:href="#BitstreamVeraSans-Roman-62"/>
      <use x="682.12890625" xlink:href="#BitstreamVeraSans-Roman-63"/>
     </g>
    </g>
    <g id="patch_39">
     <path d="M 11.2 306.376562 
L 31.2 306.376562 
L 31.2 299.376562 
L 11.2 299.376562 
z
" style="fill:#c0872b;stroke:#000000;stroke-linejoin:miter;"/>
    </g>
    <g id="text_17">
     <!-- ocean_diagnostics -->
     <g transform="translate(39.2 306.3765625)scale(0.1 -0.1)">
      <use xlink:href="#BitstreamVeraSans-Roman-6f"/>
      <use x="61.181640625" xlink:href="#BitstreamVeraSans-Roman-63"/>
      <use x="116.162109375" xlink:href="#BitstreamVeraSans-Roman-65"/>
      <use x="177.685546875" xlink:href="#BitstreamVeraSans-Roman-61"/>
      <use x="238.96484375" xlink:href="#BitstreamVeraSans-Roman-6e"/>
      <use x="302.34375" xlink:href="#BitstreamVeraSans-Roman-5f"/>
      <use x="352.34375" xlink:href="#BitstreamVeraSans-Roman-64"/>
      <use x="415.8203125" xlink:href="#BitstreamVeraSans-Roman-69"/>
      <use x="443.603515625" xlink:href="#BitstreamVeraSans-Roman-61"/>
      <use x="504.8828125" xlink:href="#BitstreamVeraSans-Roman-67"/>
      <use x="568.359375" xlink:href="#BitstreamVeraSans-Roman-6e"/>
      <use x="631.73828125" xlink:href="#BitstreamVeraSans-Roman-6f"/>
      <use x="692.919921875" xlink:href="#BitstreamVeraSans-Roman-73"/>
      <use x="745.01953125" xlink:href="#BitstreamVeraSans-Roman-74"/>
      <use x="784.228515625" xlink:href="#BitstreamVeraSans-Roman-69"/>
      <use x="812.01171875" xlink:href="#BitstreamVeraSans-Roman-63"/>
      <use x="866.9921875" xlink:href="#BitstreamVeraSans-Roman-73"/>
     </g>
    </g>
    <g id="patch_40">
     <path d="M 11.2 321.332812 
L 31.2 321.332812 
L 31.2 314.332812 
L 11.2 314.332812 
z
" style="fill:#b05b3a;stroke:#000000;stroke-linejoin:miter;"/>
    </g>
    <g id="text_18">
     <!-- ocean_explicit_accel_b -->
     <g transform="translate(39.2 321.3328125)scale(0.1 -0.1)">
      <use xlink:href="#BitstreamVeraSans-Roman-6f"/>
      <use x="61.181640625" xlink:href="#BitstreamVeraSans-Roman-63"/>
      <use x="116.162109375" xlink:href="#BitstreamVeraSans-Roman-65"/>
      <use x="177.685546875" xlink:href="#BitstreamVeraSans-Roman-61"/>
      <use x="238.96484375" xlink:href="#BitstreamVeraSans-Roman-6e"/>
      <use x="302.34375" xlink:href="#BitstreamVeraSans-Roman-5f"/>
      <use x="352.34375" xlink:href="#BitstreamVeraSans-Roman-65"/>
      <use x="413.8515625" xlink:href="#BitstreamVeraSans-Roman-78"/>
      <use x="473.03125" xlink:href="#BitstreamVeraSans-Roman-70"/>
      <use x="536.5078125" xlink:href="#BitstreamVeraSans-Roman-6c"/>
      <use x="564.291015625" xlink:href="#BitstreamVeraSans-Roman-69"/>
      <use x="592.07421875" xlink:href="#BitstreamVeraSans-Roman-63"/>
      <use x="647.0546875" xlink:href="#BitstreamVeraSans-Roman-69"/>
      <use x="674.837890625" xlink:href="#BitstreamVeraSans-Roman-74"/>
      <use x="714.046875" xlink:href="#BitstreamVeraSans-Roman-5f"/>
      <use x="764.046875" xlink:href="#BitstreamVeraSans-Roman-61"/>
      <use x="825.326171875" xlink:href="#BitstreamVeraSans-Roman-63"/>
      <use x="880.306640625" xlink:href="#BitstreamVeraSans-Roman-63"/>
      <use x="935.287109375" xlink:href="#BitstreamVeraSans-Roman-65"/>
      <use x="996.810546875" xlink:href="#BitstreamVeraSans-Roman-6c"/>
      <use x="1024.59375" xlink:href="#BitstreamVeraSans-Roman-5f"/>
      <use x="1074.59375" xlink:href="#BitstreamVeraSans-Roman-62"/>
     </g>
    </g>
    <g id="patch_41">
     <path d="M 11.2 336.289062 
L 31.2 336.289062 
L 31.2 329.289062 
L 11.2 329.289062 
z
" style="fill:#ce6b73;stroke:#000000;stroke-linejoin:miter;"/>
    </g>
    <g id="text_19">
     <!-- compute_tmask_limit -->
     <g transform="translate(39.2 336.2890625)scale(0.1 -0.1)">
      <use xlink:href="#BitstreamVeraSans-Roman-63"/>
      <use x="54.98046875" xlink:href="#BitstreamVeraSans-Roman-6f"/>
      <use x="116.162109375" xlink:href="#BitstreamVeraSans-Roman-6d"/>
      <use x="213.57421875" xlink:href="#BitstreamVeraSans-Roman-70"/>
      <use x="277.05078125" xlink:href="#BitstreamVeraSans-Roman-75"/>
      <use x="340.4296875" xlink:href="#BitstreamVeraSans-Roman-74"/>
      <use x="379.638671875" xlink:href="#BitstreamVeraSans-Roman-65"/>
      <use x="441.162109375" xlink:href="#BitstreamVeraSans-Roman-5f"/>
      <use x="491.162109375" xlink:href="#BitstreamVeraSans-Roman-74"/>
      <use x="530.37109375" xlink:href="#BitstreamVeraSans-Roman-6d"/>
      <use x="627.783203125" xlink:href="#BitstreamVeraSans-Roman-61"/>
      <use x="689.0625" xlink:href="#BitstreamVeraSans-Roman-73"/>
      <use x="741.162109375" xlink:href="#BitstreamVeraSans-Roman-6b"/>
      <use x="799.072265625" xlink:href="#BitstreamVeraSans-Roman-5f"/>
      <use x="849.072265625" xlink:href="#BitstreamVeraSans-Roman-6c"/>
      <use x="876.85546875" xlink:href="#BitstreamVeraSans-Roman-69"/>
      <use x="904.638671875" xlink:href="#BitstreamVeraSans-Roman-6d"/>
      <use x="1002.05078125" xlink:href="#BitstreamVeraSans-Roman-69"/>
      <use x="1029.833984375" xlink:href="#BitstreamVeraSans-Roman-74"/>
     </g>
    </g>
    <g id="patch_42">
     <path d="M 11.2 351.245312 
L 31.2 351.245312 
L 31.2 344.245312 
L 11.2 344.245312 
z
" style="fill:#ed7bab;stroke:#000000;stroke-linejoin:miter;"/>
    </g>
    <g id="text_20">
     <!-- eta_and_pbot_diagnose -->
     <g transform="translate(39.2 351.2453125)scale(0.1 -0.1)">
      <use xlink:href="#BitstreamVeraSans-Roman-65"/>
      <use x="61.5234375" xlink:href="#BitstreamVeraSans-Roman-74"/>
      <use x="100.732421875" xlink:href="#BitstreamVeraSans-Roman-61"/>
      <use x="162.01171875" xlink:href="#BitstreamVeraSans-Roman-5f"/>
      <use x="212.01171875" xlink:href="#BitstreamVeraSans-Roman-61"/>
      <use x="273.291015625" xlink:href="#BitstreamVeraSans-Roman-6e"/>
      <use x="336.669921875" xlink:href="#BitstreamVeraSans-Roman-64"/>
      <use x="400.146484375" xlink:href="#BitstreamVeraSans-Roman-5f"/>
      <use x="450.146484375" xlink:href="#BitstreamVeraSans-Roman-70"/>
      <use x="513.623046875" xlink:href="#BitstreamVeraSans-Roman-62"/>
      <use x="577.099609375" xlink:href="#BitstreamVeraSans-Roman-6f"/>
      <use x="638.28125" xlink:href="#BitstreamVeraSans-Roman-74"/>
      <use x="677.490234375" xlink:href="#BitstreamVeraSans-Roman-5f"/>
      <use x="727.490234375" xlink:href="#BitstreamVeraSans-Roman-64"/>
      <use x="790.966796875" xlink:href="#BitstreamVeraSans-Roman-69"/>
      <use x="818.75" xlink:href="#BitstreamVeraSans-Roman-61"/>
      <use x="880.029296875" xlink:href="#BitstreamVeraSans-Roman-67"/>
      <use x="943.505859375" xlink:href="#BitstreamVeraSans-Roman-6e"/>
      <use x="1006.884765625" xlink:href="#BitstreamVeraSans-Roman-6f"/>
      <use x="1068.06640625" xlink:href="#BitstreamVeraSans-Roman-73"/>
      <use x="1120.166015625" xlink:href="#BitstreamVeraSans-Roman-65"/>
     </g>
    </g>
    <g id="patch_43">
     <path d="M 11.2 366.201562 
L 31.2 366.201562 
L 31.2 359.201562 
L 11.2 359.201562 
z
" style="fill:#e087b6;stroke:#000000;stroke-linejoin:miter;"/>
    </g>
    <g id="text_21">
     <!-- ocean_barotropic_forcing -->
     <g transform="translate(39.2 366.2015625)scale(0.1 -0.1)">
      <use xlink:href="#BitstreamVeraSans-Roman-6f"/>
      <use x="61.181640625" xlink:href="#BitstreamVeraSans-Roman-63"/>
      <use x="116.162109375" xlink:href="#BitstreamVeraSans-Roman-65"/>
      <use x="177.685546875" xlink:href="#BitstreamVeraSans-Roman-61"/>
      <use x="238.96484375" xlink:href="#BitstreamVeraSans-Roman-6e"/>
      <use x="302.34375" xlink:href="#BitstreamVeraSans-Roman-5f"/>
      <use x="352.34375" xlink:href="#BitstreamVeraSans-Roman-62"/>
      <use x="415.8203125" xlink:href="#BitstreamVeraSans-Roman-61"/>
      <use x="477.099609375" xlink:href="#BitstreamVeraSans-Roman-72"/>
      <use x="518.181640625" xlink:href="#BitstreamVeraSans-Roman-6f"/>
      <use x="579.36328125" xlink:href="#BitstreamVeraSans-Roman-74"/>
      <use x="618.572265625" xlink:href="#BitstreamVeraSans-Roman-72"/>
      <use x="659.654296875" xlink:href="#BitstreamVeraSans-Roman-6f"/>
      <use x="720.8359375" xlink:href="#BitstreamVeraSans-Roman-70"/>
      <use x="784.3125" xlink:href="#BitstreamVeraSans-Roman-69"/>
      <use x="812.095703125" xlink:href="#BitstreamVeraSans-Roman-63"/>
      <use x="867.076171875" xlink:href="#BitstreamVeraSans-Roman-5f"/>
      <use x="917.076171875" xlink:href="#BitstreamVeraSans-Roman-66"/>
      <use x="952.28125" xlink:href="#BitstreamVeraSans-Roman-6f"/>
      <use x="1013.462890625" xlink:href="#BitstreamVeraSans-Roman-72"/>
      <use x="1054.544921875" xlink:href="#BitstreamVeraSans-Roman-63"/>
      <use x="1109.525390625" xlink:href="#BitstreamVeraSans-Roman-69"/>
      <use x="1137.30859375" xlink:href="#BitstreamVeraSans-Roman-6e"/>
      <use x="1200.6875" xlink:href="#BitstreamVeraSans-Roman-67"/>
     </g>
    </g>
    <g id="patch_44">
     <path d="M 11.2 381.157812 
L 31.2 381.157812 
L 31.2 374.157812 
L 11.2 374.157812 
z
" style="fill:#bc90a7;stroke:#000000;stroke-linejoin:miter;"/>
    </g>
    <g id="text_22">
     <!-- other -->
     <g transform="translate(39.2 381.1578125)scale(0.1 -0.1)">
      <use xlink:href="#BitstreamVeraSans-Roman-6f"/>
      <use x="61.181640625" xlink:href="#BitstreamVeraSans-Roman-74"/>
      <use x="100.390625" xlink:href="#BitstreamVeraSans-Roman-68"/>
      <use x="163.76953125" xlink:href="#BitstreamVeraSans-Roman-65"/>
      <use x="225.29296875" xlink:href="#BitstreamVeraSans-Roman-72"/>
     </g>
    </g>
   </g>
  </g>
 </g>
</svg>
