<?xml version="1.0" encoding="utf-8" standalone="no"?>
<!DOCTYPE svg PUBLIC "-//W3C//DTD SVG 1.1//EN"
  "http://www.w3.org/Graphics/SVG/1.1/DTD/svg11.dtd">
<!-- Created with matplotlib (http://matplotlib.org/) -->
<svg height="350pt" version="1.1" viewBox="0 0 728 350" width="728pt" xmlns="http://www.w3.org/2000/svg" xmlns:xlink="http://www.w3.org/1999/xlink">
 <defs>
  <style type="text/css">
*{stroke-linecap:butt;stroke-linejoin:round;stroke-miterlimit:100000;}
  </style>
 </defs>
 <g id="figure_1">
  <g id="patch_1">
   <path d="M 0 350.56925 
L 728.64 350.56925 
L 728.64 0 
L 0 0 
L 0 350.56925 
z
" style="fill:none;"/>
  </g>
  <g id="axes_1">
   <g id="patch_2">
    <path d="M 275.04 311.14175 
L 721.44 311.14175 
L 721.44 23.14175 
L 275.04 23.14175 
z
" style="fill:#ffffff;"/>
   </g>
   <g id="patch_3">
    <path clip-path="url(#p0ae3a610b7)" d="M 284.527437 311.14175 
L 339.108372 311.14175 
L 339.108372 257.386703 
L 284.527437 257.386703 
z
" style="fill:#e41a1c;stroke:#000000;stroke-linejoin:miter;"/>
   </g>
   <g id="patch_4">
    <path clip-path="url(#p0ae3a610b7)" d="M 346.943518 311.14175 
L 401.524452 311.14175 
L 401.524452 252.932246 
L 346.943518 252.932246 
z
" style="fill:#e41a1c;stroke:#000000;stroke-linejoin:miter;"/>
   </g>
   <g id="patch_5">
    <path clip-path="url(#p0ae3a610b7)" d="M 409.359598 311.14175 
L 463.940533 311.14175 
L 463.940533 253.152558 
L 409.359598 253.152558 
z
" style="fill:#e41a1c;stroke:#000000;stroke-linejoin:miter;"/>
   </g>
   <g id="patch_6">
    <path clip-path="url(#p0ae3a610b7)" d="M 471.775678 311.14175 
L 526.356613 311.14175 
L 526.356613 260.639613 
L 471.775678 260.639613 
z
" style="fill:#e41a1c;stroke:#000000;stroke-linejoin:miter;"/>
   </g>
   <g id="patch_7">
    <path clip-path="url(#p0ae3a610b7)" d="M 534.191759 311.14175 
L 588.772694 311.14175 
L 588.772694 262.605237 
L 534.191759 262.605237 
z
" style="fill:#e41a1c;stroke:#000000;stroke-linejoin:miter;"/>
   </g>
   <g id="patch_8">
    <path clip-path="url(#p0ae3a610b7)" d="M 596.607839 311.14175 
L 651.188774 311.14175 
L 651.188774 267.711733 
L 596.607839 267.711733 
z
" style="fill:#e41a1c;stroke:#000000;stroke-linejoin:miter;"/>
   </g>
   <g id="patch_9">
    <path clip-path="url(#p0ae3a610b7)" d="M 659.02392 311.14175 
L 713.604854 311.14175 
L 713.604854 271.592424 
L 659.02392 271.592424 
z
" style="fill:#e41a1c;stroke:#000000;stroke-linejoin:miter;"/>
   </g>
   <g id="patch_10">
    <path clip-path="url(#p0ae3a610b7)" d="M 284.527437 257.386703 
L 339.108372 257.386703 
L 339.108372 217.205094 
L 284.527437 217.205094 
z
" style="fill:#8d4c6a;stroke:#000000;stroke-linejoin:miter;"/>
   </g>
   <g id="patch_11">
    <path clip-path="url(#p0ae3a610b7)" d="M 346.943518 252.932246 
L 401.524452 252.932246 
L 401.524452 209.164689 
L 346.943518 209.164689 
z
" style="fill:#8d4c6a;stroke:#000000;stroke-linejoin:miter;"/>
   </g>
   <g id="patch_12">
    <path clip-path="url(#p0ae3a610b7)" d="M 409.359598 253.152558 
L 463.940533 253.152558 
L 463.940533 208.457614 
L 409.359598 208.457614 
z
" style="fill:#8d4c6a;stroke:#000000;stroke-linejoin:miter;"/>
   </g>
   <g id="patch_13">
    <path clip-path="url(#p0ae3a610b7)" d="M 471.775678 260.639613 
L 526.356613 260.639613 
L 526.356613 214.536506 
L 471.775678 214.536506 
z
" style="fill:#8d4c6a;stroke:#000000;stroke-linejoin:miter;"/>
   </g>
   <g id="patch_14">
    <path clip-path="url(#p0ae3a610b7)" d="M 534.191759 262.605237 
L 588.772694 262.605237 
L 588.772694 217.345272 
L 534.191759 217.345272 
z
" style="fill:#8d4c6a;stroke:#000000;stroke-linejoin:miter;"/>
   </g>
   <g id="patch_15">
    <path clip-path="url(#p0ae3a610b7)" d="M 596.607839 267.711733 
L 651.188774 267.711733 
L 651.188774 228.031739 
L 596.607839 228.031739 
z
" style="fill:#8d4c6a;stroke:#000000;stroke-linejoin:miter;"/>
   </g>
   <g id="patch_16">
    <path clip-path="url(#p0ae3a610b7)" d="M 659.02392 271.592424 
L 713.604854 271.592424 
L 713.604854 239.561927 
L 659.02392 239.561927 
z
" style="fill:#8d4c6a;stroke:#000000;stroke-linejoin:miter;"/>
   </g>
   <g id="patch_17">
    <path clip-path="url(#p0ae3a610b7)" d="M 284.527437 217.205094 
L 339.108372 217.205094 
L 339.108372 171.118889 
L 284.527437 171.118889 
z
" style="fill:#377eb8;stroke:#000000;stroke-linejoin:miter;"/>
   </g>
   <g id="patch_18">
    <path clip-path="url(#p0ae3a610b7)" d="M 346.943518 209.164689 
L 401.524452 209.164689 
L 401.524452 161.285993 
L 346.943518 161.285993 
z
" style="fill:#377eb8;stroke:#000000;stroke-linejoin:miter;"/>
   </g>
   <g id="patch_19">
    <path clip-path="url(#p0ae3a610b7)" d="M 409.359598 208.457614 
L 463.940533 208.457614 
L 463.940533 162.76519 
L 409.359598 162.76519 
z
" style="fill:#377eb8;stroke:#000000;stroke-linejoin:miter;"/>
   </g>
   <g id="patch_20">
    <path clip-path="url(#p0ae3a610b7)" d="M 471.775678 214.536506 
L 526.356613 214.536506 
L 526.356613 175.970786 
L 471.775678 175.970786 
z
" style="fill:#377eb8;stroke:#000000;stroke-linejoin:miter;"/>
   </g>
   <g id="patch_21">
    <path clip-path="url(#p0ae3a610b7)" d="M 534.191759 217.345272 
L 588.772694 217.345272 
L 588.772694 182.68566 
L 534.191759 182.68566 
z
" style="fill:#377eb8;stroke:#000000;stroke-linejoin:miter;"/>
   </g>
   <g id="patch_22">
    <path clip-path="url(#p0ae3a610b7)" d="M 596.607839 228.031739 
L 651.188774 228.031739 
L 651.188774 199.598496 
L 596.607839 199.598496 
z
" style="fill:#377eb8;stroke:#000000;stroke-linejoin:miter;"/>
   </g>
   <g id="patch_23">
    <path clip-path="url(#p0ae3a610b7)" d="M 659.02392 239.561927 
L 713.604854 239.561927 
L 713.604854 219.285294 
L 659.02392 219.285294 
z
" style="fill:#377eb8;stroke:#000000;stroke-linejoin:miter;"/>
   </g>
   <g id="patch_24">
    <path clip-path="url(#p0ae3a610b7)" d="M 284.527437 171.118889 
L 339.108372 171.118889 
L 339.108372 135.619975 
L 284.527437 135.619975 
z
" style="fill:#429780;stroke:#000000;stroke-linejoin:miter;"/>
   </g>
   <g id="patch_25">
    <path clip-path="url(#p0ae3a610b7)" d="M 346.943518 161.285993 
L 401.524452 161.285993 
L 401.524452 126.023588 
L 346.943518 126.023588 
z
" style="fill:#429780;stroke:#000000;stroke-linejoin:miter;"/>
   </g>
   <g id="patch_26">
    <path clip-path="url(#p0ae3a610b7)" d="M 409.359598 162.76519 
L 463.940533 162.76519 
L 463.940533 125.925081 
L 409.359598 125.925081 
z
" style="fill:#429780;stroke:#000000;stroke-linejoin:miter;"/>
   </g>
   <g id="patch_27">
    <path clip-path="url(#p0ae3a610b7)" d="M 471.775678 175.970786 
L 526.356613 175.970786 
L 526.356613 140.336606 
L 471.775678 140.336606 
z
" style="fill:#429780;stroke:#000000;stroke-linejoin:miter;"/>
   </g>
   <g id="patch_28">
    <path clip-path="url(#p0ae3a610b7)" d="M 534.191759 182.68566 
L 588.772694 182.68566 
L 588.772694 146.484468 
L 534.191759 146.484468 
z
" style="fill:#429780;stroke:#000000;stroke-linejoin:miter;"/>
   </g>
   <g id="patch_29">
    <path clip-path="url(#p0ae3a610b7)" d="M 596.607839 199.598496 
L 651.188774 199.598496 
L 651.188774 164.425146 
L 596.607839 164.425146 
z
" style="fill:#429780;stroke:#000000;stroke-linejoin:miter;"/>
   </g>
   <g id="patch_30">
    <path clip-path="url(#p0ae3a610b7)" d="M 659.02392 219.285294 
L 713.604854 219.285294 
L 713.604854 188.258154 
L 659.02392 188.258154 
z
" style="fill:#429780;stroke:#000000;stroke-linejoin:miter;"/>
   </g>
   <g id="patch_31">
    <path clip-path="url(#p0ae3a610b7)" d="M 284.527437 135.619975 
L 339.108372 135.619975 
L 339.108372 110.92692 
L 284.527437 110.92692 
z
" style="fill:#4eae4b;stroke:#000000;stroke-linejoin:miter;"/>
   </g>
   <g id="patch_32">
    <path clip-path="url(#p0ae3a610b7)" d="M 346.943518 126.023588 
L 401.524452 126.023588 
L 401.524452 108.822585 
L 346.943518 108.822585 
z
" style="fill:#4eae4b;stroke:#000000;stroke-linejoin:miter;"/>
   </g>
   <g id="patch_33">
    <path clip-path="url(#p0ae3a610b7)" d="M 409.359598 125.925081 
L 463.940533 125.925081 
L 463.940533 109.139605 
L 409.359598 109.139605 
z
" style="fill:#4eae4b;stroke:#000000;stroke-linejoin:miter;"/>
   </g>
   <g id="patch_34">
    <path clip-path="url(#p0ae3a610b7)" d="M 471.775678 140.336606 
L 526.356613 140.336606 
L 526.356613 109.374259 
L 471.775678 109.374259 
z
" style="fill:#4eae4b;stroke:#000000;stroke-linejoin:miter;"/>
   </g>
   <g id="patch_35">
    <path clip-path="url(#p0ae3a610b7)" d="M 534.191759 146.484468 
L 588.772694 146.484468 
L 588.772694 107.88265 
L 534.191759 107.88265 
z
" style="fill:#4eae4b;stroke:#000000;stroke-linejoin:miter;"/>
   </g>
   <g id="patch_36">
    <path clip-path="url(#p0ae3a610b7)" d="M 596.607839 164.425146 
L 651.188774 164.425146 
L 651.188774 110.307747 
L 596.607839 110.307747 
z
" style="fill:#4eae4b;stroke:#000000;stroke-linejoin:miter;"/>
   </g>
   <g id="patch_37">
    <path clip-path="url(#p0ae3a610b7)" d="M 659.02392 188.258154 
L 713.604854 188.258154 
L 713.604854 124.217835 
L 659.02392 124.217835 
z
" style="fill:#4eae4b;stroke:#000000;stroke-linejoin:miter;"/>
   </g>
   <g id="patch_38">
    <path clip-path="url(#p0ae3a610b7)" d="M 284.527437 110.92692 
L 339.108372 110.92692 
L 339.108372 99.219248 
L 284.527437 99.219248 
z
" style="fill:#737e77;stroke:#000000;stroke-linejoin:miter;"/>
   </g>
   <g id="patch_39">
    <path clip-path="url(#p0ae3a610b7)" d="M 346.943518 108.822585 
L 401.524452 108.822585 
L 401.524452 95.803836 
L 346.943518 95.803836 
z
" style="fill:#737e77;stroke:#000000;stroke-linejoin:miter;"/>
   </g>
   <g id="patch_40">
    <path clip-path="url(#p0ae3a610b7)" d="M 409.359598 109.139605 
L 463.940533 109.139605 
L 463.940533 96.483997 
L 409.359598 96.483997 
z
" style="fill:#737e77;stroke:#000000;stroke-linejoin:miter;"/>
   </g>
   <g id="patch_41">
    <path clip-path="url(#p0ae3a610b7)" d="M 471.775678 109.374259 
L 526.356613 109.374259 
L 526.356613 99.922693 
L 471.775678 99.922693 
z
" style="fill:#737e77;stroke:#000000;stroke-linejoin:miter;"/>
   </g>
   <g id="patch_42">
    <path clip-path="url(#p0ae3a610b7)" d="M 534.191759 107.88265 
L 588.772694 107.88265 
L 588.772694 100.303151 
L 534.191759 100.303151 
z
" style="fill:#737e77;stroke:#000000;stroke-linejoin:miter;"/>
   </g>
   <g id="patch_43">
    <path clip-path="url(#p0ae3a610b7)" d="M 596.607839 110.307747 
L 651.188774 110.307747 
L 651.188774 104.913617 
L 596.607839 104.913617 
z
" style="fill:#737e77;stroke:#000000;stroke-linejoin:miter;"/>
   </g>
   <g id="patch_44">
    <path clip-path="url(#p0ae3a610b7)" d="M 659.02392 124.217835 
L 713.604854 124.217835 
L 713.604854 120.32517 
L 659.02392 120.32517 
z
" style="fill:#737e77;stroke:#000000;stroke-linejoin:miter;"/>
   </g>
   <g id="patch_45">
    <path clip-path="url(#p0ae3a610b7)" d="M 284.527437 99.219248 
L 339.108372 99.219248 
L 339.108372 89.626616 
L 284.527437 89.626616 
z
" style="fill:#994fa1;stroke:#000000;stroke-linejoin:miter;"/>
   </g>
   <g id="patch_46">
    <path clip-path="url(#p0ae3a610b7)" d="M 346.943518 95.803836 
L 401.524452 95.803836 
L 401.524452 84.915907 
L 346.943518 84.915907 
z
" style="fill:#994fa1;stroke:#000000;stroke-linejoin:miter;"/>
   </g>
   <g id="patch_47">
    <path clip-path="url(#p0ae3a610b7)" d="M 409.359598 96.483997 
L 463.940533 96.483997 
L 463.940533 85.568762 
L 409.359598 85.568762 
z
" style="fill:#994fa1;stroke:#000000;stroke-linejoin:miter;"/>
   </g>
   <g id="patch_48">
    <path clip-path="url(#p0ae3a610b7)" d="M 471.775678 99.922693 
L 526.356613 99.922693 
L 526.356613 90.745844 
L 471.775678 90.745844 
z
" style="fill:#994fa1;stroke:#000000;stroke-linejoin:miter;"/>
   </g>
   <g id="patch_49">
    <path clip-path="url(#p0ae3a610b7)" d="M 534.191759 100.303151 
L 588.772694 100.303151 
L 588.772694 93.337323 
L 534.191759 93.337323 
z
" style="fill:#994fa1;stroke:#000000;stroke-linejoin:miter;"/>
   </g>
   <g id="patch_50">
    <path clip-path="url(#p0ae3a610b7)" d="M 596.607839 104.913617 
L 651.188774 104.913617 
L 651.188774 99.858519 
L 596.607839 99.858519 
z
" style="fill:#994fa1;stroke:#000000;stroke-linejoin:miter;"/>
   </g>
   <g id="patch_51">
    <path clip-path="url(#p0ae3a610b7)" d="M 659.02392 120.32517 
L 713.604854 120.32517 
L 713.604854 116.881969 
L 659.02392 116.881969 
z
" style="fill:#994fa1;stroke:#000000;stroke-linejoin:miter;"/>
   </g>
   <g id="patch_52">
    <path clip-path="url(#p0ae3a610b7)" d="M 284.527437 89.626616 
L 339.108372 89.626616 
L 339.108372 81.471659 
L 284.527437 81.471659 
z
" style="fill:#cd674f;stroke:#000000;stroke-linejoin:miter;"/>
   </g>
   <g id="patch_53">
    <path clip-path="url(#p0ae3a610b7)" d="M 346.943518 84.915907 
L 401.524452 84.915907 
L 401.524452 78.135478 
L 346.943518 78.135478 
z
" style="fill:#cd674f;stroke:#000000;stroke-linejoin:miter;"/>
   </g>
   <g id="patch_54">
    <path clip-path="url(#p0ae3a610b7)" d="M 409.359598 85.568762 
L 463.940533 85.568762 
L 463.940533 78.677151 
L 409.359598 78.677151 
z
" style="fill:#cd674f;stroke:#000000;stroke-linejoin:miter;"/>
   </g>
   <g id="patch_55">
    <path clip-path="url(#p0ae3a610b7)" d="M 471.775678 90.745844 
L 526.356613 90.745844 
L 526.356613 82.725661 
L 471.775678 82.725661 
z
" style="fill:#cd674f;stroke:#000000;stroke-linejoin:miter;"/>
   </g>
   <g id="patch_56">
    <path clip-path="url(#p0ae3a610b7)" d="M 534.191759 93.337323 
L 588.772694 93.337323 
L 588.772694 84.564041 
L 534.191759 84.564041 
z
" style="fill:#cd674f;stroke:#000000;stroke-linejoin:miter;"/>
   </g>
   <g id="patch_57">
    <path clip-path="url(#p0ae3a610b7)" d="M 596.607839 99.858519 
L 651.188774 99.858519 
L 651.188774 89.915985 
L 596.607839 89.915985 
z
" style="fill:#cd674f;stroke:#000000;stroke-linejoin:miter;"/>
   </g>
   <g id="patch_58">
    <path clip-path="url(#p0ae3a610b7)" d="M 659.02392 116.881969 
L 713.604854 116.881969 
L 713.604854 106.410705 
L 659.02392 106.410705 
z
" style="fill:#cd674f;stroke:#000000;stroke-linejoin:miter;"/>
   </g>
   <g id="patch_59">
    <path clip-path="url(#p0ae3a610b7)" d="M 284.527437 81.471659 
L 339.108372 81.471659 
L 339.108372 75.580365 
L 284.527437 75.580365 
z
" style="fill:#ff8101;stroke:#000000;stroke-linejoin:miter;"/>
   </g>
   <g id="patch_60">
    <path clip-path="url(#p0ae3a610b7)" d="M 346.943518 78.135478 
L 401.524452 78.135478 
L 401.524452 73.703459 
L 346.943518 73.703459 
z
" style="fill:#ff8101;stroke:#000000;stroke-linejoin:miter;"/>
   </g>
   <g id="patch_61">
    <path clip-path="url(#p0ae3a610b7)" d="M 409.359598 78.677151 
L 463.940533 78.677151 
L 463.940533 73.476828 
L 409.359598 73.476828 
z
" style="fill:#ff8101;stroke:#000000;stroke-linejoin:miter;"/>
   </g>
   <g id="patch_62">
    <path clip-path="url(#p0ae3a610b7)" d="M 471.775678 82.725661 
L 526.356613 82.725661 
L 526.356613 73.652326 
L 471.775678 73.652326 
z
" style="fill:#ff8101;stroke:#000000;stroke-linejoin:miter;"/>
   </g>
   <g id="patch_63">
    <path clip-path="url(#p0ae3a610b7)" d="M 534.191759 84.564041 
L 588.772694 84.564041 
L 588.772694 73.093666 
L 534.191759 73.093666 
z
" style="fill:#ff8101;stroke:#000000;stroke-linejoin:miter;"/>
   </g>
   <g id="patch_64">
    <path clip-path="url(#p0ae3a610b7)" d="M 596.607839 89.915985 
L 651.188774 89.915985 
L 651.188774 74.894005 
L 596.607839 74.894005 
z
" style="fill:#ff8101;stroke:#000000;stroke-linejoin:miter;"/>
   </g>
   <g id="patch_65">
    <path clip-path="url(#p0ae3a610b7)" d="M 659.02392 106.410705 
L 713.604854 106.410705 
L 713.604854 84.917215 
L 659.02392 84.917215 
z
" style="fill:#ff8101;stroke:#000000;stroke-linejoin:miter;"/>
   </g>
   <g id="patch_66">
    <path clip-path="url(#p0ae3a610b7)" d="M 284.527437 75.580365 
L 339.108372 75.580365 
L 339.108372 68.476797 
L 284.527437 68.476797 
z
" style="fill:#ffc11a;stroke:#000000;stroke-linejoin:miter;"/>
   </g>
   <g id="patch_67">
    <path clip-path="url(#p0ae3a610b7)" d="M 346.943518 73.703459 
L 401.524452 73.703459 
L 401.524452 66.690847 
L 346.943518 66.690847 
z
" style="fill:#ffc11a;stroke:#000000;stroke-linejoin:miter;"/>
   </g>
   <g id="patch_68">
    <path clip-path="url(#p0ae3a610b7)" d="M 409.359598 73.476828 
L 463.940533 73.476828 
L 463.940533 66.577082 
L 409.359598 66.577082 
z
" style="fill:#ffc11a;stroke:#000000;stroke-linejoin:miter;"/>
   </g>
   <g id="patch_69">
    <path clip-path="url(#p0ae3a610b7)" d="M 471.775678 73.652326 
L 526.356613 73.652326 
L 526.356613 67.376381 
L 471.775678 67.376381 
z
" style="fill:#ffc11a;stroke:#000000;stroke-linejoin:miter;"/>
   </g>
   <g id="patch_70">
    <path clip-path="url(#p0ae3a610b7)" d="M 534.191759 73.093666 
L 588.772694 73.093666 
L 588.772694 67.303525 
L 534.191759 67.303525 
z
" style="fill:#ffc11a;stroke:#000000;stroke-linejoin:miter;"/>
   </g>
   <g id="patch_71">
    <path clip-path="url(#p0ae3a610b7)" d="M 596.607839 74.894005 
L 651.188774 74.894005 
L 651.188774 69.946349 
L 596.607839 69.946349 
z
" style="fill:#ffc11a;stroke:#000000;stroke-linejoin:miter;"/>
   </g>
   <g id="patch_72">
    <path clip-path="url(#p0ae3a610b7)" d="M 659.02392 84.917215 
L 713.604854 84.917215 
L 713.604854 81.519222 
L 659.02392 81.519222 
z
" style="fill:#ffc11a;stroke:#000000;stroke-linejoin:miter;"/>
   </g>
   <g id="patch_73">
    <path clip-path="url(#p0ae3a610b7)" d="M 284.527437 68.476797 
L 339.108372 68.476797 
L 339.108372 62.651918 
L 284.527437 62.651918 
z
" style="fill:#fdfc33;stroke:#000000;stroke-linejoin:miter;"/>
   </g>
   <g id="patch_74">
    <path clip-path="url(#p0ae3a610b7)" d="M 346.943518 66.690847 
L 401.524452 66.690847 
L 401.524452 60.151931 
L 346.943518 60.151931 
z
" style="fill:#fdfc33;stroke:#000000;stroke-linejoin:miter;"/>
   </g>
   <g id="patch_75">
    <path clip-path="url(#p0ae3a610b7)" d="M 409.359598 66.577082 
L 463.940533 66.577082 
L 463.940533 60.502503 
L 409.359598 60.502503 
z
" style="fill:#fdfc33;stroke:#000000;stroke-linejoin:miter;"/>
   </g>
   <g id="patch_76">
    <path clip-path="url(#p0ae3a610b7)" d="M 471.775678 67.376381 
L 526.356613 67.376381 
L 526.356613 62.71625 
L 471.775678 62.71625 
z
" style="fill:#fdfc33;stroke:#000000;stroke-linejoin:miter;"/>
   </g>
   <g id="patch_77">
    <path clip-path="url(#p0ae3a610b7)" d="M 534.191759 67.303525 
L 588.772694 67.303525 
L 588.772694 63.178459 
L 534.191759 63.178459 
z
" style="fill:#fdfc33;stroke:#000000;stroke-linejoin:miter;"/>
   </g>
   <g id="patch_78">
    <path clip-path="url(#p0ae3a610b7)" d="M 596.607839 69.946349 
L 651.188774 69.946349 
L 651.188774 67.253717 
L 596.607839 67.253717 
z
" style="fill:#fdfc33;stroke:#000000;stroke-linejoin:miter;"/>
   </g>
   <g id="patch_79">
    <path clip-path="url(#p0ae3a610b7)" d="M 659.02392 81.519222 
L 713.604854 81.519222 
L 713.604854 79.811729 
L 659.02392 79.811729 
z
" style="fill:#fdfc33;stroke:#000000;stroke-linejoin:miter;"/>
   </g>
   <g id="patch_80">
    <path clip-path="url(#p0ae3a610b7)" d="M 284.527437 62.651918 
L 339.108372 62.651918 
L 339.108372 57.09953 
L 284.527437 57.09953 
z
" style="fill:#d1a72d;stroke:#000000;stroke-linejoin:miter;"/>
   </g>
   <g id="patch_81">
    <path clip-path="url(#p0ae3a610b7)" d="M 346.943518 60.151931 
L 401.524452 60.151931 
L 401.524452 55.419317 
L 346.943518 55.419317 
z
" style="fill:#d1a72d;stroke:#000000;stroke-linejoin:miter;"/>
   </g>
   <g id="patch_82">
    <path clip-path="url(#p0ae3a610b7)" d="M 409.359598 60.502503 
L 463.940533 60.502503 
L 463.940533 56.124559 
L 409.359598 56.124559 
z
" style="fill:#d1a72d;stroke:#000000;stroke-linejoin:miter;"/>
   </g>
   <g id="patch_83">
    <path clip-path="url(#p0ae3a610b7)" d="M 471.775678 62.71625 
L 526.356613 62.71625 
L 526.356613 58.652206 
L 471.775678 58.652206 
z
" style="fill:#d1a72d;stroke:#000000;stroke-linejoin:miter;"/>
   </g>
   <g id="patch_84">
    <path clip-path="url(#p0ae3a610b7)" d="M 534.191759 63.178459 
L 588.772694 63.178459 
L 588.772694 58.979423 
L 534.191759 58.979423 
z
" style="fill:#d1a72d;stroke:#000000;stroke-linejoin:miter;"/>
   </g>
   <g id="patch_85">
    <path clip-path="url(#p0ae3a610b7)" d="M 596.607839 67.253717 
L 651.188774 67.253717 
L 651.188774 63.507175 
L 596.607839 63.507175 
z
" style="fill:#d1a72d;stroke:#000000;stroke-linejoin:miter;"/>
   </g>
   <g id="patch_86">
    <path clip-path="url(#p0ae3a610b7)" d="M 659.02392 79.811729 
L 713.604854 79.811729 
L 713.604854 76.375154 
L 659.02392 76.375154 
z
" style="fill:#d1a72d;stroke:#000000;stroke-linejoin:miter;"/>
   </g>
   <g id="patch_87">
    <path clip-path="url(#p0ae3a610b7)" d="M 284.527437 57.09953 
L 339.108372 57.09953 
L 339.108372 51.983656 
L 284.527437 51.983656 
z
" style="fill:#a8572c;stroke:#000000;stroke-linejoin:miter;"/>
   </g>
   <g id="patch_88">
    <path clip-path="url(#p0ae3a610b7)" d="M 346.943518 55.419317 
L 401.524452 55.419317 
L 401.524452 50.924294 
L 346.943518 50.924294 
z
" style="fill:#a8572c;stroke:#000000;stroke-linejoin:miter;"/>
   </g>
   <g id="patch_89">
    <path clip-path="url(#p0ae3a610b7)" d="M 409.359598 56.124559 
L 463.940533 56.124559 
L 463.940533 52.306624 
L 409.359598 52.306624 
z
" style="fill:#a8572c;stroke:#000000;stroke-linejoin:miter;"/>
   </g>
   <g id="patch_90">
    <path clip-path="url(#p0ae3a610b7)" d="M 471.775678 58.652206 
L 526.356613 58.652206 
L 526.356613 55.393723 
L 471.775678 55.393723 
z
" style="fill:#a8572c;stroke:#000000;stroke-linejoin:miter;"/>
   </g>
   <g id="patch_91">
    <path clip-path="url(#p0ae3a610b7)" d="M 534.191759 58.979423 
L 588.772694 58.979423 
L 588.772694 56.153086 
L 534.191759 56.153086 
z
" style="fill:#a8572c;stroke:#000000;stroke-linejoin:miter;"/>
   </g>
   <g id="patch_92">
    <path clip-path="url(#p0ae3a610b7)" d="M 596.607839 63.507175 
L 651.188774 63.507175 
L 651.188774 61.171231 
L 596.607839 61.171231 
z
" style="fill:#a8572c;stroke:#000000;stroke-linejoin:miter;"/>
   </g>
   <g id="patch_93">
    <path clip-path="url(#p0ae3a610b7)" d="M 659.02392 76.375154 
L 713.604854 76.375154 
L 713.604854 74.430145 
L 659.02392 74.430145 
z
" style="fill:#a8572c;stroke:#000000;stroke-linejoin:miter;"/>
   </g>
   <g id="patch_94">
    <path clip-path="url(#p0ae3a610b7)" d="M 284.527437 51.983656 
L 339.108372 51.983656 
L 339.108372 48.657322 
L 284.527437 48.657322 
z
" style="fill:#d16d77;stroke:#000000;stroke-linejoin:miter;"/>
   </g>
   <g id="patch_95">
    <path clip-path="url(#p0ae3a610b7)" d="M 346.943518 50.924294 
L 401.524452 50.924294 
L 401.524452 47.129506 
L 346.943518 47.129506 
z
" style="fill:#d16d77;stroke:#000000;stroke-linejoin:miter;"/>
   </g>
   <g id="patch_96">
    <path clip-path="url(#p0ae3a610b7)" d="M 409.359598 52.306624 
L 463.940533 52.306624 
L 463.940533 48.447873 
L 409.359598 48.447873 
z
" style="fill:#d16d77;stroke:#000000;stroke-linejoin:miter;"/>
   </g>
   <g id="patch_97">
    <path clip-path="url(#p0ae3a610b7)" d="M 471.775678 55.393723 
L 526.356613 55.393723 
L 526.356613 52.163754 
L 471.775678 52.163754 
z
" style="fill:#d16d77;stroke:#000000;stroke-linejoin:miter;"/>
   </g>
   <g id="patch_98">
    <path clip-path="url(#p0ae3a610b7)" d="M 534.191759 56.153086 
L 588.772694 56.153086 
L 588.772694 53.098969 
L 534.191759 53.098969 
z
" style="fill:#d16d77;stroke:#000000;stroke-linejoin:miter;"/>
   </g>
   <g id="patch_99">
    <path clip-path="url(#p0ae3a610b7)" d="M 596.607839 61.171231 
L 651.188774 61.171231 
L 651.188774 58.558634 
L 596.607839 58.558634 
z
" style="fill:#d16d77;stroke:#000000;stroke-linejoin:miter;"/>
   </g>
   <g id="patch_100">
    <path clip-path="url(#p0ae3a610b7)" d="M 659.02392 74.430145 
L 713.604854 74.430145 
L 713.604854 72.666559 
L 659.02392 72.666559 
z
" style="fill:#d16d77;stroke:#000000;stroke-linejoin:miter;"/>
   </g>
   <g id="patch_101">
    <path clip-path="url(#p0ae3a610b7)" d="M 284.527437 48.657322 
L 339.108372 48.657322 
L 339.108372 46.674135 
L 284.527437 46.674135 
z
" style="fill:#f482be;stroke:#000000;stroke-linejoin:miter;"/>
   </g>
   <g id="patch_102">
    <path clip-path="url(#p0ae3a610b7)" d="M 346.943518 47.129506 
L 401.524452 47.129506 
L 401.524452 44.833813 
L 346.943518 44.833813 
z
" style="fill:#f482be;stroke:#000000;stroke-linejoin:miter;"/>
   </g>
   <g id="patch_103">
    <path clip-path="url(#p0ae3a610b7)" d="M 409.359598 48.447873 
L 463.940533 48.447873 
L 463.940533 45.760761 
L 409.359598 45.760761 
z
" style="fill:#f482be;stroke:#000000;stroke-linejoin:miter;"/>
   </g>
   <g id="patch_104">
    <path clip-path="url(#p0ae3a610b7)" d="M 471.775678 52.163754 
L 526.356613 52.163754 
L 526.356613 48.134769 
L 471.775678 48.134769 
z
" style="fill:#f482be;stroke:#000000;stroke-linejoin:miter;"/>
   </g>
   <g id="patch_105">
    <path clip-path="url(#p0ae3a610b7)" d="M 534.191759 53.098969 
L 588.772694 53.098969 
L 588.772694 48.05588 
L 534.191759 48.05588 
z
" style="fill:#f482be;stroke:#000000;stroke-linejoin:miter;"/>
   </g>
   <g id="patch_106">
    <path clip-path="url(#p0ae3a610b7)" d="M 596.607839 58.558634 
L 651.188774 58.558634 
L 651.188774 51.186435 
L 596.607839 51.186435 
z
" style="fill:#f482be;stroke:#000000;stroke-linejoin:miter;"/>
   </g>
   <g id="patch_107">
    <path clip-path="url(#p0ae3a610b7)" d="M 659.02392 72.666559 
L 713.604854 72.666559 
L 713.604854 61.559253 
L 659.02392 61.559253 
z
" style="fill:#f482be;stroke:#000000;stroke-linejoin:miter;"/>
   </g>
   <g id="patch_108">
    <path clip-path="url(#p0ae3a610b7)" d="M 284.527437 46.674135 
L 339.108372 46.674135 
L 339.108372 43.889346 
L 284.527437 43.889346 
z
" style="fill:#c58eab;stroke:#000000;stroke-linejoin:miter;"/>
   </g>
   <g id="patch_109">
    <path clip-path="url(#p0ae3a610b7)" d="M 346.943518 44.833813 
L 401.524452 44.833813 
L 401.524452 41.827433 
L 346.943518 41.827433 
z
" style="fill:#c58eab;stroke:#000000;stroke-linejoin:miter;"/>
   </g>
   <g id="patch_110">
    <path clip-path="url(#p0ae3a610b7)" d="M 409.359598 45.760761 
L 463.940533 45.760761 
L 463.940533 42.643722 
L 409.359598 42.643722 
z
" style="fill:#c58eab;stroke:#000000;stroke-linejoin:miter;"/>
   </g>
   <g id="patch_111">
    <path clip-path="url(#p0ae3a610b7)" d="M 471.775678 48.134769 
L 526.356613 48.134769 
L 526.356613 45.276171 
L 471.775678 45.276171 
z
" style="fill:#c58eab;stroke:#000000;stroke-linejoin:miter;"/>
   </g>
   <g id="patch_112">
    <path clip-path="url(#p0ae3a610b7)" d="M 534.191759 48.05588 
L 588.772694 48.05588 
L 588.772694 44.735896 
L 534.191759 44.735896 
z
" style="fill:#c58eab;stroke:#000000;stroke-linejoin:miter;"/>
   </g>
   <g id="patch_113">
    <path clip-path="url(#p0ae3a610b7)" d="M 596.607839 51.186435 
L 651.188774 51.186435 
L 651.188774 46.920616 
L 596.607839 46.920616 
z
" style="fill:#c58eab;stroke:#000000;stroke-linejoin:miter;"/>
   </g>
   <g id="patch_114">
    <path clip-path="url(#p0ae3a610b7)" d="M 659.02392 61.559253 
L 713.604854 61.559253 
L 713.604854 51.362823 
L 659.02392 51.362823 
z
" style="fill:#c58eab;stroke:#000000;stroke-linejoin:miter;"/>
   </g>
   <g id="patch_115">
    <path d="M 275.04 23.14175 
L 721.44 23.14175 
" style="fill:none;stroke:#000000;stroke-linecap:square;stroke-linejoin:miter;"/>
   </g>
   <g id="patch_116">
    <path d="M 275.04 311.14175 
L 275.04 23.14175 
" style="fill:none;stroke:#000000;stroke-linecap:square;stroke-linejoin:miter;"/>
   </g>
   <g id="patch_117">
    <path d="M 275.04 311.14175 
L 721.44 311.14175 
" style="fill:none;stroke:#000000;stroke-linecap:square;stroke-linejoin:miter;"/>
   </g>
   <g id="patch_118">
    <path d="M 721.44 311.14175 
L 721.44 23.14175 
" style="fill:none;stroke:#000000;stroke-linecap:square;stroke-linejoin:miter;"/>
   </g>
   <g id="matplotlib.axis_1">
    <g id="xtick_1">
     <g id="line2d_1">
      <defs>
       <path d="M 0 0 
L 0 -4 
" id="m25a78c5352" style="stroke:#000000;stroke-width:0.5;"/>
      </defs>
      <g>
       <use style="stroke:#000000;stroke-width:0.5;" x="315.891538948" xlink:href="#m25a78c5352" y="311.14175"/>
      </g>
     </g>
     <g id="line2d_2">
      <defs>
       <path d="M 0 0 
L 0 4 
" id="m6e9abb587c" style="stroke:#000000;stroke-width:0.5;"/>
      </defs>
      <g>
       <use style="stroke:#000000;stroke-width:0.5;" x="315.891538948" xlink:href="#m6e9abb587c" y="23.14175"/>
      </g>
     </g>
     <g id="text_1">
      <!-- 120 -->
      <defs>
       <path d="M 31.78125 66.40625 
Q 24.171875 66.40625 20.328125 58.90625 
Q 16.5 51.421875 16.5 36.375 
Q 16.5 21.390625 20.328125 13.890625 
Q 24.171875 6.390625 31.78125 6.390625 
Q 39.453125 6.390625 43.28125 13.890625 
Q 47.125 21.390625 47.125 36.375 
Q 47.125 51.421875 43.28125 58.90625 
Q 39.453125 66.40625 31.78125 66.40625 
M 31.78125 74.21875 
Q 44.046875 74.21875 50.515625 64.515625 
Q 56.984375 54.828125 56.984375 36.375 
Q 56.984375 17.96875 50.515625 8.265625 
Q 44.046875 -1.421875 31.78125 -1.421875 
Q 19.53125 -1.421875 13.0625 8.265625 
Q 6.59375 17.96875 6.59375 36.375 
Q 6.59375 54.828125 13.0625 64.515625 
Q 19.53125 74.21875 31.78125 74.21875 
" id="BitstreamVeraSans-Roman-30"/>
       <path d="M 12.40625 8.296875 
L 28.515625 8.296875 
L 28.515625 63.921875 
L 10.984375 60.40625 
L 10.984375 69.390625 
L 28.421875 72.90625 
L 38.28125 72.90625 
L 38.28125 8.296875 
L 54.390625 8.296875 
L 54.390625 0 
L 12.40625 0 
z
" id="BitstreamVeraSans-Roman-31"/>
       <path d="M 19.1875 8.296875 
L 53.609375 8.296875 
L 53.609375 0 
L 7.328125 0 
L 7.328125 8.296875 
Q 12.9375 14.109375 22.625 23.890625 
Q 32.328125 33.6875 34.8125 36.53125 
Q 39.546875 41.84375 41.421875 45.53125 
Q 43.3125 49.21875 43.3125 52.78125 
Q 43.3125 58.59375 39.234375 62.25 
Q 35.15625 65.921875 28.609375 65.921875 
Q 23.96875 65.921875 18.8125 64.3125 
Q 13.671875 62.703125 7.8125 59.421875 
L 7.8125 69.390625 
Q 13.765625 71.78125 18.9375 73 
Q 24.125 74.21875 28.421875 74.21875 
Q 39.75 74.21875 46.484375 68.546875 
Q 53.21875 62.890625 53.21875 53.421875 
Q 53.21875 48.921875 51.53125 44.890625 
Q 49.859375 40.875 45.40625 35.40625 
Q 44.1875 33.984375 37.640625 27.21875 
Q 31.109375 20.453125 19.1875 8.296875 
" id="BitstreamVeraSans-Roman-32"/>
      </defs>
      <g style="fill:#ffffff;" transform="translate(304.439038948 324.259875)scale(0.12 -0.12)">
       <use xlink:href="#BitstreamVeraSans-Roman-31"/>
       <use x="63.623046875" xlink:href="#BitstreamVeraSans-Roman-32"/>
       <use x="127.24609375" xlink:href="#BitstreamVeraSans-Roman-30"/>
      </g>
     </g>
    </g>
    <g id="xtick_2">
     <g id="line2d_3">
      <g>
       <use style="stroke:#000000;stroke-width:0.5;" x="378.307619334" xlink:href="#m25a78c5352" y="311.14175"/>
      </g>
     </g>
     <g id="line2d_4">
      <g>
       <use style="stroke:#000000;stroke-width:0.5;" x="378.307619334" xlink:href="#m6e9abb587c" y="23.14175"/>
      </g>
     </g>
     <g id="text_2">
      <!-- 240 -->
      <defs>
       <path d="M 37.796875 64.3125 
L 12.890625 25.390625 
L 37.796875 25.390625 
z
M 35.203125 72.90625 
L 47.609375 72.90625 
L 47.609375 25.390625 
L 58.015625 25.390625 
L 58.015625 17.1875 
L 47.609375 17.1875 
L 47.609375 0 
L 37.796875 0 
L 37.796875 17.1875 
L 4.890625 17.1875 
L 4.890625 26.703125 
z
" id="BitstreamVeraSans-Roman-34"/>
      </defs>
      <g style="fill:#ffffff;" transform="translate(366.855119334 324.259875)scale(0.12 -0.12)">
       <use xlink:href="#BitstreamVeraSans-Roman-32"/>
       <use x="63.623046875" xlink:href="#BitstreamVeraSans-Roman-34"/>
       <use x="127.24609375" xlink:href="#BitstreamVeraSans-Roman-30"/>
      </g>
     </g>
    </g>
    <g id="xtick_3">
     <g id="line2d_5">
      <g>
       <use style="stroke:#000000;stroke-width:0.5;" x="440.723699719" xlink:href="#m25a78c5352" y="311.14175"/>
      </g>
     </g>
     <g id="line2d_6">
      <g>
       <use style="stroke:#000000;stroke-width:0.5;" x="440.723699719" xlink:href="#m6e9abb587c" y="23.14175"/>
      </g>
     </g>
     <g id="text_3">
      <!-- 480 -->
      <defs>
       <path d="M 31.78125 34.625 
Q 24.75 34.625 20.71875 30.859375 
Q 16.703125 27.09375 16.703125 20.515625 
Q 16.703125 13.921875 20.71875 10.15625 
Q 24.75 6.390625 31.78125 6.390625 
Q 38.8125 6.390625 42.859375 10.171875 
Q 46.921875 13.96875 46.921875 20.515625 
Q 46.921875 27.09375 42.890625 30.859375 
Q 38.875 34.625 31.78125 34.625 
M 21.921875 38.8125 
Q 15.578125 40.375 12.03125 44.71875 
Q 8.5 49.078125 8.5 55.328125 
Q 8.5 64.0625 14.71875 69.140625 
Q 20.953125 74.21875 31.78125 74.21875 
Q 42.671875 74.21875 48.875 69.140625 
Q 55.078125 64.0625 55.078125 55.328125 
Q 55.078125 49.078125 51.53125 44.71875 
Q 48 40.375 41.703125 38.8125 
Q 48.828125 37.15625 52.796875 32.3125 
Q 56.78125 27.484375 56.78125 20.515625 
Q 56.78125 9.90625 50.3125 4.234375 
Q 43.84375 -1.421875 31.78125 -1.421875 
Q 19.734375 -1.421875 13.25 4.234375 
Q 6.78125 9.90625 6.78125 20.515625 
Q 6.78125 27.484375 10.78125 32.3125 
Q 14.796875 37.15625 21.921875 38.8125 
M 18.3125 54.390625 
Q 18.3125 48.734375 21.84375 45.5625 
Q 25.390625 42.390625 31.78125 42.390625 
Q 38.140625 42.390625 41.71875 45.5625 
Q 45.3125 48.734375 45.3125 54.390625 
Q 45.3125 60.0625 41.71875 63.234375 
Q 38.140625 66.40625 31.78125 66.40625 
Q 25.390625 66.40625 21.84375 63.234375 
Q 18.3125 60.0625 18.3125 54.390625 
" id="BitstreamVeraSans-Roman-38"/>
      </defs>
      <g style="fill:#ffffff;" transform="translate(429.271199719 324.259875)scale(0.12 -0.12)">
       <use xlink:href="#BitstreamVeraSans-Roman-34"/>
       <use x="63.623046875" xlink:href="#BitstreamVeraSans-Roman-38"/>
       <use x="127.24609375" xlink:href="#BitstreamVeraSans-Roman-30"/>
      </g>
     </g>
    </g>
    <g id="xtick_4">
     <g id="line2d_7">
      <g>
       <use style="stroke:#000000;stroke-width:0.5;" x="503.139780105" xlink:href="#m25a78c5352" y="311.14175"/>
      </g>
     </g>
     <g id="line2d_8">
      <g>
       <use style="stroke:#000000;stroke-width:0.5;" x="503.139780105" xlink:href="#m6e9abb587c" y="23.14175"/>
      </g>
     </g>
     <g id="text_4">
      <!-- 960 -->
      <defs>
       <path d="M 33.015625 40.375 
Q 26.375 40.375 22.484375 35.828125 
Q 18.609375 31.296875 18.609375 23.390625 
Q 18.609375 15.53125 22.484375 10.953125 
Q 26.375 6.390625 33.015625 6.390625 
Q 39.65625 6.390625 43.53125 10.953125 
Q 47.40625 15.53125 47.40625 23.390625 
Q 47.40625 31.296875 43.53125 35.828125 
Q 39.65625 40.375 33.015625 40.375 
M 52.59375 71.296875 
L 52.59375 62.3125 
Q 48.875 64.0625 45.09375 64.984375 
Q 41.3125 65.921875 37.59375 65.921875 
Q 27.828125 65.921875 22.671875 59.328125 
Q 17.53125 52.734375 16.796875 39.40625 
Q 19.671875 43.65625 24.015625 45.921875 
Q 28.375 48.1875 33.59375 48.1875 
Q 44.578125 48.1875 50.953125 41.515625 
Q 57.328125 34.859375 57.328125 23.390625 
Q 57.328125 12.15625 50.6875 5.359375 
Q 44.046875 -1.421875 33.015625 -1.421875 
Q 20.359375 -1.421875 13.671875 8.265625 
Q 6.984375 17.96875 6.984375 36.375 
Q 6.984375 53.65625 15.1875 63.9375 
Q 23.390625 74.21875 37.203125 74.21875 
Q 40.921875 74.21875 44.703125 73.484375 
Q 48.484375 72.75 52.59375 71.296875 
" id="BitstreamVeraSans-Roman-36"/>
       <path d="M 10.984375 1.515625 
L 10.984375 10.5 
Q 14.703125 8.734375 18.5 7.8125 
Q 22.3125 6.890625 25.984375 6.890625 
Q 35.75 6.890625 40.890625 13.453125 
Q 46.046875 20.015625 46.78125 33.40625 
Q 43.953125 29.203125 39.59375 26.953125 
Q 35.25 24.703125 29.984375 24.703125 
Q 19.046875 24.703125 12.671875 31.3125 
Q 6.296875 37.9375 6.296875 49.421875 
Q 6.296875 60.640625 12.9375 67.421875 
Q 19.578125 74.21875 30.609375 74.21875 
Q 43.265625 74.21875 49.921875 64.515625 
Q 56.59375 54.828125 56.59375 36.375 
Q 56.59375 19.140625 48.40625 8.859375 
Q 40.234375 -1.421875 26.421875 -1.421875 
Q 22.703125 -1.421875 18.890625 -0.6875 
Q 15.09375 0.046875 10.984375 1.515625 
M 30.609375 32.421875 
Q 37.25 32.421875 41.125 36.953125 
Q 45.015625 41.5 45.015625 49.421875 
Q 45.015625 57.28125 41.125 61.84375 
Q 37.25 66.40625 30.609375 66.40625 
Q 23.96875 66.40625 20.09375 61.84375 
Q 16.21875 57.28125 16.21875 49.421875 
Q 16.21875 41.5 20.09375 36.953125 
Q 23.96875 32.421875 30.609375 32.421875 
" id="BitstreamVeraSans-Roman-39"/>
      </defs>
      <g style="fill:#ffffff;" transform="translate(491.687280105 324.259875)scale(0.12 -0.12)">
       <use xlink:href="#BitstreamVeraSans-Roman-39"/>
       <use x="63.623046875" xlink:href="#BitstreamVeraSans-Roman-36"/>
       <use x="127.24609375" xlink:href="#BitstreamVeraSans-Roman-30"/>
      </g>
     </g>
    </g>
    <g id="xtick_5">
     <g id="line2d_9">
      <g>
       <use style="stroke:#000000;stroke-width:0.5;" x="565.555860491" xlink:href="#m25a78c5352" y="311.14175"/>
      </g>
     </g>
     <g id="line2d_10">
      <g>
       <use style="stroke:#000000;stroke-width:0.5;" x="565.555860491" xlink:href="#m6e9abb587c" y="23.14175"/>
      </g>
     </g>
     <g id="text_5">
      <!-- 1920 -->
      <g style="fill:#ffffff;" transform="translate(550.285860491 324.259875)scale(0.12 -0.12)">
       <use xlink:href="#BitstreamVeraSans-Roman-31"/>
       <use x="63.623046875" xlink:href="#BitstreamVeraSans-Roman-39"/>
       <use x="127.24609375" xlink:href="#BitstreamVeraSans-Roman-32"/>
       <use x="190.869140625" xlink:href="#BitstreamVeraSans-Roman-30"/>
      </g>
     </g>
    </g>
    <g id="xtick_6">
     <g id="line2d_11">
      <g>
       <use style="stroke:#000000;stroke-width:0.5;" x="627.971940877" xlink:href="#m25a78c5352" y="311.14175"/>
      </g>
     </g>
     <g id="line2d_12">
      <g>
       <use style="stroke:#000000;stroke-width:0.5;" x="627.971940877" xlink:href="#m6e9abb587c" y="23.14175"/>
      </g>
     </g>
     <g id="text_6">
      <!-- 3840 -->
      <defs>
       <path d="M 40.578125 39.3125 
Q 47.65625 37.796875 51.625 33 
Q 55.609375 28.21875 55.609375 21.1875 
Q 55.609375 10.40625 48.1875 4.484375 
Q 40.765625 -1.421875 27.09375 -1.421875 
Q 22.515625 -1.421875 17.65625 -0.515625 
Q 12.796875 0.390625 7.625 2.203125 
L 7.625 11.71875 
Q 11.71875 9.328125 16.59375 8.109375 
Q 21.484375 6.890625 26.8125 6.890625 
Q 36.078125 6.890625 40.9375 10.546875 
Q 45.796875 14.203125 45.796875 21.1875 
Q 45.796875 27.640625 41.28125 31.265625 
Q 36.765625 34.90625 28.71875 34.90625 
L 20.21875 34.90625 
L 20.21875 43.015625 
L 29.109375 43.015625 
Q 36.375 43.015625 40.234375 45.921875 
Q 44.09375 48.828125 44.09375 54.296875 
Q 44.09375 59.90625 40.109375 62.90625 
Q 36.140625 65.921875 28.71875 65.921875 
Q 24.65625 65.921875 20.015625 65.03125 
Q 15.375 64.15625 9.8125 62.3125 
L 9.8125 71.09375 
Q 15.4375 72.65625 20.34375 73.4375 
Q 25.25 74.21875 29.59375 74.21875 
Q 40.828125 74.21875 47.359375 69.109375 
Q 53.90625 64.015625 53.90625 55.328125 
Q 53.90625 49.265625 50.4375 45.09375 
Q 46.96875 40.921875 40.578125 39.3125 
" id="BitstreamVeraSans-Roman-33"/>
      </defs>
      <g style="fill:#ffffff;" transform="translate(612.701940877 324.259875)scale(0.12 -0.12)">
       <use xlink:href="#BitstreamVeraSans-Roman-33"/>
       <use x="63.623046875" xlink:href="#BitstreamVeraSans-Roman-38"/>
       <use x="127.24609375" xlink:href="#BitstreamVeraSans-Roman-34"/>
       <use x="190.869140625" xlink:href="#BitstreamVeraSans-Roman-30"/>
      </g>
     </g>
    </g>
    <g id="xtick_7">
     <g id="line2d_13">
      <g>
       <use style="stroke:#000000;stroke-width:0.5;" x="690.388021263" xlink:href="#m25a78c5352" y="311.14175"/>
      </g>
     </g>
     <g id="line2d_14">
      <g>
       <use style="stroke:#000000;stroke-width:0.5;" x="690.388021263" xlink:href="#m6e9abb587c" y="23.14175"/>
      </g>
     </g>
     <g id="text_7">
      <!-- 7680 -->
      <defs>
       <path d="M 8.203125 72.90625 
L 55.078125 72.90625 
L 55.078125 68.703125 
L 28.609375 0 
L 18.3125 0 
L 43.21875 64.59375 
L 8.203125 64.59375 
z
" id="BitstreamVeraSans-Roman-37"/>
      </defs>
      <g style="fill:#ffffff;" transform="translate(675.118021263 324.259875)scale(0.12 -0.12)">
       <use xlink:href="#BitstreamVeraSans-Roman-37"/>
       <use x="63.623046875" xlink:href="#BitstreamVeraSans-Roman-36"/>
       <use x="127.24609375" xlink:href="#BitstreamVeraSans-Roman-38"/>
       <use x="190.869140625" xlink:href="#BitstreamVeraSans-Roman-30"/>
      </g>
     </g>
    </g>
    <g id="xtick_8">
     <g id="line2d_15">
      <defs>
       <path d="M 0 0 
L 0 -2 
" id="m4d8153386c" style="stroke:#000000;stroke-width:0.5;"/>
      </defs>
      <g>
       <use style="stroke:#000000;stroke-width:0.5;" x="330.525941066" xlink:href="#m4d8153386c" y="311.14175"/>
      </g>
     </g>
     <g id="line2d_16">
      <defs>
       <path d="M 0 0 
L 0 2 
" id="mb30f2dbbf3" style="stroke:#000000;stroke-width:0.5;"/>
      </defs>
      <g>
       <use style="stroke:#000000;stroke-width:0.5;" x="330.525941066" xlink:href="#mb30f2dbbf3" y="23.14175"/>
      </g>
     </g>
    </g>
    <g id="xtick_9">
     <g id="line2d_17">
      <g>
       <use style="stroke:#000000;stroke-width:0.5;" x="367.037007534" xlink:href="#m4d8153386c" y="311.14175"/>
      </g>
     </g>
     <g id="line2d_18">
      <g>
       <use style="stroke:#000000;stroke-width:0.5;" x="367.037007534" xlink:href="#mb30f2dbbf3" y="23.14175"/>
      </g>
     </g>
    </g>
    <g id="xtick_10">
     <g id="line2d_19">
      <g>
       <use style="stroke:#000000;stroke-width:0.5;" x="392.942021452" xlink:href="#m4d8153386c" y="311.14175"/>
      </g>
     </g>
     <g id="line2d_20">
      <g>
       <use style="stroke:#000000;stroke-width:0.5;" x="392.942021452" xlink:href="#mb30f2dbbf3" y="23.14175"/>
      </g>
     </g>
    </g>
    <g id="xtick_11">
     <g id="line2d_21">
      <g>
       <use style="stroke:#000000;stroke-width:0.5;" x="413.035511301" xlink:href="#m4d8153386c" y="311.14175"/>
      </g>
     </g>
     <g id="line2d_22">
      <g>
       <use style="stroke:#000000;stroke-width:0.5;" x="413.035511301" xlink:href="#mb30f2dbbf3" y="23.14175"/>
      </g>
     </g>
    </g>
    <g id="xtick_12">
     <g id="line2d_23">
      <g>
       <use style="stroke:#000000;stroke-width:0.5;" x="429.45308792" xlink:href="#m4d8153386c" y="311.14175"/>
      </g>
     </g>
     <g id="line2d_24">
      <g>
       <use style="stroke:#000000;stroke-width:0.5;" x="429.45308792" xlink:href="#mb30f2dbbf3" y="23.14175"/>
      </g>
     </g>
    </g>
    <g id="xtick_13">
     <g id="line2d_25">
      <g>
       <use style="stroke:#000000;stroke-width:0.5;" x="443.333951167" xlink:href="#m4d8153386c" y="311.14175"/>
      </g>
     </g>
     <g id="line2d_26">
      <g>
       <use style="stroke:#000000;stroke-width:0.5;" x="443.333951167" xlink:href="#mb30f2dbbf3" y="23.14175"/>
      </g>
     </g>
    </g>
    <g id="xtick_14">
     <g id="line2d_27">
      <g>
       <use style="stroke:#000000;stroke-width:0.5;" x="455.358101838" xlink:href="#m4d8153386c" y="311.14175"/>
      </g>
     </g>
     <g id="line2d_28">
      <g>
       <use style="stroke:#000000;stroke-width:0.5;" x="455.358101838" xlink:href="#mb30f2dbbf3" y="23.14175"/>
      </g>
     </g>
    </g>
    <g id="xtick_15">
     <g id="line2d_29">
      <g>
       <use style="stroke:#000000;stroke-width:0.5;" x="465.964154388" xlink:href="#m4d8153386c" y="311.14175"/>
      </g>
     </g>
     <g id="line2d_30">
      <g>
       <use style="stroke:#000000;stroke-width:0.5;" x="465.964154388" xlink:href="#mb30f2dbbf3" y="23.14175"/>
      </g>
     </g>
    </g>
    <g id="xtick_16">
     <g id="line2d_31">
      <g>
       <use style="stroke:#000000;stroke-width:0.5;" x="537.867672073" xlink:href="#m4d8153386c" y="311.14175"/>
      </g>
     </g>
     <g id="line2d_32">
      <g>
       <use style="stroke:#000000;stroke-width:0.5;" x="537.867672073" xlink:href="#mb30f2dbbf3" y="23.14175"/>
      </g>
     </g>
    </g>
    <g id="xtick_17">
     <g id="line2d_33">
      <g>
       <use style="stroke:#000000;stroke-width:0.5;" x="574.37873854" xlink:href="#m4d8153386c" y="311.14175"/>
      </g>
     </g>
     <g id="line2d_34">
      <g>
       <use style="stroke:#000000;stroke-width:0.5;" x="574.37873854" xlink:href="#mb30f2dbbf3" y="23.14175"/>
      </g>
     </g>
    </g>
    <g id="xtick_18">
     <g id="line2d_35">
      <g>
       <use style="stroke:#000000;stroke-width:0.5;" x="600.283752459" xlink:href="#m4d8153386c" y="311.14175"/>
      </g>
     </g>
     <g id="line2d_36">
      <g>
       <use style="stroke:#000000;stroke-width:0.5;" x="600.283752459" xlink:href="#mb30f2dbbf3" y="23.14175"/>
      </g>
     </g>
    </g>
    <g id="xtick_19">
     <g id="line2d_37">
      <g>
       <use style="stroke:#000000;stroke-width:0.5;" x="620.377242308" xlink:href="#m4d8153386c" y="311.14175"/>
      </g>
     </g>
     <g id="line2d_38">
      <g>
       <use style="stroke:#000000;stroke-width:0.5;" x="620.377242308" xlink:href="#mb30f2dbbf3" y="23.14175"/>
      </g>
     </g>
    </g>
    <g id="xtick_20">
     <g id="line2d_39">
      <g>
       <use style="stroke:#000000;stroke-width:0.5;" x="636.794818926" xlink:href="#m4d8153386c" y="311.14175"/>
      </g>
     </g>
     <g id="line2d_40">
      <g>
       <use style="stroke:#000000;stroke-width:0.5;" x="636.794818926" xlink:href="#mb30f2dbbf3" y="23.14175"/>
      </g>
     </g>
    </g>
    <g id="xtick_21">
     <g id="line2d_41">
      <g>
       <use style="stroke:#000000;stroke-width:0.5;" x="650.675682174" xlink:href="#m4d8153386c" y="311.14175"/>
      </g>
     </g>
     <g id="line2d_42">
      <g>
       <use style="stroke:#000000;stroke-width:0.5;" x="650.675682174" xlink:href="#mb30f2dbbf3" y="23.14175"/>
      </g>
     </g>
    </g>
    <g id="xtick_22">
     <g id="line2d_43">
      <g>
       <use style="stroke:#000000;stroke-width:0.5;" x="662.699832844" xlink:href="#m4d8153386c" y="311.14175"/>
      </g>
     </g>
     <g id="line2d_44">
      <g>
       <use style="stroke:#000000;stroke-width:0.5;" x="662.699832844" xlink:href="#mb30f2dbbf3" y="23.14175"/>
      </g>
     </g>
    </g>
    <g id="xtick_23">
     <g id="line2d_45">
      <g>
       <use style="stroke:#000000;stroke-width:0.5;" x="673.305885394" xlink:href="#m4d8153386c" y="311.14175"/>
      </g>
     </g>
     <g id="line2d_46">
      <g>
       <use style="stroke:#000000;stroke-width:0.5;" x="673.305885394" xlink:href="#mb30f2dbbf3" y="23.14175"/>
      </g>
     </g>
    </g>
    <g id="text_8">
     <!-- # of CPUs -->
     <defs>
      <path d="M 44.28125 53.078125 
L 44.28125 44.578125 
Q 40.484375 46.53125 36.375 47.5 
Q 32.28125 48.484375 27.875 48.484375 
Q 21.1875 48.484375 17.84375 46.4375 
Q 14.5 44.390625 14.5 40.28125 
Q 14.5 37.15625 16.890625 35.375 
Q 19.28125 33.59375 26.515625 31.984375 
L 29.59375 31.296875 
Q 39.15625 29.25 43.1875 25.515625 
Q 47.21875 21.78125 47.21875 15.09375 
Q 47.21875 7.46875 41.1875 3.015625 
Q 35.15625 -1.421875 24.609375 -1.421875 
Q 20.21875 -1.421875 15.453125 -0.5625 
Q 10.6875 0.296875 5.421875 2 
L 5.421875 11.28125 
Q 10.40625 8.6875 15.234375 7.390625 
Q 20.0625 6.109375 24.8125 6.109375 
Q 31.15625 6.109375 34.5625 8.28125 
Q 37.984375 10.453125 37.984375 14.40625 
Q 37.984375 18.0625 35.515625 20.015625 
Q 33.0625 21.96875 24.703125 23.78125 
L 21.578125 24.515625 
Q 13.234375 26.265625 9.515625 29.90625 
Q 5.8125 33.546875 5.8125 39.890625 
Q 5.8125 47.609375 11.28125 51.796875 
Q 16.75 56 26.8125 56 
Q 31.78125 56 36.171875 55.265625 
Q 40.578125 54.546875 44.28125 53.078125 
" id="BitstreamVeraSans-Roman-73"/>
      <path d="M 51.125 44 
L 36.921875 44 
L 32.8125 27.6875 
L 47.125 27.6875 
z
M 43.796875 71.78125 
L 38.71875 51.515625 
L 52.984375 51.515625 
L 58.109375 71.78125 
L 65.921875 71.78125 
L 60.890625 51.515625 
L 76.125 51.515625 
L 76.125 44 
L 58.984375 44 
L 54.984375 27.6875 
L 70.515625 27.6875 
L 70.515625 20.21875 
L 53.078125 20.21875 
L 48 0 
L 40.1875 0 
L 45.21875 20.21875 
L 30.90625 20.21875 
L 25.875 0 
L 18.015625 0 
L 23.09375 20.21875 
L 7.71875 20.21875 
L 7.71875 27.6875 
L 24.90625 27.6875 
L 29 44 
L 13.28125 44 
L 13.28125 51.515625 
L 30.90625 51.515625 
L 35.890625 71.78125 
z
" id="BitstreamVeraSans-Roman-23"/>
      <path d="M 64.40625 67.28125 
L 64.40625 56.890625 
Q 59.421875 61.53125 53.78125 63.8125 
Q 48.140625 66.109375 41.796875 66.109375 
Q 29.296875 66.109375 22.65625 58.46875 
Q 16.015625 50.828125 16.015625 36.375 
Q 16.015625 21.96875 22.65625 14.328125 
Q 29.296875 6.6875 41.796875 6.6875 
Q 48.140625 6.6875 53.78125 8.984375 
Q 59.421875 11.28125 64.40625 15.921875 
L 64.40625 5.609375 
Q 59.234375 2.09375 53.4375 0.328125 
Q 47.65625 -1.421875 41.21875 -1.421875 
Q 24.65625 -1.421875 15.125 8.703125 
Q 5.609375 18.84375 5.609375 36.375 
Q 5.609375 53.953125 15.125 64.078125 
Q 24.65625 74.21875 41.21875 74.21875 
Q 47.75 74.21875 53.53125 72.484375 
Q 59.328125 70.75 64.40625 67.28125 
" id="BitstreamVeraSans-Roman-43"/>
      <path d="M 30.609375 48.390625 
Q 23.390625 48.390625 19.1875 42.75 
Q 14.984375 37.109375 14.984375 27.296875 
Q 14.984375 17.484375 19.15625 11.84375 
Q 23.34375 6.203125 30.609375 6.203125 
Q 37.796875 6.203125 41.984375 11.859375 
Q 46.1875 17.53125 46.1875 27.296875 
Q 46.1875 37.015625 41.984375 42.703125 
Q 37.796875 48.390625 30.609375 48.390625 
M 30.609375 56 
Q 42.328125 56 49.015625 48.375 
Q 55.71875 40.765625 55.71875 27.296875 
Q 55.71875 13.875 49.015625 6.21875 
Q 42.328125 -1.421875 30.609375 -1.421875 
Q 18.84375 -1.421875 12.171875 6.21875 
Q 5.515625 13.875 5.515625 27.296875 
Q 5.515625 40.765625 12.171875 48.375 
Q 18.84375 56 30.609375 56 
" id="BitstreamVeraSans-Roman-6f"/>
      <path d="M 37.109375 75.984375 
L 37.109375 68.5 
L 28.515625 68.5 
Q 23.6875 68.5 21.796875 66.546875 
Q 19.921875 64.59375 19.921875 59.515625 
L 19.921875 54.6875 
L 34.71875 54.6875 
L 34.71875 47.703125 
L 19.921875 47.703125 
L 19.921875 0 
L 10.890625 0 
L 10.890625 47.703125 
L 2.296875 47.703125 
L 2.296875 54.6875 
L 10.890625 54.6875 
L 10.890625 58.5 
Q 10.890625 67.625 15.140625 71.796875 
Q 19.390625 75.984375 28.609375 75.984375 
z
" id="BitstreamVeraSans-Roman-66"/>
      <path d="M 19.671875 64.796875 
L 19.671875 37.40625 
L 32.078125 37.40625 
Q 38.96875 37.40625 42.71875 40.96875 
Q 46.484375 44.53125 46.484375 51.125 
Q 46.484375 57.671875 42.71875 61.234375 
Q 38.96875 64.796875 32.078125 64.796875 
z
M 9.8125 72.90625 
L 32.078125 72.90625 
Q 44.34375 72.90625 50.609375 67.359375 
Q 56.890625 61.8125 56.890625 51.125 
Q 56.890625 40.328125 50.609375 34.8125 
Q 44.34375 29.296875 32.078125 29.296875 
L 19.671875 29.296875 
L 19.671875 0 
L 9.8125 0 
z
" id="BitstreamVeraSans-Roman-50"/>
      <path d="M 8.6875 72.90625 
L 18.609375 72.90625 
L 18.609375 28.609375 
Q 18.609375 16.890625 22.84375 11.734375 
Q 27.09375 6.59375 36.625 6.59375 
Q 46.09375 6.59375 50.34375 11.734375 
Q 54.59375 16.890625 54.59375 28.609375 
L 54.59375 72.90625 
L 64.5 72.90625 
L 64.5 27.390625 
Q 64.5 13.140625 57.4375 5.859375 
Q 50.390625 -1.421875 36.625 -1.421875 
Q 22.796875 -1.421875 15.734375 5.859375 
Q 8.6875 13.140625 8.6875 27.390625 
z
" id="BitstreamVeraSans-Roman-55"/>
      <path id="BitstreamVeraSans-Roman-20"/>
     </defs>
     <g style="fill:#ffffff;" transform="translate(468.290625 340.873625)scale(0.12 -0.12)">
      <use xlink:href="#BitstreamVeraSans-Roman-23"/>
      <use x="83.7890625" xlink:href="#BitstreamVeraSans-Roman-20"/>
      <use x="115.576171875" xlink:href="#BitstreamVeraSans-Roman-6f"/>
      <use x="176.7578125" xlink:href="#BitstreamVeraSans-Roman-66"/>
      <use x="211.962890625" xlink:href="#BitstreamVeraSans-Roman-20"/>
      <use x="243.75" xlink:href="#BitstreamVeraSans-Roman-43"/>
      <use x="313.57421875" xlink:href="#BitstreamVeraSans-Roman-50"/>
      <use x="373.876953125" xlink:href="#BitstreamVeraSans-Roman-55"/>
      <use x="447.0703125" xlink:href="#BitstreamVeraSans-Roman-73"/>
     </g>
    </g>
   </g>
   <g id="matplotlib.axis_2">
    <g id="ytick_1">
     <g id="line2d_47">
      <defs>
       <path d="M 0 0 
L 4 0 
" id="m0a2d6c9011" style="stroke:#000000;stroke-width:0.5;"/>
      </defs>
      <g>
       <use style="stroke:#000000;stroke-width:0.5;" x="275.04" xlink:href="#m0a2d6c9011" y="311.14175"/>
      </g>
     </g>
     <g id="line2d_48">
      <defs>
       <path d="M 0 0 
L -4 0 
" id="m08ca222e7b" style="stroke:#000000;stroke-width:0.5;"/>
      </defs>
      <g>
       <use style="stroke:#000000;stroke-width:0.5;" x="721.44" xlink:href="#m08ca222e7b" y="311.14175"/>
      </g>
     </g>
     <g id="text_9">
      <!-- 0.0 -->
      <defs>
       <path d="M 10.6875 12.40625 
L 21 12.40625 
L 21 0 
L 10.6875 0 
z
" id="BitstreamVeraSans-Roman-2e"/>
      </defs>
      <g style="fill:#ffffff;" transform="translate(251.95625 314.453)scale(0.12 -0.12)">
       <use xlink:href="#BitstreamVeraSans-Roman-30"/>
       <use x="63.623046875" xlink:href="#BitstreamVeraSans-Roman-2e"/>
       <use x="95.41015625" xlink:href="#BitstreamVeraSans-Roman-30"/>
      </g>
     </g>
    </g>
    <g id="ytick_2">
     <g id="line2d_49">
      <g>
       <use style="stroke:#000000;stroke-width:0.5;" x="275.04" xlink:href="#m0a2d6c9011" y="253.54175"/>
      </g>
     </g>
     <g id="line2d_50">
      <g>
       <use style="stroke:#000000;stroke-width:0.5;" x="721.44" xlink:href="#m08ca222e7b" y="253.54175"/>
      </g>
     </g>
     <g id="text_10">
      <!-- 0.2 -->
      <g style="fill:#ffffff;" transform="translate(251.95625 256.853)scale(0.12 -0.12)">
       <use xlink:href="#BitstreamVeraSans-Roman-30"/>
       <use x="63.623046875" xlink:href="#BitstreamVeraSans-Roman-2e"/>
       <use x="95.41015625" xlink:href="#BitstreamVeraSans-Roman-32"/>
      </g>
     </g>
    </g>
    <g id="ytick_3">
     <g id="line2d_51">
      <g>
       <use style="stroke:#000000;stroke-width:0.5;" x="275.04" xlink:href="#m0a2d6c9011" y="195.94175"/>
      </g>
     </g>
     <g id="line2d_52">
      <g>
       <use style="stroke:#000000;stroke-width:0.5;" x="721.44" xlink:href="#m08ca222e7b" y="195.94175"/>
      </g>
     </g>
     <g id="text_11">
      <!-- 0.4 -->
      <g style="fill:#ffffff;" transform="translate(251.95625 199.253)scale(0.12 -0.12)">
       <use xlink:href="#BitstreamVeraSans-Roman-30"/>
       <use x="63.623046875" xlink:href="#BitstreamVeraSans-Roman-2e"/>
       <use x="95.41015625" xlink:href="#BitstreamVeraSans-Roman-34"/>
      </g>
     </g>
    </g>
    <g id="ytick_4">
     <g id="line2d_53">
      <g>
       <use style="stroke:#000000;stroke-width:0.5;" x="275.04" xlink:href="#m0a2d6c9011" y="138.34175"/>
      </g>
     </g>
     <g id="line2d_54">
      <g>
       <use style="stroke:#000000;stroke-width:0.5;" x="721.44" xlink:href="#m08ca222e7b" y="138.34175"/>
      </g>
     </g>
     <g id="text_12">
      <!-- 0.6 -->
      <g style="fill:#ffffff;" transform="translate(251.95625 141.653)scale(0.12 -0.12)">
       <use xlink:href="#BitstreamVeraSans-Roman-30"/>
       <use x="63.623046875" xlink:href="#BitstreamVeraSans-Roman-2e"/>
       <use x="95.41015625" xlink:href="#BitstreamVeraSans-Roman-36"/>
      </g>
     </g>
    </g>
    <g id="ytick_5">
     <g id="line2d_55">
      <g>
       <use style="stroke:#000000;stroke-width:0.5;" x="275.04" xlink:href="#m0a2d6c9011" y="80.74175"/>
      </g>
     </g>
     <g id="line2d_56">
      <g>
       <use style="stroke:#000000;stroke-width:0.5;" x="721.44" xlink:href="#m08ca222e7b" y="80.74175"/>
      </g>
     </g>
     <g id="text_13">
      <!-- 0.8 -->
      <g style="fill:#ffffff;" transform="translate(251.95625 84.053)scale(0.12 -0.12)">
       <use xlink:href="#BitstreamVeraSans-Roman-30"/>
       <use x="63.623046875" xlink:href="#BitstreamVeraSans-Roman-2e"/>
       <use x="95.41015625" xlink:href="#BitstreamVeraSans-Roman-38"/>
      </g>
     </g>
    </g>
    <g id="ytick_6">
     <g id="line2d_57">
      <g>
       <use style="stroke:#000000;stroke-width:0.5;" x="275.04" xlink:href="#m0a2d6c9011" y="23.14175"/>
      </g>
     </g>
     <g id="line2d_58">
      <g>
       <use style="stroke:#000000;stroke-width:0.5;" x="721.44" xlink:href="#m08ca222e7b" y="23.14175"/>
      </g>
     </g>
     <g id="text_14">
      <!-- 1.0 -->
      <g style="fill:#ffffff;" transform="translate(251.95625 26.453)scale(0.12 -0.12)">
       <use xlink:href="#BitstreamVeraSans-Roman-31"/>
       <use x="63.623046875" xlink:href="#BitstreamVeraSans-Roman-2e"/>
       <use x="95.41015625" xlink:href="#BitstreamVeraSans-Roman-30"/>
      </g>
     </g>
    </g>
    <g id="text_15">
     <!-- Relative runtime -->
     <defs>
      <path d="M 9.421875 54.6875 
L 18.40625 54.6875 
L 18.40625 0 
L 9.421875 0 
z
M 9.421875 75.984375 
L 18.40625 75.984375 
L 18.40625 64.59375 
L 9.421875 64.59375 
z
" id="BitstreamVeraSans-Roman-69"/>
      <path d="M 8.5 21.578125 
L 8.5 54.6875 
L 17.484375 54.6875 
L 17.484375 21.921875 
Q 17.484375 14.15625 20.5 10.265625 
Q 23.53125 6.390625 29.59375 6.390625 
Q 36.859375 6.390625 41.078125 11.03125 
Q 45.3125 15.671875 45.3125 23.6875 
L 45.3125 54.6875 
L 54.296875 54.6875 
L 54.296875 0 
L 45.3125 0 
L 45.3125 8.40625 
Q 42.046875 3.421875 37.71875 1 
Q 33.40625 -1.421875 27.6875 -1.421875 
Q 18.265625 -1.421875 13.375 4.4375 
Q 8.5 10.296875 8.5 21.578125 
" id="BitstreamVeraSans-Roman-75"/>
      <path d="M 41.109375 46.296875 
Q 39.59375 47.171875 37.8125 47.578125 
Q 36.03125 48 33.890625 48 
Q 26.265625 48 22.1875 43.046875 
Q 18.109375 38.09375 18.109375 28.8125 
L 18.109375 0 
L 9.078125 0 
L 9.078125 54.6875 
L 18.109375 54.6875 
L 18.109375 46.1875 
Q 20.953125 51.171875 25.484375 53.578125 
Q 30.03125 56 36.53125 56 
Q 37.453125 56 38.578125 55.875 
Q 39.703125 55.765625 41.0625 55.515625 
z
" id="BitstreamVeraSans-Roman-72"/>
      <path d="M 18.3125 70.21875 
L 18.3125 54.6875 
L 36.8125 54.6875 
L 36.8125 47.703125 
L 18.3125 47.703125 
L 18.3125 18.015625 
Q 18.3125 11.328125 20.140625 9.421875 
Q 21.96875 7.515625 27.59375 7.515625 
L 36.8125 7.515625 
L 36.8125 0 
L 27.59375 0 
Q 17.1875 0 13.234375 3.875 
Q 9.28125 7.765625 9.28125 18.015625 
L 9.28125 47.703125 
L 2.6875 47.703125 
L 2.6875 54.6875 
L 9.28125 54.6875 
L 9.28125 70.21875 
z
" id="BitstreamVeraSans-Roman-74"/>
      <path d="M 52 44.1875 
Q 55.375 50.25 60.0625 53.125 
Q 64.75 56 71.09375 56 
Q 79.640625 56 84.28125 50.015625 
Q 88.921875 44.046875 88.921875 33.015625 
L 88.921875 0 
L 79.890625 0 
L 79.890625 32.71875 
Q 79.890625 40.578125 77.09375 44.375 
Q 74.3125 48.1875 68.609375 48.1875 
Q 61.625 48.1875 57.5625 43.546875 
Q 53.515625 38.921875 53.515625 30.90625 
L 53.515625 0 
L 44.484375 0 
L 44.484375 32.71875 
Q 44.484375 40.625 41.703125 44.40625 
Q 38.921875 48.1875 33.109375 48.1875 
Q 26.21875 48.1875 22.15625 43.53125 
Q 18.109375 38.875 18.109375 30.90625 
L 18.109375 0 
L 9.078125 0 
L 9.078125 54.6875 
L 18.109375 54.6875 
L 18.109375 46.1875 
Q 21.1875 51.21875 25.484375 53.609375 
Q 29.78125 56 35.6875 56 
Q 41.65625 56 45.828125 52.96875 
Q 50 49.953125 52 44.1875 
" id="BitstreamVeraSans-Roman-6d"/>
      <path d="M 34.28125 27.484375 
Q 23.390625 27.484375 19.1875 25 
Q 14.984375 22.515625 14.984375 16.5 
Q 14.984375 11.71875 18.140625 8.90625 
Q 21.296875 6.109375 26.703125 6.109375 
Q 34.1875 6.109375 38.703125 11.40625 
Q 43.21875 16.703125 43.21875 25.484375 
L 43.21875 27.484375 
z
M 52.203125 31.203125 
L 52.203125 0 
L 43.21875 0 
L 43.21875 8.296875 
Q 40.140625 3.328125 35.546875 0.953125 
Q 30.953125 -1.421875 24.3125 -1.421875 
Q 15.921875 -1.421875 10.953125 3.296875 
Q 6 8.015625 6 15.921875 
Q 6 25.140625 12.171875 29.828125 
Q 18.359375 34.515625 30.609375 34.515625 
L 43.21875 34.515625 
L 43.21875 35.40625 
Q 43.21875 41.609375 39.140625 45 
Q 35.0625 48.390625 27.6875 48.390625 
Q 23 48.390625 18.546875 47.265625 
Q 14.109375 46.140625 10.015625 43.890625 
L 10.015625 52.203125 
Q 14.9375 54.109375 19.578125 55.046875 
Q 24.21875 56 28.609375 56 
Q 40.484375 56 46.34375 49.84375 
Q 52.203125 43.703125 52.203125 31.203125 
" id="BitstreamVeraSans-Roman-61"/>
      <path d="M 2.984375 54.6875 
L 12.5 54.6875 
L 29.59375 8.796875 
L 46.6875 54.6875 
L 56.203125 54.6875 
L 35.6875 0 
L 23.484375 0 
z
" id="BitstreamVeraSans-Roman-76"/>
      <path d="M 54.890625 33.015625 
L 54.890625 0 
L 45.90625 0 
L 45.90625 32.71875 
Q 45.90625 40.484375 42.875 44.328125 
Q 39.84375 48.1875 33.796875 48.1875 
Q 26.515625 48.1875 22.3125 43.546875 
Q 18.109375 38.921875 18.109375 30.90625 
L 18.109375 0 
L 9.078125 0 
L 9.078125 54.6875 
L 18.109375 54.6875 
L 18.109375 46.1875 
Q 21.34375 51.125 25.703125 53.5625 
Q 30.078125 56 35.796875 56 
Q 45.21875 56 50.046875 50.171875 
Q 54.890625 44.34375 54.890625 33.015625 
" id="BitstreamVeraSans-Roman-6e"/>
      <path d="M 56.203125 29.59375 
L 56.203125 25.203125 
L 14.890625 25.203125 
Q 15.484375 15.921875 20.484375 11.0625 
Q 25.484375 6.203125 34.421875 6.203125 
Q 39.59375 6.203125 44.453125 7.46875 
Q 49.3125 8.734375 54.109375 11.28125 
L 54.109375 2.78125 
Q 49.265625 0.734375 44.1875 -0.34375 
Q 39.109375 -1.421875 33.890625 -1.421875 
Q 20.796875 -1.421875 13.15625 6.1875 
Q 5.515625 13.8125 5.515625 26.8125 
Q 5.515625 40.234375 12.765625 48.109375 
Q 20.015625 56 32.328125 56 
Q 43.359375 56 49.78125 48.890625 
Q 56.203125 41.796875 56.203125 29.59375 
M 47.21875 32.234375 
Q 47.125 39.59375 43.09375 43.984375 
Q 39.0625 48.390625 32.421875 48.390625 
Q 24.90625 48.390625 20.390625 44.140625 
Q 15.875 39.890625 15.1875 32.171875 
z
" id="BitstreamVeraSans-Roman-65"/>
      <path d="M 9.421875 75.984375 
L 18.40625 75.984375 
L 18.40625 0 
L 9.421875 0 
z
" id="BitstreamVeraSans-Roman-6c"/>
      <path d="M 44.390625 34.1875 
Q 47.5625 33.109375 50.5625 29.59375 
Q 53.5625 26.078125 56.59375 19.921875 
L 66.609375 0 
L 56 0 
L 46.6875 18.703125 
Q 43.0625 26.03125 39.671875 28.421875 
Q 36.28125 30.8125 30.421875 30.8125 
L 19.671875 30.8125 
L 19.671875 0 
L 9.8125 0 
L 9.8125 72.90625 
L 32.078125 72.90625 
Q 44.578125 72.90625 50.734375 67.671875 
Q 56.890625 62.453125 56.890625 51.90625 
Q 56.890625 45.015625 53.6875 40.46875 
Q 50.484375 35.9375 44.390625 34.1875 
M 19.671875 64.796875 
L 19.671875 38.921875 
L 32.078125 38.921875 
Q 39.203125 38.921875 42.84375 42.21875 
Q 46.484375 45.515625 46.484375 51.90625 
Q 46.484375 58.296875 42.84375 61.546875 
Q 39.203125 64.796875 32.078125 64.796875 
z
" id="BitstreamVeraSans-Roman-52"/>
     </defs>
     <g style="fill:#ffffff;" transform="translate(244.460625 217.138625)rotate(-90.0)scale(0.12 -0.12)">
      <use xlink:href="#BitstreamVeraSans-Roman-52"/>
      <use x="69.419921875" xlink:href="#BitstreamVeraSans-Roman-65"/>
      <use x="130.943359375" xlink:href="#BitstreamVeraSans-Roman-6c"/>
      <use x="158.7265625" xlink:href="#BitstreamVeraSans-Roman-61"/>
      <use x="220.005859375" xlink:href="#BitstreamVeraSans-Roman-74"/>
      <use x="259.21484375" xlink:href="#BitstreamVeraSans-Roman-69"/>
      <use x="286.998046875" xlink:href="#BitstreamVeraSans-Roman-76"/>
      <use x="346.177734375" xlink:href="#BitstreamVeraSans-Roman-65"/>
      <use x="407.701171875" xlink:href="#BitstreamVeraSans-Roman-20"/>
      <use x="439.48828125" xlink:href="#BitstreamVeraSans-Roman-72"/>
      <use x="480.6015625" xlink:href="#BitstreamVeraSans-Roman-75"/>
      <use x="543.98046875" xlink:href="#BitstreamVeraSans-Roman-6e"/>
      <use x="607.359375" xlink:href="#BitstreamVeraSans-Roman-74"/>
      <use x="646.568359375" xlink:href="#BitstreamVeraSans-Roman-69"/>
      <use x="674.3515625" xlink:href="#BitstreamVeraSans-Roman-6d"/>
      <use x="771.763671875" xlink:href="#BitstreamVeraSans-Roman-65"/>
     </g>
    </g>
   </g>
   <g id="text_16">
    <!-- Relative runtime of main loop subroutines -->
    <defs>
     <path d="M 18.109375 8.203125 
L 18.109375 -20.796875 
L 9.078125 -20.796875 
L 9.078125 54.6875 
L 18.109375 54.6875 
L 18.109375 46.390625 
Q 20.953125 51.265625 25.265625 53.625 
Q 29.59375 56 35.59375 56 
Q 45.5625 56 51.78125 48.09375 
Q 58.015625 40.1875 58.015625 27.296875 
Q 58.015625 14.40625 51.78125 6.484375 
Q 45.5625 -1.421875 35.59375 -1.421875 
Q 29.59375 -1.421875 25.265625 0.953125 
Q 20.953125 3.328125 18.109375 8.203125 
M 48.6875 27.296875 
Q 48.6875 37.203125 44.609375 42.84375 
Q 40.53125 48.484375 33.40625 48.484375 
Q 26.265625 48.484375 22.1875 42.84375 
Q 18.109375 37.203125 18.109375 27.296875 
Q 18.109375 17.390625 22.1875 11.75 
Q 26.265625 6.109375 33.40625 6.109375 
Q 40.53125 6.109375 44.609375 11.75 
Q 48.6875 17.390625 48.6875 27.296875 
" id="BitstreamVeraSans-Roman-70"/>
     <path d="M 48.6875 27.296875 
Q 48.6875 37.203125 44.609375 42.84375 
Q 40.53125 48.484375 33.40625 48.484375 
Q 26.265625 48.484375 22.1875 42.84375 
Q 18.109375 37.203125 18.109375 27.296875 
Q 18.109375 17.390625 22.1875 11.75 
Q 26.265625 6.109375 33.40625 6.109375 
Q 40.53125 6.109375 44.609375 11.75 
Q 48.6875 17.390625 48.6875 27.296875 
M 18.109375 46.390625 
Q 20.953125 51.265625 25.265625 53.625 
Q 29.59375 56 35.59375 56 
Q 45.5625 56 51.78125 48.09375 
Q 58.015625 40.1875 58.015625 27.296875 
Q 58.015625 14.40625 51.78125 6.484375 
Q 45.5625 -1.421875 35.59375 -1.421875 
Q 29.59375 -1.421875 25.265625 0.953125 
Q 20.953125 3.328125 18.109375 8.203125 
L 18.109375 0 
L 9.078125 0 
L 9.078125 75.984375 
L 18.109375 75.984375 
z
" id="BitstreamVeraSans-Roman-62"/>
    </defs>
    <g style="fill:#ffffff;" transform="translate(346.402125 18.14175)scale(0.144 -0.144)">
     <use xlink:href="#BitstreamVeraSans-Roman-52"/>
     <use x="69.419921875" xlink:href="#BitstreamVeraSans-Roman-65"/>
     <use x="130.943359375" xlink:href="#BitstreamVeraSans-Roman-6c"/>
     <use x="158.7265625" xlink:href="#BitstreamVeraSans-Roman-61"/>
     <use x="220.005859375" xlink:href="#BitstreamVeraSans-Roman-74"/>
     <use x="259.21484375" xlink:href="#BitstreamVeraSans-Roman-69"/>
     <use x="286.998046875" xlink:href="#BitstreamVeraSans-Roman-76"/>
     <use x="346.177734375" xlink:href="#BitstreamVeraSans-Roman-65"/>
     <use x="407.701171875" xlink:href="#BitstreamVeraSans-Roman-20"/>
     <use x="439.48828125" xlink:href="#BitstreamVeraSans-Roman-72"/>
     <use x="480.6015625" xlink:href="#BitstreamVeraSans-Roman-75"/>
     <use x="543.98046875" xlink:href="#BitstreamVeraSans-Roman-6e"/>
     <use x="607.359375" xlink:href="#BitstreamVeraSans-Roman-74"/>
     <use x="646.568359375" xlink:href="#BitstreamVeraSans-Roman-69"/>
     <use x="674.3515625" xlink:href="#BitstreamVeraSans-Roman-6d"/>
     <use x="771.763671875" xlink:href="#BitstreamVeraSans-Roman-65"/>
     <use x="833.287109375" xlink:href="#BitstreamVeraSans-Roman-20"/>
     <use x="865.07421875" xlink:href="#BitstreamVeraSans-Roman-6f"/>
     <use x="926.255859375" xlink:href="#BitstreamVeraSans-Roman-66"/>
     <use x="961.4609375" xlink:href="#BitstreamVeraSans-Roman-20"/>
     <use x="993.248046875" xlink:href="#BitstreamVeraSans-Roman-6d"/>
     <use x="1090.66015625" xlink:href="#BitstreamVeraSans-Roman-61"/>
     <use x="1151.939453125" xlink:href="#BitstreamVeraSans-Roman-69"/>
     <use x="1179.72265625" xlink:href="#BitstreamVeraSans-Roman-6e"/>
     <use x="1243.1015625" xlink:href="#BitstreamVeraSans-Roman-20"/>
     <use x="1274.888671875" xlink:href="#BitstreamVeraSans-Roman-6c"/>
     <use x="1302.671875" xlink:href="#BitstreamVeraSans-Roman-6f"/>
     <use x="1363.853515625" xlink:href="#BitstreamVeraSans-Roman-6f"/>
     <use x="1425.03515625" xlink:href="#BitstreamVeraSans-Roman-70"/>
     <use x="1488.51171875" xlink:href="#BitstreamVeraSans-Roman-20"/>
     <use x="1520.298828125" xlink:href="#BitstreamVeraSans-Roman-73"/>
     <use x="1572.3984375" xlink:href="#BitstreamVeraSans-Roman-75"/>
     <use x="1635.77734375" xlink:href="#BitstreamVeraSans-Roman-62"/>
     <use x="1699.25390625" xlink:href="#BitstreamVeraSans-Roman-72"/>
     <use x="1740.3359375" xlink:href="#BitstreamVeraSans-Roman-6f"/>
     <use x="1801.517578125" xlink:href="#BitstreamVeraSans-Roman-75"/>
     <use x="1864.896484375" xlink:href="#BitstreamVeraSans-Roman-74"/>
     <use x="1904.10546875" xlink:href="#BitstreamVeraSans-Roman-69"/>
     <use x="1931.888671875" xlink:href="#BitstreamVeraSans-Roman-6e"/>
     <use x="1995.267578125" xlink:href="#BitstreamVeraSans-Roman-65"/>
     <use x="2056.791015625" xlink:href="#BitstreamVeraSans-Roman-73"/>
    </g>
   </g>
   <g id="legend_1">
    <g id="patch_119">
     <path d="M 7.2 311.14175 
L 224.98875 311.14175 
L 224.98875 20.38175 
L 7.2 20.38175 
z
" style="fill:#ffffff;stroke:#000000;stroke-linejoin:miter;"/>
    </g>
    <g id="patch_120">
     <path d="M 12 34.299875 
L 36 34.299875 
L 36 25.899875 
L 12 25.899875 
z
" style="fill:#c58eab;stroke:#000000;stroke-linejoin:miter;"/>
    </g>
    <g id="text_17">
     <!-- ocean_diagnostics -->
     <defs>
      <path d="M 48.78125 52.59375 
L 48.78125 44.1875 
Q 44.96875 46.296875 41.140625 47.34375 
Q 37.3125 48.390625 33.40625 48.390625 
Q 24.65625 48.390625 19.8125 42.84375 
Q 14.984375 37.3125 14.984375 27.296875 
Q 14.984375 17.28125 19.8125 11.734375 
Q 24.65625 6.203125 33.40625 6.203125 
Q 37.3125 6.203125 41.140625 7.25 
Q 44.96875 8.296875 48.78125 10.40625 
L 48.78125 2.09375 
Q 45.015625 0.34375 40.984375 -0.53125 
Q 36.96875 -1.421875 32.421875 -1.421875 
Q 20.0625 -1.421875 12.78125 6.34375 
Q 5.515625 14.109375 5.515625 27.296875 
Q 5.515625 40.671875 12.859375 48.328125 
Q 20.21875 56 33.015625 56 
Q 37.15625 56 41.109375 55.140625 
Q 45.0625 54.296875 48.78125 52.59375 
" id="BitstreamVeraSans-Roman-63"/>
      <path d="M 45.40625 46.390625 
L 45.40625 75.984375 
L 54.390625 75.984375 
L 54.390625 0 
L 45.40625 0 
L 45.40625 8.203125 
Q 42.578125 3.328125 38.25 0.953125 
Q 33.9375 -1.421875 27.875 -1.421875 
Q 17.96875 -1.421875 11.734375 6.484375 
Q 5.515625 14.40625 5.515625 27.296875 
Q 5.515625 40.1875 11.734375 48.09375 
Q 17.96875 56 27.875 56 
Q 33.9375 56 38.25 53.625 
Q 42.578125 51.265625 45.40625 46.390625 
M 14.796875 27.296875 
Q 14.796875 17.390625 18.875 11.75 
Q 22.953125 6.109375 30.078125 6.109375 
Q 37.203125 6.109375 41.296875 11.75 
Q 45.40625 17.390625 45.40625 27.296875 
Q 45.40625 37.203125 41.296875 42.84375 
Q 37.203125 48.484375 30.078125 48.484375 
Q 22.953125 48.484375 18.875 42.84375 
Q 14.796875 37.203125 14.796875 27.296875 
" id="BitstreamVeraSans-Roman-64"/>
      <path d="M 50.984375 -16.609375 
L 50.984375 -23.578125 
L -0.984375 -23.578125 
L -0.984375 -16.609375 
z
" id="BitstreamVeraSans-Roman-5f"/>
      <path d="M 45.40625 27.984375 
Q 45.40625 37.75 41.375 43.109375 
Q 37.359375 48.484375 30.078125 48.484375 
Q 22.859375 48.484375 18.828125 43.109375 
Q 14.796875 37.75 14.796875 27.984375 
Q 14.796875 18.265625 18.828125 12.890625 
Q 22.859375 7.515625 30.078125 7.515625 
Q 37.359375 7.515625 41.375 12.890625 
Q 45.40625 18.265625 45.40625 27.984375 
M 54.390625 6.78125 
Q 54.390625 -7.171875 48.1875 -13.984375 
Q 42 -20.796875 29.203125 -20.796875 
Q 24.46875 -20.796875 20.265625 -20.09375 
Q 16.0625 -19.390625 12.109375 -17.921875 
L 12.109375 -9.1875 
Q 16.0625 -11.328125 19.921875 -12.34375 
Q 23.78125 -13.375 27.78125 -13.375 
Q 36.625 -13.375 41.015625 -8.765625 
Q 45.40625 -4.15625 45.40625 5.171875 
L 45.40625 9.625 
Q 42.625 4.78125 38.28125 2.390625 
Q 33.9375 0 27.875 0 
Q 17.828125 0 11.671875 7.65625 
Q 5.515625 15.328125 5.515625 27.984375 
Q 5.515625 40.671875 11.671875 48.328125 
Q 17.828125 56 27.875 56 
Q 33.9375 56 38.28125 53.609375 
Q 42.625 51.21875 45.40625 46.390625 
L 45.40625 54.6875 
L 54.390625 54.6875 
z
" id="BitstreamVeraSans-Roman-67"/>
     </defs>
     <g transform="translate(45.6 34.299875)scale(0.12 -0.12)">
      <use xlink:href="#BitstreamVeraSans-Roman-6f"/>
      <use x="61.181640625" xlink:href="#BitstreamVeraSans-Roman-63"/>
      <use x="116.162109375" xlink:href="#BitstreamVeraSans-Roman-65"/>
      <use x="177.685546875" xlink:href="#BitstreamVeraSans-Roman-61"/>
      <use x="238.96484375" xlink:href="#BitstreamVeraSans-Roman-6e"/>
      <use x="302.34375" xlink:href="#BitstreamVeraSans-Roman-5f"/>
      <use x="352.34375" xlink:href="#BitstreamVeraSans-Roman-64"/>
      <use x="415.8203125" xlink:href="#BitstreamVeraSans-Roman-69"/>
      <use x="443.603515625" xlink:href="#BitstreamVeraSans-Roman-61"/>
      <use x="504.8828125" xlink:href="#BitstreamVeraSans-Roman-67"/>
      <use x="568.359375" xlink:href="#BitstreamVeraSans-Roman-6e"/>
      <use x="631.73828125" xlink:href="#BitstreamVeraSans-Roman-6f"/>
      <use x="692.919921875" xlink:href="#BitstreamVeraSans-Roman-73"/>
      <use x="745.01953125" xlink:href="#BitstreamVeraSans-Roman-74"/>
      <use x="784.228515625" xlink:href="#BitstreamVeraSans-Roman-69"/>
      <use x="812.01171875" xlink:href="#BitstreamVeraSans-Roman-63"/>
      <use x="866.9921875" xlink:href="#BitstreamVeraSans-Roman-73"/>
     </g>
    </g>
    <g id="patch_121">
     <path d="M 12 52.247375 
L 36 52.247375 
L 36 43.847375 
L 12 43.847375 
z
" style="fill:#f482be;stroke:#000000;stroke-linejoin:miter;"/>
    </g>
    <g id="text_18">
     <!-- get_ocean_sbc -->
     <g transform="translate(45.6 52.247375)scale(0.12 -0.12)">
      <use xlink:href="#BitstreamVeraSans-Roman-67"/>
      <use x="63.4765625" xlink:href="#BitstreamVeraSans-Roman-65"/>
      <use x="125.0" xlink:href="#BitstreamVeraSans-Roman-74"/>
      <use x="164.208984375" xlink:href="#BitstreamVeraSans-Roman-5f"/>
      <use x="214.208984375" xlink:href="#BitstreamVeraSans-Roman-6f"/>
      <use x="275.390625" xlink:href="#BitstreamVeraSans-Roman-63"/>
      <use x="330.37109375" xlink:href="#BitstreamVeraSans-Roman-65"/>
      <use x="391.89453125" xlink:href="#BitstreamVeraSans-Roman-61"/>
      <use x="453.173828125" xlink:href="#BitstreamVeraSans-Roman-6e"/>
      <use x="516.552734375" xlink:href="#BitstreamVeraSans-Roman-5f"/>
      <use x="566.552734375" xlink:href="#BitstreamVeraSans-Roman-73"/>
      <use x="618.65234375" xlink:href="#BitstreamVeraSans-Roman-62"/>
      <use x="682.12890625" xlink:href="#BitstreamVeraSans-Roman-63"/>
     </g>
    </g>
    <g id="patch_122">
     <path d="M 12 70.194875 
L 36 70.194875 
L 36 61.794875 
L 12 61.794875 
z
" style="fill:#d16d77;stroke:#000000;stroke-linejoin:miter;"/>
    </g>
    <g id="text_19">
     <!-- ocean_density_diag -->
     <defs>
      <path d="M 32.171875 -5.078125 
Q 28.375 -14.84375 24.75 -17.8125 
Q 21.140625 -20.796875 15.09375 -20.796875 
L 7.90625 -20.796875 
L 7.90625 -13.28125 
L 13.1875 -13.28125 
Q 16.890625 -13.28125 18.9375 -11.515625 
Q 21 -9.765625 23.484375 -3.21875 
L 25.09375 0.875 
L 2.984375 54.6875 
L 12.5 54.6875 
L 29.59375 11.921875 
L 46.6875 54.6875 
L 56.203125 54.6875 
z
" id="BitstreamVeraSans-Roman-79"/>
     </defs>
     <g transform="translate(45.6 70.194875)scale(0.12 -0.12)">
      <use xlink:href="#BitstreamVeraSans-Roman-6f"/>
      <use x="61.181640625" xlink:href="#BitstreamVeraSans-Roman-63"/>
      <use x="116.162109375" xlink:href="#BitstreamVeraSans-Roman-65"/>
      <use x="177.685546875" xlink:href="#BitstreamVeraSans-Roman-61"/>
      <use x="238.96484375" xlink:href="#BitstreamVeraSans-Roman-6e"/>
      <use x="302.34375" xlink:href="#BitstreamVeraSans-Roman-5f"/>
      <use x="352.34375" xlink:href="#BitstreamVeraSans-Roman-64"/>
      <use x="415.8203125" xlink:href="#BitstreamVeraSans-Roman-65"/>
      <use x="477.34375" xlink:href="#BitstreamVeraSans-Roman-6e"/>
      <use x="540.72265625" xlink:href="#BitstreamVeraSans-Roman-73"/>
      <use x="592.822265625" xlink:href="#BitstreamVeraSans-Roman-69"/>
      <use x="620.60546875" xlink:href="#BitstreamVeraSans-Roman-74"/>
      <use x="659.814453125" xlink:href="#BitstreamVeraSans-Roman-79"/>
      <use x="718.994140625" xlink:href="#BitstreamVeraSans-Roman-5f"/>
      <use x="768.994140625" xlink:href="#BitstreamVeraSans-Roman-64"/>
      <use x="832.470703125" xlink:href="#BitstreamVeraSans-Roman-69"/>
      <use x="860.25390625" xlink:href="#BitstreamVeraSans-Roman-61"/>
      <use x="921.533203125" xlink:href="#BitstreamVeraSans-Roman-67"/>
     </g>
    </g>
    <g id="patch_123">
     <path d="M 12 88.142375 
L 36 88.142375 
L 36 79.742375 
L 12 79.742375 
z
" style="fill:#a8572c;stroke:#000000;stroke-linejoin:miter;"/>
    </g>
    <g id="text_20">
     <!-- update_tcell_thickness -->
     <defs>
      <path d="M 54.890625 33.015625 
L 54.890625 0 
L 45.90625 0 
L 45.90625 32.71875 
Q 45.90625 40.484375 42.875 44.328125 
Q 39.84375 48.1875 33.796875 48.1875 
Q 26.515625 48.1875 22.3125 43.546875 
Q 18.109375 38.921875 18.109375 30.90625 
L 18.109375 0 
L 9.078125 0 
L 9.078125 75.984375 
L 18.109375 75.984375 
L 18.109375 46.1875 
Q 21.34375 51.125 25.703125 53.5625 
Q 30.078125 56 35.796875 56 
Q 45.21875 56 50.046875 50.171875 
Q 54.890625 44.34375 54.890625 33.015625 
" id="BitstreamVeraSans-Roman-68"/>
      <path d="M 9.078125 75.984375 
L 18.109375 75.984375 
L 18.109375 31.109375 
L 44.921875 54.6875 
L 56.390625 54.6875 
L 27.390625 29.109375 
L 57.625 0 
L 45.90625 0 
L 18.109375 26.703125 
L 18.109375 0 
L 9.078125 0 
z
" id="BitstreamVeraSans-Roman-6b"/>
     </defs>
     <g transform="translate(45.6 88.142375)scale(0.12 -0.12)">
      <use xlink:href="#BitstreamVeraSans-Roman-75"/>
      <use x="63.37890625" xlink:href="#BitstreamVeraSans-Roman-70"/>
      <use x="126.85546875" xlink:href="#BitstreamVeraSans-Roman-64"/>
      <use x="190.33203125" xlink:href="#BitstreamVeraSans-Roman-61"/>
      <use x="251.611328125" xlink:href="#BitstreamVeraSans-Roman-74"/>
      <use x="290.8203125" xlink:href="#BitstreamVeraSans-Roman-65"/>
      <use x="352.34375" xlink:href="#BitstreamVeraSans-Roman-5f"/>
      <use x="402.34375" xlink:href="#BitstreamVeraSans-Roman-74"/>
      <use x="441.552734375" xlink:href="#BitstreamVeraSans-Roman-63"/>
      <use x="496.533203125" xlink:href="#BitstreamVeraSans-Roman-65"/>
      <use x="558.056640625" xlink:href="#BitstreamVeraSans-Roman-6c"/>
      <use x="585.83984375" xlink:href="#BitstreamVeraSans-Roman-6c"/>
      <use x="613.623046875" xlink:href="#BitstreamVeraSans-Roman-5f"/>
      <use x="663.623046875" xlink:href="#BitstreamVeraSans-Roman-74"/>
      <use x="702.83203125" xlink:href="#BitstreamVeraSans-Roman-68"/>
      <use x="766.2109375" xlink:href="#BitstreamVeraSans-Roman-69"/>
      <use x="793.994140625" xlink:href="#BitstreamVeraSans-Roman-63"/>
      <use x="848.974609375" xlink:href="#BitstreamVeraSans-Roman-6b"/>
      <use x="906.884765625" xlink:href="#BitstreamVeraSans-Roman-6e"/>
      <use x="970.263671875" xlink:href="#BitstreamVeraSans-Roman-65"/>
      <use x="1031.787109375" xlink:href="#BitstreamVeraSans-Roman-73"/>
      <use x="1083.88671875" xlink:href="#BitstreamVeraSans-Roman-73"/>
     </g>
    </g>
    <g id="patch_124">
     <path d="M 12 106.089875 
L 36 106.089875 
L 36 97.689875 
L 12 97.689875 
z
" style="fill:#d1a72d;stroke:#000000;stroke-linejoin:miter;"/>
    </g>
    <g id="text_21">
     <!-- ocean_advection_velocity -->
     <g transform="translate(45.6 106.089875)scale(0.12 -0.12)">
      <use xlink:href="#BitstreamVeraSans-Roman-6f"/>
      <use x="61.181640625" xlink:href="#BitstreamVeraSans-Roman-63"/>
      <use x="116.162109375" xlink:href="#BitstreamVeraSans-Roman-65"/>
      <use x="177.685546875" xlink:href="#BitstreamVeraSans-Roman-61"/>
      <use x="238.96484375" xlink:href="#BitstreamVeraSans-Roman-6e"/>
      <use x="302.34375" xlink:href="#BitstreamVeraSans-Roman-5f"/>
      <use x="352.34375" xlink:href="#BitstreamVeraSans-Roman-61"/>
      <use x="413.623046875" xlink:href="#BitstreamVeraSans-Roman-64"/>
      <use x="477.099609375" xlink:href="#BitstreamVeraSans-Roman-76"/>
      <use x="536.279296875" xlink:href="#BitstreamVeraSans-Roman-65"/>
      <use x="597.802734375" xlink:href="#BitstreamVeraSans-Roman-63"/>
      <use x="652.783203125" xlink:href="#BitstreamVeraSans-Roman-74"/>
      <use x="691.9921875" xlink:href="#BitstreamVeraSans-Roman-69"/>
      <use x="719.775390625" xlink:href="#BitstreamVeraSans-Roman-6f"/>
      <use x="780.95703125" xlink:href="#BitstreamVeraSans-Roman-6e"/>
      <use x="844.3359375" xlink:href="#BitstreamVeraSans-Roman-5f"/>
      <use x="894.3359375" xlink:href="#BitstreamVeraSans-Roman-76"/>
      <use x="953.515625" xlink:href="#BitstreamVeraSans-Roman-65"/>
      <use x="1015.0390625" xlink:href="#BitstreamVeraSans-Roman-6c"/>
      <use x="1042.822265625" xlink:href="#BitstreamVeraSans-Roman-6f"/>
      <use x="1104.00390625" xlink:href="#BitstreamVeraSans-Roman-63"/>
      <use x="1158.984375" xlink:href="#BitstreamVeraSans-Roman-69"/>
      <use x="1186.767578125" xlink:href="#BitstreamVeraSans-Roman-74"/>
      <use x="1225.9765625" xlink:href="#BitstreamVeraSans-Roman-79"/>
     </g>
    </g>
    <g id="patch_125">
     <path d="M 12 124.037375 
L 36 124.037375 
L 36 115.637375 
L 12 115.637375 
z
" style="fill:#fdfc33;stroke:#000000;stroke-linejoin:miter;"/>
    </g>
    <g id="text_22">
     <!-- update_ocean_velocity_bgrid -->
     <g transform="translate(45.6 124.037375)scale(0.12 -0.12)">
      <use xlink:href="#BitstreamVeraSans-Roman-75"/>
      <use x="63.37890625" xlink:href="#BitstreamVeraSans-Roman-70"/>
      <use x="126.85546875" xlink:href="#BitstreamVeraSans-Roman-64"/>
      <use x="190.33203125" xlink:href="#BitstreamVeraSans-Roman-61"/>
      <use x="251.611328125" xlink:href="#BitstreamVeraSans-Roman-74"/>
      <use x="290.8203125" xlink:href="#BitstreamVeraSans-Roman-65"/>
      <use x="352.34375" xlink:href="#BitstreamVeraSans-Roman-5f"/>
      <use x="402.34375" xlink:href="#BitstreamVeraSans-Roman-6f"/>
      <use x="463.525390625" xlink:href="#BitstreamVeraSans-Roman-63"/>
      <use x="518.505859375" xlink:href="#BitstreamVeraSans-Roman-65"/>
      <use x="580.029296875" xlink:href="#BitstreamVeraSans-Roman-61"/>
      <use x="641.30859375" xlink:href="#BitstreamVeraSans-Roman-6e"/>
      <use x="704.6875" xlink:href="#BitstreamVeraSans-Roman-5f"/>
      <use x="754.6875" xlink:href="#BitstreamVeraSans-Roman-76"/>
      <use x="813.8671875" xlink:href="#BitstreamVeraSans-Roman-65"/>
      <use x="875.390625" xlink:href="#BitstreamVeraSans-Roman-6c"/>
      <use x="903.173828125" xlink:href="#BitstreamVeraSans-Roman-6f"/>
      <use x="964.35546875" xlink:href="#BitstreamVeraSans-Roman-63"/>
      <use x="1019.3359375" xlink:href="#BitstreamVeraSans-Roman-69"/>
      <use x="1047.119140625" xlink:href="#BitstreamVeraSans-Roman-74"/>
      <use x="1086.328125" xlink:href="#BitstreamVeraSans-Roman-79"/>
      <use x="1145.5078125" xlink:href="#BitstreamVeraSans-Roman-5f"/>
      <use x="1195.5078125" xlink:href="#BitstreamVeraSans-Roman-62"/>
      <use x="1258.984375" xlink:href="#BitstreamVeraSans-Roman-67"/>
      <use x="1322.4609375" xlink:href="#BitstreamVeraSans-Roman-72"/>
      <use x="1363.57421875" xlink:href="#BitstreamVeraSans-Roman-69"/>
      <use x="1391.357421875" xlink:href="#BitstreamVeraSans-Roman-64"/>
     </g>
    </g>
    <g id="patch_126">
     <path d="M 12 141.984875 
L 36 141.984875 
L 36 133.584875 
L 12 133.584875 
z
" style="fill:#ffc11a;stroke:#000000;stroke-linejoin:miter;"/>
    </g>
    <g id="text_23">
     <!-- sw_source -->
     <defs>
      <path d="M 4.203125 54.6875 
L 13.1875 54.6875 
L 24.421875 12.015625 
L 35.59375 54.6875 
L 46.1875 54.6875 
L 57.421875 12.015625 
L 68.609375 54.6875 
L 77.59375 54.6875 
L 63.28125 0 
L 52.6875 0 
L 40.921875 44.828125 
L 29.109375 0 
L 18.5 0 
z
" id="BitstreamVeraSans-Roman-77"/>
     </defs>
     <g transform="translate(45.6 141.984875)scale(0.12 -0.12)">
      <use xlink:href="#BitstreamVeraSans-Roman-73"/>
      <use x="52.099609375" xlink:href="#BitstreamVeraSans-Roman-77"/>
      <use x="133.88671875" xlink:href="#BitstreamVeraSans-Roman-5f"/>
      <use x="183.88671875" xlink:href="#BitstreamVeraSans-Roman-73"/>
      <use x="235.986328125" xlink:href="#BitstreamVeraSans-Roman-6f"/>
      <use x="297.16796875" xlink:href="#BitstreamVeraSans-Roman-75"/>
      <use x="360.546875" xlink:href="#BitstreamVeraSans-Roman-72"/>
      <use x="401.62890625" xlink:href="#BitstreamVeraSans-Roman-63"/>
      <use x="456.609375" xlink:href="#BitstreamVeraSans-Roman-65"/>
     </g>
    </g>
    <g id="patch_127">
     <path d="M 12 159.932375 
L 36 159.932375 
L 36 151.532375 
L 12 151.532375 
z
" style="fill:#ff8101;stroke:#000000;stroke-linejoin:miter;"/>
    </g>
    <g id="text_24">
     <!-- ocean_eta_smooth -->
     <g transform="translate(45.6 159.932375)scale(0.12 -0.12)">
      <use xlink:href="#BitstreamVeraSans-Roman-6f"/>
      <use x="61.181640625" xlink:href="#BitstreamVeraSans-Roman-63"/>
      <use x="116.162109375" xlink:href="#BitstreamVeraSans-Roman-65"/>
      <use x="177.685546875" xlink:href="#BitstreamVeraSans-Roman-61"/>
      <use x="238.96484375" xlink:href="#BitstreamVeraSans-Roman-6e"/>
      <use x="302.34375" xlink:href="#BitstreamVeraSans-Roman-5f"/>
      <use x="352.34375" xlink:href="#BitstreamVeraSans-Roman-65"/>
      <use x="413.8671875" xlink:href="#BitstreamVeraSans-Roman-74"/>
      <use x="453.076171875" xlink:href="#BitstreamVeraSans-Roman-61"/>
      <use x="514.35546875" xlink:href="#BitstreamVeraSans-Roman-5f"/>
      <use x="564.35546875" xlink:href="#BitstreamVeraSans-Roman-73"/>
      <use x="616.455078125" xlink:href="#BitstreamVeraSans-Roman-6d"/>
      <use x="713.8671875" xlink:href="#BitstreamVeraSans-Roman-6f"/>
      <use x="775.048828125" xlink:href="#BitstreamVeraSans-Roman-6f"/>
      <use x="836.23046875" xlink:href="#BitstreamVeraSans-Roman-74"/>
      <use x="875.439453125" xlink:href="#BitstreamVeraSans-Roman-68"/>
     </g>
    </g>
    <g id="patch_128">
     <path d="M 12 177.879875 
L 36 177.879875 
L 36 169.479875 
L 12 169.479875 
z
" style="fill:#cd674f;stroke:#000000;stroke-linejoin:miter;"/>
    </g>
    <g id="text_25">
     <!-- update_ucell_thickness -->
     <g transform="translate(45.6 177.879875)scale(0.12 -0.12)">
      <use xlink:href="#BitstreamVeraSans-Roman-75"/>
      <use x="63.37890625" xlink:href="#BitstreamVeraSans-Roman-70"/>
      <use x="126.85546875" xlink:href="#BitstreamVeraSans-Roman-64"/>
      <use x="190.33203125" xlink:href="#BitstreamVeraSans-Roman-61"/>
      <use x="251.611328125" xlink:href="#BitstreamVeraSans-Roman-74"/>
      <use x="290.8203125" xlink:href="#BitstreamVeraSans-Roman-65"/>
      <use x="352.34375" xlink:href="#BitstreamVeraSans-Roman-5f"/>
      <use x="402.34375" xlink:href="#BitstreamVeraSans-Roman-75"/>
      <use x="465.72265625" xlink:href="#BitstreamVeraSans-Roman-63"/>
      <use x="520.703125" xlink:href="#BitstreamVeraSans-Roman-65"/>
      <use x="582.2265625" xlink:href="#BitstreamVeraSans-Roman-6c"/>
      <use x="610.009765625" xlink:href="#BitstreamVeraSans-Roman-6c"/>
      <use x="637.79296875" xlink:href="#BitstreamVeraSans-Roman-5f"/>
      <use x="687.79296875" xlink:href="#BitstreamVeraSans-Roman-74"/>
      <use x="727.001953125" xlink:href="#BitstreamVeraSans-Roman-68"/>
      <use x="790.380859375" xlink:href="#BitstreamVeraSans-Roman-69"/>
      <use x="818.1640625" xlink:href="#BitstreamVeraSans-Roman-63"/>
      <use x="873.14453125" xlink:href="#BitstreamVeraSans-Roman-6b"/>
      <use x="931.0546875" xlink:href="#BitstreamVeraSans-Roman-6e"/>
      <use x="994.43359375" xlink:href="#BitstreamVeraSans-Roman-65"/>
      <use x="1055.95703125" xlink:href="#BitstreamVeraSans-Roman-73"/>
      <use x="1108.056640625" xlink:href="#BitstreamVeraSans-Roman-73"/>
     </g>
    </g>
    <g id="patch_129">
     <path d="M 12 195.827375 
L 36 195.827375 
L 36 187.427375 
L 12 187.427375 
z
" style="fill:#994fa1;stroke:#000000;stroke-linejoin:miter;"/>
    </g>
    <g id="text_26">
     <!-- ocean_implicit_accel -->
     <g transform="translate(45.6 195.827375)scale(0.12 -0.12)">
      <use xlink:href="#BitstreamVeraSans-Roman-6f"/>
      <use x="61.181640625" xlink:href="#BitstreamVeraSans-Roman-63"/>
      <use x="116.162109375" xlink:href="#BitstreamVeraSans-Roman-65"/>
      <use x="177.685546875" xlink:href="#BitstreamVeraSans-Roman-61"/>
      <use x="238.96484375" xlink:href="#BitstreamVeraSans-Roman-6e"/>
      <use x="302.34375" xlink:href="#BitstreamVeraSans-Roman-5f"/>
      <use x="352.34375" xlink:href="#BitstreamVeraSans-Roman-69"/>
      <use x="380.126953125" xlink:href="#BitstreamVeraSans-Roman-6d"/>
      <use x="477.5390625" xlink:href="#BitstreamVeraSans-Roman-70"/>
      <use x="541.015625" xlink:href="#BitstreamVeraSans-Roman-6c"/>
      <use x="568.798828125" xlink:href="#BitstreamVeraSans-Roman-69"/>
      <use x="596.58203125" xlink:href="#BitstreamVeraSans-Roman-63"/>
      <use x="651.5625" xlink:href="#BitstreamVeraSans-Roman-69"/>
      <use x="679.345703125" xlink:href="#BitstreamVeraSans-Roman-74"/>
      <use x="718.5546875" xlink:href="#BitstreamVeraSans-Roman-5f"/>
      <use x="768.5546875" xlink:href="#BitstreamVeraSans-Roman-61"/>
      <use x="829.833984375" xlink:href="#BitstreamVeraSans-Roman-63"/>
      <use x="884.814453125" xlink:href="#BitstreamVeraSans-Roman-63"/>
      <use x="939.794921875" xlink:href="#BitstreamVeraSans-Roman-65"/>
      <use x="1001.318359375" xlink:href="#BitstreamVeraSans-Roman-6c"/>
     </g>
    </g>
    <g id="patch_130">
     <path d="M 12 213.774875 
L 36 213.774875 
L 36 205.374875 
L 12 205.374875 
z
" style="fill:#737e77;stroke:#000000;stroke-linejoin:miter;"/>
    </g>
    <g id="text_27">
     <!-- update_ocean_density -->
     <g transform="translate(45.6 213.774875)scale(0.12 -0.12)">
      <use xlink:href="#BitstreamVeraSans-Roman-75"/>
      <use x="63.37890625" xlink:href="#BitstreamVeraSans-Roman-70"/>
      <use x="126.85546875" xlink:href="#BitstreamVeraSans-Roman-64"/>
      <use x="190.33203125" xlink:href="#BitstreamVeraSans-Roman-61"/>
      <use x="251.611328125" xlink:href="#BitstreamVeraSans-Roman-74"/>
      <use x="290.8203125" xlink:href="#BitstreamVeraSans-Roman-65"/>
      <use x="352.34375" xlink:href="#BitstreamVeraSans-Roman-5f"/>
      <use x="402.34375" xlink:href="#BitstreamVeraSans-Roman-6f"/>
      <use x="463.525390625" xlink:href="#BitstreamVeraSans-Roman-63"/>
      <use x="518.505859375" xlink:href="#BitstreamVeraSans-Roman-65"/>
      <use x="580.029296875" xlink:href="#BitstreamVeraSans-Roman-61"/>
      <use x="641.30859375" xlink:href="#BitstreamVeraSans-Roman-6e"/>
      <use x="704.6875" xlink:href="#BitstreamVeraSans-Roman-5f"/>
      <use x="754.6875" xlink:href="#BitstreamVeraSans-Roman-64"/>
      <use x="818.1640625" xlink:href="#BitstreamVeraSans-Roman-65"/>
      <use x="879.6875" xlink:href="#BitstreamVeraSans-Roman-6e"/>
      <use x="943.06640625" xlink:href="#BitstreamVeraSans-Roman-73"/>
      <use x="995.166015625" xlink:href="#BitstreamVeraSans-Roman-69"/>
      <use x="1022.94921875" xlink:href="#BitstreamVeraSans-Roman-74"/>
      <use x="1062.158203125" xlink:href="#BitstreamVeraSans-Roman-79"/>
     </g>
    </g>
    <g id="patch_131">
     <path d="M 12 231.722375 
L 36 231.722375 
L 36 223.322375 
L 12 223.322375 
z
" style="fill:#4eae4b;stroke:#000000;stroke-linejoin:miter;"/>
    </g>
    <g id="text_28">
     <!-- update_ocean_barotropic -->
     <g transform="translate(45.6 231.722375)scale(0.12 -0.12)">
      <use xlink:href="#BitstreamVeraSans-Roman-75"/>
      <use x="63.37890625" xlink:href="#BitstreamVeraSans-Roman-70"/>
      <use x="126.85546875" xlink:href="#BitstreamVeraSans-Roman-64"/>
      <use x="190.33203125" xlink:href="#BitstreamVeraSans-Roman-61"/>
      <use x="251.611328125" xlink:href="#BitstreamVeraSans-Roman-74"/>
      <use x="290.8203125" xlink:href="#BitstreamVeraSans-Roman-65"/>
      <use x="352.34375" xlink:href="#BitstreamVeraSans-Roman-5f"/>
      <use x="402.34375" xlink:href="#BitstreamVeraSans-Roman-6f"/>
      <use x="463.525390625" xlink:href="#BitstreamVeraSans-Roman-63"/>
      <use x="518.505859375" xlink:href="#BitstreamVeraSans-Roman-65"/>
      <use x="580.029296875" xlink:href="#BitstreamVeraSans-Roman-61"/>
      <use x="641.30859375" xlink:href="#BitstreamVeraSans-Roman-6e"/>
      <use x="704.6875" xlink:href="#BitstreamVeraSans-Roman-5f"/>
      <use x="754.6875" xlink:href="#BitstreamVeraSans-Roman-62"/>
      <use x="818.1640625" xlink:href="#BitstreamVeraSans-Roman-61"/>
      <use x="879.443359375" xlink:href="#BitstreamVeraSans-Roman-72"/>
      <use x="920.525390625" xlink:href="#BitstreamVeraSans-Roman-6f"/>
      <use x="981.70703125" xlink:href="#BitstreamVeraSans-Roman-74"/>
      <use x="1020.916015625" xlink:href="#BitstreamVeraSans-Roman-72"/>
      <use x="1061.998046875" xlink:href="#BitstreamVeraSans-Roman-6f"/>
      <use x="1123.1796875" xlink:href="#BitstreamVeraSans-Roman-70"/>
      <use x="1186.65625" xlink:href="#BitstreamVeraSans-Roman-69"/>
      <use x="1214.439453125" xlink:href="#BitstreamVeraSans-Roman-63"/>
     </g>
    </g>
    <g id="patch_132">
     <path d="M 12 249.669875 
L 36 249.669875 
L 36 241.269875 
L 12 241.269875 
z
" style="fill:#429780;stroke:#000000;stroke-linejoin:miter;"/>
    </g>
    <g id="text_29">
     <!-- submeso_restrat -->
     <g transform="translate(45.6 249.669875)scale(0.12 -0.12)">
      <use xlink:href="#BitstreamVeraSans-Roman-73"/>
      <use x="52.099609375" xlink:href="#BitstreamVeraSans-Roman-75"/>
      <use x="115.478515625" xlink:href="#BitstreamVeraSans-Roman-62"/>
      <use x="178.955078125" xlink:href="#BitstreamVeraSans-Roman-6d"/>
      <use x="276.3671875" xlink:href="#BitstreamVeraSans-Roman-65"/>
      <use x="337.890625" xlink:href="#BitstreamVeraSans-Roman-73"/>
      <use x="389.990234375" xlink:href="#BitstreamVeraSans-Roman-6f"/>
      <use x="451.171875" xlink:href="#BitstreamVeraSans-Roman-5f"/>
      <use x="501.171875" xlink:href="#BitstreamVeraSans-Roman-72"/>
      <use x="542.25390625" xlink:href="#BitstreamVeraSans-Roman-65"/>
      <use x="603.77734375" xlink:href="#BitstreamVeraSans-Roman-73"/>
      <use x="655.876953125" xlink:href="#BitstreamVeraSans-Roman-74"/>
      <use x="695.0859375" xlink:href="#BitstreamVeraSans-Roman-72"/>
      <use x="736.19921875" xlink:href="#BitstreamVeraSans-Roman-61"/>
      <use x="797.478515625" xlink:href="#BitstreamVeraSans-Roman-74"/>
     </g>
    </g>
    <g id="patch_133">
     <path d="M 12 267.617375 
L 36 267.617375 
L 36 259.217375 
L 12 259.217375 
z
" style="fill:#377eb8;stroke:#000000;stroke-linejoin:miter;"/>
    </g>
    <g id="text_30">
     <!-- vert_mix_coeff -->
     <defs>
      <path d="M 54.890625 54.6875 
L 35.109375 28.078125 
L 55.90625 0 
L 45.3125 0 
L 29.390625 21.484375 
L 13.484375 0 
L 2.875 0 
L 24.125 28.609375 
L 4.6875 54.6875 
L 15.28125 54.6875 
L 29.78125 35.203125 
L 44.28125 54.6875 
z
" id="BitstreamVeraSans-Roman-78"/>
     </defs>
     <g transform="translate(45.6 267.617375)scale(0.12 -0.12)">
      <use xlink:href="#BitstreamVeraSans-Roman-76"/>
      <use x="59.1796875" xlink:href="#BitstreamVeraSans-Roman-65"/>
      <use x="120.703125" xlink:href="#BitstreamVeraSans-Roman-72"/>
      <use x="161.81640625" xlink:href="#BitstreamVeraSans-Roman-74"/>
      <use x="201.025390625" xlink:href="#BitstreamVeraSans-Roman-5f"/>
      <use x="251.025390625" xlink:href="#BitstreamVeraSans-Roman-6d"/>
      <use x="348.4375" xlink:href="#BitstreamVeraSans-Roman-69"/>
      <use x="376.220703125" xlink:href="#BitstreamVeraSans-Roman-78"/>
      <use x="435.400390625" xlink:href="#BitstreamVeraSans-Roman-5f"/>
      <use x="485.400390625" xlink:href="#BitstreamVeraSans-Roman-63"/>
      <use x="540.380859375" xlink:href="#BitstreamVeraSans-Roman-6f"/>
      <use x="601.5625" xlink:href="#BitstreamVeraSans-Roman-65"/>
      <use x="663.0859375" xlink:href="#BitstreamVeraSans-Roman-66"/>
      <use x="698.291015625" xlink:href="#BitstreamVeraSans-Roman-66"/>
     </g>
    </g>
    <g id="patch_134">
     <path d="M 12 285.564875 
L 36 285.564875 
L 36 277.164875 
L 12 277.164875 
z
" style="fill:#8d4c6a;stroke:#000000;stroke-linejoin:miter;"/>
    </g>
    <g id="text_31">
     <!-- ocean_explicit_accel_a -->
     <g transform="translate(45.6 285.564875)scale(0.12 -0.12)">
      <use xlink:href="#BitstreamVeraSans-Roman-6f"/>
      <use x="61.181640625" xlink:href="#BitstreamVeraSans-Roman-63"/>
      <use x="116.162109375" xlink:href="#BitstreamVeraSans-Roman-65"/>
      <use x="177.685546875" xlink:href="#BitstreamVeraSans-Roman-61"/>
      <use x="238.96484375" xlink:href="#BitstreamVeraSans-Roman-6e"/>
      <use x="302.34375" xlink:href="#BitstreamVeraSans-Roman-5f"/>
      <use x="352.34375" xlink:href="#BitstreamVeraSans-Roman-65"/>
      <use x="413.8515625" xlink:href="#BitstreamVeraSans-Roman-78"/>
      <use x="473.03125" xlink:href="#BitstreamVeraSans-Roman-70"/>
      <use x="536.5078125" xlink:href="#BitstreamVeraSans-Roman-6c"/>
      <use x="564.291015625" xlink:href="#BitstreamVeraSans-Roman-69"/>
      <use x="592.07421875" xlink:href="#BitstreamVeraSans-Roman-63"/>
      <use x="647.0546875" xlink:href="#BitstreamVeraSans-Roman-69"/>
      <use x="674.837890625" xlink:href="#BitstreamVeraSans-Roman-74"/>
      <use x="714.046875" xlink:href="#BitstreamVeraSans-Roman-5f"/>
      <use x="764.046875" xlink:href="#BitstreamVeraSans-Roman-61"/>
      <use x="825.326171875" xlink:href="#BitstreamVeraSans-Roman-63"/>
      <use x="880.306640625" xlink:href="#BitstreamVeraSans-Roman-63"/>
      <use x="935.287109375" xlink:href="#BitstreamVeraSans-Roman-65"/>
      <use x="996.810546875" xlink:href="#BitstreamVeraSans-Roman-6c"/>
      <use x="1024.59375" xlink:href="#BitstreamVeraSans-Roman-5f"/>
      <use x="1074.59375" xlink:href="#BitstreamVeraSans-Roman-61"/>
     </g>
    </g>
    <g id="patch_135">
     <path d="M 12 303.512375 
L 36 303.512375 
L 36 295.112375 
L 12 295.112375 
z
" style="fill:#e41a1c;stroke:#000000;stroke-linejoin:miter;"/>
    </g>
    <g id="text_32">
     <!-- update_ocean_tracer -->
     <g transform="translate(45.6 303.512375)scale(0.12 -0.12)">
      <use xlink:href="#BitstreamVeraSans-Roman-75"/>
      <use x="63.37890625" xlink:href="#BitstreamVeraSans-Roman-70"/>
      <use x="126.85546875" xlink:href="#BitstreamVeraSans-Roman-64"/>
      <use x="190.33203125" xlink:href="#BitstreamVeraSans-Roman-61"/>
      <use x="251.611328125" xlink:href="#BitstreamVeraSans-Roman-74"/>
      <use x="290.8203125" xlink:href="#BitstreamVeraSans-Roman-65"/>
      <use x="352.34375" xlink:href="#BitstreamVeraSans-Roman-5f"/>
      <use x="402.34375" xlink:href="#BitstreamVeraSans-Roman-6f"/>
      <use x="463.525390625" xlink:href="#BitstreamVeraSans-Roman-63"/>
      <use x="518.505859375" xlink:href="#BitstreamVeraSans-Roman-65"/>
      <use x="580.029296875" xlink:href="#BitstreamVeraSans-Roman-61"/>
      <use x="641.30859375" xlink:href="#BitstreamVeraSans-Roman-6e"/>
      <use x="704.6875" xlink:href="#BitstreamVeraSans-Roman-5f"/>
      <use x="754.6875" xlink:href="#BitstreamVeraSans-Roman-74"/>
      <use x="793.896484375" xlink:href="#BitstreamVeraSans-Roman-72"/>
      <use x="835.009765625" xlink:href="#BitstreamVeraSans-Roman-61"/>
      <use x="896.2890625" xlink:href="#BitstreamVeraSans-Roman-63"/>
      <use x="951.26953125" xlink:href="#BitstreamVeraSans-Roman-65"/>
      <use x="1012.79296875" xlink:href="#BitstreamVeraSans-Roman-72"/>
     </g>
    </g>
   </g>
  </g>
 </g>
 <defs>
  <clipPath id="p0ae3a610b7">
   <rect height="288.0" width="446.4" x="275.04" y="23.14175"/>
  </clipPath>
 </defs>
</svg>
